<?xml version="1.0" encoding="utf-8"?>
<!-- Generator: Adobe Illustrator 15.0.0, SVG Export Plug-In . SVG Version: 6.00 Build 0)  -->
<!DOCTYPE svg PUBLIC "-//W3C//DTD SVG 1.1//EN" "http://www.w3.org/Graphics/SVG/1.1/DTD/svg11.dtd">
<svg version="1.1" id="Layer_1" xmlns="http://www.w3.org/2000/svg" xmlns:xlink="http://www.w3.org/1999/xlink" x="0px" y="0px"
	 width="36px" height="47px" viewBox="0 0 36 47" enable-background="new 0 0 36 47" xml:space="preserve">
<g>
	<defs>
		<path id="SVGID_1_" d="M0.387,14.355c-0.348,1.733-0.385,3.456-0.156,5.171c0.221,1.874,0.736,3.656,1.502,5.298
			c0.064,0.15,0.124,0.299,0.19,0.448c2.661,5.952,6.513,11.111,10.677,16.06c1.569,1.864,3.229,3.652,4.849,5.475h0.178
			c1.075-1.203,2.157-2.399,3.226-3.607c4.105-4.649,7.912-9.516,10.863-14.996c0.455-0.847,0.889-1.701,1.283-2.569
			c1.295-2.438,2.03-5.219,2.03-8.172C35.029,7.818,27.211,0,17.567,0C8.985,0,1.854,6.194,0.387,14.355"/>
	</defs>
	<clipPath id="SVGID_2_">
		<use xlink:href="#SVGID_1_"  overflow="visible"/>
	</clipPath>
	
		<linearGradient id="SVGID_3_" gradientUnits="userSpaceOnUse" x1="-1885.4531" y1="171.7031" x2="-1884.8433" y2="171.7031" gradientTransform="matrix(57.3019 0 0 -57.3019 108040.1406 9862.3389)">
		<stop  offset="0" style="stop-color:#CA3927"/>
		<stop  offset="1" style="stop-color:#9A4722"/>
	</linearGradient>
	<rect x="0.002" clip-path="url(#SVGID_2_)" fill="url(#SVGID_3_)" width="35.026" height="46.807"/>
</g>
<path fill="#FFFFFF" d="M17.478,6.074c6.419-0.07,11.651,5.097,11.723,11.577c0.071,6.336-5.166,11.679-11.509,11.743
	C11.28,29.458,5.928,24.24,5.871,17.865C5.811,11.371,10.956,6.145,17.478,6.074"/>
<path fill="#CA3927" d="M12.43,28.187l3.026-9.119h-2.102l2.576-9.356h9.458l-5.319,7.122h2.538L12.43,28.187z M14.155,18.458h2.146
	l-2.37,7.138l7.31-8.154h-2.389l5.319-7.122h-7.776L14.155,18.458z"/>
</svg>
