<?xml version="1.0" encoding="utf-8"?>
<!-- Generator: Adobe Illustrator 15.0.0, SVG Export Plug-In . SVG Version: 6.00 Build 0)  -->
<!DOCTYPE svg PUBLIC "-//W3C//DTD SVG 1.1//EN" "http://www.w3.org/Graphics/SVG/1.1/DTD/svg11.dtd">
<svg version="1.1" id="Layer_1" xmlns="http://www.w3.org/2000/svg" xmlns:xlink="http://www.w3.org/1999/xlink" x="0px" y="0px"
	 width="36px" height="47px" viewBox="0 0 36 47" enable-background="new 0 0 36 47" xml:space="preserve">
<g>
	<defs>
		<path id="SVGID_1_" d="M0.384,14.562C0.036,16.288,0,18.004,0.228,19.712c0.221,1.866,0.734,3.641,1.497,5.278
			c0.064,0.148,0.124,0.297,0.19,0.444C4.565,31.363,8.4,36.502,12.548,41.431c1.563,1.856,3.217,3.638,4.83,5.452h0.176
			c1.071-1.197,2.149-2.389,3.214-3.594c4.088-4.63,7.879-9.477,10.818-14.936c0.455-0.843,0.885-1.693,1.279-2.559
			c1.289-2.428,2.021-5.197,2.021-8.138c0-9.605-7.787-17.392-17.393-17.392C8.947,0.265,1.844,6.434,0.384,14.562"/>
	</defs>
	<clipPath id="SVGID_2_">
		<use xlink:href="#SVGID_1_"  overflow="visible"/>
	</clipPath>
	
		<linearGradient id="SVGID_3_" gradientUnits="userSpaceOnUse" x1="-1881.6563" y1="171.7012" x2="-1881.0488" y2="171.7012" gradientTransform="matrix(57.3019 0 0 -57.3019 107822.6094 9862.3389)">
		<stop  offset="0" style="stop-color:#CA3927"/>
		<stop  offset="1" style="stop-color:#9A4722"/>
	</linearGradient>
	<rect y="0.265" clip-path="url(#SVGID_2_)" fill="url(#SVGID_3_)" width="34.887" height="46.618"/>
</g>
<path fill="#FFFFFF" d="M17.405,6.314c6.394-0.07,11.604,5.076,11.677,11.53c0.07,6.311-5.146,11.632-11.462,11.696
	c-6.388,0.063-11.718-5.133-11.775-11.482C5.785,11.589,10.909,6.385,17.405,6.314"/>
<path fill="#CA3927" d="M17.486,26.262L17.486,26.262c-3.727-0.001-6.758-3.033-6.758-6.759c-0.006-0.103-0.144-2.979,2.519-6.101
	l0.359-0.421l0.355,1.159c0.658-0.629,2.155-2.314,3.237-5.433l0.151-0.435l0.34,0.309c0.152,0.138,3.42,3.139,4.016,6.768
	c0.066-0.175,0.119-0.357,0.139-0.525l0.072-0.669l0.453,0.499c0.076,0.084,1.875,2.102,1.875,4.85
	C24.244,23.229,21.213,26.262,17.486,26.262 M13.355,14.233c-2.129,2.755-2.021,5.227-2.02,5.252c0,3.409,2.76,6.168,6.151,6.168
	c3.391,0,6.15-2.759,6.15-6.15c0-1.773-0.85-3.248-1.354-3.969c-0.205,0.556-0.518,1.035-0.535,1.062l-0.553,0.837l-0.006-1.002
	c-0.016-3.16-2.639-6.119-3.578-7.077c-1.479,3.952-3.532,5.503-3.623,5.568l-0.345,0.255L13.355,14.233z"/>
</svg>
