<?xml version="1.0" encoding="utf-8"?>
<!-- Generator: Adobe Illustrator 15.0.0, SVG Export Plug-In . SVG Version: 6.00 Build 0)  -->
<!DOCTYPE svg PUBLIC "-//W3C//DTD SVG 1.1//EN" "http://www.w3.org/Graphics/SVG/1.1/DTD/svg11.dtd">
<svg version="1.1" id="Layer_1" xmlns="http://www.w3.org/2000/svg" xmlns:xlink="http://www.w3.org/1999/xlink" x="0px" y="0px"
	 width="36px" height="47px" viewBox="0 0 36 47" enable-background="new 0 0 36 47" xml:space="preserve">
<path fill="none" d="M-1920.25,52.5"/>
<path fill="none" d="M1879.75,52.5"/>
<path fill="none" d="M-1920.25,52.5"/>
<path fill="none" d="M1879.75,52.5"/>
<path fill="none" d="M-1920.25,52.5"/>
<path fill="none" d="M1879.75,52.5"/>
<path fill="none" d="M-1920.25,52.5"/>
<path fill="none" d="M1879.75,52.5"/>
<path fill="none" d="M-1920.25,52.5"/>
<path fill="none" d="M1879.75,52.5"/>
<path fill="none" d="M-1920.25,52.5"/>
<path fill="none" d="M1879.75,52.5"/>
<path fill="none" d="M-1920.25,52.5"/>
<path fill="none" d="M1879.75,52.5"/>
<path fill="none" d="M-1920.25,52.5"/>
<path fill="none" d="M1879.75,52.5"/>
<path fill="#276A9F" d="M1519.702-21.404c-14.075,0-25.769,10.158-28.174,23.541c-0.572,2.842-0.631,5.668-0.256,8.479
	c0.362,3.072,1.208,5.995,2.464,8.69c0.104,0.244,0.203,0.488,0.313,0.732c4.364,9.763,10.68,18.223,17.509,26.336
	c2.573,3.059,5.296,5.99,7.95,8.979h0.291c1.765-1.972,3.539-3.936,5.291-5.918c6.731-7.624,12.974-15.604,17.814-24.591
	c0.746-1.388,1.456-2.789,2.105-4.213c2.121-4,3.327-8.559,3.327-13.401C1548.337-8.584,1535.518-21.404,1519.702-21.404"/>
<path fill="#FFFFFF" d="M1519.556-11.443c10.525-0.113,19.106,8.357,19.225,18.984c0.116,10.39-8.472,19.152-18.873,19.257
	c-10.518,0.105-19.292-8.451-19.388-18.905C1500.422-2.758,1508.859-11.327,1519.556-11.443"/>
<polygon fill="#94d60a" points="1530.041,-5.796 1515.91,-5.796 1511.961,8.549 1515.445,8.549 1511.021,21.879 1525.357,5.883 
	1521.32,5.883 "/>
<path fill="#94d60a" d="M17.536,0C8.927,0,1.773,6.214,0.302,14.4c-0.35,1.739-0.386,3.467-0.157,5.187
	c0.222,1.879,0.739,3.667,1.507,5.316c0.064,0.149,0.125,0.299,0.191,0.447c2.669,5.973,6.533,11.147,10.71,16.11
	c1.574,1.871,3.24,3.664,4.864,5.493h0.178c1.079-1.207,2.165-2.408,3.235-3.62c4.117-4.664,7.937-9.545,10.896-15.043
	c0.457-0.849,0.892-1.706,1.288-2.577c1.299-2.446,2.036-5.235,2.036-8.197C35.052,7.842,27.21,0,17.536,0"/>
<path fill="#FFFFFF" d="M17.446,6.093c6.438-0.071,11.688,5.112,11.76,11.613c0.071,6.355-5.183,11.716-11.545,11.779
	C11.228,29.55,5.86,24.315,5.802,17.921C5.743,11.406,10.903,6.164,17.446,6.093"/>
<path fill="#97C93D" d="M24.149,19.538c0,3.583-2.917,6.5-6.501,6.5c-3.584,0-6.5-2.917-6.5-6.5c0,0-0.169-2.86,2.463-5.947
	l1.063,1.086c0,0,1.492-1.64,2.974-5.914c0,0,3.657,3.641,3.678,7.678c0,0,0.935-0.871,1.014-1.583
	C22.34,14.858,24.149,16.855,24.149,19.538"/>
</svg>
