<?xml version="1.0" encoding="utf-8"?>
<!-- Generator: Adobe Illustrator 15.0.0, SVG Export Plug-In . SVG Version: 6.00 Build 0)  -->
<!DOCTYPE svg PUBLIC "-//W3C//DTD SVG 1.1//EN" "http://www.w3.org/Graphics/SVG/1.1/DTD/svg11.dtd">
<svg version="1.1" id="Layer_1" xmlns="http://www.w3.org/2000/svg" xmlns:xlink="http://www.w3.org/1999/xlink" x="0px" y="0px"
	 width="36px" height="47px" viewBox="0 0 36 47" enable-background="new 0 0 36 47" xml:space="preserve">
<g>
	<defs>
		<path id="SVGID_1_" d="M0.44,14.401c-0.35,1.739-0.386,3.467-0.156,5.188c0.221,1.88,0.739,3.667,1.507,5.315
			c0.063,0.15,0.124,0.3,0.191,0.449c2.67,5.972,6.533,11.146,10.711,16.111c1.574,1.869,3.24,3.663,4.864,5.492h0.178
			c1.079-1.206,2.164-2.407,3.236-3.62c4.118-4.663,7.937-9.545,10.898-15.043c0.455-0.849,0.891-1.707,1.287-2.578
			c1.299-2.445,2.036-5.234,2.036-8.197C35.192,7.843,27.35,0,17.675,0C9.065,0,1.91,6.214,0.44,14.401"/>
	</defs>
	<clipPath id="SVGID_2_">
		<use xlink:href="#SVGID_1_"  overflow="visible"/>
	</clipPath>
	
		<linearGradient id="SVGID_3_" gradientUnits="userSpaceOnUse" x1="-1883.5498" y1="171.7031" x2="-1882.938" y2="171.7031" gradientTransform="matrix(57.3019 0 0 -57.3019 107931.1406 9862.3389)">
		<stop  offset="0" style="stop-color:#CA3927"/>
		<stop  offset="1" style="stop-color:#9A4722"/>
	</linearGradient>
	<rect x="0.054" clip-path="url(#SVGID_2_)" fill="url(#SVGID_3_)" width="35.138" height="46.956"/>
</g>
<path fill="#FFFFFF" d="M17.585,6.093c6.439-0.069,11.688,5.113,11.76,11.614c0.07,6.355-5.183,11.716-11.545,11.78
	c-6.434,0.063-11.801-5.171-11.86-11.565C5.881,11.407,11.042,6.165,17.585,6.093"/>
<path fill="#CA3927" d="M17.988,26.621L17.988,26.621c-0.229,0-0.462-0.013-0.696-0.038c-2.773-0.301-5.083-2.519-5.491-5.276
	c-0.204-1.372,0.034-2.733,0.691-3.938l0.03-0.06c0.138-0.233,0.257-0.42,0.387-0.598l5.08-7.885l5.104,7.916
	c0.105,0.146,0.21,0.305,0.305,0.474l0.081,0.145c0.497,0.878,0.773,1.934,0.773,2.999c0,1.673-0.651,3.245-1.837,4.428
	C21.233,25.969,19.659,26.621,17.988,26.621 M17.988,9.955l-4.576,7.102c-0.127,0.176-0.236,0.345-0.336,0.518
	c-0.634,1.147-0.857,2.39-0.671,3.643c0.369,2.486,2.451,4.488,4.953,4.756c0.212,0.023,0.422,0.035,0.629,0.035h0.001
	c1.509,0,2.929-0.587,3.995-1.654c1.068-1.066,1.656-2.486,1.656-3.995c0-0.96-0.249-1.913-0.72-2.755l-0.042-0.068
	c-0.097-0.168-0.19-0.311-0.29-0.45L17.988,9.955z"/>
</svg>
