<?xml version="1.0" encoding="utf-8"?>
<!-- Generator: Adobe Illustrator 15.0.0, SVG Export Plug-In . SVG Version: 6.00 Build 0)  -->
<!DOCTYPE svg PUBLIC "-//W3C//DTD SVG 1.1//EN" "http://www.w3.org/Graphics/SVG/1.1/DTD/svg11.dtd">
<svg version="1.1" id="Layer_1" xmlns="http://www.w3.org/2000/svg" xmlns:xlink="http://www.w3.org/1999/xlink" x="0px" y="0px"
	 width="40px" height="40px" viewBox="0 0 40 40" enable-background="new 0 0 40 40" xml:space="preserve">
<path fill="#046799" d="M34.738,19.814c0.033-0.399,0.053-0.803,0.053-1.207c0-8.177-6.652-14.83-14.83-14.83v2.234
	c6.946,0,12.597,5.65,12.597,12.596c0,0.242-0.011,0.482-0.025,0.724l-1.195-0.26l1.728,2.711l2.707-1.74L34.738,19.814z"/>
<path fill="#046799" d="M13.778,29.587c-3.353-1.883-5.754-5.256-6.289-9.307l1.1-0.076l-2.417-2.116L4.06,20.516l1.198-0.082
	c0.645,5.268,3.96,9.59,8.521,11.668V29.587z"/>
<polygon fill="#046799" points="19.827,11.291 17.518,10.003 17.275,4.938 16.33,4.938 16.126,9.228 13.779,7.92 13.779,11.291 
	11.469,10.003 11.227,4.938 10.282,4.938 10.077,9.228 7.729,7.92 7.729,17.596 19.827,17.596 "/>
<polygon fill="#046799" points="29.709,18.543 28.332,18.543 27.979,25.93 24.61,27.806 24.61,22.892 21.188,24.799 20.889,18.543 
	19.512,18.543 19.158,25.93 15.79,27.806 15.79,37 33.431,37 33.431,22.892 30.009,24.799 "/>
</svg>
