<?xml version="1.0" encoding="utf-8"?>
<!-- Generator: Adobe Illustrator 15.0.0, SVG Export Plug-In . SVG Version: 6.00 Build 0)  -->
<!DOCTYPE svg PUBLIC "-//W3C//DTD SVG 1.1//EN" "http://www.w3.org/Graphics/SVG/1.1/DTD/svg11.dtd">
<svg version="1.1" id="Layer_1" xmlns="http://www.w3.org/2000/svg" xmlns:xlink="http://www.w3.org/1999/xlink" x="0px" y="0px"
	 width="23px" height="20px" viewBox="0 0 23 20" enable-background="new 0 0 23 20" xml:space="preserve">
<path fill="#046799" d="M11.921,20.01c-5.371,0-11.079-1.176-11.079-3.354c0-2.181,5.708-3.356,11.079-3.356S23,14.475,23,16.655
	C23,18.834,17.292,20.01,11.921,20.01 M11.921,14.045c-6.402,0-10.333,1.52-10.333,2.61c0,1.089,3.931,2.608,10.333,2.608
	c6.402,0,10.333-1.52,10.333-2.608C22.254,15.564,18.323,14.045,11.921,14.045"/>
<path fill-rule="evenodd" clip-rule="evenodd" fill="#046799" d="M17.345,4.794c-0.415-3.123-3.229-5.222-6.322-4.72
	C7.387,0.667,5.381,4.652,7.039,7.934c1.367,2.704,2.694,5.428,4.038,8.142c0.274,0.549,0.545,1.096,0.843,1.695
	c0.236-0.475,0.441-0.893,0.648-1.311c1.411-2.848,2.823-5.695,4.235-8.541C17.293,6.93,17.491,5.891,17.345,4.794 M11.895,7.078
	c-1.25-0.005-2.262-1.03-2.254-2.282c0.007-1.302,1.021-2.301,2.321-2.293C13.2,2.511,14.214,3.546,14.206,4.8
	C14.2,6.079,13.18,7.085,11.895,7.078"/>
</svg>
