<?xml version="1.0" encoding="utf-8"?>
<!-- Generator: Adobe Illustrator 15.0.0, SVG Export Plug-In . SVG Version: 6.00 Build 0)  -->
<!DOCTYPE svg PUBLIC "-//W3C//DTD SVG 1.1//EN" "http://www.w3.org/Graphics/SVG/1.1/DTD/svg11.dtd">
<svg version="1.1" id="Layer_1" xmlns="http://www.w3.org/2000/svg" xmlns:xlink="http://www.w3.org/1999/xlink" x="0px" y="0px"
	 width="36px" height="47px" viewBox="0 0 36 47" enable-background="new 0 0 36 47" xml:space="preserve">
<path fill="#285092" d="M17.15,1.079c-8.421,0-15.417,6.077-16.856,14.083c-0.342,1.7-0.377,3.391-0.153,5.073
	c0.216,1.838,0.723,3.586,1.474,5.199c0.063,0.146,0.122,0.293,0.187,0.438c2.612,5.84,6.39,10.901,10.475,15.756
	c1.54,1.829,3.168,3.584,4.758,5.371h0.174c1.057-1.179,2.117-2.354,3.164-3.54c4.027-4.563,7.762-9.335,10.658-14.711
	c0.445-0.831,0.871-1.67,1.26-2.521c1.271-2.392,1.99-5.12,1.99-8.017C34.281,8.748,26.611,1.079,17.15,1.079"/>
<path fill="#FFFFFF" d="M17.063,7.038c6.297-0.068,11.43,5,11.5,11.357c0.068,6.216-5.066,11.459-11.291,11.521
	C10.98,29.979,5.73,24.86,5.673,18.606C5.617,12.234,10.664,7.107,17.063,7.038"/>
<path fill="#068fd1" d="M22.621,20.595V10.547c0-0.802-0.648-1.452-1.449-1.452H20.92c-0.801,0-1.449,0.65-1.449,1.452v10.625h1.666
	v6.255c0,0.377,0.307,0.685,0.686,0.685h0.117c0.379,0,0.684-0.308,0.684-0.685v-6.832H22.621z"/>
<path fill="#068fd1" d="M16.535,9.096V14.7h-0.752V9.096h-0.847V14.7h-0.752V9.096h-0.846V14.7h-0.752V9.096h-1.107v6.576
	c0,0.802,0.65,1.452,1.452,1.452h0.887v10.303c0,0.379,0.306,0.686,0.685,0.686h0.118c0.378,0,0.684-0.307,0.684-0.686V17.124h0.886
	c0.801,0,1.454-0.65,1.454-1.452V9.096H16.535z"/>
</svg>
