<?xml version="1.0" encoding="utf-8"?>
<!-- Generator: Adobe Illustrator 15.0.0, SVG Export Plug-In . SVG Version: 6.00 Build 0)  -->
<!DOCTYPE svg PUBLIC "-//W3C//DTD SVG 1.1//EN" "http://www.w3.org/Graphics/SVG/1.1/DTD/svg11.dtd">
<svg version="1.1" id="Layer_1" xmlns="http://www.w3.org/2000/svg" xmlns:xlink="http://www.w3.org/1999/xlink" x="0px" y="0px"
	 width="23px" height="21px" viewBox="0 0 23 21" enable-background="new 0 0 23 21" xml:space="preserve">
<path fill="#0090B5" d="M20.438,5.779H2.691v12.877h17.747V5.779z M19.743,17.96H3.387V6.475h16.356V17.96z"/>
<rect x="4.846" y="7.876" fill="#0090B5" width="3.398" height="1.982"/>
<rect x="4.846" y="11.246" fill="#0090B5" width="3.398" height="1.983"/>
<rect x="4.846" y="14.576" fill="#0090B5" width="3.398" height="1.982"/>
<rect x="9.927" y="7.876" fill="#0090B5" width="3.398" height="1.982"/>
<rect x="9.927" y="11.246" fill="#0090B5" width="3.398" height="1.983"/>
<rect x="9.927" y="14.576" fill="#0090B5" width="3.398" height="1.982"/>
<rect x="14.886" y="7.876" fill="#0090B5" width="3.397" height="1.982"/>
<rect x="14.886" y="11.246" fill="#0090B5" width="3.397" height="1.983"/>
<rect x="14.886" y="14.576" fill="#0090B5" width="3.397" height="1.982"/>
<path fill="#0090B5" d="M0.505,20.468h22.12V0.348H0.505V20.468z M21.93,19.772H1.2V1.043H21.93V19.772z"/>
</svg>
