<?xml version="1.0" encoding="utf-8"?>
<!-- Generator: Adobe Illustrator 15.0.0, SVG Export Plug-In . SVG Version: 6.00 Build 0)  -->
<!DOCTYPE svg PUBLIC "-//W3C//DTD SVG 1.1//EN" "http://www.w3.org/Graphics/SVG/1.1/DTD/svg11.dtd">
<svg version="1.1" id="Layer_1" xmlns="http://www.w3.org/2000/svg" xmlns:xlink="http://www.w3.org/1999/xlink" x="0px" y="0px"
	 width="40px" height="40px" viewBox="0 0 40 40" enable-background="new 0 0 40 40" xml:space="preserve">
<polygon fill="#13689b" points="27.497,13.198 19.787,19.926 20.606,20.746 "/>
<path fill="#13689b" d="M20.439,34.483L20.439,34.483C12.268,34.482,5.62,28.037,5.62,20.115S12.268,5.747,20.439,5.747
	c8.172,0,14.821,6.445,14.821,14.368S28.611,34.483,20.439,34.483 M20.439,7.437c-7.24,0-13.129,5.688-13.129,12.678
	c0,6.991,5.89,12.678,13.129,12.679c7.241,0,13.13-5.688,13.13-12.679C33.569,13.125,27.68,7.437,20.439,7.437"/>
<path fill="#13689b" d="M21.646,20.067c0,0.641-0.519,1.16-1.159,1.16s-1.16-0.519-1.16-1.16c0-0.64,0.52-1.16,1.16-1.16
	S21.646,19.427,21.646,20.067"/>
<text transform="matrix(1 0 0 1 12.877 28.4795)"><tspan x="0" y="0" fill="#13689b" font-family="'Arial'" font-size="8.0229">k</tspan><tspan x="4.083" y="0" fill="#13689b" font-family="'Arial'" font-size="8.0229">W</tspan><tspan x="11.007" y="0" fill="#13689b" font-family="'Arial'" font-size="8.0229">h</tspan></text>
<path fill="#13689b" d="M20.892,10.053v4.184c1.33,0.088,2.547,0.591,3.523,1.383l2.961-2.962
	C25.632,11.118,23.372,10.151,20.892,10.053"/>
<path fill="#13689b" d="M13.561,12.666l2.962,2.962c0.977-0.796,2.198-1.302,3.533-1.39v-4.184
	C17.57,10.151,15.306,11.121,13.561,12.666"/>
<path fill="#13689b" d="M25.027,16.19c1.042,1.103,1.689,2.583,1.713,4.212h4.18c-0.023-2.781-1.141-5.304-2.939-7.166L25.027,16.19
	z"/>
<path fill="#13689b" d="M12.958,13.246c-1.793,1.86-2.907,4.379-2.931,7.156h4.18c0.023-1.624,0.667-3.101,1.704-4.202
	L12.958,13.246z"/>
</svg>
