<?xml version="1.0" encoding="utf-8"?>
<!-- Generator: Adobe Illustrator 15.0.0, SVG Export Plug-In . SVG Version: 6.00 Build 0)  -->
<!DOCTYPE svg PUBLIC "-//W3C//DTD SVG 1.1//EN" "http://www.w3.org/Graphics/SVG/1.1/DTD/svg11.dtd">
<svg version="1.1" id="Layer_1" xmlns="http://www.w3.org/2000/svg" xmlns:xlink="http://www.w3.org/1999/xlink" x="0px" y="0px"
	 width="32px" height="32px" viewBox="0 0 32 32" enable-background="new 0 0 32 32" xml:space="preserve">
<path fill="#828282" d="M27.377,16.53v0.346c-0.16,0.39-0.448,0.55-0.868,0.521c-0.315-0.021-0.633-0.004-0.95-0.004h-0.794
	c0.054,0.104,0.086,0.174,0.123,0.24c0.331,0.598,0.66,1.194,0.995,1.789c0.104,0.186,0.148,0.376,0.086,0.579
	c-0.085,0.28-0.277,0.456-0.566,0.495c-0.317,0.043-0.561-0.09-0.718-0.37c-0.472-0.847-0.946-1.693-1.409-2.545
	c-0.08-0.148-0.17-0.196-0.334-0.192c-0.482,0.012-0.965,0.004-1.447,0.005c-0.06,0-0.119,0.007-0.223,0.015
	c0.135,0.098,0.232,0.169,0.33,0.238c0.1,0.071,0.201,0.14,0.297,0.215c0.287,0.222,0.377,0.558,0.234,0.862
	c-0.189,0.403-0.673,0.523-1.059,0.251C20.38,18.487,19.693,17.989,19,17.5c-0.072-0.051-0.164-0.097-0.25-0.101
	c-0.236-0.015-0.475-0.013-0.713,0c-0.063,0.002-0.135,0.055-0.18,0.104c-0.136,0.144-0.14,0.291-0.014,0.454
	c0.092,0.118,0.165,0.254,0.229,0.39c0.072,0.153,0.188,0.238,0.34,0.306c0.742,0.33,1.479,0.668,2.216,1.006
	c0.423,0.193,0.582,0.57,0.409,0.949c-0.17,0.373-0.565,0.502-0.983,0.316c-0.2-0.089-0.397-0.181-0.599-0.271
	c0.242,0.5,0.516,0.961,0.773,1.431c0.079,0.146,0.164,0.201,0.334,0.196c0.979-0.023,1.956-0.036,2.936-0.047
	c0.402-0.004,0.701,0.302,0.699,0.692c-0.002,0.381-0.295,0.679-0.686,0.687c-0.719,0.016-1.439,0.027-2.158,0.041
	c-0.06,0.002-0.121,0.008-0.199,0.013c0.045,0.085,0.078,0.147,0.113,0.209c0.266,0.461,0.532,0.92,0.797,1.382
	c0.229,0.4,0.144,0.809-0.209,1.014c-0.363,0.213-0.759,0.084-0.998-0.328c-0.199-0.341-0.396-0.684-0.594-1.025
	c-0.104-0.18-0.207-0.358-0.322-0.559c-0.056,0.086-0.095,0.144-0.129,0.203c-0.342,0.566-0.682,1.135-1.021,1.7
	c-0.026,0.043-0.051,0.088-0.078,0.13c-0.219,0.33-0.614,0.43-0.943,0.237c-0.334-0.194-0.445-0.608-0.24-0.956
	c0.447-0.762,0.888-1.53,1.369-2.271c0.201-0.312,0.229-0.545,0.01-0.855c-0.262-0.372-0.465-0.784-0.717-1.216
	c-0.035,0.313-0.057,0.577-0.099,0.837c-0.06,0.37-0.407,0.624-0.763,0.575c-0.365-0.052-0.641-0.376-0.609-0.744
	c0.055-0.63,0.096-1.263,0.191-1.888c0.084-0.554,0.068-1.059-0.295-1.523c-0.17-0.217-0.447-0.235-0.588,0.007
	c-0.076,0.13-0.14,0.271-0.229,0.39c-0.138,0.184-0.144,0.381-0.121,0.594c0.084,0.8,0.165,1.601,0.242,2.402
	c0.036,0.377-0.24,0.713-0.612,0.763c-0.357,0.048-0.699-0.205-0.76-0.577c-0.042-0.26-0.063-0.523-0.098-0.836
	c-0.291,0.504-0.553,0.972-0.832,1.429c-0.094,0.154-0.1,0.265-0.002,0.423c0.502,0.814,0.99,1.635,1.479,2.457
	c0.217,0.363,0.124,0.778-0.208,0.984c-0.341,0.211-0.756,0.101-0.981-0.271c-0.354-0.583-0.703-1.171-1.055-1.756
	c-0.043-0.07-0.089-0.14-0.146-0.229c-0.053,0.087-0.098,0.151-0.135,0.219c-0.267,0.46-0.529,0.923-0.797,1.382
	c-0.229,0.395-0.632,0.514-0.99,0.303c-0.346-0.205-0.435-0.605-0.213-0.996c0.271-0.474,0.545-0.945,0.817-1.42
	c0.034-0.058,0.062-0.119,0.122-0.24c-0.807,0-1.563,0.002-2.318,0c-0.084,0-0.174-0.006-0.254-0.029
	c-0.34-0.102-0.533-0.416-0.482-0.768c0.05-0.344,0.328-0.586,0.691-0.582c0.992,0.011,1.985,0.026,2.979,0.045
	c0.119,0.002,0.193-0.027,0.257-0.14c0.252-0.452,0.515-0.896,0.772-1.346c0.021-0.036,0.03-0.08,0.057-0.15
	c-0.251,0.112-0.467,0.208-0.682,0.307c-0.203,0.093-0.403,0.094-0.603-0.007c-0.255-0.131-0.39-0.347-0.387-0.625
	c0.002-0.289,0.147-0.508,0.415-0.631c0.775-0.355,1.555-0.707,2.33-1.064c0.076-0.034,0.16-0.081,0.201-0.146
	c0.138-0.21,0.262-0.43,0.379-0.652c0.025-0.051,0.017-0.133-0.004-0.19c-0.063-0.18-0.179-0.271-0.388-0.243
	c-0.163,0.021-0.332-0.011-0.495,0.01c-0.121,0.014-0.254,0.049-0.352,0.116c-0.684,0.477-1.362,0.964-2.04,1.449
	c-0.199,0.144-0.412,0.201-0.649,0.128c-0.264-0.082-0.431-0.266-0.479-0.533c-0.05-0.274,0.04-0.513,0.268-0.685
	c0.201-0.151,0.407-0.296,0.661-0.481c-0.615,0-1.162,0.006-1.707-0.004c-0.148-0.002-0.229,0.042-0.301,0.174
	c-0.458,0.838-0.924,1.674-1.389,2.508c-0.232,0.414-0.629,0.551-0.994,0.345c-0.354-0.201-0.446-0.607-0.223-1.011
	c0.328-0.598,0.661-1.193,0.991-1.79c0.036-0.065,0.063-0.136,0.104-0.222c-0.6,0-1.168-0.017-1.735,0.006
	c-0.42,0.017-0.709-0.133-0.868-0.523V16.53c0.159-0.391,0.448-0.549,0.868-0.521c0.33,0.021,0.662,0.005,0.993,0.005h0.751
	c-0.054-0.104-0.086-0.173-0.123-0.239c-0.331-0.598-0.661-1.195-0.995-1.791c-0.104-0.185-0.148-0.375-0.087-0.578
	c0.085-0.28,0.278-0.455,0.567-0.495c0.317-0.043,0.562,0.09,0.718,0.37c0.472,0.848,0.946,1.693,1.409,2.546
	c0.08,0.147,0.17,0.196,0.334,0.191c0.482-0.012,0.965-0.004,1.447-0.005c0.06,0,0.119-0.008,0.223-0.015
	c-0.24-0.173-0.448-0.313-0.645-0.468c-0.359-0.284-0.379-0.771-0.048-1.07c0.248-0.225,0.59-0.241,0.892-0.028
	c0.692,0.49,1.381,0.987,2.073,1.477c0.072,0.051,0.164,0.096,0.25,0.101c0.236,0.014,0.476,0.012,0.712,0
	c0.063-0.004,0.135-0.057,0.182-0.107c0.136-0.144,0.135-0.291,0.01-0.453c-0.087-0.113-0.156-0.243-0.217-0.372
	c-0.078-0.167-0.204-0.259-0.37-0.332c-0.748-0.332-1.492-0.675-2.235-1.019c-0.328-0.15-0.49-0.457-0.423-0.766
	c0.101-0.46,0.537-0.686,0.979-0.502c0.221,0.093,0.438,0.195,0.656,0.294c-0.244-0.506-0.522-0.974-0.785-1.45
	c-0.072-0.132-0.153-0.178-0.303-0.175c-0.984,0.022-1.971,0.037-2.957,0.047c-0.4,0.003-0.699-0.305-0.697-0.694
	c0.002-0.382,0.295-0.676,0.687-0.685c0.72-0.015,1.44-0.027,2.159-0.042c0.06-0.001,0.119-0.008,0.201-0.014
	c-0.317-0.553-0.623-1.08-0.924-1.609c-0.22-0.386-0.127-0.792,0.221-0.995c0.352-0.205,0.748-0.088,0.975,0.293
	c0.176,0.297,0.346,0.597,0.518,0.896c0.137,0.233,0.273,0.468,0.422,0.723c0.054-0.085,0.093-0.144,0.129-0.203
	c0.359-0.598,0.715-1.196,1.076-1.793c0.193-0.317,0.51-0.44,0.828-0.333c0.438,0.147,0.611,0.621,0.366,1.038
	c-0.375,0.638-0.761,1.271-1.14,1.905c-0.15,0.253-0.416,0.508-0.416,0.762c0.001,0.263,0.256,0.528,0.404,0.79
	c0.156,0.277,0.318,0.552,0.5,0.865c0.037-0.315,0.056-0.58,0.099-0.843c0.06-0.361,0.392-0.609,0.745-0.571
	c0.371,0.04,0.66,0.373,0.626,0.75c-0.058,0.644-0.108,1.29-0.198,1.93c-0.072,0.522-0.061,1,0.283,1.443
	c0.201,0.26,0.455,0.284,0.62,0.002c0.075-0.13,0.138-0.271,0.229-0.39c0.125-0.164,0.131-0.342,0.111-0.531
	c-0.083-0.801-0.162-1.603-0.244-2.403c-0.04-0.396,0.213-0.739,0.594-0.799c0.371-0.06,0.719,0.203,0.781,0.602
	c0.039,0.249,0.059,0.501,0.094,0.81c0.297-0.512,0.555-0.977,0.83-1.428c0.096-0.154,0.102-0.265,0.004-0.424
	c-0.506-0.82-0.998-1.646-1.49-2.476c-0.207-0.353-0.108-0.763,0.218-0.964c0.337-0.209,0.752-0.107,0.971,0.25
	c0.32,0.521,0.63,1.047,0.945,1.57c0.083,0.14,0.167,0.278,0.264,0.439c0.058-0.09,0.101-0.155,0.14-0.222
	c0.266-0.462,0.529-0.923,0.797-1.382c0.229-0.396,0.63-0.517,0.988-0.307c0.346,0.204,0.436,0.609,0.215,0.996
	c-0.267,0.469-0.537,0.934-0.807,1.401c-0.038,0.065-0.072,0.133-0.143,0.261c0.822,0,1.584,0,2.347,0.002
	c0.078,0,0.159,0.005,0.233,0.025c0.338,0.101,0.533,0.416,0.484,0.768c-0.049,0.343-0.328,0.589-0.689,0.585
	c-0.993-0.011-1.986-0.03-2.979-0.041c-0.071,0-0.179,0.017-0.206,0.063c-0.302,0.503-0.591,1.014-0.883,1.521
	c0.246-0.064,0.467-0.162,0.686-0.262c0.219-0.102,0.434-0.091,0.64,0.029c0.231,0.134,0.353,0.345,0.347,0.605
	c-0.005,0.289-0.148,0.507-0.416,0.63c-0.777,0.356-1.556,0.707-2.332,1.065c-0.078,0.037-0.164,0.094-0.211,0.165
	c-0.13,0.198-0.244,0.407-0.357,0.614c-0.027,0.051-0.047,0.129-0.027,0.174c0.076,0.174,0.169,0.324,0.412,0.279
	c0.139-0.026,0.288-0.014,0.431-0.003c0.173,0.013,0.314-0.036,0.456-0.141c0.662-0.484,1.334-0.954,1.999-1.435
	c0.2-0.144,0.414-0.198,0.649-0.127c0.264,0.081,0.43,0.267,0.479,0.533c0.052,0.277-0.043,0.514-0.27,0.686
	c-0.2,0.152-0.406,0.297-0.659,0.481c0.615,0,1.162-0.006,1.708,0.003c0.147,0.003,0.229-0.042,0.3-0.173
	c0.458-0.839,0.926-1.674,1.391-2.508c0.23-0.415,0.627-0.552,0.992-0.345c0.354,0.201,0.445,0.606,0.223,1.011
	c-0.329,0.597-0.662,1.194-0.992,1.791c-0.035,0.065-0.063,0.134-0.104,0.221c0.6,0,1.168,0.017,1.736-0.006
	C26.93,15.991,27.218,16.141,27.377,16.53"/>
</svg>
