<?xml version="1.0" encoding="utf-8"?>
<!-- Generator: Adobe Illustrator 15.0.0, SVG Export Plug-In . SVG Version: 6.00 Build 0)  -->
<!DOCTYPE svg PUBLIC "-//W3C//DTD SVG 1.1//EN" "http://www.w3.org/Graphics/SVG/1.1/DTD/svg11.dtd">
<svg version="1.1" id="Layer_1" xmlns="http://www.w3.org/2000/svg" xmlns:xlink="http://www.w3.org/1999/xlink" x="0px" y="0px"
	 width="12px" height="17px" viewBox="0 0 12 17" enable-background="new 0 0 12 17" xml:space="preserve">
<path fill="#046799" d="M11.29,15.451H0.476C0.213,15.451,0,15.238,0,14.976s0.213-0.475,0.476-0.475H11.29
	c0.263,0,0.476,0.212,0.476,0.475S11.553,15.451,11.29,15.451"/>
<path fill="#046799" d="M0.476,17.021C0.213,17.021,0,16.809,0,16.546s0.213-0.477,0.476-0.477H11.29
	c0.263,0,0.476,0.214,0.476,0.476c0,0.264-0.213,0.477-0.476,0.477H0.476z"/>
<path fill="#94d60a" d="M6.286,13.874H5.549v-1.513c-0.999-0.111-1.743-0.329-2.235-0.653c-0.866-0.583-1.292-1.577-1.277-2.98
	h2.053c0.071,0.639,0.169,1.067,0.296,1.285c0.197,0.339,0.584,0.56,1.163,0.661V7.427L4.933,7.245
	C3.965,6.961,3.282,6.566,2.885,6.059C2.486,5.552,2.288,4.941,2.288,4.227c0-0.472,0.077-0.9,0.231-1.285
	c0.155-0.385,0.371-0.717,0.65-0.996c0.36-0.359,0.76-0.608,1.202-0.745c0.268-0.086,0.661-0.149,1.178-0.189V0h0.737v1.027
	c0.823,0.065,1.468,0.268,1.937,0.608c0.853,0.542,1.296,1.421,1.326,2.638H7.547c-0.039-0.451-0.113-0.78-0.224-0.988
	c-0.189-0.36-0.537-0.557-1.037-0.593v2.897c1.201,0.416,2.008,0.783,2.423,1.102C9.389,7.222,9.73,7.973,9.73,8.94
	c0,1.277-0.469,2.205-1.407,2.784c-0.572,0.354-1.251,0.562-2.037,0.622V13.874z M5.549,2.706C5.108,2.717,4.781,2.834,4.568,3.06
	C4.355,3.286,4.249,3.593,4.249,3.983c0,0.426,0.16,0.763,0.479,1.011c0.177,0.137,0.451,0.264,0.821,0.38V2.706z M6.286,10.65
	c0.396-0.05,0.684-0.142,0.864-0.273c0.315-0.233,0.476-0.635,0.476-1.209c0-0.436-0.15-0.78-0.445-1.033
	C7.006,7.987,6.707,7.836,6.286,7.678V10.65z"/>
</svg>
