<?xml version="1.0" encoding="utf-8"?>
<!-- Generator: Adobe Illustrator 15.0.0, SVG Export Plug-In . SVG Version: 6.00 Build 0)  -->
<!DOCTYPE svg PUBLIC "-//W3C//DTD SVG 1.1//EN" "http://www.w3.org/Graphics/SVG/1.1/DTD/svg11.dtd">
<svg version="1.1" id="Layer_1" xmlns="http://www.w3.org/2000/svg" xmlns:xlink="http://www.w3.org/1999/xlink" x="0px" y="0px"
	 width="32px" height="32px" viewBox="0 0 32 32" enable-background="new 0 0 32 32" xml:space="preserve">
<path fill="#828282" d="M16.004,26.009c-1.35,0-2.66-0.264-3.894-0.786c-1.192-0.504-2.262-1.226-3.18-2.144
	c-0.918-0.919-1.639-1.989-2.144-3.181C6.264,18.665,6,17.355,6,16.005s0.264-2.661,0.786-3.895C7.29,10.919,8.012,9.849,8.93,8.93
	c0.918-0.918,1.988-1.64,3.18-2.143C13.344,6.265,14.654,6,16.004,6s2.66,0.265,3.895,0.787c1.191,0.503,2.262,1.225,3.18,2.143
	c0.918,0.919,1.641,1.989,2.145,3.181c0.521,1.233,0.785,2.544,0.785,3.895s-0.264,2.66-0.785,3.894
	c-0.504,1.191-1.227,2.262-2.145,3.181c-0.918,0.918-1.988,1.64-3.18,2.144C18.664,25.745,17.354,26.009,16.004,26.009
	 M16.004,7.755c-4.548,0-8.249,3.701-8.249,8.25s3.701,8.249,8.249,8.249c4.549,0,8.249-3.7,8.249-8.249S20.553,7.755,16.004,7.755"
	/>
<path fill="#828282" d="M15.981,16.123h7.042c0-3.889-3.153-7.042-7.042-7.042V16.123z"/>
</svg>
