<?xml version="1.0" encoding="utf-8"?>
<!-- Generator: Adobe Illustrator 15.0.0, SVG Export Plug-In . SVG Version: 6.00 Build 0)  -->
<!DOCTYPE svg PUBLIC "-//W3C//DTD SVG 1.1//EN" "http://www.w3.org/Graphics/SVG/1.1/DTD/svg11.dtd">
<svg version="1.1" id="Layer_1" xmlns="http://www.w3.org/2000/svg" xmlns:xlink="http://www.w3.org/1999/xlink" x="0px" y="0px"
	 width="32px" height="32px" viewBox="0 0 32 32" enable-background="new 0 0 32 32" xml:space="preserve">
<rect x="9.756" y="15.216" fill="#828282" width="3.181" height="1.856"/>
<rect x="9.756" y="18.371" fill="#828282" width="3.181" height="1.855"/>
<rect x="9.756" y="21.49" fill="#828282" width="3.181" height="1.855"/>
<rect x="14.513" y="15.216" fill="#828282" width="3.18" height="1.856"/>
<rect x="14.513" y="18.371" fill="#828282" width="3.18" height="1.855"/>
<rect x="14.513" y="21.49" fill="#828282" width="3.18" height="1.855"/>
<rect x="19.153" y="15.216" fill="#828282" width="3.181" height="1.856"/>
<rect x="19.153" y="18.371" fill="#828282" width="3.181" height="1.855"/>
<rect x="19.153" y="21.49" fill="#828282" width="3.181" height="1.855"/>
<path fill-rule="evenodd" clip-rule="evenodd" fill="#828282" d="M24.046,26.787H8.044c-0.037-0.014-0.072-0.031-0.111-0.037
	c-0.926-0.166-1.541-0.699-1.856-1.58c-0.054-0.152-0.082-0.314-0.122-0.473V10.232c0.012-0.03,0.031-0.058,0.037-0.089
	c0.173-1.012,0.871-1.754,1.868-1.929C8.218,8.15,8.591,8.172,8.958,8.163c0.281-0.007,0.563-0.001,0.867-0.001v0.235
	c0,0.407-0.004,0.815,0.001,1.222c0.011,0.749,0.417,1.352,1.045,1.557c1.026,0.335,2.022-0.35,2.065-1.43
	c0.018-0.453,0.005-0.906,0.007-1.359c0-0.069,0.007-0.138,0.01-0.21h6.194v0.229c0.001,0.44-0.01,0.881,0.004,1.32
	c0.025,0.802,0.594,1.437,1.35,1.526c0.795,0.094,1.491-0.376,1.704-1.167c0.048-0.181,0.054-0.376,0.058-0.565
	c0.008-0.445,0.002-0.889,0.002-1.346c0.574,0,1.125-0.024,1.674,0.005c1.064,0.057,1.894,0.775,2.137,1.808
	c0.02,0.082,0.04,0.163,0.061,0.245v14.465c-0.014,0.043-0.031,0.086-0.039,0.129c-0.17,0.908-0.696,1.518-1.56,1.832
	C24.38,26.717,24.21,26.744,24.046,26.787 M16.065,13.581c-2.771,0-5.544,0-8.316,0c-0.253,0-0.254,0-0.254,0.257v10.443
	c0,0.666,0.299,0.963,0.962,0.963h15.175c0.664,0,0.963-0.297,0.963-0.961c0-3.48,0-6.963,0-10.443c0-0.259,0-0.259-0.254-0.259
	C21.583,13.581,18.824,13.581,16.065,13.581"/>
<path fill-rule="evenodd" clip-rule="evenodd" fill="#828282" d="M11.552,6.605c0.051,0.026,0.101,0.053,0.15,0.079
	c0.26,0.129,0.437,0.331,0.44,0.626c0.01,0.826,0.014,1.652-0.002,2.477c-0.007,0.374-0.323,0.66-0.688,0.683
	c-0.4,0.024-0.783-0.212-0.799-0.596c-0.037-0.883-0.029-1.768-0.004-2.651c0.01-0.337,0.3-0.497,0.587-0.618H11.552z"/>
<path fill-rule="evenodd" clip-rule="evenodd" fill="#828282" d="M20.854,6.605c0.487,0.173,0.642,0.535,0.627,1.029
	c-0.021,0.675,0,1.351-0.009,2.026c-0.007,0.584-0.509,0.956-1.024,0.769c-0.299-0.108-0.493-0.323-0.498-0.642
	c-0.016-0.825-0.012-1.651-0.002-2.477c0.004-0.295,0.18-0.497,0.438-0.626c0.052-0.026,0.101-0.053,0.152-0.079H20.854z"/>
</svg>
