<?xml version="1.0" encoding="utf-8"?>
<!-- Generator: Adobe Illustrator 15.0.0, SVG Export Plug-In . SVG Version: 6.00 Build 0)  -->
<!DOCTYPE svg PUBLIC "-//W3C//DTD SVG 1.1//EN" "http://www.w3.org/Graphics/SVG/1.1/DTD/svg11.dtd">
<svg version="1.1" id="Layer_1" xmlns="http://www.w3.org/2000/svg" xmlns:xlink="http://www.w3.org/1999/xlink" x="0px" y="0px"
	 width="16px" height="17px" viewBox="0 0 16 17" enable-background="new 0 0 16 17" xml:space="preserve">
<path fill="#046799" d="M11.432,7.92v4.835v3.004c0,0.786,1.218,0.786,1.218,0V6.754"/>
<path fill="#046799" d="M12.649,4.581V3.613V0.609C12.649,0.278,12.373,0,12.041,0H0.716H0.609C0.277,0,0,0.278,0,0.609v12.146
	v3.004c0,0.331,0.277,0.609,0.609,0.609h11.325h0.106c0.785,0,0.785-1.219,0-1.219H0.716H0.609c0.204,0.203,0.407,0.406,0.61,0.609
	V3.613V0.609c-0.203,0.203-0.406,0.407-0.61,0.61h11.325h0.106c-0.203-0.203-0.407-0.407-0.609-0.61v5.189"/>
<path fill="#046799" d="M14.542,4.432c-2.617,2.618-5.234,5.234-7.853,7.851c-0.007,0.007-0.013,0.014-0.019,0.021h0.431
	c-0.362-0.362-0.725-0.725-1.087-1.087v0.432c2.617-2.618,5.235-5.236,7.853-7.854c0.005-0.006,0.012-0.013,0.019-0.019h-0.431
	c0.362,0.361,0.724,0.724,1.087,1.086c0.277,0.278,0.71-0.153,0.431-0.431c-0.362-0.363-0.725-0.725-1.087-1.087
	c-0.117-0.117-0.313-0.117-0.431,0C10.838,5.962,8.22,8.58,5.603,11.197c-0.007,0.007-0.013,0.013-0.021,0.02
	c-0.117,0.117-0.117,0.313,0,0.432c0.363,0.361,0.725,0.725,1.088,1.087c0.117,0.116,0.313,0.116,0.431,0
	c2.618-2.618,5.235-5.235,7.852-7.854c0.006-0.006,0.014-0.013,0.02-0.019C15.252,4.585,14.819,4.153,14.542,4.432"/>
<path fill="#046799" d="M13.886,3.776c0.287-0.288,0.574-0.575,0.863-0.862h-0.433c0.363,0.362,0.726,0.725,1.087,1.087V3.57
	c-0.287,0.287-0.574,0.574-0.861,0.862c-0.277,0.278,0.152,0.709,0.431,0.431c0.287-0.288,0.574-0.575,0.862-0.862
	c0.116-0.117,0.116-0.313,0-0.431c-0.363-0.363-0.725-0.725-1.086-1.087c-0.118-0.118-0.315-0.118-0.433,0
	c-0.287,0.287-0.574,0.574-0.861,0.861C13.177,3.624,13.608,4.054,13.886,3.776"/>
<path fill="#046799" d="M5.536,11.278c-0.384,0.746-0.769,1.492-1.153,2.238c-0.142,0.276,0.142,0.559,0.417,0.418
	c0.746-0.385,1.492-0.769,2.238-1.152c0.35-0.18,0.042-0.706-0.307-0.526c-0.746,0.385-1.493,0.768-2.239,1.151
	c0.139,0.14,0.279,0.278,0.417,0.418c0.384-0.746,0.768-1.493,1.152-2.239C6.241,11.237,5.715,10.929,5.536,11.278"/>
<path fill="#94d60a" d="M6.591,11.076v-0.005c-0.002,0.002-0.004,0.004-0.006,0.005H6.591z M1.647,11.076h4.077
	c0.257-0.258,0.514-0.515,0.772-0.772H1.647V11.076z M1.566,13.842h2.84c-0.063-0.086-0.084-0.205-0.022-0.325
	c0.009-0.017,0.018-0.033,0.026-0.051V13.07H1.566V13.842z M1.647,4.088h9.345V3.316H1.647V4.088z M1.647,8.638h6.514
	c0.257-0.257,0.515-0.515,0.772-0.771H1.647V8.638z M1.647,6.354h8.798c0.184-0.182,0.366-0.364,0.547-0.546V5.582H1.647V6.354z
	 M9.055,8.638V8.606L9.023,8.638H9.055z"/>
</svg>
