<?xml version="1.0" encoding="utf-8"?>
<!-- Generator: Adobe Illustrator 15.0.0, SVG Export Plug-In . SVG Version: 6.00 Build 0)  -->
<!DOCTYPE svg PUBLIC "-//W3C//DTD SVG 1.1//EN" "http://www.w3.org/Graphics/SVG/1.1/DTD/svg11.dtd">
<svg version="1.1" id="Layer_1" xmlns="http://www.w3.org/2000/svg" xmlns:xlink="http://www.w3.org/1999/xlink" x="0px" y="0px"
	 width="32px" height="32px" viewBox="0 0 32 32" enable-background="new 0 0 32 32" xml:space="preserve">
<path fill="#828282" d="M21.631,10.916c-0.33-0.355-0.885-0.375-1.24-0.046l-4.882,4.536c-0.003,0.003-0.006,0.007-0.01,0.01
	c-0.006,0.005-0.012,0.011-0.018,0.017c-0.005,0.005-0.01,0.011-0.014,0.016c-0.005,0.006-0.01,0.011-0.014,0.016
	c-0.006,0.006-0.011,0.012-0.017,0.019c-0.003,0.004-0.007,0.009-0.011,0.014c-0.006,0.007-0.011,0.014-0.016,0.021
	c-0.004,0.005-0.006,0.009-0.009,0.013c-0.006,0.008-0.011,0.016-0.017,0.022c-0.003,0.004-0.005,0.008-0.008,0.013
	c-0.005,0.008-0.01,0.016-0.015,0.023c-0.003,0.004-0.005,0.008-0.008,0.012c-0.004,0.008-0.009,0.017-0.013,0.024
	c-0.003,0.005-0.005,0.009-0.008,0.014c-0.004,0.007-0.008,0.015-0.012,0.023c-0.002,0.005-0.005,0.012-0.008,0.017
	c-0.003,0.007-0.006,0.014-0.009,0.021c-0.003,0.007-0.006,0.014-0.008,0.021c-0.003,0.006-0.005,0.012-0.008,0.018
	c-0.002,0.008-0.005,0.016-0.008,0.023c-0.002,0.005-0.004,0.01-0.005,0.016c-0.003,0.009-0.006,0.018-0.009,0.026
	c-0.001,0.004-0.002,0.009-0.003,0.013c-0.003,0.011-0.005,0.02-0.008,0.028c-0.001,0.005-0.002,0.009-0.003,0.013
	c-0.002,0.011-0.004,0.02-0.005,0.029c-0.001,0.005-0.002,0.01-0.003,0.014c-0.002,0.01-0.003,0.019-0.005,0.027
	c0,0.006-0.001,0.012-0.002,0.018c0,0.008-0.001,0.016-0.002,0.024c-0.001,0.007-0.001,0.013-0.002,0.021
	c0,0.008-0.001,0.015-0.001,0.021c0,0.008,0,0.016-0.001,0.024c0,0.005,0,0.01,0,0.015V20.8c0,0.485,0.393,0.878,0.876,0.878
	c0.485,0,0.879-0.393,0.879-0.878v-4.369l4.601-4.274C21.939,11.826,21.961,11.271,21.631,10.916"/>
<path fill="#828282" d="M16.106,26.053c-1.35,0-2.66-0.264-3.894-0.786c-1.192-0.504-2.262-1.226-3.18-2.144
	c-0.918-0.919-1.639-1.989-2.144-3.18c-0.522-1.234-0.786-2.545-0.786-3.895c0-1.351,0.264-2.661,0.786-3.895
	c0.504-1.191,1.226-2.261,2.144-3.181c0.918-0.918,1.988-1.64,3.18-2.143c1.234-0.522,2.544-0.787,3.894-0.787
	c1.351,0,2.66,0.265,3.896,0.787c1.19,0.503,2.26,1.225,3.178,2.143c0.919,0.919,1.641,1.989,2.145,3.181
	c0.521,1.233,0.786,2.544,0.786,3.895c0,1.35-0.265,2.66-0.786,3.895c-0.504,1.19-1.226,2.261-2.145,3.18
	c-0.918,0.918-1.987,1.64-3.178,2.144C18.767,25.789,17.457,26.053,16.106,26.053 M16.106,7.799c-4.548,0-8.249,3.701-8.249,8.25
	s3.701,8.249,8.249,8.249c4.549,0,8.249-3.7,8.249-8.249S20.655,7.799,16.106,7.799"/>
</svg>
