<?xml version="1.0" encoding="utf-8"?>
<!-- Generator: Adobe Illustrator 15.0.0, SVG Export Plug-In . SVG Version: 6.00 Build 0)  -->
<!DOCTYPE svg PUBLIC "-//W3C//DTD SVG 1.1//EN" "http://www.w3.org/Graphics/SVG/1.1/DTD/svg11.dtd">
<svg version="1.1" id="Layer_1" xmlns="http://www.w3.org/2000/svg" xmlns:xlink="http://www.w3.org/1999/xlink" x="0px" y="0px"
	 width="32px" height="32px" viewBox="0 0 32 32" enable-background="new 0 0 32 32" xml:space="preserve">
<path fill-rule="evenodd" clip-rule="evenodd" fill="#828282" d="M23.833,25.895H7.929c-0.037-0.014-0.072-0.031-0.109-0.038
	c-0.921-0.164-1.533-0.693-1.846-1.57c-0.054-0.15-0.081-0.312-0.121-0.468V9.441c0.012-0.029,0.031-0.057,0.036-0.088
	C6.061,8.348,6.755,7.61,7.746,7.437c0.356-0.063,0.728-0.041,1.092-0.051c0.279-0.006,0.559-0.001,0.861-0.001v0.234
	c0,0.405-0.004,0.811,0.001,1.214c0.01,0.745,0.415,1.344,1.039,1.548c1.02,0.333,2.011-0.348,2.053-1.422
	c0.017-0.449,0.004-0.9,0.006-1.35c0-0.069,0.007-0.137,0.011-0.208h6.155v0.227c0.001,0.438-0.009,0.875,0.004,1.312
	c0.024,0.797,0.59,1.428,1.341,1.516c0.79,0.094,1.483-0.373,1.694-1.16c0.047-0.179,0.053-0.373,0.057-0.561
	c0.007-0.442,0.002-0.884,0.002-1.338c0.57,0,1.118-0.023,1.663,0.006c1.057,0.056,1.883,0.769,2.124,1.797
	c0.019,0.081,0.04,0.161,0.06,0.242v14.377c-0.014,0.042-0.03,0.084-0.039,0.128c-0.17,0.903-0.691,1.507-1.549,1.82
	C24.162,25.823,23.994,25.853,23.833,25.895 M15.901,12.771c-2.755,0-5.51,0-8.264,0c-0.252,0-0.253,0-0.253,0.256v10.379
	c0,0.66,0.297,0.957,0.957,0.957H23.42c0.66,0,0.957-0.296,0.957-0.956c0-3.46,0-6.92,0-10.379c0-0.257,0-0.257-0.251-0.257
	C21.384,12.771,18.643,12.771,15.901,12.771"/>
<path fill-rule="evenodd" clip-rule="evenodd" fill="#828282" d="M11.415,5.837c0.05,0.026,0.1,0.053,0.151,0.078
	c0.257,0.129,0.432,0.329,0.436,0.622C12.012,7.358,12.016,8.18,12,9c-0.007,0.37-0.321,0.655-0.684,0.678
	c-0.397,0.024-0.777-0.211-0.793-0.592c-0.037-0.877-0.03-1.757-0.005-2.635c0.01-0.335,0.299-0.494,0.584-0.614H11.415z"/>
<path fill-rule="evenodd" clip-rule="evenodd" fill="#828282" d="M20.66,5.837c0.484,0.172,0.638,0.532,0.623,1.023
	c-0.021,0.67,0,1.342-0.008,2.013c-0.008,0.581-0.506,0.95-1.02,0.764C19.961,9.53,19.767,9.316,19.761,9
	C19.746,8.18,19.75,7.358,19.76,6.538c0.003-0.293,0.178-0.493,0.436-0.622c0.051-0.025,0.101-0.052,0.151-0.078H20.66z"/>
<polygon fill="#828282" points="15.403,16.276 15.38,16.276 13.951,16.956 13.663,15.643 15.645,14.72 17.098,14.72 17.098,22.212 
	15.403,22.212 "/>
</svg>
