<?xml version="1.0" encoding="utf-8"?>
<!-- Generator: Adobe Illustrator 15.0.0, SVG Export Plug-In . SVG Version: 6.00 Build 0)  -->
<!DOCTYPE svg PUBLIC "-//W3C//DTD SVG 1.1//EN" "http://www.w3.org/Graphics/SVG/1.1/DTD/svg11.dtd">
<svg version="1.1" id="Layer_1" xmlns="http://www.w3.org/2000/svg" xmlns:xlink="http://www.w3.org/1999/xlink" x="0px" y="0px"
	 width="36px" height="47px" viewBox="0 0 36 47" enable-background="new 0 0 36 47" xml:space="preserve">
<path fill="#276A9F" d="M18.025,1C9.681,1,2.749,7.022,1.323,14.956c-0.338,1.684-0.374,3.359-0.151,5.026
	c0.214,1.821,0.714,3.554,1.46,5.151c0.061,0.145,0.12,0.289,0.184,0.434c2.588,5.788,6.332,10.803,10.381,15.612
	c1.525,1.813,3.138,3.552,4.713,5.322h0.174c1.045-1.167,2.098-2.332,3.135-3.507c3.991-4.521,7.692-9.251,10.562-14.578
	c0.442-0.823,0.863-1.653,1.246-2.497C34.285,23.547,35,20.845,35,17.975C35,8.601,27.401,1,18.025,1"/>
<path fill="#FFFFFF" d="M17.938,6.905c6.241-0.067,11.327,4.954,11.396,11.253c0.069,6.159-5.023,11.353-11.188,11.417
	c-6.234,0.061-11.437-5.011-11.494-11.208C6.596,12.054,11.597,6.973,17.938,6.905"/>
<path fill="#97C93D" d="M23.964,10.897h-9.132c-0.228,0-0.414,0.188-0.414,0.415v2.972h-0.427c-0.989,0-1.79,0.335-2.383,0.997
	c-0.776,0.866-1.013,2.117-1.072,3.048c-1.155,0.22-2.031,1.234-2.031,2.454h0.927v1.011c0,0.253,0.205,0.458,0.459,0.458
	c0.252,0,0.457-0.204,0.457-0.458v-1.011h1.305v1.011c0,0.253,0.205,0.458,0.458,0.458c0.252,0,0.457-0.204,0.457-0.458v-1.011
	h0.937c0-1.227-0.884-2.245-2.049-2.457c0.055-0.778,0.249-1.777,0.838-2.435c0.417-0.465,0.973-0.69,1.7-0.69h0.427v2.99
	c0,0.229,0.186,0.415,0.414,0.415h0.607l0.765,6.718h-1.399v0.701h9.184v-0.701h-1.398l0.767-6.718h0.605
	c0.229,0,0.416-0.186,0.416-0.415v-6.877C24.379,11.085,24.193,10.897,23.964,10.897 M23.115,17.213
	c0,0.229-0.186,0.415-0.413,0.415h-6.608c-0.228,0-0.415-0.186-0.415-0.415V12.29c0-0.227,0.187-0.415,0.415-0.415h6.608
	c0.227,0,0.413,0.188,0.413,0.415V17.213z"/>
</svg>
