<?xml version="1.0" encoding="utf-8"?>
<!-- Generator: Adobe Illustrator 15.0.0, SVG Export Plug-In . SVG Version: 6.00 Build 0)  -->
<!DOCTYPE svg PUBLIC "-//W3C//DTD SVG 1.1//EN" "http://www.w3.org/Graphics/SVG/1.1/DTD/svg11.dtd">
<svg version="1.1" xmlns="http://www.w3.org/2000/svg" xmlns:xlink="http://www.w3.org/1999/xlink" x="0px" y="0px" width="30px"
	 height="40px" viewBox="0 0 30 40" enable-background="new 0 0 30 40" xml:space="preserve">
<g id="Layer_2" display="none">
</g>
<g id="Layer_1">
	<path fill="#276A9F" d="M15.107,0.079c-7.32,0-13.403,5.283-14.653,12.244c-0.297,1.478-0.328,2.948-0.133,4.41
		c0.188,1.598,0.628,3.118,1.282,4.52c0.054,0.127,0.105,0.255,0.162,0.382c2.271,5.077,5.555,9.477,9.106,13.696
		c1.338,1.591,2.754,3.116,4.135,4.67h0.151c0.917-1.025,1.841-2.046,2.752-3.077c3.501-3.966,6.747-8.116,9.265-12.79
		c0.389-0.722,0.758-1.45,1.095-2.19C29.373,19.862,30,17.491,30,14.972C30,6.747,23.332,0.079,15.107,0.079"/>
	<path fill="#FFFFFF" d="M15.031,5.26C9.468,5.32,5.08,9.777,5.13,15.316c0.05,5.437,4.613,9.887,10.083,9.833
		c5.41-0.055,9.876-4.612,9.816-10.015C24.968,9.606,20.505,5.2,15.031,5.26z"/>
</g>
</svg>
