<?xml version="1.0" encoding="utf-8"?>
<!-- Generator: Adobe Illustrator 15.0.0, SVG Export Plug-In . SVG Version: 6.00 Build 0)  -->
<!DOCTYPE svg PUBLIC "-//W3C//DTD SVG 1.1//EN" "http://www.w3.org/Graphics/SVG/1.1/DTD/svg11.dtd">
<svg version="1.1" id="Layer_1" xmlns="http://www.w3.org/2000/svg" xmlns:xlink="http://www.w3.org/1999/xlink" x="0px" y="0px"
	 width="22px" height="20px" viewBox="0 0 22 20" enable-background="new 0 0 22 20" xml:space="preserve">
<path fill="#419D46" d="M18.444,20.075H4.003c-0.618,0-1.121-0.472-1.121-1.052V1.087c0-0.579,0.503-1.051,1.121-1.051h10.388v4.596
	c0,0.034,0.028,0.062,0.063,0.062h5.111v14.33C19.564,19.604,19.063,20.075,18.444,20.075 M4.003,0.436
	c-0.398,0-0.721,0.292-0.721,0.651v17.937c0,0.359,0.323,0.651,0.721,0.651h14.441c0.397,0,0.721-0.292,0.721-0.651V5.093h-4.712
	c-0.255,0-0.462-0.207-0.462-0.461V0.436H4.003z"/>
<polyline fill="#419D46" points="14.715,0.236 14.715,4.37 19.365,4.37 "/>
<path fill="#419D46" d="M3.083,18.65h16.283v-4.446H3.083V18.65z M14.199,16.823c-0.036-0.042-0.098-0.08-0.188-0.111
	c-0.061-0.021-0.199-0.059-0.416-0.112c-0.278-0.069-0.475-0.154-0.586-0.254c-0.158-0.143-0.237-0.315-0.237-0.519
	c0-0.132,0.036-0.254,0.11-0.369c0.076-0.114,0.183-0.2,0.322-0.26c0.141-0.06,0.309-0.09,0.508-0.09
	c0.322,0,0.565,0.071,0.729,0.212c0.163,0.142,0.249,0.331,0.257,0.568l-0.52,0.022c-0.022-0.133-0.07-0.228-0.144-0.286
	c-0.073-0.058-0.183-0.087-0.33-0.087c-0.151,0-0.269,0.031-0.354,0.093c-0.056,0.04-0.083,0.095-0.083,0.16
	c0,0.062,0.025,0.113,0.076,0.157c0.066,0.055,0.226,0.112,0.479,0.172s0.439,0.121,0.561,0.185
	c0.123,0.064,0.217,0.151,0.285,0.263c0.068,0.11,0.104,0.247,0.104,0.41c0,0.147-0.041,0.286-0.123,0.415
	c-0.082,0.128-0.198,0.224-0.348,0.287c-0.15,0.062-0.338,0.094-0.562,0.094c-0.325,0-0.575-0.075-0.75-0.227
	c-0.174-0.149-0.278-0.369-0.312-0.658l0.506-0.049c0.029,0.17,0.092,0.295,0.185,0.374c0.093,0.08,0.22,0.12,0.377,0.12
	c0.167,0,0.294-0.035,0.378-0.106c0.086-0.07,0.129-0.153,0.129-0.248C14.254,16.918,14.235,16.866,14.199,16.823 M10.401,15.174
	h0.52v2.119h1.292v0.435h-1.812V15.174z M7.581,15.152h0.608l0.516,0.827l0.506-0.827h0.603l-0.801,1.251l0.88,1.324H9.266
	l-0.571-0.891l-0.573,0.891H7.5l0.88-1.345L7.581,15.152z"/>
<path fill="#419D46" d="M13.566,12.145H7.789V6.367h5.777V12.145z M8.317,11.616h4.722V6.894H8.317V11.616z"/>
<path fill="#419D46" d="M13.303,11.456h1.354V7.054h-1.354V11.456z M13.506,7.441h0.791v0.835h-0.791V7.441z M13.506,8.838h0.791
	v0.835h-0.791V8.838z M14.297,11.07h-0.791v-0.835h0.791V11.07z"/>
<polygon fill="#419D46" points="12.457,7.647 11.282,7.647 10.678,8.463 10.074,7.647 8.899,7.647 10.09,9.256 8.899,10.863 
	10.074,10.863 10.678,10.049 11.282,10.863 12.457,10.863 11.266,9.256 "/>
</svg>
