<?xml version="1.0" encoding="utf-8"?>
<!-- Generator: Adobe Illustrator 15.0.0, SVG Export Plug-In . SVG Version: 6.00 Build 0)  -->
<!DOCTYPE svg PUBLIC "-//W3C//DTD SVG 1.1//EN" "http://www.w3.org/Graphics/SVG/1.1/DTD/svg11.dtd">
<svg version="1.1" id="Layer_1" xmlns="http://www.w3.org/2000/svg" xmlns:xlink="http://www.w3.org/1999/xlink" x="0px" y="0px"
	 width="19px" height="17px" viewBox="0 0 19 17" enable-background="new 0 0 19 17" xml:space="preserve">
<g>
	<g>
		<path fill="#2FADC7" d="M2.021,6.388c-0.561,0-1.038,0.197-1.431,0.589S0,7.848,0,8.409s0.196,1.039,0.589,1.432
			c0.393,0.393,0.871,0.589,1.431,0.589c0.562,0,1.039-0.196,1.432-0.589c0.393-0.394,0.59-0.871,0.59-1.432S3.845,7.37,3.452,6.978
			C3.059,6.585,2.582,6.388,2.021,6.388z"/>
		<path fill="#2FADC7" d="M2.021,1C1.46,1,0.982,1.196,0.589,1.589S0,2.459,0,3.021c0,0.562,0.196,1.039,0.589,1.431
			S1.46,5.041,2.021,5.041c0.562,0,1.039-0.196,1.432-0.589c0.393-0.393,0.59-0.87,0.59-1.431c0-0.561-0.197-1.038-0.59-1.431
			C3.059,1.196,2.582,1,2.021,1z"/>
		<path fill="#2FADC7" d="M2.021,11.777c-0.561,0-1.038,0.195-1.431,0.588C0.196,12.76,0,13.236,0,13.797
			c0,0.562,0.196,1.038,0.589,1.432c0.393,0.393,0.871,0.589,1.431,0.589c0.562,0,1.039-0.196,1.432-0.589
			c0.393-0.394,0.59-0.87,0.59-1.432c0-0.561-0.197-1.037-0.59-1.432C3.059,11.973,2.582,11.777,2.021,11.777z"/>
		<path fill="#2FADC7" d="M18.76,1.773c-0.068-0.066-0.146-0.1-0.238-0.1H5.725c-0.091,0-0.17,0.034-0.237,0.1
			c-0.067,0.067-0.1,0.146-0.1,0.237v2.021c0,0.092,0.033,0.17,0.1,0.237c0.067,0.066,0.146,0.099,0.237,0.099h12.796
			c0.092,0,0.17-0.033,0.238-0.099c0.065-0.067,0.099-0.146,0.099-0.237V2.01C18.858,1.919,18.825,1.84,18.76,1.773z"/>
		<path fill="#2FADC7" d="M18.521,7.062H5.725c-0.091,0-0.17,0.033-0.237,0.1c-0.067,0.066-0.1,0.146-0.1,0.236V9.42
			c0,0.09,0.033,0.17,0.1,0.236c0.067,0.067,0.146,0.101,0.237,0.101h12.796c0.092,0,0.17-0.033,0.238-0.101
			c0.065-0.066,0.099-0.146,0.099-0.236V7.398c0-0.091-0.033-0.17-0.099-0.236C18.691,7.095,18.613,7.062,18.521,7.062z"/>
		<path fill="#2FADC7" d="M18.521,12.45H5.725c-0.091,0-0.17,0.033-0.237,0.101c-0.067,0.066-0.1,0.145-0.1,0.236v2.021
			c0,0.092,0.033,0.17,0.1,0.236c0.067,0.067,0.146,0.1,0.237,0.1h12.796c0.092,0,0.17-0.032,0.238-0.1
			c0.065-0.066,0.099-0.145,0.099-0.236v-2.021c0-0.092-0.033-0.171-0.099-0.236C18.691,12.483,18.613,12.45,18.521,12.45z"/>
	</g>
</g>
</svg>
