<?xml version="1.0" encoding="utf-8"?>
<!-- Generator: Adobe Illustrator 15.0.0, SVG Export Plug-In . SVG Version: 6.00 Build 0)  -->
<!DOCTYPE svg PUBLIC "-//W3C//DTD SVG 1.1//EN" "http://www.w3.org/Graphics/SVG/1.1/DTD/svg11.dtd">
<svg version="1.1" id="Layer_1" xmlns="http://www.w3.org/2000/svg" xmlns:xlink="http://www.w3.org/1999/xlink" x="0px" y="0px"
	 width="22px" height="28px" viewBox="0 0 22 28" enable-background="new 0 0 22 28" xml:space="preserve">
<path fill="#39b0d2 " d="M13.412,27.848c0.095-0.015,0.189-0.031,0.285-0.045c0.412-0.058,0.82-0.132,1.217-0.256
	c0.552-0.171,1.029-0.475,1.46-0.855c0.506-0.446,0.92-0.971,1.282-1.537c0.557-0.871,0.979-1.805,1.332-2.773
	c0.416-1.141,0.731-2.309,0.955-3.499c0.109-0.592,0.203-1.187,0.283-1.782c0.06-0.447,0.094-0.9,0.122-1.352
	c0.025-0.381,0.037-0.762,0.038-1.143c0.004-0.641-0.063-1.276-0.174-1.907c-0.115-0.648-0.246-1.292-0.448-1.919
	c-0.209-0.652-0.487-1.27-0.879-1.833c-0.442-0.635-0.996-1.156-1.639-1.579c-0.925-0.609-1.919-1.067-2.983-1.371
	c-0.482-0.137-0.978-0.214-1.477-0.264c-0.444-0.043-0.889-0.056-1.334-0.037c-1.1,0.046-2.163,0.26-3.175,0.711
	C7.495,6.754,6.867,7.284,6.372,7.978c-0.541,0.758-0.88,1.6-1.045,2.516c-0.079,0.436-0.108,0.875-0.083,1.317
	c0.034,0.608,0.167,1.192,0.464,1.729c0.449,0.816,1.142,1.297,2.053,1.465c0.268,0.05,0.541,0.067,0.81,0.115
	c0.854,0.149,1.668,0.413,2.397,0.897c0.498,0.33,0.904,0.748,1.175,1.286c0.203,0.407,0.299,0.843,0.325,1.296
	c0.036,0.605-0.116,1.168-0.366,1.713c-0.262,0.573-0.583,1.112-0.895,1.657c-0.313,0.546-0.625,1.089-0.923,1.642
	c-0.213,0.396-0.388,0.81-0.497,1.248c-0.168,0.674-0.095,1.313,0.309,1.896c0.266,0.383,0.632,0.642,1.057,0.821
	c0.302,0.128,0.617,0.205,0.94,0.25c0.029,0.003,0.056,0.014,0.084,0.021H13.412z"/>
<path fill="#39b0d2 " d="M20.629,6.848c-0.323,0.558-1.004,0.77-1.519,0.471c-0.514-0.298-0.669-0.993-0.345-1.551
	c0.324-0.557,1-0.766,1.515-0.467C20.795,5.599,20.953,6.29,20.629,6.848"/>
<path fill="#39b0d2 " d="M18.266,3.605c-0.09,0.755-0.731,1.306-1.43,1.224c-0.701-0.083-1.197-0.764-1.107-1.523
	c0.09-0.759,0.73-1.306,1.429-1.223C17.858,2.163,18.352,2.847,18.266,3.605"/>
<path fill="#39b0d2 " d="M14.915,2.461c-0.101,0.856-0.823,1.479-1.616,1.386c-0.791-0.094-1.353-0.864-1.252-1.72
	c0.102-0.86,0.824-1.479,1.616-1.39C14.454,0.831,15.016,1.601,14.915,2.461"/>
<path fill="#39b0d2 " d="M11.007,2.717c-0.112,0.946-0.907,1.63-1.781,1.525c-0.871-0.1-1.49-0.949-1.378-1.892
	c0.111-0.946,0.906-1.627,1.781-1.526C10.5,0.925,11.115,1.774,11.007,2.717"/>
<path fill-rule="evenodd" clip-rule="evenodd" fill="#02a393" d="M2.379,1.626C2.17,1.646,1.961,1.666,1.75,1.685
	C1.749,1.699,1.746,1.712,1.746,1.726C1.745,1.898,1.742,2.07,1.744,2.241c0.002,0.186,0.004,0.372,0.017,0.558
	c0.014,0.204,0.035,0.409,0.064,0.612c0.033,0.227,0.07,0.454,0.121,0.677c0.076,0.33,0.182,0.65,0.328,0.956
	c0.185,0.386,0.423,0.73,0.754,1.008c0.238,0.201,0.509,0.347,0.806,0.435c0.283,0.084,0.575,0.119,0.87,0.101
	C4.885,6.577,5.065,6.556,5.243,6.52C5.45,6.479,5.654,6.417,5.857,6.361C5.935,6.34,6.009,6.309,6.092,6.28
	C6.067,6.131,6.044,5.988,6.017,5.845c-0.04-0.21-0.112-0.412-0.198-0.608C5.72,5.01,5.596,4.798,5.452,4.596
	c-0.163-0.231-0.346-0.444-0.55-0.638C4.78,3.841,4.653,3.729,4.523,3.621c-0.133-0.113-0.268-0.225-0.41-0.326
	C3.93,3.163,3.737,3.042,3.548,2.916C3.538,2.909,3.531,2.899,3.513,2.88c0.024,0.003,0.033,0.003,0.042,0.005
	c0.442,0.117,0.869,0.272,1.274,0.487c0.262,0.139,0.51,0.297,0.741,0.481c0.271,0.216,0.513,0.461,0.723,0.738
	c0.22,0.29,0.4,0.6,0.525,0.942c0.002,0.006,0.008,0.01,0.015,0.019c0.032-0.24,0.036-0.476,0.024-0.711
	C6.848,4.623,6.813,4.408,6.76,4.197C6.69,3.929,6.593,3.671,6.457,3.429C6.234,3.034,5.94,2.703,5.573,2.44
	C5.43,2.338,5.279,2.246,5.124,2.161C4.731,1.948,4.31,1.817,3.873,1.735c-0.476-0.089-0.956-0.118-1.44-0.096
	C2.415,1.64,2.396,1.631,2.379,1.626"/>
</svg>
