<?xml version="1.0" encoding="utf-8"?>
<!-- Generator: Adobe Illustrator 15.0.0, SVG Export Plug-In . SVG Version: 6.00 Build 0)  -->
<!DOCTYPE svg PUBLIC "-//W3C//DTD SVG 1.1//EN" "http://www.w3.org/Graphics/SVG/1.1/DTD/svg11.dtd">
<svg version="1.1" id="Layer_1" xmlns="http://www.w3.org/2000/svg" xmlns:xlink="http://www.w3.org/1999/xlink" x="0px" y="0px"
	 width="39px" height="35px" viewBox="0 0 39 35" enable-background="new 0 0 39 35" xml:space="preserve">
<path fill-rule="evenodd" clip-rule="evenodd" fill="#39b0d2 " d="M1.75,17.008c0.009-0.026,0.024-0.053,0.025-0.079
	c0.009-0.121,0.011-0.242,0.021-0.362c0.018-0.229,0.033-0.457,0.054-0.687c0.022-0.227,0.048-0.455,0.079-0.682
	c0.037-0.269,0.076-0.538,0.124-0.806c0.095-0.536,0.221-1.064,0.369-1.587c0.251-0.89,0.573-1.755,0.962-2.593
	c0.274-0.589,0.581-1.16,0.92-1.714c0.317-0.518,0.659-1.019,1.026-1.5c0.346-0.455,0.712-0.893,1.103-1.307
	C6.727,5.38,7.037,5.082,7.347,4.785c0.547-0.524,1.142-0.993,1.757-1.432c0.48-0.341,0.973-0.658,1.488-0.941
	c0.296-0.162,0.594-0.32,0.894-0.475c0.189-0.096,0.386-0.179,0.578-0.269c0.026-0.013,0.052-0.026,0.09-0.045
	C11.908,1.08,11.665,0.541,11.421,0c0.083-0.002,5.884,1.818,6.166,1.933c0,0.002,0.002,0.005,0.004,0.007
	c0,0.002,0.002,0.008,0,0.01c-0.004,0.016-0.007,0.034-0.014,0.047c-0.899,1.944-1.799,3.888-2.7,5.831
	c-0.002,0.006-0.009,0.01-0.022,0.021c-0.248-0.544-0.492-1.085-0.742-1.636c-2.161,0.977-3.909,2.432-5.235,4.384
	c-1.33,1.956-2.053,4.122-2.127,6.485c-0.075,2.352,0.441,4.572,1.646,6.625c-1.438,0.831-2.868,1.657-4.307,2.488
	c-0.027-0.047-0.049-0.081-0.068-0.12c-0.144-0.264-0.292-0.527-0.43-0.794c-0.334-0.653-0.622-1.33-0.864-2.022
	c-0.152-0.43-0.283-0.865-0.396-1.306c-0.121-0.477-0.23-0.955-0.303-1.44c-0.063-0.407-0.118-0.815-0.17-1.225
	c-0.024-0.191-0.034-0.385-0.047-0.576c-0.014-0.227-0.023-0.451-0.037-0.677c0-0.026-0.016-0.056-0.025-0.08V17.008z"/>
<path fill-rule="evenodd" clip-rule="evenodd" fill="#39b0d2 " d="M29.58,18.731c0.61,0.059,1.203,0.114,1.806,0.173
	c0.009-0.049,0.019-0.087,0.021-0.126c0.021-0.271,0.05-0.541,0.058-0.812c0.007-0.309-0.003-0.617-0.009-0.924
	c-0.004-0.163-0.012-0.327-0.028-0.49c-0.029-0.296-0.06-0.592-0.103-0.887c-0.083-0.57-0.215-1.13-0.382-1.683
	c-0.163-0.537-0.362-1.06-0.596-1.57c-0.189-0.412-0.399-0.812-0.631-1.199c-0.335-0.562-0.714-1.092-1.133-1.592
	c-0.285-0.342-0.59-0.668-0.914-0.976c-0.497-0.472-1.026-0.903-1.596-1.288c-0.407-0.275-0.829-0.526-1.266-0.752
	c-0.51-0.266-1.038-0.488-1.575-0.689c-0.537-0.201-1.086-0.358-1.648-0.481c-0.406-0.088-0.815-0.153-1.229-0.198
	c-0.384-0.041-0.769-0.065-1.156-0.065c-0.028,0-0.057-0.003-0.093-0.004c-0.003-0.031-0.009-0.056-0.01-0.081
	c-0.001-0.259-0.001-0.519,0-0.778c0.003-0.412,0.009-0.825,0.012-1.236c0.004-0.416,0.004-0.828,0.007-1.242
	c0.003-0.429,0.009-0.858,0.014-1.288c0.001-0.111,0.007-0.221,0.011-0.339c0.091-0.021,0.178-0.01,0.266-0.01
	C19.502,0.196,19.602,0.2,19.7,0.206c0.309,0.018,0.62,0.031,0.93,0.057c0.296,0.027,0.592,0.06,0.889,0.1
	c0.479,0.065,0.955,0.157,1.43,0.264c0.616,0.14,1.222,0.317,1.817,0.533c0.593,0.216,1.179,0.457,1.75,0.726
	c0.574,0.269,1.131,0.569,1.67,0.897c0.748,0.458,1.457,0.969,2.124,1.537c0.341,0.288,0.667,0.59,0.986,0.902
	c0.396,0.387,0.769,0.797,1.123,1.222c0.375,0.447,0.724,0.914,1.05,1.398c0.425,0.633,0.806,1.289,1.146,1.969
	c0.341,0.68,0.631,1.381,0.881,2.101c0.17,0.488,0.313,0.985,0.438,1.488c0.153,0.63,0.273,1.267,0.356,1.911
	c0.041,0.313,0.066,0.625,0.089,0.938c0.021,0.267,0.03,0.538,0.04,0.805c0.008,0.231,0.015,0.464,0.012,0.696
	c-0.005,0.278-0.018,0.557-0.035,0.834c-0.017,0.281-0.048,0.561-0.072,0.841c-0.002,0.011,0.001,0.019,0.003,0.04
	c0.032,0.007,0.065,0.021,0.1,0.023c0.445,0.042,0.893,0.084,1.338,0.126c0.12,0.011,0.238,0.023,0.384,0.039
	c-1.62,1.472-3.223,2.928-4.823,4.382C33.259,23.987,29.661,18.889,29.58,18.731"/>
<path fill-rule="evenodd" clip-rule="evenodd" fill="#39b0d2 " d="M12.845,26.03c-0.362,0.495-0.717,0.978-1.076,1.468
	c0.029,0.023,0.05,0.045,0.073,0.062c0.338,0.244,0.686,0.472,1.046,0.682c0.633,0.369,1.295,0.676,1.983,0.928
	c0.576,0.209,1.166,0.373,1.767,0.493c0.492,0.098,0.988,0.167,1.488,0.205c0.373,0.027,0.746,0.045,1.119,0.039
	c0.711-0.014,1.417-0.08,2.117-0.217c0.543-0.103,1.073-0.239,1.598-0.41c0.643-0.214,1.26-0.481,1.858-0.796
	c0.517-0.27,1.011-0.58,1.483-0.924c0.39-0.283,0.767-0.583,1.117-0.916c0.222-0.208,0.444-0.417,0.655-0.636
	c0.32-0.332,0.619-0.685,0.896-1.056c0.277-0.371,0.528-0.756,0.757-1.159c0.017-0.024,0.033-0.049,0.056-0.086
	c1.438,0.842,2.871,1.682,4.311,2.523c-0.018,0.034-0.03,0.061-0.044,0.085c-0.247,0.429-0.515,0.847-0.8,1.25
	c-0.287,0.406-0.593,0.801-0.914,1.182c-0.395,0.465-0.813,0.909-1.254,1.328c-0.471,0.446-0.968,0.863-1.485,1.257
	c-0.544,0.412-1.108,0.792-1.694,1.141c-0.793,0.471-1.621,0.872-2.479,1.208c-0.579,0.228-1.17,0.421-1.771,0.584
	c-0.541,0.148-1.087,0.27-1.64,0.363c-0.371,0.061-0.745,0.103-1.119,0.146c-0.296,0.033-0.594,0.055-0.89,0.074
	c-0.491,0.031-0.984,0.032-1.474,0.015c-0.409-0.014-0.816-0.052-1.223-0.089c-0.813-0.073-1.615-0.22-2.407-0.415
	c-0.787-0.193-1.558-0.438-2.307-0.743c-0.364-0.149-0.722-0.313-1.079-0.476c-0.528-0.241-1.035-0.523-1.528-0.828
	c-0.375-0.233-0.738-0.486-1.106-0.733c-0.027-0.017-0.055-0.034-0.089-0.057c-0.357,0.475-0.712,0.943-1.08,1.431
	c-0.454-2.119-0.903-4.214-1.355-6.314c0.029-0.007,0.05-0.016,0.072-0.018c0.489-0.046,0.977-0.091,1.466-0.138
	c0.39-0.035,0.783-0.069,1.173-0.105c0.447-0.043,0.892-0.086,1.339-0.13c0.303-0.029,0.606-0.056,0.909-0.083
	c0.462-0.044,0.925-0.091,1.387-0.134C12.743,26.027,12.784,26.03,12.845,26.03"/>
<path fill-rule="evenodd" clip-rule="evenodd" fill="#02a393" d="M23.487,10.402h1.673c0.009,0.035,0.021,0.071,0.024,0.107
	c0.044,0.454,0.095,0.907,0.131,1.362c0.039,0.492,0.079,0.984,0.091,1.476c0.012,0.544,0.007,1.089-0.021,1.632
	c-0.032,0.608-0.075,1.217-0.157,1.82c-0.119,0.888-0.322,1.76-0.633,2.603c-0.395,1.066-0.942,2.036-1.746,2.85
	c-0.583,0.588-1.262,1.04-2.026,1.345c-0.727,0.289-1.491,0.452-2.274,0.477c-0.48,0.016-0.964,0.003-1.441-0.048
	c-0.557-0.061-1.11-0.173-1.662-0.271c-0.208-0.038-0.413-0.102-0.64-0.157c0.032-0.4,0.057-0.784,0.095-1.167
	c0.055-0.566,0.195-1.116,0.374-1.653c0.208-0.624,0.483-1.217,0.814-1.787c0.376-0.646,0.808-1.253,1.299-1.817
	c0.294-0.338,0.601-0.664,0.917-0.983c0.325-0.331,0.652-0.658,1.003-0.961c0.457-0.393,0.936-0.759,1.404-1.14
	c0.023-0.019,0.041-0.047,0.084-0.1c-0.064,0.014-0.088,0.014-0.111,0.023c-1.139,0.415-2.229,0.928-3.247,1.594
	c-0.658,0.431-1.275,0.91-1.84,1.451c-0.663,0.637-1.244,1.342-1.732,2.125c-0.511,0.82-0.912,1.685-1.158,2.617
	c-0.004,0.016-0.018,0.029-0.034,0.056c-0.144-0.63-0.211-1.251-0.239-1.875c-0.026-0.577,0.009-1.153,0.101-1.724
	c0.118-0.726,0.313-1.43,0.615-2.104c0.492-1.097,1.186-2.045,2.095-2.827c0.354-0.304,0.731-0.585,1.119-0.846
	c0.984-0.659,2.066-1.106,3.201-1.43c1.235-0.353,2.498-0.544,3.782-0.603C23.395,10.445,23.441,10.419,23.487,10.402"/>
</svg>
