<?xml version="1.0" encoding="utf-8"?>
<!-- Generator: Adobe Illustrator 15.0.0, SVG Export Plug-In . SVG Version: 6.00 Build 0)  -->
<!DOCTYPE svg PUBLIC "-//W3C//DTD SVG 1.1//EN" "http://www.w3.org/Graphics/SVG/1.1/DTD/svg11.dtd">
<svg version="1.1" xmlns="http://www.w3.org/2000/svg" xmlns:xlink="http://www.w3.org/1999/xlink" x="0px" y="0px"
	 width="82.192px" height="78.082px" viewBox="0 0 82.192 78.082" enable-background="new 0 0 82.192 78.082" xml:space="preserve">
<g id="Layer_1" display="none">
	<path display="inline" fill="#39b0d2 " d="M40.909,3.078c-11.119,0-16.757,6.267-16.757,18.628c0,12.589,8.847,21.996,16.757,21.996
		c7.91,0,16.758-9.406,16.758-21.996C57.667,9.345,52.028,3.078,40.909,3.078"/>
	<path display="inline" fill="#02a393" d="M76.937,67.594l-3.086-16.019c-0.453-1.568-1.938-3.43-3.804-4.475L55.908,38.39
		c-3.815,5.354-9.269,8.891-15,8.891c-5.731,0-11.183-3.537-14.998-8.891l-14.14,8.711c-2.113,1.303-3.407,3.014-3.86,4.582
		L4.88,67.594c-1.043,3.774,2.879,7.304,8.115,7.304h55.827C74.058,74.897,77.979,71.368,76.937,67.594"/>
</g>
<g id="Layer_2" display="none">
	<path display="inline" fill-rule="evenodd" clip-rule="evenodd" fill="#39b0d2 " d="M78.78,36.525
		C66.79,25.851,54.806,15.171,42.816,4.496c-1.012-0.902-1.688-0.9-2.706,0.006C28.102,15.192,16.098,25.889,4.085,36.578
		c-0.569,0.506-0.94,1.047-0.584,1.761c0.354,0.706,1.054,0.847,1.853,0.841c2.414-0.015,4.83-0.005,7.244-0.005h0.928v35.817
		h20.177v-0.873c0-6.473,0-12.945,0.001-19.42c0-1.273,0.531-1.746,1.97-1.748c3.795-0.004,7.59-0.002,11.384,0
		c1.591,0,2.104,0.451,2.104,1.854c0.002,6.426,0.002,12.852,0.002,19.278v0.914h20.188V39.101h0.931
		c2.416,0,4.832-0.008,7.247,0.005c0.786,0.004,1.496-0.089,1.849-0.822C79.731,37.555,79.343,37.026,78.78,36.525"/>
</g>
<g id="Layer_3" display="none">
	<path display="inline" fill="#39b0d2 " d="M65.956,15.496c-0.02-0.021-0.029-0.044-0.05-0.068c-0.09-0.093-0.195-0.179-0.3-0.253
		C59.244,9.247,50.61,5.589,41.104,5.589c-4.084,0-8.004,0.68-11.656,1.917c-0.126,0.03-0.238,0.066-0.351,0.117
		c-4.711,1.652-8.956,4.251-12.497,7.552c-0.105,0.074-0.207,0.16-0.297,0.253c-0.019,0.024-0.035,0.047-0.054,0.068
		c-6.474,6.205-10.49,14.802-10.49,24.293c0,9.494,4.032,18.083,10.509,24.285c0.054,0.051,0.11,0.104,0.165,0.152
		c3.577,3.383,7.877,6.057,12.671,7.739c0.106,0.046,0.215,0.079,0.327,0.104c3.657,1.242,7.581,1.928,11.673,1.928
		c9.634,0,18.37-3.76,24.75-9.827c0.021-0.021,0.043-0.037,0.063-0.056c6.497-6.205,10.534-14.816,10.534-24.326
		C76.451,30.298,72.429,21.701,65.956,15.496 M72.877,38.09H61.103c-0.053-4.445-0.519-8.396-1.144-11.722
		c-0.331-1.802-0.726-3.485-1.14-5.047c2.615-0.892,4.428-1.838,5.546-2.518C69.3,23.917,72.46,30.653,72.877,38.09 M61.735,16.364
		c-0.904,0.496-2.18,1.094-3.883,1.688c-0.727-2.232-1.479-4.11-2.137-5.609C57.875,13.527,59.896,14.848,61.735,16.364
		 M26.152,12.614c-0.637,1.445-1.344,3.234-2.024,5.334c-1.578-0.561-2.781-1.13-3.639-1.593
		C22.224,14.917,24.124,13.662,26.152,12.614 M17.841,18.803c1.084,0.658,2.814,1.568,5.305,2.437
		c-0.429,1.585-0.828,3.292-1.166,5.128c-0.622,3.326-1.088,7.277-1.14,11.722H9.329C9.746,30.653,12.911,23.917,17.841,18.803
		 M9.329,41.493h11.553c0.185,5.068,0.961,10.699,2.611,16.722c-2.67,0.903-4.52,1.856-5.648,2.548
		C12.912,55.649,9.746,48.925,9.329,41.493 M20.478,63.2c0.917-0.502,2.232-1.115,3.989-1.72c0.598,1.86,1.261,3.743,2.042,5.667
		C24.339,66.058,22.323,64.723,20.478,63.2 M54.114,60.465c-0.908,2.821-1.999,5.71-3.357,8.673
		c-2.512,0.775-5.156,1.257-7.892,1.402v-6.471c-0.41-0.01-1.858-0.093-3.521-0.578v7.049c-2.851-0.149-5.601-0.67-8.208-1.506
		c-1.332-2.918-2.403-5.758-3.296-8.526c2.189-0.53,4.801-0.978,7.911-1.224c-0.588-0.857-0.932-1.955-0.893-3.34
		c-3.097,0.275-5.739,0.746-7.994,1.299c-1.547-5.674-2.276-10.976-2.462-15.75h13.106c0.241-1.568,0.2-2.664,0.06-3.403h-13.21
		c0.048-4.154,0.477-7.845,1.056-10.962c0.32-1.744,0.692-3.37,1.102-4.886c0.218,0.059,0.452,0.109,0.674,0.164
		c-0.451-0.673-0.772-1.361-0.919-1.903c-0.282-1.078-0.113-2.199,0.476-3.156c0.454-0.749,1.131-1.325,1.936-1.676
		c0.997-2.523,1.903-4.27,2.359-5.092c2.633-0.852,5.417-1.387,8.302-1.537v7.774c0.21,0.22,0.387,0.471,0.534,0.746
		c0.708-0.812,1.787-1.308,2.98-1.253h0.007V9.042c2.765,0.146,5.437,0.637,7.976,1.428c0.586,1.058,2.145,4.043,3.61,8.576
		c-0.974,0.24-2.054,0.459-3.208,0.652c0.191,0.338,0.331,0.706,0.402,1.096c0.492-0.153,1.027-0.208,1.576-0.14
		c2.008,0.257,3.428,2.039,3.172,3.98c-0.039,0.262-0.114,0.564-0.223,0.878c0.771,3.669,1.324,7.888,1.396,12.578h-1.213
		c-0.153,1.106-0.36,2.246-0.578,3.403h1.753c-0.181,4.836-0.918,10.104-2.437,15.688c-0.955-0.227-1.968-0.441-3.066-0.631
		c-0.46,1.328-1.082,2.371-1.801,3.176C51.646,59.936,52.942,60.188,54.114,60.465 M55.366,67.311
		c0.818-1.999,1.51-3.956,2.13-5.887c1.867,0.627,3.261,1.269,4.222,1.79C59.782,64.809,57.658,66.194,55.366,67.311 M64.361,60.763
		c-1.162-0.709-3.083-1.705-5.888-2.632c1.636-5.988,2.403-11.591,2.584-16.638h11.819C72.458,48.926,69.293,55.649,64.361,60.763"
		/>
	<path display="inline" fill="#02a393" d="M42.519,22.919c1.113,0.055,2.111-1.895,2.168-2.97c0.053-1.072-0.802-1.983-1.912-2.04
		c-1.109-0.05-2.049,0.776-2.106,1.85C40.615,20.833,41.413,22.868,42.519,22.919 M52.345,27.218
		c1.104,0.138,2.258-1.725,2.401-2.788c0.144-1.068-0.638-2.042-1.738-2.182c-1.1-0.138-2.106,0.612-2.251,1.68
		C50.615,24.994,51.243,27.084,52.345,27.218 M47.834,24.474c1.11,0.069,2.134-1.867,2.206-2.938
		c0.066-1.073-0.775-1.994-1.887-2.062c-1.108-0.07-2.061,0.749-2.129,1.819C45.953,22.365,46.728,24.409,47.834,24.474
		 M36.602,22.232c1.11,0,2.013-1.991,2.013-3.07c0-1.074-0.903-1.95-2.013-1.95c-1.109,0-2.009,0.876-2.009,1.95
		C34.593,20.242,35.493,22.232,36.602,22.232 M43.874,23.986c0,0-15.661-4.502-14.799,5.416c0.421,4.819,7.527,5.283,7.527,5.283
		s6.598,0.477-0.67,16.972c-0.743,1.688-1.041,3.084-1.074,4.287c-0.039,1.385,0.305,2.482,0.893,3.34
		c2.131,3.112,7.242,3.186,7.242,3.186s4.322,0.502,7.232-2.743c0.719-0.806,1.34-1.849,1.801-3.177
		c0.451-1.312,0.754-2.877,0.785-4.823C53.049,37.555,61.287,29.334,43.874,23.986 M31.482,23.393
		c1.418-0.354,1.9-3.182,1.538-4.554c-0.36-1.373-1.809-2.203-3.226-1.849c-1.419,0.345-2.277,1.743-1.916,3.116
		C28.239,21.477,30.064,23.743,31.482,23.393"/>
</g>
<g id="Layer_4" display="none">
	<path display="inline" fill="#39b0d2 " d="M79.708,49.579c0.637-0.956,0.66-2.545-0.05-4.076c-0.68-1.476-1.854-2.488-2.979-2.722
		c-6.514-11.239-19.797-20.576-35.239-20.654c-10.924-0.059-17.501,1.996-21.475,5.466l-5.686,0.41l1.567,5.48l0.016-0.006
		C14.327,37.326,14,41.915,13.927,46.88c-3.895-2.479-6.698-6.414-7.561-10.913C4.665,27.046,8.846,19.598,16.6,17.376
		c1.369,2.264,3.886,3.769,6.738,3.769h0.002c0.313,0,0.629-0.016,0.947-0.053l1.733-0.203l-0.163-1.304l4.517-0.534l-0.418-3.349
		l-4.52,0.527L24.77,10.94l4.52-0.529l-0.421-3.356L24.35,7.589l-0.221-1.762L22.397,6.03c-2.076,0.244-3.931,1.26-5.22,2.853
		c-1.221,1.51-1.77,3.371-1.614,5.265c-9.516,2.73-14.672,11.708-12.626,22.43C4.104,42.69,8.236,47.952,13.9,50.769l-0.028,4.572
		c1.755-2.136,4.245-3.719,7.182-4.309c0.849-0.168,1.714-0.26,2.574-0.26c5.861,0,10.865,3.857,12.167,9.373
		c0.368,1.557,0.41,3.094,0.183,4.565l23.87,0.125c-0.29-5.259,3.474-10.125,8.921-11.188c0.739-0.143,1.493-0.215,2.241-0.215
		c4.332,0,8.095,2.367,9.942,5.961l0.011-1.86C80.978,54.913,80.54,52.235,79.708,49.579 M33.737,39.007l-14.015-0.86
		c1.169-6.884,4.987-11.924,17.08-12.933C34.67,30.195,34.07,35.081,33.737,39.007 M36.894,39.203
		c0.383-4.052,1.13-9.272,3.436-14.162c0.412-0.007,0.799-0.026,1.228-0.026c12.382,0,23.113,7.298,28.572,16.229L36.894,39.203z"/>
	<path display="inline" fill="#02a393" d="M69.184,55.634c-4.82,0.943-7.993,5.461-7.125,10.152
		c0.659,3.578,3.562,6.406,7.247,7.065c0.27,0.05,0.544,0.089,0.818,0.134c0.547,0.006,1.088,0.008,1.631,0.01
		c0.055-0.012,0.106-0.03,0.158-0.039c0.393-0.064,0.793-0.104,1.182-0.191c4.716-1.086,7.873-5.621,6.76-10.454
		C78.777,57.629,74.04,54.685,69.184,55.634 M71.87,67.784c-0.162,0.037-0.326,0.056-0.488,0.08
		c-0.025,0.006-0.045,0.013-0.067,0.017c-0.226,0-0.451-0.004-0.679-0.004c-0.119-0.021-0.229-0.034-0.346-0.056
		c-1.535-0.273-2.746-1.453-3.02-2.946c-0.362-1.954,0.961-3.841,2.972-4.232c2.025-0.396,4,0.832,4.448,2.783
		C75.155,65.44,73.839,67.333,71.87,67.784"/>
	<path display="inline" fill="#02a393" d="M21.48,53.017c-5.51,1.104-9.115,6.301-8.087,11.669c0.778,4.097,4.127,7.321,8.352,8.051
		c0.313,0.054,0.625,0.101,0.94,0.152h1.87c0.06-0.017,0.123-0.034,0.183-0.045c0.45-0.078,0.909-0.123,1.35-0.229
		c5.394-1.27,8.978-6.486,7.666-12.014C32.489,55.241,27.041,51.901,21.48,53.017 M24.649,66.919
		c-0.185,0.045-0.375,0.063-0.561,0.095c-0.025,0.004-0.053,0.014-0.075,0.017h-0.78c-0.132-0.019-0.264-0.039-0.393-0.061
		c-1.763-0.303-3.155-1.648-3.484-3.359c-0.426-2.234,1.073-4.402,3.373-4.863c2.316-0.465,4.589,0.929,5.119,3.162
		C28.394,64.218,26.899,66.388,24.649,66.919"/>
</g>
<g id="Layer_5">
	<path fill="#39b0d2 " d="M41.077,17.582l25.618,18.133v33.283H15.457V35.714L41.077,17.582 M41.077,13.906l-28.62,20.256v36.812
		c0,0.565,0.458,1.022,1.022,1.022h55.194c0.564,0,1.022-0.457,1.022-1.022V34.163L41.077,13.906z"/>
	<path fill="#39b0d2 " d="M41.077,6.154L8.036,29.818v10.966l32.449-22.968c0.007-0.001,0.016-0.005,0.023-0.012
		c0.033-0.021,0.068-0.039,0.103-0.058c0.027-0.011,0.052-0.027,0.079-0.039c0.032-0.011,0.065-0.022,0.097-0.031
		c0.031-0.008,0.062-0.02,0.095-0.026c0.031-0.006,0.063-0.01,0.095-0.01c0.033-0.004,0.066-0.009,0.1-0.009
		c0.033,0,0.064,0.005,0.098,0.009c0.033,0,0.064,0.004,0.095,0.01c0.034,0.006,0.064,0.018,0.094,0.026
		c0.033,0.009,0.066,0.02,0.098,0.031c0.027,0.012,0.053,0.028,0.08,0.039c0.034,0.019,0.068,0.037,0.102,0.058
		c0.008,0.007,0.017,0.011,0.023,0.012l32.449,22.968V29.818L41.077,6.154z"/>
	<path fill="#02a393" d="M53.75,48.329c0.01,0.23-0.01,0.471-0.04,0.7c-0.021,0.261-0.061,0.521-0.102,0.78
		c-0.039,0.25-0.088,0.5-0.148,0.75c-0.04,0.17-0.09,0.341-0.141,0.51c-0.039,0.141-0.069,0.291-0.109,0.432
		c-0.05,0.17-0.12,0.34-0.18,0.52c-0.051,0.15-0.1,0.3-0.16,0.439c-0.11,0.26-0.23,0.521-0.35,0.779
		c-0.082,0.17-0.17,0.352-0.261,0.521c-0.14,0.25-0.27,0.5-0.43,0.729c-0.19,0.311-0.392,0.602-0.61,0.891
		c-0.229,0.301-0.479,0.601-0.74,0.881c-0.22,0.25-0.449,0.479-0.689,0.699c-0.17,0.159-0.352,0.309-0.53,0.461
		c-0.26,0.211-0.52,0.428-0.79,0.619c-0.3,0.211-0.619,0.391-0.93,0.592c-0.109,0.068-0.23,0.137-0.352,0.209
		c-0.158,0.08-0.309,0.16-0.459,0.229c-0.26,0.12-0.51,0.24-0.76,0.352c-0.16,0.06-0.32,0.108-0.479,0.17
		c-0.171,0.049-0.33,0.119-0.5,0.17c-0.15,0.049-0.302,0.08-0.45,0.119c-0.07,0.021-0.15,0.051-0.221,0.069
		c-0.229,0.052-0.449,0.101-0.68,0.142c-0.34,0.059-0.689,0.108-1.031,0.148c-0.448,0.051-0.889,0.09-1.25,0.121
		c-0.5-0.031-0.899-0.04-1.309-0.08c-0.35-0.041-0.7-0.091-1.05-0.15c-0.2-0.031-0.391-0.09-0.58-0.141
		c-0.08-0.02-0.16-0.029-0.231-0.049c-0.269-0.071-0.54-0.131-0.799-0.221c-0.25-0.08-0.491-0.19-0.741-0.279
		c-0.159-0.071-0.319-0.131-0.479-0.201c-0.24-0.109-0.481-0.229-0.72-0.35c-0.32-0.17-0.631-0.34-0.93-0.529
		c-0.34-0.221-0.661-0.471-0.98-0.721c-0.61-0.459-1.16-0.99-1.67-1.57c-0.34-0.38-0.65-0.801-0.94-1.221
		c-0.19-0.279-0.35-0.559-0.52-0.838c-0.14-0.25-0.27-0.5-0.4-0.76c-0.13-0.281-0.27-0.562-0.39-0.851
		c-0.08-0.201-0.15-0.42-0.221-0.632C29.34,51.579,29.28,51.4,29.22,51.21c-0.05-0.17-0.08-0.341-0.12-0.51
		c-0.04-0.18-0.09-0.371-0.13-0.561c-0.031-0.11-0.04-0.209-0.06-0.319c-0.02-0.149-0.051-0.3-0.06-0.46
		c-0.02-0.281-0.04-0.561-0.05-0.85c-0.02-0.392-0.03-0.781-0.03-1.162c0-0.25,0.02-0.5,0.04-0.75c0.03-0.258,0.06-0.52,0.11-0.778
		c0.04-0.241,0.09-0.491,0.14-0.741c0.04-0.158,0.089-0.328,0.14-0.5c0.02-0.068,0.03-0.139,0.05-0.21c0.08-0.25,0.16-0.5,0.25-0.75
		c0.12-0.319,0.23-0.639,0.37-0.948c0.13-0.291,0.279-0.572,0.44-0.851c0.15-0.271,0.299-0.54,0.46-0.8
		c0.14-0.211,0.299-0.422,0.45-0.62c0.16-0.22,0.33-0.43,0.49-0.65c0.18-0.23,0.37-0.46,0.62-0.62c0.18-0.12,0.38-0.21,0.58-0.281
		c0.29-0.109,0.59-0.109,0.88-0.099c0.13,0.01,0.25,0.03,0.359,0.07C34.3,38.869,34.45,38.93,34.59,39
		c0.08,0.04,0.15,0.099,0.22,0.139c0.35,0.23,0.57,0.55,0.74,0.911c0.059,0.139,0.09,0.299,0.12,0.46
		c0.03,0.17,0.04,0.35,0.04,0.519c-0.01,0.19-0.05,0.38-0.13,0.562c-0.06,0.109-0.08,0.238-0.15,0.34
		c-0.14,0.199-0.281,0.398-0.45,0.59c-0.25,0.3-0.48,0.609-0.68,0.939c-0.24,0.381-0.46,0.77-0.611,1.189
		C33.6,44.9,33.49,45.14,33.41,45.39c-0.051,0.15-0.08,0.3-0.12,0.459c-0.05,0.201-0.09,0.402-0.141,0.601
		c0,0.011-0.009,0.021-0.009,0.031c-0.05,0.599-0.14,1.19-0.09,1.788c0.03,0.301,0.05,0.601,0.099,0.891
		c0.021,0.201,0.091,0.391,0.131,0.581c0.039,0.169,0.07,0.339,0.119,0.499c0.061,0.201,0.141,0.41,0.221,0.602
		c0.12,0.278,0.239,0.549,0.37,0.819c0.09,0.181,0.199,0.351,0.31,0.521c0.16,0.24,0.33,0.469,0.5,0.709
		c0.26,0.361,0.57,0.689,0.9,0.99c0.36,0.31,0.73,0.621,1.14,0.86c0.29,0.169,0.559,0.339,0.849,0.489
		c0.161,0.091,0.331,0.15,0.5,0.211c0.17,0.07,0.331,0.15,0.511,0.199c0.199,0.061,0.409,0.111,0.61,0.16
		c0.1,0.029,0.21,0.061,0.31,0.09c0.01,0.011,0.029,0.011,0.04,0.011c0.35,0.04,0.69,0.08,1.04,0.11
		c0.27,0.019,0.55,0.039,0.82,0.029c0.289-0.011,0.569-0.051,0.85-0.08c0.15-0.02,0.3-0.029,0.449-0.06
		c0.101-0.011,0.201-0.04,0.289-0.071c0.172-0.039,0.342-0.078,0.5-0.129c0.182-0.061,0.361-0.121,0.541-0.189
		c0.25-0.102,0.5-0.201,0.73-0.312c0.221-0.101,0.42-0.219,0.62-0.351c0.33-0.217,0.681-0.428,0.99-0.689
		c0.35-0.279,0.69-0.59,0.97-0.949c0.229-0.289,0.471-0.591,0.68-0.9c0.211-0.329,0.4-0.67,0.58-1.02
		c0.12-0.261,0.211-0.539,0.311-0.81c0.09-0.271,0.18-0.54,0.24-0.81c0.06-0.24,0.08-0.49,0.119-0.74
		c0.07-0.441,0.11-0.881,0.09-1.332c-0.01-0.258-0.029-0.508-0.06-0.758c-0.04-0.301-0.08-0.59-0.149-0.871
		c-0.061-0.27-0.162-0.529-0.24-0.789c-0.12-0.42-0.301-0.82-0.51-1.2c-0.141-0.271-0.301-0.54-0.48-0.791
		c-0.24-0.329-0.52-0.64-0.76-0.96c-0.131-0.189-0.25-0.4-0.33-0.62c-0.11-0.31-0.16-0.608-0.131-0.929
		c0.021-0.17,0.07-0.34,0.131-0.51c0.05-0.15,0.119-0.29,0.199-0.43c0.23-0.391,0.561-0.65,0.971-0.831
		c0.37-0.169,0.77-0.199,1.16-0.149c0.229,0.03,0.449,0.109,0.658,0.22c0.321,0.159,0.582,0.4,0.802,0.68
		c0.17,0.22,0.35,0.43,0.52,0.66c0.23,0.319,0.45,0.64,0.66,0.979c0.181,0.279,0.33,0.569,0.479,0.859
		c0.131,0.241,0.24,0.473,0.351,0.71c0.069,0.151,0.108,0.312,0.17,0.46c0.07,0.2,0.16,0.4,0.229,0.611
		c0.07,0.199,0.11,0.4,0.17,0.6c0.021,0.069,0.039,0.141,0.061,0.211c0.059,0.26,0.12,0.518,0.18,0.789
		c0.021,0.092,0.03,0.189,0.049,0.28c0.021,0.181,0.052,0.36,0.062,0.528c0.03,0.271,0.04,0.541,0.05,0.822
		C53.74,47.55,53.75,47.94,53.75,48.329"/>
	<path fill="#02a393" d="M43.43,34.149v13.49c0,0.311-0.04,0.6-0.14,0.891c-0.131,0.379-0.351,0.68-0.66,0.94
		c-0.19,0.169-0.41,0.28-0.641,0.379c-0.279,0.11-0.58,0.11-0.879,0.101c-0.28,0-0.54-0.091-0.78-0.211
		c-0.39-0.188-0.7-0.47-0.91-0.85c-0.11-0.189-0.18-0.4-0.24-0.62c-0.06-0.249-0.04-0.5-0.04-0.749
		c-0.01-2.23-0.01-4.461-0.01-6.691h0.01V33.75c0-0.311,0.1-0.591,0.23-0.871c0.12-0.23,0.27-0.419,0.45-0.6
		c0.211-0.2,0.461-0.349,0.75-0.45c0.24-0.079,0.49-0.14,0.74-0.13c0.32,0.02,0.62,0.08,0.91,0.231
		c0.279,0.139,0.52,0.329,0.72,0.57c0.15,0.189,0.261,0.4,0.351,0.63C43.409,33.471,43.43,33.81,43.43,34.149"/>
</g>
<g id="Layer_6" display="none">
	<path display="inline" fill="#39b0d2 " d="M35.308,67.786c-8.48,0-12.592-6.422-13.948-9.117H10.421
		c-3.721,0-6.748-2.932-6.748-6.531v-35.49c0-3.6,3.027-6.531,6.748-6.531h61.26c3.719,0,6.743,2.931,6.743,6.531v35.49
		c0,3.6-3.024,6.531-6.743,6.531H36.318c-0.636,1.802-1.29,4.801,0.181,6.039c0.569,0.482,0.771,1.252,0.507,1.939
		C36.741,67.331,36.065,67.786,35.308,67.786 M10.421,13.629c-1.722,0-3.122,1.353-3.122,3.018v35.49c0,1.664,1.4,3.018,3.122,3.018
		h12.121c0.767,0,1.448,0.465,1.708,1.16c0.103,0.275,2.299,5.868,7.864,7.512c-0.633-3.356,1.058-7.092,1.323-7.649
		c0.296-0.621,0.938-1.022,1.647-1.022h36.597c1.718,0,3.118-1.354,3.118-3.018v-35.49c0-1.665-1.4-3.018-3.118-3.018H10.421z"/>
	<rect x="11.225" y="24.531" display="inline" fill="#39b0d2 " width="42.89" height="4.838"/>
	<rect x="11.225" y="39.183" display="inline" fill="#39b0d2 " width="26.041" height="4.838"/>
	<rect x="11.226" y="17.209" display="inline" fill="#02a393" width="59.648" height="4.838"/>
	<rect x="11.226" y="31.858" display="inline" fill="#02a393" width="59.648" height="4.838"/>
	<rect x="11.11" y="46.505" display="inline" fill="#02a393" width="59.649" height="4.836"/>
</g>
<g id="Layer_7" display="none">
	<path display="inline" fill="#39b0d2 " d="M71.923,74.786H10.972c-4.086,0-7.365-1.549-8.988-4.24
		c-1.618-2.698-1.395-6.217,0.625-9.659L33.244,8.588c2.024-3.454,5.011-5.435,8.204-5.435c3.197,0,6.188,1.981,8.208,5.435
		L80.29,60.887c2.017,3.442,2.244,6.961,0.619,9.659C79.288,73.237,76.013,74.786,71.923,74.786 M41.447,8.62
		c-1.099,0-2.298,0.973-3.29,2.665L7.521,63.588c-1.001,1.704-1.233,3.235-0.654,4.202c0.583,0.971,2.081,1.527,4.104,1.527h60.951
		c2.027,0,3.523-0.557,4.104-1.527c0.588-0.969,0.347-2.498-0.651-4.204L44.741,11.285C43.753,9.591,42.548,8.62,41.447,8.62"/>
	<path display="inline" fill="#02a393" d="M44.636,20.543V32.14l-2.449,19.824H40.4l-2.084-20.337V20.543H44.636z M44.636,64.263
		h-6.32v-8.745h6.32V64.263z"/>
</g>
<g id="Layer_8" display="none">
	<path display="inline" fill="#39b0d2 " d="M60.117,3.104H22.344c-2.109,0-3.819,1.71-3.819,3.82v64.091
		c0,2.109,1.71,3.82,3.819,3.82h37.773c2.108,0,3.819-1.711,3.819-3.82V6.924C63.937,4.814,62.226,3.104,60.117,3.104
		 M41.231,70.847c-1.493,0-2.703-1.211-2.703-2.703s1.21-2.701,2.703-2.701c1.493,0,2.702,1.209,2.702,2.701
		S42.724,70.847,41.231,70.847 M58.353,60.155c0,0.654-0.531,1.186-1.187,1.186h-31.87c-0.656,0-1.187-0.531-1.187-1.186V10.46
		c0-0.655,0.531-1.187,1.187-1.187h31.87c0.655,0,1.187,0.532,1.187,1.187V60.155z"/>
	<polygon display="inline" fill="#02a393" points="41.23,48.547 27.747,38.977 27.747,58.116 54.714,58.116 54.714,38.977 	"/>
	<polygon display="inline" fill="#02a393" points="31.963,38.977 41.231,45.545 50.763,38.977 	"/>
</g>
<g id="Layer_9" display="none">
	<path display="inline" fill="#39b0d2 " d="M36.096,26.368l1.629-1.628l-0.277-6.385c1.515-1.514,1.617-3.854,0.23-5.245
		c4.716-4.714,13.386-8.366,13.386-8.366C38.652,2.646,33.51,7.122,32.681,7.954c-0.082,0.081-0.121,0.134-0.121,0.134l0.019,0.019
		c-1.404-0.944-3.411-0.724-4.758,0.622l-14.957,14.96c-1.517,1.513-1.618,3.869-0.227,5.258c-3.654,0.868-6,0.966-7.513,2.48
		l-2.861,2.862c-1.517,1.52-1.621,3.87-0.229,5.261l4.602,4.601c1.389,1.389,3.738,1.281,5.253-0.234l2.862-2.861
		c1.515-1.519,1.616-3.855,2.49-7.506c1.389,1.388,3.737,1.28,5.25-0.235l6.378,0.283l1.835-1.835l10.921,11.825
		c0.223-0.228,0.441-0.451,0.664-0.677c1.988-2.024,4.01-4.081,6.042-6.139L36.096,26.368z M53.94,41.541
		c-2.065,2.093-4.129,4.175-6.16,6.226c-0.396,0.399-0.791,0.801-1.188,1.197l24.734,26.785l10.5-10.504L53.94,41.541z"/>
	<path display="inline" fill-rule="evenodd" clip-rule="evenodd" fill="#02a393" d="M79.579,6.869
		c-3.827,2.938-7.459,5.843-11.23,8.557c-2.004,1.44-3.48,3.111-4.273,5.457c-1.086,3.203-3.076,5.765-5.492,8.147
		c-6.903,6.793-13.641,13.744-20.441,20.641c-0.242,0.241-0.479,0.502-0.718,0.771c-1.239-1.205-2.478-2.407-3.706-3.597
		c-0.213,0.08-0.323,0.089-0.383,0.147c-6.003,6.068-12.011,12.134-17.974,18.229c-0.242,0.248-0.304,0.986-0.122,1.297
		c2.149,3.595,4.956,6.554,8.596,8.703c0.887,0.527,1.412,0.486,2.15-0.276c3.686-3.825,7.439-7.578,11.167-11.36
		c2.224-2.25,4.451-4.5,6.765-6.854c-1.293-1.255-2.576-2.494-3.852-3.729c0.375-0.365,0.715-0.697,1.047-1.033
		c6.771-6.854,13.587-13.665,20.28-20.596c2.185-2.262,4.502-4.2,7.481-5.234c2.66-0.919,4.553-2.652,6.146-4.958
		c2.552-3.695,5.341-7.225,8.081-10.902C81.885,9.102,80.745,8,79.579,6.869"/>
</g>
<g id="Layer_10" display="none">
	<path display="inline" fill="#39b0d2 " d="M64.286,68.192H18.753c-1.106,0-2.002-0.896-2.002-2.003c0-1.104,0.896-2.002,2.002-2.002
		h45.533c1.105,0,2.002,0.897,2.002,2.002C66.288,67.296,65.392,68.192,64.286,68.192"/>
	<path display="inline" fill="#39b0d2 " d="M18.753,74.8c-1.105,0-2.002-0.896-2.002-2.002c0-1.105,0.897-2.002,2.002-2.002
		l45.533-0.001c1.105,0,2.002,0.897,2.002,2.002c0,1.106-0.896,2.002-2.002,2.002L18.753,74.8z"/>
	<path display="inline" fill="#02a393" d="M43.217,61.552h-3.104v-6.37c-4.204-0.47-7.34-1.387-9.41-2.753
		c-3.648-2.452-5.442-6.636-5.378-12.546h8.643c0.299,2.688,0.713,4.491,1.247,5.408c0.832,1.432,2.463,2.358,4.898,2.786V34.409
		l-2.592-0.769c-4.077-1.194-6.953-2.856-8.626-4.992c-1.677-2.134-2.513-4.704-2.513-7.713c0-1.985,0.325-3.788,0.976-5.41
		c0.651-1.622,1.562-3.019,2.737-4.192c1.515-1.514,3.2-2.561,5.057-3.137c1.129-0.363,2.783-0.63,4.961-0.8V3.139h3.104V7.46
		c3.462,0.277,6.181,1.13,8.155,2.561c3.588,2.283,5.449,5.983,5.576,11.105h-8.42c-0.169-1.899-0.484-3.285-0.949-4.161
		c-0.799-1.515-2.254-2.346-4.362-2.496v12.196c5.057,1.75,8.454,3.295,10.198,4.639c2.865,2.24,4.301,5.4,4.301,9.475
		c0,5.379-1.975,9.282-5.922,11.717c-2.411,1.492-5.271,2.367-8.577,2.623V61.552z M40.113,14.533
		c-1.857,0.044-3.233,0.54-4.129,1.489c-0.898,0.949-1.345,2.245-1.345,3.888c0,1.793,0.673,3.211,2.016,4.257
		c0.747,0.577,1.899,1.111,3.458,1.602V14.533z M43.217,47.979c1.666-0.211,2.88-0.597,3.64-1.151
		c1.328-0.981,1.994-2.676,1.994-5.088c0-1.835-0.622-3.286-1.867-4.353c-0.738-0.62-1.996-1.26-3.767-1.922V47.979z"/>
</g>
<g id="Layer_11" display="none">
	<rect x="47.741" y="44.574" display="inline" fill="#39b0d2 " width="30.875" height="1.106"/>
	<rect x="3.356" y="71.357" display="inline" fill="#39b0d2 " width="43.006" height="1.54"/>
	
		<rect x="9.097" y="15.33" transform="matrix(0.9497 -0.3131 0.3131 0.9497 -3.1858 13.5867)" display="inline" fill="#39b0d2 " width="63.213" height="2.762"/>
	<path display="inline" fill-rule="evenodd" clip-rule="evenodd" fill="#39b0d2 " d="M37.45,55.602
		c-4.043-3.599-8.083-7.2-12.126-10.8c-0.341-0.305-0.569-0.303-0.912,0.002c-4.05,3.605-8.097,7.212-12.147,10.814
		c-0.192,0.172-0.317,0.354-0.197,0.595c0.119,0.237,0.356,0.286,0.625,0.284c0.814-0.006,1.628-0.002,2.442-0.002h0.313v12.076
		h6.803v-0.293c0-2.184,0-4.365,0.001-6.549c0-0.43,0.179-0.59,0.664-0.59c1.279-0.001,2.559-0.001,3.838,0
		c0.537,0,0.71,0.152,0.71,0.625c0,2.167,0,4.334,0,6.5v0.309h6.808V56.47h0.313c0.815,0,1.629-0.003,2.444,0.002
		c0.265,0.001,0.504-0.029,0.623-0.277C37.771,55.948,37.64,55.771,37.45,55.602"/>
	<path display="inline" fill-rule="evenodd" clip-rule="evenodd" fill="#39b0d2 " d="M72.082,32.792
		c-2.858-2.545-5.717-5.092-8.575-7.637c-0.242-0.215-0.402-0.215-0.645,0.001c-2.864,2.55-5.727,5.1-8.59,7.648
		c-0.137,0.121-0.225,0.25-0.141,0.42c0.085,0.169,0.252,0.202,0.442,0.201c0.575-0.004,1.151-0.001,1.728-0.001h0.221v8.54h4.812
		v-0.208c0-1.544,0-3.087,0-4.631c0-0.303,0.127-0.416,0.47-0.417c0.905,0,1.809,0,2.715,0c0.379,0,0.502,0.108,0.502,0.443
		c0,1.532,0,3.064,0,4.596v0.218h4.813v-8.559h0.222c0.576,0,1.152-0.002,1.729,0.001c0.188,0.001,0.357-0.021,0.441-0.196
		C72.31,33.037,72.216,32.911,72.082,32.792"/>
	<path display="inline" fill="#02a393" d="M42.288,13.148c0-0.644-0.709-1.163-1.584-1.163c-0.877,0-1.586,0.519-1.586,1.163v2.631
		l3.17-1.045V13.148z M22.484,24.173L4.826,71.356h2.982l5.562-14.86c-0.226,0-0.452-0.001-0.677,0
		c-0.27,0.002-0.506-0.045-0.625-0.282c-0.12-0.242,0.005-0.424,0.197-0.595c0.717-0.638,1.433-1.276,2.149-1.914l10.003-26.729
		l10.317,26.207c0.905,0.807,1.811,1.612,2.716,2.42c0.19,0.168,0.321,0.346,0.202,0.592c-0.119,0.247-0.358,0.279-0.623,0.277
		c-0.334-0.002-0.667,0-1.001,0l5.86,14.885h3.002L25.876,23.054L22.484,24.173z M64.055,10.465l-2.758,0.909l-12.425,33.2h1.988
		l4.172-11.15c-0.151,0-0.305,0-0.457,0c-0.191,0.002-0.358-0.032-0.442-0.2c-0.085-0.17,0.003-0.299,0.139-0.42
		c0.497-0.442,0.993-0.885,1.49-1.327l7.097-18.964l7.314,18.578c0.636,0.567,1.273,1.134,1.909,1.701
		c0.134,0.119,0.227,0.245,0.143,0.419c-0.084,0.175-0.253,0.197-0.44,0.196c-0.233-0.002-0.467-0.001-0.7-0.001l4.396,11.168h2.002
		L64.055,10.465z"/>
</g>
</svg>
