<?xml version="1.0" encoding="utf-8"?>
<!-- Generator: Adobe Illustrator 15.0.0, SVG Export Plug-In . SVG Version: 6.00 Build 0)  -->
<!DOCTYPE svg PUBLIC "-//W3C//DTD SVG 1.1//EN" "http://www.w3.org/Graphics/SVG/1.1/DTD/svg11.dtd">
<svg version="1.1" xmlns="http://www.w3.org/2000/svg" xmlns:xlink="http://www.w3.org/1999/xlink" x="0px" y="0px" width="29px"
	 height="25px" viewBox="0 0 29 25" enable-background="new 0 0 29 25" xml:space="preserve">
<g id="Layer_1" display="none">
	<path display="inline" fill="#3a4885" d="M24.884,25.103H3.525c-1.432,0-2.581-0.543-3.15-1.485
		c-0.567-0.946-0.488-2.18,0.219-3.386L11.33,1.905C12.039,0.694,13.085,0,14.205,0c1.12,0,2.167,0.694,2.877,1.905l10.734,18.326
		c0.706,1.206,0.785,2.439,0.217,3.386C27.466,24.56,26.317,25.103,24.884,25.103 M14.205,1.916c-0.385,0-0.806,0.341-1.153,0.934
		L2.317,21.178c-0.352,0.598-0.433,1.134-0.23,1.473c0.205,0.34,0.729,0.536,1.438,0.536h21.359c0.71,0,1.235-0.196,1.438-0.536
		c0.206-0.34,0.122-0.875-0.229-1.473L15.358,2.85C15.013,2.256,14.591,1.916,14.205,1.916"/>
	<path display="inline" fill="#efd894" d="M15.322,6.094v4.064l-0.858,6.946h-0.626l-0.73-7.126V6.094H15.322z M15.322,21.414
		h-2.215v-3.063h2.215V21.414z"/>
</g>
<g id="Layer_2" display="none">
	<path display="inline" fill="#005A9C" d="M14.193,4.688l9.455,6.692v12.284H4.739V11.38L14.193,4.688 M14.193,3.332L3.631,10.808
		v13.586c0,0.208,0.169,0.377,0.377,0.377h20.37c0.207,0,0.377-0.169,0.377-0.377V10.808L14.193,3.332z"/>
	<path display="inline" fill="#3a4885" d="M14.193,0.471L2,9.205v4.046l11.975-8.476c0.003,0,0.006-0.002,0.009-0.004
		c0.012-0.008,0.025-0.015,0.038-0.021c0.01-0.004,0.02-0.01,0.029-0.015c0.012-0.004,0.024-0.008,0.036-0.011
		c0.011-0.003,0.022-0.008,0.035-0.01c0.011-0.002,0.022-0.003,0.034-0.003c0.014-0.001,0.025-0.004,0.037-0.004
		c0.013,0,0.023,0.002,0.037,0.004c0.012,0,0.023,0.001,0.034,0.003c0.013,0.002,0.024,0.006,0.035,0.01
		c0.012,0.003,0.024,0.007,0.036,0.011c0.01,0.004,0.02,0.011,0.029,0.015c0.014,0.007,0.025,0.014,0.037,0.021
		c0.004,0.002,0.007,0.003,0.01,0.004l11.976,8.476V9.205L14.193,0.471z"/>
	<path display="inline" fill="#efd894" d="M18.871,16.036c0.004,0.085-0.004,0.174-0.015,0.259
		c-0.007,0.096-0.021,0.191-0.038,0.287c-0.015,0.093-0.031,0.185-0.055,0.277c-0.015,0.063-0.033,0.125-0.051,0.188
		c-0.015,0.053-0.025,0.107-0.04,0.16c-0.019,0.062-0.046,0.126-0.067,0.191c-0.019,0.056-0.037,0.111-0.059,0.162
		c-0.042,0.097-0.086,0.192-0.129,0.287c-0.031,0.063-0.064,0.13-0.097,0.193c-0.052,0.091-0.101,0.185-0.159,0.268
		c-0.07,0.115-0.144,0.223-0.226,0.33c-0.084,0.111-0.177,0.221-0.273,0.324c-0.08,0.093-0.165,0.178-0.253,0.259
		c-0.063,0.058-0.131,0.113-0.196,0.169c-0.095,0.078-0.191,0.158-0.292,0.229c-0.111,0.077-0.228,0.144-0.342,0.219
		c-0.041,0.024-0.086,0.05-0.131,0.076c-0.059,0.029-0.113,0.06-0.17,0.084c-0.095,0.046-0.188,0.089-0.279,0.13
		c-0.061,0.023-0.118,0.04-0.178,0.063c-0.063,0.018-0.121,0.044-0.185,0.063c-0.055,0.018-0.111,0.03-0.165,0.044
		c-0.026,0.008-0.057,0.019-0.082,0.025c-0.084,0.02-0.166,0.037-0.251,0.052c-0.125,0.022-0.255,0.04-0.381,0.056
		c-0.165,0.02-0.327,0.033-0.46,0.045c-0.186-0.012-0.333-0.015-0.484-0.029c-0.129-0.016-0.258-0.035-0.387-0.057
		c-0.074-0.011-0.145-0.033-0.215-0.051c-0.029-0.008-0.059-0.011-0.085-0.019c-0.099-0.026-0.199-0.049-0.294-0.082
		c-0.093-0.029-0.182-0.07-0.274-0.103c-0.059-0.026-0.117-0.049-0.177-0.074c-0.089-0.041-0.177-0.084-0.266-0.129
		c-0.118-0.063-0.233-0.126-0.343-0.195c-0.126-0.082-0.244-0.175-0.362-0.266c-0.225-0.169-0.428-0.366-0.616-0.58
		c-0.125-0.141-0.24-0.296-0.347-0.451c-0.07-0.103-0.129-0.205-0.192-0.31c-0.051-0.091-0.099-0.184-0.147-0.28
		c-0.048-0.104-0.1-0.207-0.144-0.313c-0.03-0.074-0.056-0.154-0.082-0.232C9.862,17.235,9.84,17.17,9.818,17.1
		c-0.019-0.063-0.029-0.126-0.044-0.188c-0.015-0.066-0.034-0.138-0.048-0.207c-0.011-0.041-0.015-0.077-0.022-0.118
		c-0.007-0.055-0.019-0.11-0.022-0.169c-0.007-0.104-0.015-0.207-0.019-0.313c-0.007-0.146-0.011-0.289-0.011-0.429
		c0-0.093,0.007-0.186,0.015-0.277c0.011-0.096,0.022-0.192,0.041-0.287c0.015-0.089,0.033-0.182,0.051-0.273
		c0.015-0.059,0.033-0.121,0.052-0.186c0.007-0.025,0.011-0.051,0.019-0.076c0.029-0.093,0.059-0.186,0.092-0.277
		c0.044-0.118,0.085-0.236,0.137-0.351c0.048-0.107,0.103-0.211,0.162-0.313c0.056-0.1,0.11-0.199,0.17-0.295
		c0.052-0.078,0.11-0.155,0.166-0.229c0.059-0.081,0.122-0.16,0.181-0.24c0.066-0.086,0.137-0.17,0.229-0.229
		c0.066-0.044,0.14-0.078,0.214-0.104c0.107-0.04,0.217-0.04,0.324-0.037c0.048,0.004,0.092,0.011,0.133,0.026
		c0.056,0.018,0.111,0.041,0.163,0.067c0.029,0.014,0.056,0.036,0.082,0.051c0.129,0.084,0.21,0.203,0.272,0.336
		c0.022,0.052,0.033,0.11,0.045,0.17c0.011,0.063,0.014,0.13,0.014,0.191c-0.003,0.07-0.018,0.141-0.047,0.208
		c-0.022,0.04-0.03,0.087-0.056,0.125c-0.052,0.073-0.104,0.146-0.167,0.218c-0.092,0.11-0.177,0.225-0.25,0.347
		c-0.088,0.14-0.17,0.283-0.226,0.438c-0.033,0.093-0.073,0.182-0.103,0.273c-0.019,0.056-0.029,0.11-0.044,0.17
		c-0.019,0.073-0.033,0.148-0.052,0.221c0,0.004-0.003,0.008-0.003,0.012c-0.019,0.222-0.051,0.44-0.033,0.66
		c0.011,0.111,0.019,0.222,0.037,0.328c0.007,0.075,0.034,0.145,0.048,0.215c0.015,0.063,0.026,0.126,0.044,0.184
		c0.022,0.075,0.052,0.151,0.082,0.223c0.044,0.103,0.088,0.202,0.137,0.303c0.033,0.067,0.073,0.129,0.114,0.191
		c0.059,0.089,0.122,0.174,0.184,0.262c0.096,0.133,0.211,0.255,0.333,0.366c0.133,0.113,0.27,0.229,0.421,0.316
		c0.107,0.063,0.206,0.126,0.313,0.181c0.06,0.034,0.122,0.057,0.185,0.078c0.063,0.025,0.123,0.056,0.189,0.074
		c0.073,0.022,0.151,0.041,0.225,0.059c0.037,0.012,0.077,0.022,0.114,0.033c0.003,0.004,0.011,0.004,0.015,0.004
		c0.129,0.015,0.255,0.029,0.384,0.041c0.1,0.006,0.203,0.015,0.303,0.011c0.107-0.005,0.211-0.02,0.313-0.03
		c0.057-0.007,0.111-0.011,0.166-0.021c0.039-0.004,0.075-0.015,0.107-0.025c0.064-0.015,0.126-0.029,0.185-0.048
		c0.067-0.022,0.134-0.046,0.2-0.071c0.092-0.036,0.184-0.073,0.27-0.114c0.081-0.036,0.154-0.08,0.229-0.13
		c0.121-0.08,0.251-0.157,0.365-0.254c0.13-0.103,0.256-0.218,0.359-0.351c0.084-0.106,0.173-0.219,0.25-0.332
		c0.078-0.121,0.146-0.247,0.214-0.376c0.044-0.097,0.079-0.199,0.115-0.299c0.033-0.101,0.065-0.199,0.087-0.299
		c0.022-0.089,0.031-0.182,0.046-0.273c0.025-0.163,0.04-0.325,0.033-0.491c-0.004-0.095-0.012-0.188-0.022-0.28
		c-0.015-0.11-0.03-0.217-0.057-0.321c-0.021-0.1-0.058-0.194-0.087-0.291c-0.046-0.155-0.111-0.303-0.189-0.442
		c-0.051-0.101-0.111-0.2-0.177-0.293c-0.09-0.121-0.191-0.235-0.28-0.354c-0.048-0.069-0.093-0.148-0.122-0.229
		c-0.04-0.113-0.059-0.225-0.047-0.343c0.007-0.063,0.025-0.125,0.047-0.188c0.018-0.056,0.043-0.107,0.074-0.159
		c0.084-0.145,0.206-0.24,0.357-0.308c0.137-0.062,0.284-0.073,0.428-0.055c0.086,0.011,0.166,0.04,0.244,0.082
		c0.118,0.058,0.215,0.147,0.295,0.25c0.064,0.081,0.13,0.159,0.191,0.243c0.086,0.118,0.168,0.236,0.244,0.362
		c0.067,0.102,0.122,0.209,0.177,0.316c0.049,0.09,0.089,0.175,0.129,0.263c0.025,0.056,0.04,0.114,0.064,0.169
		c0.025,0.074,0.058,0.147,0.083,0.227c0.027,0.072,0.042,0.147,0.064,0.22c0.007,0.025,0.015,0.053,0.021,0.079
		c0.021,0.096,0.044,0.19,0.065,0.291c0.01,0.033,0.013,0.069,0.019,0.104c0.009,0.065,0.02,0.133,0.023,0.195
		c0.011,0.099,0.015,0.199,0.019,0.302C18.867,15.748,18.871,15.892,18.871,16.036"/>
	<path display="inline" fill="#efd894" d="M15.063,10.803v4.979c0,0.114-0.016,0.222-0.051,0.329c-0.05,0.14-0.13,0.251-0.244,0.347
		c-0.071,0.063-0.152,0.104-0.236,0.14c-0.104,0.041-0.215,0.041-0.325,0.037c-0.104,0-0.199-0.033-0.288-0.077
		c-0.144-0.07-0.258-0.174-0.335-0.313c-0.041-0.07-0.067-0.148-0.089-0.229c-0.022-0.092-0.015-0.184-0.015-0.276
		c-0.004-0.823-0.004-1.646-0.004-2.47h0.004v-2.612c0-0.115,0.037-0.218,0.084-0.322c0.045-0.084,0.1-0.155,0.167-0.221
		c0.078-0.074,0.17-0.129,0.277-0.166c0.089-0.029,0.181-0.052,0.272-0.048c0.119,0.007,0.229,0.03,0.336,0.085
		c0.104,0.051,0.191,0.122,0.267,0.21c0.055,0.07,0.096,0.147,0.13,0.232C15.055,10.552,15.063,10.678,15.063,10.803"/>
</g>
<g id="Layer_3" display="none">
	<path display="inline" fill-rule="evenodd" clip-rule="evenodd" fill="#3a4885" d="M1.083,17.384
		c1.542,0.736,3.086,1.471,4.633,2.201h2.455c-0.9-3.532,0.02-6.403,3.031-8.456c2.449-1.67,5.738-1.615,8.129,0.113
		c2.877,2.081,3.73,4.91,2.847,8.343h2.534l1.271-0.674c0,0,0.352-0.199,0.536-0.283c0.952-0.433,1.906-0.861,2.922-1.32
		c-0.235-0.092-0.424-0.155-0.602-0.237c-1.195-0.543-2.418-1.035-3.577-1.652c-1.142-0.607-1.824-1.566-1.563-2.944
		c0.188-0.991,0.409-1.979,0.693-2.946c0.223-0.767,0.565-1.499,0.888-2.327c-0.216,0.096-0.352,0.169-0.496,0.221
		c-1.363,0.511-2.708,1.073-4.095,1.508c-1.051,0.33-2.021,0.105-2.661-0.907c-0.594-0.94-1.198-1.875-1.754-2.839
		c-0.388-0.676-0.7-1.395-1.091-2.185c-0.11,0.272-0.182,0.453-0.256,0.632c-0.668,1.586-1.266,3.207-2.378,4.564
		c-0.494,0.603-1.088,0.833-1.871,0.757C8.873,8.776,7.244,8.05,5.588,7.395C5.438,7.336,5.284,7.282,5.054,7.196
		c0.121,0.291,0.204,0.476,0.274,0.663c0.646,1.683,1.365,3.342,1.489,5.176c0.048,0.708-0.167,1.289-0.755,1.688
		c-0.619,0.42-1.234,0.86-1.902,1.188C3.132,16.415,2.062,16.829,1,17.286C1.038,17.333,1.055,17.37,1.083,17.384"/>
</g>
<g id="Layer_4" display="none">
	<path display="inline" fill-rule="evenodd" clip-rule="evenodd" fill="#3a4885" d="M19.564,0.61
		c-0.018,0.07-0.025,0.124-0.045,0.171c-0.281,0.67-0.601,1.329-0.836,2.015c-0.196,0.566-0.316,1.162-0.433,1.751
		c-0.072,0.375-0.105,0.762-0.102,1.144c0.007,0.972,0.289,1.875,0.78,2.709c0.488,0.829,1.127,1.543,1.75,2.267
		c0.733,0.848,1.444,1.718,1.931,2.736c0.356,0.739,0.626,1.511,0.697,2.339c0.032,0.373,0.098,0.746,0.094,1.119
		c-0.008,0.889-0.217,1.736-0.585,2.549c-0.439,0.967-1.033,1.824-1.806,2.549c-0.954,0.895-2.029,1.594-3.288,2.002
		c-0.637,0.205-1.273,0.338-1.939,0.398c-1.661,0.156-3.15-0.32-4.521-1.207c-0.526-0.342-1.035-0.736-1.479-1.178
		c-1.25-1.248-2.14-2.723-2.569-4.449c-0.205-0.828-0.21-1.684-0.15-2.525c0.1-1.401,0.453-2.751,1.012-4.047
		C8.659,9.607,9.4,8.351,10.346,7.231c0.653-0.772,1.354-1.516,2.1-2.2c1.307-1.197,2.757-2.21,4.32-3.051
		c0.887-0.476,1.8-0.904,2.701-1.352C19.486,0.619,19.513,0.621,19.564,0.61"/>
</g>
<g id="Layer_5">
	<polygon fill="#3a4885" points="20.279,6.168 13.823,11.802 14.509,12.487 	"/>
	<path fill="#3a4885" d="M14.369,23.991L14.369,23.991c-6.842,0-12.408-5.397-12.408-12.031S7.527-0.07,14.369-0.07
		c6.843,0,12.41,5.396,12.41,12.03S21.212,23.991,14.369,23.991 M14.369,1.344c-6.062,0-10.993,4.762-10.993,10.616
		s4.932,10.615,10.993,10.616c6.063,0,10.994-4.763,10.994-10.616S20.432,1.344,14.369,1.344"/>
	<path fill="#3a4885" d="M15.38,11.919c0,0.538-0.435,0.97-0.971,0.97c-0.536,0-0.971-0.433-0.971-0.97
		c0-0.536,0.435-0.97,0.971-0.97C14.945,10.95,15.38,11.384,15.38,11.919"/>
	<path fill="#3a4885" d="M22.37,14.938v2.249c0,0.114-0.094,0.205-0.206,0.205h-1.785v-2.66h1.785
		C22.276,14.732,22.37,14.823,22.37,14.938"/>
	<rect x="17.618" y="14.732" fill="#3a4885" width="2.019" height="2.66"/>
	<rect x="14.871" y="14.732" fill="#3a4885" width="2.022" height="2.66"/>
	<rect x="12.125" y="14.732" fill="#3a4885" width="2.022" height="2.66"/>
	<rect x="9.381" y="14.732" fill="#3a4885" width="2.019" height="2.66"/>
	<path fill="#3a4885" d="M8.679,14.732v2.66H6.815c-0.115,0-0.205-0.091-0.205-0.205v-2.249c0-0.115,0.09-0.206,0.205-0.206H8.679z"
		/>
	<path fill="#efd894" d="M14.748,3.535V7.04c1.113,0.072,2.134,0.493,2.95,1.156l2.48-2.48C18.718,4.427,16.825,3.618,14.748,3.535"
		/>
	<path fill="#efd894" d="M8.61,5.722l2.48,2.48c0.819-0.666,1.842-1.091,2.958-1.163V3.535C11.967,3.618,10.071,4.429,8.61,5.722"/>
	<path fill="#efd894" d="M18.212,8.673c0.872,0.925,1.415,2.163,1.434,3.526h3.499c-0.019-2.328-0.955-4.441-2.461-5.999
		L18.212,8.673z"/>
	<path fill="#efd894" d="M8.104,6.208c-1.501,1.558-2.434,3.667-2.454,5.991h3.5c0.019-1.36,0.56-2.595,1.427-3.518L8.104,6.208z"/>
</g>
</svg>
