<?xml version="1.0" encoding="utf-8"?>
<!-- Generator: Adobe Illustrator 15.0.0, SVG Export Plug-In . SVG Version: 6.00 Build 0)  -->
<!DOCTYPE svg PUBLIC "-//W3C//DTD SVG 1.1//EN" "http://www.w3.org/Graphics/SVG/1.1/DTD/svg11.dtd">
<svg version="1.1" id="Layer_1" xmlns="http://www.w3.org/2000/svg" xmlns:xlink="http://www.w3.org/1999/xlink" x="0px" y="0px"
	 width="29px" height="25px" viewBox="0 0 29 25" enable-background="new 0 0 29 25" xml:space="preserve">
<g id="Layer_1_1_" display="none">
	<path display="inline" fill="#3a4885" d="M24.884,25.104H3.525c-1.432,0-2.581-0.543-3.15-1.485
		c-0.567-0.946-0.488-2.181,0.219-3.386L11.33,1.905C12.039,0.694,13.085,0,14.205,0s2.167,0.694,2.877,1.905L27.816,20.23
		c0.705,1.207,0.785,2.439,0.217,3.387C27.466,24.561,26.316,25.104,24.884,25.104 M14.205,1.916c-0.385,0-0.806,0.341-1.153,0.934
		L2.317,21.178c-0.352,0.598-0.433,1.135-0.23,1.473c0.205,0.341,0.729,0.537,1.438,0.537h21.359c0.71,0,1.235-0.196,1.438-0.537
		c0.205-0.34,0.121-0.875-0.229-1.473L15.357,2.85C15.014,2.256,14.591,1.916,14.205,1.916"/>
	<path display="inline" fill="#62B8EA" d="M15.322,6.094v4.064l-0.858,6.945h-0.626l-0.73-7.125V6.094H15.322z M15.322,21.414
		h-2.215v-3.063h2.215V21.414z"/>
</g>
<g id="Layer_2" display="none">
	<path display="inline" fill="##3a4885" d="M14.193,4.688l9.456,6.692v12.284H4.739V11.38L14.193,4.688 M14.193,3.332L3.631,10.808
		v13.586c0,0.207,0.169,0.377,0.377,0.377h20.37c0.207,0,0.377-0.17,0.377-0.377V10.808L14.193,3.332z"/>
	<path display="inline" fill="#3a4885" d="M14.193,0.471L2,9.205v4.046l11.975-8.476c0.003,0,0.006-0.002,0.009-0.004
		c0.012-0.008,0.025-0.015,0.038-0.021c0.01-0.004,0.02-0.01,0.029-0.015c0.012-0.004,0.024-0.008,0.036-0.011
		c0.011-0.003,0.022-0.008,0.035-0.01c0.011-0.002,0.022-0.003,0.034-0.003c0.014-0.001,0.025-0.004,0.037-0.004
		c0.013,0,0.023,0.002,0.037,0.004c0.012,0,0.023,0.001,0.034,0.003c0.013,0.002,0.024,0.006,0.035,0.01
		c0.012,0.003,0.024,0.007,0.036,0.011c0.01,0.004,0.02,0.011,0.029,0.015c0.014,0.007,0.025,0.014,0.037,0.021
		c0.004,0.002,0.007,0.003,0.01,0.004l11.976,8.476V9.205L14.193,0.471z"/>
	<path display="inline" fill="#3a4885" d="M18.871,16.036c0.004,0.085-0.004,0.174-0.016,0.259
		c-0.006,0.096-0.021,0.191-0.037,0.287c-0.016,0.093-0.031,0.186-0.055,0.277c-0.016,0.063-0.033,0.125-0.052,0.188
		c-0.015,0.053-0.024,0.107-0.04,0.16c-0.02,0.063-0.046,0.126-0.066,0.191c-0.02,0.056-0.037,0.11-0.06,0.162
		c-0.042,0.097-0.086,0.191-0.129,0.287c-0.03,0.063-0.063,0.129-0.097,0.192c-0.053,0.091-0.102,0.185-0.159,0.269
		c-0.07,0.114-0.144,0.223-0.226,0.33c-0.084,0.11-0.178,0.221-0.273,0.323c-0.08,0.093-0.165,0.179-0.253,0.259
		c-0.063,0.059-0.132,0.113-0.196,0.17c-0.095,0.077-0.191,0.157-0.292,0.229c-0.11,0.076-0.228,0.145-0.342,0.219
		c-0.041,0.023-0.086,0.051-0.131,0.076c-0.06,0.029-0.113,0.061-0.171,0.084c-0.094,0.046-0.188,0.089-0.278,0.13
		c-0.062,0.022-0.118,0.04-0.179,0.063c-0.063,0.018-0.12,0.043-0.184,0.063c-0.056,0.018-0.111,0.03-0.166,0.044
		c-0.025,0.009-0.057,0.019-0.082,0.025c-0.084,0.02-0.166,0.036-0.25,0.052c-0.125,0.021-0.256,0.04-0.382,0.057
		c-0.165,0.02-0.327,0.032-0.46,0.045c-0.186-0.013-0.333-0.016-0.484-0.029c-0.129-0.016-0.258-0.035-0.387-0.057
		c-0.074-0.012-0.145-0.033-0.215-0.052c-0.029-0.008-0.059-0.011-0.085-0.019c-0.099-0.026-0.199-0.049-0.294-0.082
		c-0.093-0.029-0.182-0.07-0.274-0.104c-0.059-0.025-0.117-0.049-0.177-0.074c-0.089-0.041-0.177-0.084-0.266-0.129
		c-0.118-0.063-0.233-0.125-0.343-0.195c-0.126-0.081-0.244-0.174-0.362-0.266c-0.225-0.169-0.428-0.365-0.616-0.58
		c-0.125-0.141-0.24-0.295-0.347-0.451c-0.07-0.103-0.129-0.205-0.192-0.31c-0.051-0.091-0.099-0.185-0.147-0.28
		c-0.048-0.104-0.1-0.207-0.144-0.313c-0.03-0.074-0.056-0.154-0.082-0.232c-0.02-0.07-0.042-0.135-0.064-0.205
		c-0.019-0.063-0.029-0.125-0.044-0.188c-0.015-0.066-0.034-0.139-0.048-0.207c-0.011-0.041-0.015-0.077-0.022-0.118
		c-0.007-0.055-0.019-0.11-0.022-0.169c-0.007-0.104-0.015-0.207-0.019-0.313c-0.007-0.146-0.011-0.289-0.011-0.43
		c0-0.093,0.007-0.186,0.015-0.277c0.011-0.096,0.022-0.191,0.041-0.287c0.015-0.088,0.033-0.182,0.051-0.272
		c0.015-0.059,0.033-0.121,0.052-0.187c0.007-0.024,0.011-0.051,0.019-0.075c0.029-0.093,0.059-0.187,0.092-0.277
		c0.044-0.118,0.085-0.235,0.137-0.351c0.048-0.107,0.103-0.211,0.162-0.313c0.056-0.1,0.11-0.198,0.17-0.295
		c0.052-0.077,0.11-0.155,0.166-0.229c0.059-0.08,0.122-0.159,0.181-0.239c0.066-0.086,0.137-0.17,0.229-0.229
		c0.066-0.044,0.14-0.078,0.214-0.104c0.107-0.04,0.217-0.04,0.324-0.037c0.048,0.004,0.092,0.011,0.133,0.026
		c0.056,0.018,0.111,0.041,0.163,0.067c0.029,0.014,0.056,0.036,0.082,0.051c0.129,0.084,0.21,0.203,0.272,0.336
		c0.022,0.052,0.033,0.11,0.045,0.17c0.011,0.063,0.014,0.13,0.014,0.19c-0.003,0.07-0.018,0.142-0.047,0.208
		c-0.022,0.04-0.03,0.088-0.056,0.125c-0.052,0.073-0.104,0.146-0.167,0.219c-0.092,0.109-0.177,0.225-0.25,0.347
		c-0.088,0.14-0.17,0.282-0.226,0.438c-0.033,0.092-0.073,0.182-0.103,0.272c-0.019,0.056-0.029,0.11-0.044,0.17
		c-0.019,0.073-0.033,0.147-0.052,0.221c0,0.005-0.003,0.009-0.003,0.013c-0.019,0.222-0.051,0.439-0.033,0.66
		c0.011,0.11,0.019,0.221,0.037,0.327c0.007,0.075,0.034,0.146,0.048,0.216c0.015,0.063,0.026,0.125,0.044,0.184
		c0.022,0.074,0.052,0.15,0.082,0.223c0.044,0.104,0.088,0.202,0.137,0.303c0.033,0.067,0.073,0.129,0.114,0.191
		c0.059,0.089,0.122,0.174,0.184,0.262c0.096,0.133,0.211,0.256,0.333,0.366c0.133,0.113,0.27,0.229,0.421,0.315
		c0.107,0.063,0.206,0.127,0.313,0.182c0.06,0.034,0.122,0.057,0.185,0.078c0.063,0.025,0.123,0.056,0.189,0.074
		c0.073,0.021,0.151,0.041,0.225,0.059c0.037,0.012,0.077,0.021,0.114,0.033c0.003,0.004,0.011,0.004,0.015,0.004
		c0.129,0.016,0.255,0.029,0.384,0.041c0.1,0.006,0.203,0.016,0.303,0.011c0.107-0.005,0.211-0.02,0.313-0.03
		c0.057-0.006,0.111-0.011,0.166-0.021c0.039-0.004,0.075-0.015,0.107-0.024c0.065-0.016,0.126-0.029,0.185-0.049
		c0.067-0.021,0.134-0.046,0.2-0.07c0.092-0.037,0.184-0.073,0.27-0.114c0.082-0.036,0.154-0.08,0.229-0.13
		c0.121-0.08,0.251-0.157,0.364-0.254c0.131-0.104,0.257-0.219,0.359-0.352c0.084-0.105,0.174-0.219,0.25-0.332
		c0.078-0.121,0.146-0.247,0.215-0.376c0.043-0.097,0.078-0.198,0.114-0.299c0.033-0.101,0.065-0.199,0.087-0.299
		c0.022-0.089,0.031-0.183,0.047-0.273c0.024-0.163,0.039-0.325,0.032-0.491c-0.004-0.095-0.012-0.188-0.022-0.279
		c-0.014-0.11-0.029-0.217-0.057-0.321c-0.021-0.101-0.058-0.194-0.087-0.291c-0.046-0.155-0.11-0.303-0.188-0.442
		c-0.051-0.101-0.111-0.199-0.178-0.293c-0.09-0.121-0.19-0.234-0.279-0.354c-0.049-0.069-0.094-0.148-0.122-0.229
		c-0.04-0.113-0.06-0.226-0.048-0.344c0.008-0.063,0.025-0.125,0.048-0.188c0.018-0.056,0.043-0.107,0.073-0.159
		c0.084-0.145,0.207-0.24,0.357-0.308c0.137-0.062,0.284-0.073,0.428-0.055c0.086,0.011,0.166,0.04,0.244,0.082
		c0.118,0.058,0.215,0.147,0.295,0.25c0.064,0.081,0.131,0.159,0.191,0.243c0.086,0.118,0.168,0.236,0.244,0.361
		c0.066,0.103,0.121,0.209,0.177,0.316c0.049,0.09,0.089,0.176,0.129,0.264c0.024,0.056,0.04,0.113,0.063,0.168
		c0.025,0.074,0.059,0.147,0.084,0.228c0.027,0.072,0.041,0.147,0.063,0.22c0.007,0.025,0.015,0.053,0.021,0.079
		c0.021,0.097,0.045,0.19,0.065,0.291c0.011,0.033,0.013,0.069,0.019,0.104c0.01,0.064,0.021,0.133,0.023,0.195
		c0.012,0.099,0.016,0.198,0.02,0.301C18.867,15.748,18.871,15.893,18.871,16.036"/>
	<path display="inline" fill="#3a4885" d="M15.063,10.803v4.979c0,0.114-0.016,0.222-0.051,0.329c-0.05,0.14-0.13,0.25-0.244,0.347
		c-0.071,0.063-0.152,0.104-0.236,0.14c-0.104,0.041-0.215,0.041-0.325,0.037c-0.104,0-0.199-0.033-0.288-0.076
		c-0.144-0.07-0.258-0.175-0.335-0.313c-0.041-0.07-0.067-0.147-0.089-0.229c-0.022-0.092-0.015-0.184-0.015-0.275
		c-0.004-0.823-0.004-1.646-0.004-2.471h0.004v-2.611c0-0.115,0.037-0.218,0.084-0.322c0.045-0.084,0.1-0.155,0.167-0.221
		c0.078-0.074,0.17-0.129,0.277-0.166c0.089-0.029,0.181-0.052,0.272-0.048c0.119,0.007,0.229,0.03,0.336,0.085
		c0.104,0.051,0.191,0.122,0.267,0.21c0.055,0.07,0.096,0.147,0.131,0.232C15.055,10.552,15.063,10.678,15.063,10.803"/>
</g>
<g id="Layer_3" display="none">
	<path display="inline" fill="#3a4885" d="M1.083,17.384c1.542,0.736,3.086,1.472,4.633,2.201h2.455
		c-0.9-3.532,0.02-6.403,3.031-8.456c2.449-1.67,5.737-1.615,8.129,0.113c2.877,2.081,3.729,4.91,2.847,8.343h2.534l1.271-0.674
		c0,0,0.353-0.199,0.537-0.283c0.951-0.433,1.905-0.86,2.922-1.319c-0.235-0.093-0.424-0.156-0.603-0.238
		c-1.194-0.543-2.418-1.034-3.577-1.651c-1.142-0.606-1.824-1.565-1.563-2.944c0.188-0.991,0.408-1.979,0.693-2.946
		c0.223-0.767,0.564-1.499,0.887-2.327c-0.215,0.096-0.352,0.169-0.495,0.221c-1.363,0.511-2.708,1.073-4.095,1.508
		c-1.051,0.33-2.021,0.105-2.662-0.907c-0.594-0.94-1.197-1.875-1.754-2.839C15.887,4.509,15.574,3.79,15.184,3
		c-0.11,0.272-0.183,0.453-0.257,0.632c-0.668,1.586-1.266,3.207-2.378,4.564c-0.494,0.603-1.088,0.833-1.871,0.757
		C8.873,8.776,7.244,8.05,5.588,7.395c-0.15-0.059-0.304-0.113-0.534-0.199c0.121,0.291,0.204,0.476,0.274,0.663
		c0.646,1.683,1.365,3.342,1.489,5.176c0.048,0.708-0.167,1.289-0.755,1.688c-0.619,0.42-1.234,0.86-1.902,1.188
		C3.132,16.415,2.062,16.829,1,17.286C1.038,17.333,1.055,17.37,1.083,17.384"/>
</g>
<path fill-rule="evenodd" clip-rule="evenodd" fill="#3a4885" d="M22.317,13.123c-0.756-2.356-1.948-4.501-3.301-6.552
	C17.703,4.582,16.31,2.644,14.9,0.61c-0.178,0.193-0.248,0.263-0.308,0.339c-2.175,2.8-4.206,5.697-5.854,8.844
	c-0.793,1.513-1.562,3.062-1.742,4.772c-0.31,2.929,0.579,5.511,2.63,7.646c2.13,2.219,5.253,2.875,7.903,1.708
	C21.464,22.19,23.646,17.277,22.317,13.123"/>
</svg>
