<?xml version="1.0" encoding="utf-8"?>
<!-- Generator: Adobe Illustrator 15.0.0, SVG Export Plug-In . SVG Version: 6.00 Build 0)  -->
<!DOCTYPE svg PUBLIC "-//W3C//DTD SVG 1.1//EN" "http://www.w3.org/Graphics/SVG/1.1/DTD/svg11.dtd">
<svg version="1.1" id="Layer_1" xmlns="http://www.w3.org/2000/svg" xmlns:xlink="http://www.w3.org/1999/xlink" x="0px" y="0px"
	 width="18px" height="26px" viewBox="0 0 18 26" enable-background="new 0 0 18 26" xml:space="preserve">
<path fill="#3a4885" d="M17,23.637L0.998,23.555c-0.395,0-0.714-0.318-0.714-0.714c0-0.396,0.319-0.718,0.714-0.718L17,22.205
	c0.395,0,1.008,0.239,1.008,0.636C18.008,23.236,17.395,23.637,17,23.637"/>
<path fill="#3a4885" d="M0.998,25.921c-0.395,0-0.714-0.321-0.714-0.718c0-0.395,0.319-0.714,0.714-0.714L17,24.571
	c0.395,0,1.008,0.237,1.008,0.632C18.008,25.6,17.395,26,17,26L0.998,25.921z"/>
<path fill="#efd894" d="M9.461,21.265H8.352v-2.282c-1.503-0.167-2.625-0.496-3.366-0.983c-1.303-0.877-1.946-2.374-1.922-4.489
	h3.092c0.105,0.963,0.253,1.606,0.446,1.936c0.298,0.513,0.879,0.843,1.751,0.997v-4.891l-0.927-0.275
	c-1.458-0.427-2.487-1.022-3.085-1.785c-0.6-0.764-0.9-1.683-0.9-2.76c0-0.709,0.117-1.355,0.35-1.935
	c0.231-0.58,0.56-1.081,0.979-1.5c0.542-0.542,1.143-0.916,1.81-1.122c0.403-0.13,0.996-0.226,1.772-0.286V0.283h1.109v1.628
	c1.239,0.099,2.214,0.404,2.921,0.916c1.281,0.817,1.95,2.141,1.992,3.974h-3.011c-0.061-0.68-0.173-1.175-0.339-1.489
	c-0.285-0.542-0.807-0.839-1.563-0.894v4.363c1.812,0.626,3.026,1.179,3.651,1.66c1.021,0.8,1.538,1.93,1.538,3.39
	c0,1.923-0.706,3.32-2.121,4.191c-0.862,0.536-1.884,0.846-3.068,0.938V21.265z M8.352,4.441C7.689,4.457,7.196,4.634,6.875,4.975
	c-0.319,0.339-0.481,0.802-0.481,1.39c0,0.642,0.243,1.149,0.722,1.523c0.27,0.206,0.68,0.398,1.237,0.573V4.441z M9.461,16.407
	c0.599-0.075,1.031-0.214,1.304-0.412c0.475-0.352,0.713-0.958,0.713-1.82c0-0.656-0.223-1.176-0.668-1.556
	c-0.262-0.223-0.715-0.452-1.349-0.689V16.407z"/>
</svg>
