<?xml version="1.0" encoding="utf-8"?>
<!-- Generator: Adobe Illustrator 15.0.0, SVG Export Plug-In . SVG Version: 6.00 Build 0)  -->
<!DOCTYPE svg PUBLIC "-//W3C//DTD SVG 1.1//EN" "http://www.w3.org/Graphics/SVG/1.1/DTD/svg11.dtd">
<svg version="1.1" id="Layer_1" xmlns="http://www.w3.org/2000/svg" xmlns:xlink="http://www.w3.org/1999/xlink" x="0px" y="0px"
	 width="29px" height="28px" viewBox="0 0 29 28" enable-background="new 0 0 29 28" xml:space="preserve">
<path fill="#3a4885" d="M15.301,26.107c0.085-0.012,0.172-0.027,0.258-0.038c0.372-0.054,0.741-0.121,1.101-0.232
	c0.496-0.155,0.93-0.429,1.319-0.773c0.458-0.405,0.83-0.878,1.158-1.39c0.504-0.787,0.887-1.632,1.206-2.507
	c0.374-1.031,0.662-2.084,0.86-3.162c0.1-0.536,0.185-1.074,0.255-1.611c0.055-0.405,0.087-0.813,0.113-1.221
	c0.021-0.343,0.033-0.688,0.033-1.033c0.005-0.579-0.056-1.154-0.157-1.724c-0.103-0.586-0.223-1.168-0.405-1.735
	c-0.188-0.59-0.439-1.148-0.792-1.658c-0.401-0.573-0.902-1.043-1.483-1.427c-0.836-0.55-1.734-0.962-2.695-1.237
	c-0.436-0.124-0.885-0.193-1.335-0.238c-0.402-0.04-0.803-0.051-1.205-0.035c-0.996,0.042-1.956,0.236-2.87,0.643
	c-0.708,0.315-1.276,0.794-1.724,1.42c-0.489,0.686-0.795,1.447-0.946,2.275c-0.07,0.395-0.095,0.791-0.073,1.19
	c0.03,0.55,0.15,1.078,0.418,1.563c0.408,0.738,1.034,1.172,1.856,1.325c0.242,0.043,0.489,0.061,0.732,0.104
	c0.772,0.135,1.507,0.372,2.167,0.812c0.449,0.297,0.817,0.674,1.061,1.161c0.186,0.369,0.271,0.761,0.295,1.171
	c0.033,0.545-0.106,1.056-0.33,1.548c-0.236,0.517-0.526,1.007-0.809,1.498s-0.565,0.986-0.835,1.483
	c-0.194,0.358-0.349,0.732-0.449,1.128c-0.151,0.609-0.085,1.189,0.279,1.714c0.242,0.345,0.571,0.58,0.956,0.742
	c0.273,0.115,0.558,0.185,0.851,0.226c0.026,0.004,0.051,0.015,0.076,0.019H15.301z"/>
<path fill="#3a4885" d="M21.824,7.129c-0.293,0.504-0.907,0.695-1.372,0.424c-0.465-0.269-0.604-0.896-0.312-1.399
	c0.292-0.505,0.901-0.695,1.369-0.423C21.974,6.001,22.116,6.625,21.824,7.129"/>
<path fill="#3a4885" d="M19.688,4.198c-0.081,0.682-0.662,1.181-1.292,1.106c-0.634-0.075-1.084-0.689-1.003-1.376
	c0.082-0.687,0.66-1.181,1.291-1.107C19.319,2.895,19.767,3.512,19.688,4.198"/>
<path fill="#3a4885" d="M16.659,3.165c-0.09,0.773-0.743,1.336-1.461,1.252c-0.715-0.085-1.221-0.781-1.131-1.556
	c0.093-0.777,0.745-1.336,1.462-1.255C16.244,1.69,16.75,2.385,16.659,3.165"/>
<path fill="#3a4885" d="M13.128,3.394c-0.101,0.855-0.82,1.475-1.61,1.38c-0.787-0.091-1.346-0.86-1.245-1.711
	c0.1-0.853,0.819-1.47,1.61-1.378C12.669,1.775,13.227,2.543,13.128,3.394"/>
<path fill-rule="evenodd" clip-rule="evenodd" fill="#efd894" d="M5.329,2.41C5.139,2.426,4.951,2.444,4.761,2.462
	C4.76,2.473,4.756,2.487,4.756,2.499c-0.001,0.155-0.003,0.31-0.001,0.466C4.758,3.133,4.759,3.301,4.77,3.469
	c0.014,0.185,0.032,0.369,0.059,0.553c0.029,0.205,0.064,0.409,0.11,0.611c0.068,0.299,0.165,0.587,0.294,0.865
	c0.169,0.35,0.383,0.66,0.682,0.911c0.217,0.181,0.46,0.313,0.729,0.394c0.255,0.073,0.519,0.105,0.786,0.089
	c0.163-0.009,0.326-0.029,0.486-0.061C8.105,6.794,8.29,6.74,8.473,6.688c0.07-0.02,0.138-0.049,0.212-0.072
	C8.662,6.481,8.64,6.35,8.617,6.222C8.58,6.032,8.516,5.851,8.438,5.673C8.349,5.468,8.237,5.275,8.106,5.093
	C7.959,4.885,7.793,4.692,7.609,4.517C7.5,4.412,7.384,4.309,7.269,4.212C7.147,4.111,7.024,4.008,6.897,3.917
	c-0.167-0.12-0.341-0.229-0.512-0.342C6.376,3.568,6.37,3.559,6.354,3.542c0.022,0.002,0.03,0.002,0.038,0.006
	c0.4,0.105,0.787,0.247,1.152,0.439c0.237,0.126,0.462,0.269,0.67,0.435c0.245,0.196,0.463,0.417,0.654,0.667
	C9.066,5.35,9.229,5.631,9.34,5.941c0.003,0.006,0.007,0.007,0.015,0.018c0.028-0.219,0.032-0.43,0.022-0.645
	c-0.01-0.197-0.04-0.391-0.088-0.582C9.227,4.489,9.137,4.257,9.016,4.038c-0.203-0.356-0.467-0.656-0.8-0.892
	c-0.13-0.094-0.267-0.177-0.405-0.254C7.455,2.701,7.076,2.582,6.68,2.507C6.248,2.426,5.814,2.399,5.379,2.421
	C5.362,2.421,5.345,2.414,5.329,2.41"/>
</svg>
