<?xml version="1.0" encoding="utf-8"?>
<!-- Generator: Adobe Illustrator 15.0.0, SVG Export Plug-In . SVG Version: 6.00 Build 0)  -->
<!DOCTYPE svg PUBLIC "-//W3C//DTD SVG 1.1//EN" "http://www.w3.org/Graphics/SVG/1.1/DTD/svg11.dtd">
<svg version="1.1" id="Layer_1" xmlns="http://www.w3.org/2000/svg" xmlns:xlink="http://www.w3.org/1999/xlink" x="0px" y="0px"
	 width="30px" height="27px" viewBox="0 0 30 27" enable-background="new 0 0 30 27" xml:space="preserve">
<path fill-rule="evenodd" clip-rule="evenodd" fill="#3a4885" d="M1.85,13.154c0.007-0.021,0.019-0.042,0.02-0.062
	c0.007-0.094,0.009-0.188,0.017-0.28c0.013-0.178,0.025-0.354,0.041-0.531c0.018-0.175,0.037-0.352,0.061-0.527
	c0.028-0.208,0.059-0.417,0.096-0.623c0.073-0.414,0.171-0.824,0.285-1.228c0.194-0.689,0.443-1.357,0.744-2.006
	c0.212-0.456,0.449-0.897,0.711-1.326c0.246-0.4,0.509-0.787,0.794-1.16c0.268-0.352,0.551-0.69,0.853-1.011
	c0.229-0.24,0.467-0.472,0.708-0.701c0.424-0.405,0.883-0.768,1.359-1.107C7.909,2.33,8.291,2.085,8.688,1.866
	C8.917,1.741,9.148,1.618,9.38,1.499C9.526,1.425,9.678,1.36,9.827,1.291c0.021-0.01,0.041-0.02,0.07-0.035
	C9.706,0.835,9.518,0.418,9.33,0c0.063-0.002,4.551,1.406,4.768,1.496c0,0.001,0.002,0.003,0.004,0.005c0,0.002,0.001,0.006,0,0.008
	c-0.004,0.012-0.006,0.025-0.011,0.036c-0.696,1.503-1.392,3.007-2.088,4.51c-0.001,0.004-0.007,0.007-0.017,0.016
	c-0.191-0.421-0.38-0.839-0.573-1.265C9.74,5.56,8.389,6.685,7.363,8.194c-1.028,1.514-1.588,3.188-1.645,5.016
	c-0.059,1.819,0.34,3.535,1.273,5.124c-1.112,0.642-2.218,1.282-3.331,1.924c-0.021-0.036-0.038-0.063-0.052-0.091
	c-0.112-0.205-0.227-0.408-0.332-0.616c-0.259-0.505-0.481-1.028-0.669-1.563c-0.118-0.332-0.219-0.67-0.307-1.009
	c-0.094-0.37-0.178-0.74-0.235-1.114c-0.048-0.316-0.091-0.632-0.132-0.948c-0.019-0.147-0.026-0.297-0.036-0.446
	c-0.011-0.175-0.018-0.349-0.028-0.522c0-0.021-0.013-0.042-0.02-0.063V13.154z"/>
<path fill-rule="evenodd" clip-rule="evenodd" fill="#3a4885" d="M23.373,14.486c0.473,0.046,0.932,0.089,1.397,0.135
	c0.006-0.039,0.014-0.067,0.016-0.098c0.016-0.209,0.037-0.419,0.044-0.628c0.006-0.238-0.003-0.478-0.007-0.714
	c-0.003-0.127-0.01-0.253-0.021-0.379c-0.022-0.23-0.046-0.459-0.079-0.686c-0.065-0.441-0.166-0.875-0.295-1.303
	c-0.127-0.414-0.28-0.818-0.461-1.213c-0.146-0.319-0.31-0.627-0.488-0.927c-0.259-0.435-0.552-0.845-0.876-1.232
	c-0.221-0.265-0.457-0.517-0.708-0.754c-0.383-0.366-0.793-0.699-1.233-0.996c-0.315-0.213-0.641-0.407-0.979-0.582
	c-0.395-0.206-0.803-0.377-1.218-0.533c-0.415-0.155-0.841-0.277-1.275-0.373c-0.314-0.068-0.631-0.118-0.951-0.153
	C15.942,4.019,15.644,4,15.344,4c-0.021,0-0.043-0.002-0.071-0.003c-0.003-0.024-0.007-0.043-0.008-0.063
	c0-0.201-0.001-0.401,0-0.601c0.002-0.319,0.007-0.639,0.009-0.957c0.003-0.32,0.003-0.64,0.005-0.959
	c0.003-0.333,0.007-0.664,0.011-0.996c0.001-0.085,0.006-0.171,0.009-0.263c0.07-0.016,0.138-0.008,0.206-0.007
	c0.074,0.001,0.152,0.004,0.228,0.009c0.239,0.014,0.48,0.024,0.719,0.044c0.229,0.021,0.459,0.046,0.687,0.077
	c0.372,0.051,0.739,0.121,1.106,0.204c0.477,0.108,0.945,0.246,1.406,0.412c0.459,0.167,0.91,0.353,1.354,0.562
	s0.874,0.44,1.291,0.694c0.577,0.354,1.127,0.75,1.643,1.188c0.264,0.223,0.517,0.457,0.763,0.698
	c0.308,0.3,0.595,0.617,0.869,0.944c0.29,0.347,0.56,0.708,0.812,1.083c0.328,0.489,0.623,0.996,0.888,1.523
	c0.264,0.526,0.487,1.067,0.68,1.624c0.133,0.377,0.242,0.763,0.339,1.151c0.119,0.488,0.212,0.981,0.276,1.479
	c0.031,0.241,0.051,0.483,0.068,0.726c0.016,0.206,0.023,0.414,0.031,0.623c0.006,0.179,0.012,0.358,0.008,0.538
	c-0.003,0.215-0.013,0.431-0.026,0.646c-0.014,0.217-0.037,0.433-0.056,0.649c-0.001,0.007,0.001,0.015,0.003,0.031
	c0.024,0.006,0.05,0.015,0.076,0.018c0.345,0.032,0.689,0.065,1.036,0.098c0.092,0.009,0.184,0.019,0.296,0.03
	c-1.254,1.138-2.492,2.264-3.73,3.39C26.219,18.551,23.437,14.609,23.373,14.486"/>
<path fill-rule="evenodd" clip-rule="evenodd" fill="#3a4885" d="M10.431,20.132c-0.28,0.382-0.555,0.757-0.833,1.136
	c0.023,0.019,0.039,0.034,0.057,0.047c0.262,0.188,0.531,0.364,0.809,0.527c0.49,0.285,1.001,0.523,1.534,0.717
	c0.445,0.162,0.901,0.289,1.366,0.381c0.38,0.078,0.764,0.132,1.151,0.16c0.288,0.021,0.577,0.034,0.865,0.029
	c0.55-0.009,1.097-0.061,1.638-0.166c0.419-0.08,0.83-0.185,1.234-0.319c0.497-0.164,0.975-0.37,1.438-0.614
	c0.399-0.21,0.781-0.449,1.146-0.715c0.302-0.219,0.594-0.45,0.863-0.707c0.173-0.161,0.344-0.323,0.508-0.492
	c0.248-0.257,0.479-0.53,0.693-0.815c0.215-0.288,0.408-0.588,0.585-0.898c0.013-0.02,0.025-0.037,0.042-0.065
	c1.113,0.65,2.222,1.301,3.335,1.951c-0.014,0.025-0.023,0.046-0.035,0.066c-0.19,0.331-0.397,0.653-0.618,0.966
	c-0.222,0.315-0.458,0.62-0.706,0.914c-0.306,0.359-0.629,0.703-0.971,1.027c-0.363,0.346-0.749,0.667-1.148,0.971
	c-0.42,0.32-0.857,0.614-1.312,0.883c-0.612,0.365-1.252,0.675-1.917,0.935c-0.447,0.176-0.904,0.326-1.369,0.452
	c-0.418,0.113-0.841,0.207-1.268,0.279c-0.287,0.049-0.577,0.081-0.865,0.114c-0.229,0.025-0.459,0.041-0.688,0.058
	c-0.38,0.022-0.761,0.025-1.14,0.011c-0.316-0.01-0.632-0.04-0.946-0.068c-0.629-0.057-1.249-0.17-1.862-0.321
	c-0.608-0.15-1.204-0.338-1.784-0.575c-0.281-0.115-0.558-0.242-0.834-0.369c-0.408-0.186-0.8-0.402-1.182-0.639
	c-0.291-0.181-0.57-0.377-0.855-0.567c-0.021-0.014-0.042-0.026-0.069-0.044c-0.277,0.367-0.55,0.729-0.835,1.105
	c-0.351-1.638-0.699-3.258-1.048-4.883c0.023-0.005,0.039-0.012,0.056-0.014c0.378-0.035,0.756-0.069,1.134-0.105
	c0.302-0.027,0.605-0.054,0.908-0.083c0.345-0.032,0.689-0.067,1.035-0.1c0.234-0.021,0.469-0.042,0.703-0.064
	c0.357-0.034,0.715-0.068,1.073-0.103C10.352,20.13,10.383,20.132,10.431,20.132"/>
<path fill-rule="evenodd" clip-rule="evenodd" fill="#efd894" d="M18.662,8.045h1.293c0.007,0.028,0.017,0.055,0.019,0.083
	c0.035,0.351,0.073,0.701,0.102,1.053c0.029,0.38,0.062,0.761,0.07,1.143c0.009,0.421,0.005,0.841-0.018,1.262
	c-0.024,0.47-0.058,0.941-0.12,1.408c-0.093,0.687-0.249,1.361-0.49,2.012c-0.305,0.825-0.729,1.573-1.351,2.204
	c-0.45,0.455-0.976,0.804-1.567,1.04c-0.562,0.224-1.153,0.349-1.758,0.368c-0.371,0.013-0.746,0.003-1.114-0.037
	c-0.431-0.047-0.859-0.133-1.286-0.209c-0.161-0.029-0.319-0.079-0.495-0.122c0.024-0.31,0.044-0.607,0.074-0.902
	c0.042-0.439,0.15-0.863,0.289-1.28c0.161-0.481,0.374-0.939,0.629-1.38c0.291-0.501,0.625-0.97,1.005-1.406
	c0.228-0.261,0.465-0.514,0.709-0.761c0.251-0.255,0.504-0.508,0.776-0.743c0.353-0.304,0.724-0.588,1.087-0.881
	c0.018-0.014,0.031-0.037,0.064-0.078c-0.05,0.011-0.068,0.012-0.086,0.019c-0.881,0.32-1.724,0.717-2.512,1.232
	c-0.509,0.333-0.986,0.704-1.423,1.123c-0.514,0.492-0.962,1.038-1.34,1.644c-0.396,0.633-0.705,1.301-0.896,2.023
	c-0.003,0.012-0.013,0.022-0.026,0.043c-0.11-0.487-0.164-0.967-0.185-1.449c-0.02-0.447,0.008-0.893,0.079-1.333
	c0.09-0.563,0.241-1.107,0.476-1.629c0.38-0.847,0.917-1.58,1.62-2.185c0.274-0.235,0.565-0.453,0.866-0.654
	c0.761-0.509,1.598-0.855,2.475-1.105c0.956-0.273,1.933-0.422,2.926-0.467C18.59,8.079,18.626,8.059,18.662,8.045"/>
</svg>
