<?xml version="1.0" encoding="utf-8"?>
<!-- Generator: Adobe Illustrator 15.0.0, SVG Export Plug-In . SVG Version: 6.00 Build 0)  -->
<!DOCTYPE svg PUBLIC "-//W3C//DTD SVG 1.1//EN" "http://www.w3.org/Graphics/SVG/1.1/DTD/svg11.dtd">
<svg version="1.1" id="Layer_1" xmlns="http://www.w3.org/2000/svg" xmlns:xlink="http://www.w3.org/1999/xlink" x="0px" y="0px"
	 width="32px" height="25px" viewBox="0 0 32 25" enable-background="new 0 0 32 25" xml:space="preserve">
<path fill="#3a4885" d="M13.535,24.989c-3.628,0-5.388-2.748-5.968-3.902h-4.68C1.295,21.087,0,19.833,0,18.293V3.107
	c0-1.54,1.295-2.794,2.888-2.794h26.211c1.592,0,2.886,1.254,2.886,2.794v15.186c0,1.54-1.294,2.794-2.886,2.794H13.968
	c-0.272,0.771-0.553,2.056,0.077,2.585c0.244,0.207,0.33,0.536,0.217,0.83C14.148,24.794,13.859,24.989,13.535,24.989 M2.887,1.816
	c-0.737,0-1.336,0.579-1.336,1.291v15.186c0,0.712,0.599,1.292,1.336,1.292h5.186c0.328,0,0.62,0.197,0.731,0.497
	c0.044,0.117,0.984,2.509,3.365,3.213c-0.271-1.437,0.453-3.035,0.566-3.272c0.126-0.267,0.401-0.438,0.705-0.438h15.659
	c0.735,0,1.336-0.58,1.336-1.292V3.107c0-0.712-0.601-1.291-1.336-1.291H2.887z"/>
<rect x="3.23" y="6.481" fill="#3a4885" width="18.353" height="2.07"/>
<rect x="3.23" y="12.751" fill="#3a4885" width="11.143" height="2.069"/>
<rect x="3.231" y="3.348" fill="#efd894" width="25.524" height="2.07"/>
<rect x="3.231" y="9.616" fill="#efd894" width="25.524" height="2.07"/>
<rect x="3.182" y="15.884" fill="#efd894" width="25.522" height="2.068"/>
</svg>
