<?xml version="1.0" encoding="utf-8"?>
<!-- Generator: Adobe Illustrator 15.0.0, SVG Export Plug-In . SVG Version: 6.00 Build 0)  -->
<!DOCTYPE svg PUBLIC "-//W3C//DTD SVG 1.1//EN" "http://www.w3.org/Graphics/SVG/1.1/DTD/svg11.dtd">
<svg version="1.1" id="Layer_1" xmlns="http://www.w3.org/2000/svg" xmlns:xlink="http://www.w3.org/1999/xlink" x="0px" y="0px"
	 width="82.192px" height="78.082px" viewBox="0 0 82.192 78.082" enable-background="new 0 0 82.192 78.082" xml:space="preserve">
<path fill="#006699" d="M40.909,3.078c-11.119,0-16.757,6.267-16.757,18.628c0,12.589,8.847,21.996,16.757,21.996
	c7.91,0,16.758-9.406,16.758-21.996C57.667,9.345,52.028,3.078,40.909,3.078"/>
<path fill="#94D60A" d="M76.937,67.594l-3.086-16.019c-0.453-1.568-1.938-3.43-3.804-4.475L55.908,38.39
	c-3.815,5.354-9.269,8.891-15,8.891c-5.731,0-11.183-3.537-14.998-8.891l-14.14,8.711c-2.113,1.303-3.407,3.014-3.86,4.582
	L4.88,67.594c-1.043,3.774,2.879,7.304,8.115,7.304h55.827C74.058,74.897,77.979,71.368,76.937,67.594"/>
</svg>
