<?xml version="1.0" encoding="utf-8"?>
<!-- Generator: Adobe Illustrator 15.0.0, SVG Export Plug-In . SVG Version: 6.00 Build 0)  -->
<!DOCTYPE svg PUBLIC "-//W3C//DTD SVG 1.1//EN" "http://www.w3.org/Graphics/SVG/1.1/DTD/svg11.dtd">
<svg version="1.1" id="Layer_1" xmlns="http://www.w3.org/2000/svg" xmlns:xlink="http://www.w3.org/1999/xlink" x="0px" y="0px"
	 width="80.667px" height="79.333px" viewBox="0 0 80.667 79.333" enable-background="new 0 0 80.667 79.333" xml:space="preserve">
<polygon fill="#006699" points="57.673,22.773 38.451,39.545 40.494,41.588 "/>
<path fill="#006699" d="M40.077,75.833L40.077,75.833C19.708,75.832,3.136,59.765,3.136,40.015c0-19.75,16.572-35.816,36.941-35.816
	c20.373,0,36.947,16.066,36.947,35.816C77.024,59.765,60.45,75.833,40.077,75.833 M40.077,8.41
	C22.03,8.41,7.348,22.588,7.348,40.015S22.03,71.619,40.077,71.62c18.051,0,32.732-14.178,32.732-31.605S58.128,8.41,40.077,8.41"/>
<path fill="#006699" d="M43.086,39.896c0,1.597-1.294,2.89-2.892,2.89c-1.596,0-2.891-1.293-2.891-2.89s1.295-2.891,2.891-2.891
	C41.792,37.005,43.086,38.299,43.086,39.896"/>
<path fill="#006699" d="M63.896,48.881v6.7c0,0.34-0.279,0.609-0.609,0.609h-5.32v-7.92h5.32
	C63.616,48.271,63.896,48.54,63.896,48.881"/>
<rect x="49.751" y="48.271" fill="#006699" width="6.01" height="7.92"/>
<rect x="41.571" y="48.271" fill="#006699" width="6.02" height="7.92"/>
<rect x="33.396" y="48.271" fill="#006699" width="6.021" height="7.92"/>
<rect x="25.226" y="48.271" fill="#006699" width="6.01" height="7.92"/>
<path fill="#006699" d="M23.136,48.271v7.92h-5.55c-0.34,0-0.61-0.27-0.61-0.609v-6.7c0-0.341,0.271-0.61,0.61-0.61H23.136z"/>
<path fill="#94D60A" d="M41.205,14.933v10.431c3.315,0.219,6.351,1.473,8.783,3.447l7.384-7.385
	C53.023,17.587,47.39,15.178,41.205,14.933"/>
<path fill="#94D60A" d="M22.931,21.445l7.384,7.384c2.437-1.984,5.481-3.246,8.807-3.466V14.932
	C32.927,15.177,27.283,17.595,22.931,21.445"/>
<path fill="#94D60A" d="M51.516,30.231c2.598,2.75,4.213,6.438,4.27,10.498h10.421c-0.061-6.932-2.845-13.222-7.328-17.862
	L51.516,30.231z"/>
<path fill="#94D60A" d="M21.427,22.89c-4.47,4.637-7.246,10.918-7.306,17.839H24.54c0.059-4.049,1.665-7.729,4.249-10.476
	L21.427,22.89z"/>
</svg>
