<?xml version="1.0" encoding="utf-8"?>
<!-- Generator: Adobe Illustrator 15.0.0, SVG Export Plug-In . SVG Version: 6.00 Build 0)  -->
<!DOCTYPE svg PUBLIC "-//W3C//DTD SVG 1.1//EN" "http://www.w3.org/Graphics/SVG/1.1/DTD/svg11.dtd">
<svg version="1.1" id="Layer_1" xmlns="http://www.w3.org/2000/svg" xmlns:xlink="http://www.w3.org/1999/xlink" x="0px" y="0px"
	 width="21px" height="19px" viewBox="0 0 21 19" enable-background="new 0 0 21 19" xml:space="preserve">
<path fill="#056799" d="M10.466,3.561c-0.321,0-0.581,0.247-0.61,0.559c0.003,0.02,0.011,0.036,0.011,0.056S9.859,4.213,9.856,4.232
	c0.029,0.313,0.289,0.56,0.61,0.56c0.339,0,0.615-0.276,0.615-0.616C11.081,3.836,10.805,3.561,10.466,3.561"/>
<path fill="#056799" d="M7.43,11.092c-0.34,0-0.616,0.276-0.616,0.616c0,0.339,0.276,0.615,0.616,0.615
	c0.339,0,0.615-0.276,0.615-0.615C8.045,11.368,7.769,11.092,7.43,11.092"/>
<path fill="#056799" d="M20.807,2.163c-0.002-0.184-0.014-0.328-0.04-0.453C20.544,0.672,19.695,0.001,18.605,0L2.096,0
	C2.014,0,1.931,0.001,1.851,0.014C0.727,0.192,0,1.048,0,2.194v10.908c0,1.266,0.917,2.184,2.18,2.185h2.029v0.176
	c0,0.097,0.002,0.193,0.003,0.288c0.004,0.213,0.007,0.414-0.006,0.62c-0.042,0.625-0.258,1.143-0.644,1.536
	c-0.153,0.156-0.327,0.287-0.494,0.416l-0.139,0.105c-0.123,0.096-0.179,0.221-0.146,0.327c0.024,0.078,0.091,0.211,0.267,0.211
	l0.25-0.019c0.332-0.026,0.675-0.054,0.994-0.13c1.718-0.41,2.997-1.485,3.801-3.197c0.113-0.24,0.268-0.338,0.541-0.338
	c2.047,0.003,4.094,0.005,6.142,0.005l3.883-0.002c1.205,0,2.148-0.945,2.149-2.152C20.808,9.476,20.808,5.819,20.807,2.163
	 M16.307,12.044H8.666c-0.148,0.545-0.644,0.95-1.236,0.95c-0.593,0-1.088-0.405-1.237-0.95H4.5c-0.185,0-0.336-0.151-0.336-0.336
	c0-0.186,0.151-0.336,0.336-0.336h1.692c0.148-0.547,0.644-0.952,1.237-0.952c0.592,0,1.088,0.405,1.237,0.952h7.64
	c0.187,0,0.336,0.15,0.336,0.336C16.643,11.893,16.493,12.044,16.307,12.044 M16.307,8.289h-0.907
	c-0.148,0.546-0.645,0.952-1.236,0.952c-0.593,0-1.088-0.406-1.236-0.952H4.5c-0.185,0-0.336-0.149-0.336-0.335
	c0-0.186,0.151-0.336,0.336-0.336h8.426c0.148-0.546,0.644-0.951,1.236-0.951c0.592,0,1.088,0.405,1.236,0.951h0.907
	c0.187,0,0.336,0.15,0.336,0.336C16.643,8.139,16.493,8.289,16.307,8.289 M16.307,4.512h-4.604
	c-0.149,0.546-0.645,0.951-1.237,0.951c-0.593,0-1.088-0.404-1.237-0.951H4.5c-0.185,0-0.336-0.151-0.336-0.336
	c0-0.186,0.151-0.336,0.336-0.336h4.729C9.378,3.294,9.874,2.89,10.466,2.89c0.592,0,1.087,0.405,1.237,0.951h4.604
	c0.187,0,0.336,0.15,0.336,0.336C16.643,4.361,16.493,4.512,16.307,4.512"/>
<path fill="#056799" d="M14.163,7.337c-0.34,0-0.615,0.276-0.615,0.616c0,0.339,0.275,0.615,0.615,0.615
	c0.339,0,0.615-0.276,0.615-0.615C14.778,7.614,14.502,7.337,14.163,7.337"/>
</svg>
