<?xml version="1.0" encoding="utf-8"?>
<!-- Generator: Adobe Illustrator 15.0.0, SVG Export Plug-In . SVG Version: 6.00 Build 0)  -->
<!DOCTYPE svg PUBLIC "-//W3C//DTD SVG 1.1//EN" "http://www.w3.org/Graphics/SVG/1.1/DTD/svg11.dtd">
<svg version="1.1" id="Layer_1" xmlns="http://www.w3.org/2000/svg" xmlns:xlink="http://www.w3.org/1999/xlink" x="0px" y="0px"
	 width="22px" height="20px" viewBox="0 0 22 20" enable-background="new 0 0 22 20" xml:space="preserve">
<path fill-rule="evenodd" clip-rule="evenodd" fill="#FFFFFF" d="M11.398,8.028c-0.043-0.001-0.086-0.002-0.129-0.002
	c-2.423,0-4.377,1.914-4.45,4.358c-0.073,2.439,1.875,4.496,4.343,4.583c0.042,0.001,0.085,0.002,0.128,0.002
	c2.435,0,4.396-1.917,4.467-4.364C15.827,10.154,13.872,8.102,11.398,8.028 M11.888,15.071c0,0.241-0.057,0.422-0.172,0.545
	c-0.114,0.123-0.259,0.185-0.435,0.185c-0.175,0-0.318-0.063-0.428-0.189c-0.11-0.126-0.165-0.305-0.165-0.54V11.64
	c0-0.238,0.055-0.416,0.165-0.536c0.11-0.121,0.253-0.18,0.428-0.18c0.176,0,0.321,0.059,0.435,0.18
	c0.115,0.12,0.172,0.287,0.172,0.501V15.071z M11.712,10.209c-0.117,0.104-0.256,0.155-0.417,0.155
	c-0.167,0-0.311-0.051-0.429-0.153c-0.119-0.103-0.178-0.247-0.178-0.436c0-0.17,0.061-0.309,0.182-0.42
	c0.122-0.109,0.263-0.165,0.425-0.165c0.155,0,0.292,0.051,0.413,0.151c0.12,0.099,0.18,0.244,0.18,0.434
	C11.888,9.961,11.829,10.104,11.712,10.209"/>
<path fill-rule="evenodd" clip-rule="evenodd" fill="#FFFFFF" d="M21.792,9.197c-3.369-3-6.739-6-10.109-9.01
	c-0.29-0.25-0.48-0.25-0.77,0c-3.37,3.01-6.75,6.02-10.13,9.029c-0.16,0.141-0.27,0.29-0.17,0.49c0.1,0.2,0.3,0.24,0.53,0.24h2.29
	v10.07h8.19v0.01h7.52V9.927h2.3c0.221,0,0.42-0.029,0.52-0.229C22.063,9.487,21.952,9.337,21.792,9.197 M16.827,12.998
	c-0.004,0.02-0.01,0.037-0.013,0.056c-0.008,0.061-0.016,0.12-0.022,0.182c-0.016,0.118-0.03,0.241-0.053,0.36
	c-0.231,1.157-0.781,2.153-1.634,2.961c-0.796,0.756-1.745,1.237-2.821,1.432c-0.125,0.021-0.252,0.041-0.379,0.059l-0.18,0.026
	c-0.003,0.001-0.006,0.001-0.009,0.001H10.86l-0.137-0.02c-0.101-0.015-0.203-0.028-0.304-0.046
	c-1.275-0.205-2.364-0.792-3.237-1.745C6.464,15.479,6.006,14.55,5.821,13.5c-0.021-0.122-0.039-0.245-0.056-0.367l-0.026-0.17
	v-0.867l0.009-0.045c0.005-0.018,0.01-0.035,0.013-0.055c0.008-0.059,0.015-0.119,0.022-0.179c0.014-0.116,0.028-0.236,0.052-0.354
	c0.268-1.325,0.922-2.416,1.946-3.242c1.333-1.073,2.886-1.46,4.597-1.14c1.052,0.197,1.988,0.689,2.783,1.463
	c0.838,0.818,1.373,1.819,1.588,2.974c0.024,0.129,0.043,0.26,0.062,0.39c0.009,0.06,0.017,0.12,0.026,0.179v0.867L16.827,12.998z"
	/>
</svg>
