<?xml version="1.0" encoding="utf-8"?>
<!-- Generator: Adobe Illustrator 15.0.0, SVG Export Plug-In . SVG Version: 6.00 Build 0)  -->
<!DOCTYPE svg PUBLIC "-//W3C//DTD SVG 1.1//EN" "http://www.w3.org/Graphics/SVG/1.1/DTD/svg11.dtd">
<svg version="1.1" id="Layer_1" xmlns="http://www.w3.org/2000/svg" xmlns:xlink="http://www.w3.org/1999/xlink" x="0px" y="0px"
	 width="21px" height="21px" viewBox="0 0 21 21" enable-background="new 0 0 21 21" xml:space="preserve">
<path fill-rule="evenodd" clip-rule="evenodd" fill="#39b0d2 " d="M1.408,17.935c2.032-2.032,2.663-2.663,4.717-4.719
	c-0.578-0.577-1.144-1.143-1.709-1.709c0.007-0.021,0.013-0.042,0.021-0.063c1.886-0.123,3.773-0.247,5.7-0.372
	c-0.125,1.914-0.248,3.803-0.376,5.757c-0.605-0.607-1.169-1.17-1.755-1.757c-2.06,2.06-2.694,2.694-4.729,4.729
	C2.652,19.18,2.03,18.557,1.408,17.935"/>
<path fill="#02a393" d="M10.573,0.875c-5.348,0-9.698,4.351-9.698,9.699h1.689c0-4.417,3.593-8.009,8.009-8.009
	c4.416,0,8.009,3.593,8.009,8.009c0,4.415-3.592,8.009-8.009,8.009v1.688c5.348,0,9.699-4.35,9.699-9.697
	C20.272,5.226,15.921,0.875,10.573,0.875"/>
<path fill="#02a393" d="M10.573,4.874c-3.142,0-5.699,2.557-5.699,5.7h1.127C6.001,8.052,8.052,6,10.573,6
	c2.521,0,4.574,2.051,4.574,4.574c0,2.521-2.053,4.572-4.574,4.572v1.126c3.144,0,5.699-2.557,5.699-5.698
	C16.272,7.431,13.717,4.874,10.573,4.874"/>
<path fill="#02a393" d="M10.573,9.137c-0.792,0-1.436,0.643-1.436,1.437h1.436v1.437c0.794,0,1.437-0.645,1.437-1.437
	C12.01,9.78,11.367,9.137,10.573,9.137"/>
</svg>
