<?xml version="1.0" encoding="utf-8"?>
<!-- Generator: Adobe Illustrator 15.0.0, SVG Export Plug-In . SVG Version: 6.00 Build 0)  -->
<!DOCTYPE svg PUBLIC "-//W3C//DTD SVG 1.1//EN" "http://www.w3.org/Graphics/SVG/1.1/DTD/svg11.dtd">
<svg version="1.1" id="Layer_1" xmlns="http://www.w3.org/2000/svg" xmlns:xlink="http://www.w3.org/1999/xlink" x="0px" y="0px"
	 width="25px" height="25px" viewBox="0 0 100 100" enable-background="new 0 0 100 100" xml:space="preserve">
<path fill="#4c82bb" d="M50.021,97.414L50.021,97.414c-26.137,0-47.402-21.266-47.402-47.404S23.884,2.603,50.02,2.603
	c26.137,0.001,47.4,21.27,47.4,47.407c0,12.664-4.93,24.568-13.882,33.52C74.586,92.482,62.682,97.414,50.021,97.414 M50.02,5.127
	c-24.748,0-44.88,20.135-44.88,44.883c0,24.747,20.132,44.881,44.879,44.881c11.987,0,23.258-4.668,31.734-13.145
	c8.476-8.479,13.146-19.749,13.146-31.737C94.898,25.262,74.768,5.128,50.02,5.127 M54.104,68.504l-1.783-1.783l16.631-16.63
	L52.159,33.297l1.782-1.783l18.576,18.577L54.104,68.504z M23.958,48.747h47.078v2.522H23.958V48.747z"/>
</svg>
