<?xml version="1.0" encoding="utf-8"?>
<!-- Generator: Adobe Illustrator 15.0.0, SVG Export Plug-In . SVG Version: 6.00 Build 0)  -->
<!DOCTYPE svg PUBLIC "-//W3C//DTD SVG 1.1//EN" "http://www.w3.org/Graphics/SVG/1.1/DTD/svg11.dtd">
<svg version="1.1" id="Layer_1" xmlns="http://www.w3.org/2000/svg" xmlns:xlink="http://www.w3.org/1999/xlink" x="0px" y="0px"
	 width="22px" height="20px" viewBox="0 0 22 20" enable-background="new 0 0 22 20" xml:space="preserve">
<path fill="#B0AFB0" d="M9.419,7.653c0,0.238,0.086,0.46,0.258,0.664c0.172,0.205,0.433,0.37,0.783,0.495V6.48
	c-0.318,0.09-0.57,0.242-0.759,0.458C9.514,7.154,9.419,7.392,9.419,7.653 M12.992,12.305c0-0.301-0.105-0.561-0.318-0.778
	s-0.561-0.386-1.044-0.502v2.63c0.403-0.063,0.731-0.221,0.983-0.469C12.865,12.936,12.992,12.643,12.992,12.305 M11.63,0.003V5.01
	c0.854,0.085,1.534,0.329,2.04,0.731c0.506,0.403,0.828,0.941,0.968,1.615l-2.04,0.223C12.474,7.048,12.15,6.689,11.63,6.5v2.636
	c1.29,0.292,2.169,0.671,2.637,1.136c0.468,0.466,0.702,1.062,0.702,1.79c0,0.813-0.295,1.5-0.883,2.057
	c-0.59,0.557-1.408,0.898-2.456,1.025v4.769C16.856,19.6,21,15.264,21,9.958S16.856,0.316,11.63,0.003 M1.05,9.958
	c0,5.319,4.164,9.665,9.411,9.958v-4.738c-0.931-0.095-1.686-0.385-2.267-0.869c-0.58-0.486-0.951-1.172-1.113-2.058l2.105-0.188
	c0.086,0.359,0.248,0.67,0.484,0.931c0.237,0.261,0.5,0.449,0.791,0.565v-2.824c-1.054-0.252-1.827-0.632-2.319-1.144
	c-0.492-0.51-0.738-1.129-0.738-1.856c0-0.737,0.278-1.357,0.835-1.858c0.556-0.501,1.297-0.79,2.222-0.866V0
	C5.214,0.292,1.05,4.638,1.05,9.958"/>
</svg>
