<?xml version="1.0" encoding="utf-8"?>
<!-- Generator: Adobe Illustrator 15.0.0, SVG Export Plug-In . SVG Version: 6.00 Build 0)  -->
<!DOCTYPE svg PUBLIC "-//W3C//DTD SVG 1.1//EN" "http://www.w3.org/Graphics/SVG/1.1/DTD/svg11.dtd">
<svg version="1.1" id="Layer_1" xmlns="http://www.w3.org/2000/svg" xmlns:xlink="http://www.w3.org/1999/xlink" x="0px" y="0px"
	 width="21px" height="20px" viewBox="0 0 21 20" enable-background="new 0 0 21 20" xml:space="preserve">
<path fill="#39b0d2 " d="M10.341,0h1.292c0.059,0.013,0.115,0.03,0.174,0.04c0.555,0.092,1.121,0.142,1.666,0.281
	c5.348,1.371,8.561,6.78,7.225,12.139c-1.334,5.351-6.828,8.624-12.175,7.258c-5.451-1.393-8.693-6.995-7.178-12.401
	C2.408,3.521,5.59,0.708,9.488,0.117C9.772,0.074,10.057,0.038,10.341,0 M4.809,16.152c0.769-0.422,1.526-0.835,2.251-1.232
	c-0.207-0.732-0.461-1.477-0.621-2.241c-0.161-0.765-0.228-1.549-0.337-2.329H2.294C2.264,12.311,3.463,15.047,4.809,16.152
	 M14.865,14.895c0.779,0.426,1.535,0.84,2.301,1.258c1.398-1.229,2.76-4.379,2.494-5.81h-3.84
	C15.77,11.93,15.465,13.455,14.865,14.895 M19.68,9.686c0.025-1.795-1.092-4.554-2.205-5.448c-0.051,0.036-0.107,0.075-0.16,0.114
	c-0.641,0.481-1.326,0.893-2.064,1.209c-0.15,0.063-0.16,0.129-0.111,0.27c0.281,0.814,0.479,1.65,0.572,2.507
	c0.049,0.446,0.084,0.894,0.127,1.349H19.68z M6.141,9.684c0.006-0.041,0.013-0.072,0.014-0.104C6.21,8.276,6.42,7.002,6.857,5.77
	c0.048-0.135-0.028-0.16-0.119-0.2C5.983,5.24,5.281,4.822,4.624,4.326C4.578,4.291,4.528,4.263,4.483,4.233
	C3.204,5.564,2.122,8.286,2.31,9.684H6.141z M7.732,14.727c0.96-0.313,1.937-0.455,2.922-0.504v-3.876H6.802
	C6.842,11.867,7.143,13.314,7.732,14.727 M14.242,14.725c0.586-1.412,0.893-2.862,0.928-4.38h-3.855v3.88
	C12.311,14.266,13.281,14.42,14.242,14.725 M6.803,9.68h3.856V6.444c-1.08-0.038-2.125-0.231-3.158-0.58
	C7.055,7.109,6.835,8.369,6.803,9.68 M11.32,6.445V9.68h3.836c0.066-0.883-0.357-3.18-0.707-3.81
	C13.439,6.218,12.393,6.402,11.32,6.445 M7.744,5.268c0.962,0.321,1.918,0.504,2.908,0.523V1.288
	C9.345,2.391,8.412,3.714,7.744,5.268 M11.32,1.288v4.506c1-0.028,1.957-0.203,2.908-0.528C13.563,3.719,12.633,2.393,11.32,1.288
	 M17.033,3.766c-0.838-1.019-3.658-2.438-4.502-2.301c0.422,0.551,0.887,1.092,1.277,1.684c0.393,0.597,0.713,1.242,1.07,1.877
	C15.631,4.713,16.35,4.287,17.033,3.766 M9.478,1.459c-1.753,0.295-3.26,1.059-4.552,2.297C5.629,4.289,6.348,4.72,7.142,5.044
	C7.716,3.7,8.487,2.513,9.478,1.459 M10.659,14.877c-0.918,0.025-1.794,0.162-2.664,0.438c0.657,1.324,1.51,2.467,2.664,3.425
	V14.877z M11.322,14.879v3.855c1.15-0.961,2.002-2.1,2.656-3.42C13.107,15.041,12.23,14.902,11.322,14.879 M12.492,18.569
	c1.561-0.253,2.932-0.902,4.156-1.933c-0.658-0.458-1.33-0.819-2.061-1.1C14.039,16.661,13.342,17.664,12.492,18.569 M9.477,18.566
	c-0.856-0.91-1.549-1.918-2.093-3.031c-0.736,0.291-1.413,0.644-2.058,1.104C6.557,17.669,7.924,18.317,9.477,18.566"/>
</svg>
