<?xml version="1.0" encoding="utf-8"?>
<!-- Generator: Adobe Illustrator 15.0.0, SVG Export Plug-In . SVG Version: 6.00 Build 0)  -->
<!DOCTYPE svg PUBLIC "-//W3C//DTD SVG 1.1//EN" "http://www.w3.org/Graphics/SVG/1.1/DTD/svg11.dtd">
<svg version="1.1" id="Layer_1" xmlns="http://www.w3.org/2000/svg" xmlns:xlink="http://www.w3.org/1999/xlink" x="0px" y="0px"
	 width="21px" height="20px" viewBox="0 0 21 20" enable-background="new 0 0 21 20" xml:space="preserve">
<path fill="#39b0d2 " d="M20.953,17.988l-0.861-4.467c-0.125-0.437-0.539-0.956-1.06-1.247L15.09,9.846
	c-1.063,1.493-2.584,2.479-4.183,2.479c-1.598,0-3.118-0.985-4.182-2.479l-3.942,2.429c-0.59,0.363-0.95,0.841-1.076,1.277
	l-0.845,4.437c-0.291,1.053,0.802,2.036,2.262,2.036H18.69C20.15,20.024,21.244,19.041,20.953,17.988"/>
<path fill="#39b0d2 " d="M10.908,0c-3.1,0-4.672,1.747-4.672,5.194c0,3.51,2.467,6.133,4.672,6.133c2.206,0,4.672-2.623,4.672-6.133
	C15.58,1.747,14.009,0,10.908,0"/>
</svg>
