<?xml version="1.0" encoding="utf-8"?>
<!-- Generator: Adobe Illustrator 15.0.0, SVG Export Plug-In . SVG Version: 6.00 Build 0)  -->
<!DOCTYPE svg PUBLIC "-//W3C//DTD SVG 1.1//EN" "http://www.w3.org/Graphics/SVG/1.1/DTD/svg11.dtd">
<svg version="1.1" id="Layer_1" xmlns="http://www.w3.org/2000/svg" xmlns:xlink="http://www.w3.org/1999/xlink" x="0px" y="0px"
	 width="22px" height="20px" viewBox="0 0 22 20" enable-background="new 0 0 22 20" xml:space="preserve">
<path fill="#FFFFFF" d="M8.799,11.086c0.489-0.817,0.949-1.587,1.412-2.36c-0.028-0.04-0.05-0.082-0.081-0.115
	c-2.004-2.134-1.744-5.289,0.685-7.138c1.513-1.151,3.237-1.524,5.106-1.257c1.502,0.216,2.799,0.851,3.815,1.994
	c1.769,1.989,1.617,4.831-0.364,6.652c-1.426,1.309-3.137,1.813-5.047,1.673c-0.408-0.03-0.813-0.137-1.222-0.192
	c-0.142-0.019-0.294-0.007-0.437,0.021C11.397,10.598,10.127,10.837,8.799,11.086 M14.891,4.567
	c-0.592-0.002-1.061,0.459-1.063,1.045c0,0.569,0.465,1.037,1.043,1.044c0.584,0.006,1.067-0.469,1.063-1.047
	C15.93,5.035,15.463,4.568,14.891,4.567 M11.732,6.655c0.596,0.002,1.059-0.451,1.066-1.042c0.006-0.569-0.461-1.043-1.038-1.048
	c-0.588-0.004-1.065,0.461-1.067,1.042C10.691,6.178,11.162,6.652,11.732,6.655 M18.016,6.656c0.572-0.001,1.044-0.465,1.051-1.036
	c0.008-0.579-0.469-1.056-1.055-1.055c-0.576,0.002-1.045,0.463-1.049,1.036C16.957,6.185,17.428,6.657,18.016,6.656"/>
<path fill="#FFFFFF" d="M7.035,6.738C6.972,7.214,6.794,7.65,6.394,7.976C5.998,8.297,5.54,8.489,5.048,8.604
	c-0.149,0.036-0.213,0.098-0.238,0.26c-0.103,0.665,0.068,1.276,0.371,1.85c0.837,1.584,1.937,2.963,3.322,4.104
	c0.434,0.358,0.931,0.596,1.496,0.68c0.21,0.032,0.35,0.004,0.46-0.223c0.229-0.47,0.573-0.856,0.993-1.168
	c0.588-0.436,1.189-0.45,1.768-0.009c0.777,0.593,1.527,1.218,2.14,1.989c0.308,0.387,0.563,0.804,0.681,1.294
	c0.06,0.249,0.029,0.473-0.121,0.688c-0.522,0.75-1.254,1.214-2.101,1.494c-0.5,0.166-1.022,0.272-1.544,0.364
	c-0.174,0.031-0.384-0.037-0.556-0.11c-1.464-0.618-2.78-1.481-4.004-2.486c-1.112-0.914-2.196-1.872-3.057-3.027
	c-1.766-2.368-3.101-4.954-3.704-7.877C0.894,6.134,0.913,5.869,1.029,5.589c0.358-0.86,0.795-1.669,1.51-2.283
	c0.297-0.256,0.656-0.44,0.996-0.645c0.251-0.15,0.509-0.107,0.76,0.019c0.465,0.233,0.825,0.591,1.138,0.994
	C6.049,4.468,6.5,5.359,6.928,6.263C6.966,6.347,6.991,6.439,7.013,6.53C7.027,6.59,7.026,6.654,7.035,6.738"/>
</svg>
