<?xml version="1.0" encoding="utf-8"?>
<!-- Generator: Adobe Illustrator 15.0.0, SVG Export Plug-In . SVG Version: 6.00 Build 0)  -->
<!DOCTYPE svg PUBLIC "-//W3C//DTD SVG 1.1//EN" "http://www.w3.org/Graphics/SVG/1.1/DTD/svg11.dtd">
<svg version="1.1" id="Layer_1" xmlns="http://www.w3.org/2000/svg" xmlns:xlink="http://www.w3.org/1999/xlink" x="0px" y="0px"
	 width="23px" height="23px" viewBox="0 0 23 23" enable-background="new 0 0 23 23" xml:space="preserve">
<path fill-rule="evenodd" clip-rule="evenodd" fill="#39b0d2 " d="M20.608,22.987H2.379c-0.042-0.016-0.082-0.035-0.125-0.043
	c-1.056-0.188-1.757-0.794-2.115-1.799C0.078,20.972,0.046,20.787,0,20.608V4.13c0.014-0.033,0.036-0.065,0.042-0.101
	C0.24,2.877,1.034,2.032,2.17,1.833C2.578,1.76,3.004,1.785,3.422,1.774c0.32-0.008,0.64-0.001,0.986-0.001v0.268
	c0,0.464-0.004,0.928,0.001,1.391c0.012,0.854,0.476,1.54,1.191,1.773c1.168,0.382,2.304-0.398,2.353-1.629
	c0.019-0.515,0.005-1.032,0.007-1.548c0-0.079,0.007-0.157,0.011-0.238h7.055v0.261c0.001,0.5-0.012,1.003,0.005,1.502
	c0.028,0.914,0.677,1.637,1.536,1.738c0.905,0.107,1.7-0.428,1.941-1.329c0.055-0.206,0.062-0.428,0.065-0.644
	c0.009-0.506,0.003-1.012,0.003-1.533c0.654,0,1.281-0.027,1.906,0.005c1.212,0.065,2.157,0.883,2.434,2.061
	c0.021,0.092,0.047,0.185,0.069,0.277v16.478c-0.016,0.049-0.035,0.097-0.046,0.147c-0.193,1.034-0.791,1.726-1.774,2.086
	C20.986,22.907,20.793,22.939,20.608,22.987 M11.517,7.945c-3.157,0-6.315,0-9.472,0.001c-0.288,0-0.289,0-0.289,0.292v11.895
	c0,0.758,0.34,1.098,1.096,1.098h17.282c0.757,0,1.098-0.34,1.098-1.095c0-3.966,0-7.932,0-11.897c0-0.293,0-0.293-0.287-0.293
	C17.802,7.945,14.659,7.945,11.517,7.945"/>
<path fill-rule="evenodd" clip-rule="evenodd" fill="#02a393" d="M6.376,0C6.433,0.03,6.49,0.061,6.547,0.089
	c0.296,0.147,0.497,0.377,0.501,0.714C7.06,1.743,7.064,2.684,7.046,3.625C7.038,4.05,6.679,4.375,6.262,4.402
	C5.806,4.43,5.371,4.16,5.353,3.723C5.311,2.718,5.318,1.71,5.348,0.704C5.359,0.32,5.689,0.138,6.017,0H6.376z"/>
<path fill-rule="evenodd" clip-rule="evenodd" fill="#02a393" d="M16.971,0c0.557,0.197,0.731,0.61,0.714,1.172
	C17.66,1.941,17.686,2.71,17.676,3.48c-0.008,0.666-0.579,1.088-1.168,0.876c-0.338-0.124-0.561-0.368-0.566-0.731
	c-0.018-0.941-0.013-1.882-0.003-2.822c0.005-0.337,0.205-0.566,0.502-0.714C16.497,0.061,16.554,0.03,16.612,0H16.971z"/>
<rect x="14.524" y="12.518" fill="#39b0d2 " width="2.322" height="6.998"/>
<rect x="8.864" y="14.313" fill="#39b0d2 " width="2.323" height="5.203"/>
<rect x="11.67" y="15.748" fill="#02a393" width="2.322" height="3.768"/>
<rect x="6.141" y="17.602" fill="#02a393" width="2.321" height="1.914"/>
<path fill="#02a393" d="M7.217,14.852c-0.054,0-0.108-0.019-0.153-0.057c-0.102-0.084-0.115-0.235-0.03-0.337l2.882-3.445
	l2.639,1.561l3.099-3.386c0.089-0.098,0.24-0.104,0.338-0.015c0.098,0.089,0.104,0.241,0.016,0.338l-3.361,3.672l-2.624-1.55
	l-2.621,3.133C7.354,14.821,7.286,14.852,7.217,14.852"/>
</svg>
