<?xml version="1.0" encoding="utf-8"?>
<!-- Generator: Adobe Illustrator 15.0.0, SVG Export Plug-In . SVG Version: 6.00 Build 0)  -->
<!DOCTYPE svg PUBLIC "-//W3C//DTD SVG 1.1//EN" "http://www.w3.org/Graphics/SVG/1.1/DTD/svg11.dtd">
<svg version="1.1" id="Layer_1" xmlns="http://www.w3.org/2000/svg" xmlns:xlink="http://www.w3.org/1999/xlink" x="0px" y="0px"
	 width="21px" height="27px" viewBox="0 0 21 27" enable-background="new 0 0 21 27" xml:space="preserve">
<path fill="#FFFFFF" d="M0.998,25.609l4.263-2.568L8.277,27l0.903-4.728c-2.655-0.261-5.073-1.401-6.949-3.122L0.998,25.609z
	 M18.517,19.019c-1.857,1.768-4.269,2.957-6.925,3.242L12.497,27l3.016-3.959l4.264,2.567L18.517,19.019z"/>
<path fill="#FFFFFF" d="M10.335,0.001C4.528,0.064-0.053,4.717,0,10.5c0.052,5.675,4.816,10.323,10.526,10.264
	c5.646-0.058,10.311-4.813,10.247-10.456C20.708,4.539,16.051-0.061,10.335,0.001 M14.008,15.954l-3.621-2.631l-3.62,2.631
	l1.382-4.257l-3.62-2.63h4.475l1.383-4.256l1.383,4.256h4.476l-3.62,2.63L14.008,15.954z"/>
</svg>
