<?xml version="1.0" encoding="utf-8"?>
<!-- Generator: Adobe Illustrator 15.0.0, SVG Export Plug-In . SVG Version: 6.00 Build 0)  -->
<!DOCTYPE svg PUBLIC "-//W3C//DTD SVG 1.1//EN" "http://www.w3.org/Graphics/SVG/1.1/DTD/svg11.dtd">
<svg version="1.1" id="Layer_1" xmlns="http://www.w3.org/2000/svg" xmlns:xlink="http://www.w3.org/1999/xlink" x="0px" y="0px"
	 width="50px" height="50px" viewBox="0 0 50 50" enable-background="new 0 0 50 50" xml:space="preserve">
<g>
	<defs>
		<rect id="SVGID_1_" y="8.55" width="49.934" height="37.45"/>
	</defs>
	<clipPath id="SVGID_2_">
		<use xlink:href="#SVGID_1_"  overflow="visible"/>
	</clipPath>
	<g transform="scale(.9375)" clip-path="url(#SVGID_2_)">
		<g>
			<g>
				<path fill="#BF3F46" d="M0,9.12h75.899v3.073H0V9.12z M0,15.266h75.899v3.072H0V15.266z M0,21.411h75.899v3.072H0V21.411z
					 M0,27.557h75.899v3.073H0V27.557z M0,33.703h75.899v3.072H0V33.703z M0,39.848h75.899v3.074H0V39.848z M0,45.994h75.899v3.073
					H0V45.994z"/>
			</g>
			<g>
				<path fill="#FFFFFF" d="M0,12.193h75.899v3.073H0V12.193z M0,18.338h75.899v3.073H0V18.338z M0,24.484h75.899v3.073H0V24.484z
					 M0,30.63h75.899v3.073H0V30.63z M0,36.775h75.899v3.073H0V36.775z M0,42.922h75.899v3.072H0V42.922z"/>
			</g>
		</g>
		<path fill="#1C305D" d="M0,9.12h30.359v21.509H0V9.12z"/>
		<g>
			<path fill="#FFFFFF" d="M2.53,10.04l0.277,0.851H3.7l-0.723,0.526l0.277,0.85L2.53,11.741l-0.722,0.525l0.276-0.85L1.36,10.891
				h0.894L2.53,10.04z M7.589,10.04l0.277,0.851H8.76l-0.723,0.526l0.277,0.85l-0.724-0.525l-0.722,0.525l0.276-0.85L6.42,10.891
				h0.894L7.589,10.04z M12.649,10.04l0.277,0.851h0.894l-0.723,0.526l0.276,0.85l-0.723-0.525l-0.722,0.525l0.276-0.85
				l-0.723-0.526h0.893L12.649,10.04z M17.709,10.04l0.276,0.851h0.894l-0.723,0.526l0.276,0.85l-0.723-0.525l-0.723,0.525
				l0.276-0.85l-0.723-0.526h0.894L17.709,10.04z M22.769,10.04l0.277,0.851h0.894l-0.723,0.526l0.276,0.85l-0.723-0.525
				l-0.723,0.525l0.277-0.85l-0.723-0.526h0.894L22.769,10.04z M27.83,10.04l0.275,0.851H29l-0.724,0.526l0.276,0.85l-0.722-0.525
				l-0.723,0.525l0.276-0.85l-0.722-0.526h0.893L27.83,10.04z"/>
			<g>
				<path fill="#FFFFFF" d="M5.06,12.191l0.276,0.851H6.23l-0.722,0.526l0.276,0.851L5.06,13.892l-0.723,0.526l0.276-0.851
					L3.89,13.042h0.894L5.06,12.191z M10.12,12.191l0.276,0.851h0.894l-0.722,0.526l0.276,0.851l-0.723-0.526l-0.723,0.526
					l0.277-0.851l-0.723-0.526h0.894L10.12,12.191z M15.18,12.191l0.277,0.851h0.893l-0.723,0.526l0.277,0.851l-0.723-0.526
					l-0.723,0.526l0.276-0.851l-0.723-0.526h0.894L15.18,12.191z M20.24,12.191l0.276,0.851h0.894l-0.723,0.526l0.277,0.851
					l-0.723-0.526l-0.723,0.526l0.276-0.851l-0.723-0.526h0.894L20.24,12.191z M25.299,12.191l0.277,0.851h0.894l-0.723,0.526
					l0.277,0.851l-0.723-0.526l-0.723,0.526l0.276-0.851l-0.723-0.526h0.894L25.299,12.191z"/>
			</g>
			<g>
				<path fill="#FFFFFF" d="M2.53,14.343l0.277,0.85H3.7l-0.723,0.526l0.277,0.85L2.53,16.043l-0.722,0.526l0.276-0.85L1.36,15.193
					h0.894L2.53,14.343z M7.589,14.343l0.277,0.85H8.76l-0.723,0.526l0.277,0.85l-0.724-0.526l-0.722,0.526l0.276-0.85L6.42,15.193
					h0.894L7.589,14.343z M12.649,14.343l0.277,0.85h0.894l-0.723,0.526l0.276,0.85l-0.723-0.526l-0.722,0.526l0.276-0.85
					l-0.723-0.526h0.893L12.649,14.343z M17.709,14.343l0.276,0.85h0.894l-0.723,0.526l0.276,0.85l-0.723-0.526l-0.723,0.526
					l0.276-0.85l-0.723-0.526h0.894L17.709,14.343z M22.769,14.343l0.277,0.85h0.894l-0.723,0.526l0.276,0.85l-0.723-0.526
					l-0.723,0.526l0.277-0.85l-0.723-0.526h0.894L22.769,14.343z M27.83,14.343l0.275,0.85H29l-0.724,0.526l0.276,0.85l-0.722-0.526
					l-0.723,0.526l0.276-0.85l-0.722-0.526h0.893L27.83,14.343z"/>
				<g>
					<path fill="#FFFFFF" d="M5.06,16.493l0.276,0.851H6.23l-0.722,0.525l0.276,0.85L5.06,18.194l-0.723,0.525l0.276-0.85
						L3.89,17.344h0.894L5.06,16.493z M10.12,16.493l0.276,0.851h0.894l-0.722,0.525l0.276,0.85l-0.723-0.525l-0.723,0.525
						l0.277-0.85l-0.723-0.525h0.894L10.12,16.493z M15.18,16.493l0.277,0.851h0.893l-0.723,0.525l0.277,0.85l-0.723-0.525
						l-0.723,0.525l0.276-0.85l-0.723-0.525h0.894L15.18,16.493z M20.24,16.493l0.276,0.851h0.894l-0.723,0.525l0.277,0.85
						l-0.723-0.525l-0.723,0.525l0.276-0.85l-0.723-0.525h0.894L20.24,16.493z M25.299,16.493l0.277,0.851h0.894l-0.723,0.525
						l0.277,0.85l-0.723-0.525l-0.723,0.525l0.276-0.85l-0.723-0.525h0.894L25.299,16.493z"/>
				</g>
			</g>
			<g>
				<path fill="#FFFFFF" d="M2.53,18.645l0.277,0.85H3.7L2.977,20.02l0.277,0.85L2.53,20.344L1.807,20.87l0.276-0.85L1.36,19.495
					h0.894L2.53,18.645z M7.589,18.645l0.277,0.85H8.76L8.036,20.02l0.277,0.85l-0.724-0.526L6.867,20.87l0.276-0.85L6.42,19.495
					h0.894L7.589,18.645z M12.649,18.645l0.277,0.85h0.894l-0.723,0.526l0.276,0.85l-0.723-0.526l-0.722,0.526l0.276-0.85
					l-0.723-0.526h0.893L12.649,18.645z M17.709,18.645l0.276,0.85h0.894l-0.723,0.526l0.276,0.85l-0.723-0.526l-0.723,0.526
					l0.276-0.85l-0.723-0.526h0.894L17.709,18.645z M22.769,18.645l0.277,0.85h0.894l-0.723,0.526l0.276,0.85l-0.723-0.526
					l-0.723,0.526l0.277-0.85l-0.723-0.526h0.894L22.769,18.645z M27.83,18.645l0.275,0.85H29l-0.724,0.526l0.276,0.85l-0.722-0.526
					l-0.723,0.526l0.276-0.85l-0.722-0.526h0.893L27.83,18.645z"/>
				<g>
					<path fill="#FFFFFF" d="M5.06,20.795l0.276,0.849H6.23l-0.722,0.526l0.276,0.85L5.06,22.496l-0.723,0.525l0.276-0.85
						L3.89,21.645h0.894L5.06,20.795z M10.12,20.795l0.276,0.849h0.894l-0.722,0.526l0.276,0.85l-0.723-0.525l-0.723,0.525
						l0.277-0.85l-0.723-0.526h0.894L10.12,20.795z M15.18,20.795l0.277,0.849h0.893l-0.723,0.526l0.277,0.85l-0.723-0.525
						l-0.723,0.525l0.276-0.85l-0.723-0.526h0.894L15.18,20.795z M20.24,20.795l0.276,0.849h0.894l-0.723,0.526l0.277,0.85
						l-0.723-0.525l-0.723,0.525l0.276-0.85l-0.723-0.526h0.894L20.24,20.795z M25.299,20.795l0.277,0.849h0.894l-0.723,0.526
						l0.277,0.85l-0.723-0.525l-0.723,0.525l0.276-0.85l-0.723-0.526h0.894L25.299,20.795z"/>
				</g>
			</g>
			<g>
				<path fill="#FFFFFF" d="M2.53,22.946l0.277,0.85H3.7l-0.723,0.526l0.277,0.85L2.53,24.646l-0.722,0.526l0.276-0.85L1.36,23.796
					h0.894L2.53,22.946z M7.589,22.946l0.277,0.85H8.76l-0.723,0.526l0.277,0.85l-0.724-0.526l-0.722,0.526l0.276-0.85L6.42,23.796
					h0.894L7.589,22.946z M12.649,22.946l0.277,0.85h0.894l-0.723,0.526l0.276,0.85l-0.723-0.526l-0.722,0.526l0.276-0.85
					l-0.723-0.526h0.893L12.649,22.946z M17.709,22.946l0.276,0.85h0.894l-0.723,0.526l0.276,0.85l-0.723-0.526l-0.723,0.526
					l0.276-0.85l-0.723-0.526h0.894L17.709,22.946z M22.769,22.946l0.277,0.85h0.894l-0.723,0.526l0.276,0.85l-0.723-0.526
					l-0.723,0.526l0.277-0.85l-0.723-0.526h0.894L22.769,22.946z M27.83,22.946l0.275,0.85H29l-0.724,0.526l0.276,0.85l-0.722-0.526
					l-0.723,0.526l0.276-0.85l-0.722-0.526h0.893L27.83,22.946z"/>
				<g>
					<path fill="#FFFFFF" d="M5.06,25.097l0.276,0.849H6.23l-0.722,0.526l0.276,0.851L5.06,26.797l-0.723,0.526l0.276-0.851
						L3.89,25.947h0.894L5.06,25.097z M10.12,25.097l0.276,0.849h0.894l-0.722,0.526l0.276,0.851l-0.723-0.526l-0.723,0.526
						l0.277-0.851l-0.723-0.526h0.894L10.12,25.097z M15.18,25.097l0.277,0.849h0.893l-0.723,0.526l0.277,0.851l-0.723-0.526
						l-0.723,0.526l0.276-0.851l-0.723-0.526h0.894L15.18,25.097z M20.24,25.097l0.276,0.849h0.894l-0.723,0.526l0.277,0.851
						l-0.723-0.526l-0.723,0.526l0.276-0.851l-0.723-0.526h0.894L20.24,25.097z M25.299,25.097l0.277,0.849h0.894l-0.723,0.526
						l0.277,0.851l-0.723-0.526l-0.723,0.526l0.276-0.851l-0.723-0.526h0.894L25.299,25.097z"/>
				</g>
			</g>
			<g>
				<path fill="#FFFFFF" d="M2.53,27.248l0.277,0.85H3.7l-0.723,0.525l0.277,0.85L2.53,28.948l-0.722,0.525l0.276-0.85L1.36,28.098
					h0.894L2.53,27.248z M7.589,27.248l0.277,0.85H8.76l-0.723,0.525l0.277,0.85l-0.724-0.525l-0.722,0.525l0.276-0.85L6.42,28.098
					h0.894L7.589,27.248z M12.649,27.248l0.277,0.85h0.894l-0.723,0.525l0.276,0.85l-0.723-0.525l-0.722,0.525l0.276-0.85
					l-0.723-0.525h0.893L12.649,27.248z M17.709,27.248l0.276,0.85h0.894l-0.723,0.525l0.276,0.85l-0.723-0.525l-0.723,0.525
					l0.276-0.85l-0.723-0.525h0.894L17.709,27.248z M22.769,27.248l0.277,0.85h0.894l-0.723,0.525l0.276,0.85l-0.723-0.525
					l-0.723,0.525l0.277-0.85l-0.723-0.525h0.894L22.769,27.248z M27.83,27.248l0.275,0.85H29l-0.724,0.525l0.276,0.85l-0.722-0.525
					l-0.723,0.525l0.276-0.85l-0.722-0.525h0.893L27.83,27.248z"/>
			</g>
		</g>
	</g>
</g>
</svg>
