<?xml version="1.0" encoding="utf-8"?>
<!-- Generator: Adobe Illustrator 15.0.0, SVG Export Plug-In . SVG Version: 6.00 Build 0)  -->
<!DOCTYPE svg PUBLIC "-//W3C//DTD SVG 1.1//EN" "http://www.w3.org/Graphics/SVG/1.1/DTD/svg11.dtd">
<svg version="1.1" id="Layer_1" xmlns="http://www.w3.org/2000/svg" xmlns:xlink="http://www.w3.org/1999/xlink" x="0px" y="0px"
	 width="36px" height="47px" viewBox="0 0 36 47" enable-background="new 0 0 36 47" xml:space="preserve">
<line fill="none" x1="1918" y1="67" x2="-1882" y2="67"/>
<line fill="none" x1="1918" y1="67" x2="-1882" y2="67"/>
<line fill="none" x1="1918" y1="67" x2="-1882" y2="67"/>
<line fill="none" x1="1918" y1="67" x2="-1882" y2="67"/>
<line fill="none" x1="1918" y1="67" x2="-1882" y2="67"/>
<line fill="none" x1="1918" y1="67" x2="-1882" y2="67"/>
<line fill="none" x1="1918" y1="67" x2="-1882" y2="67"/>
<line fill="none" x1="1918" y1="67" x2="-1882" y2="67"/>
<path fill="#39b0d2 " d="M1519.702-21.404c-14.075,0-25.769,10.158-28.174,23.541c-0.572,2.842-0.631,5.668-0.256,8.479
	c0.362,3.072,1.208,5.995,2.464,8.69c0.104,0.244,0.203,0.488,0.313,0.732c4.364,9.763,10.68,18.223,17.509,26.336
	c2.573,3.059,5.296,5.99,7.95,8.979h0.291c1.765-1.972,3.539-3.936,5.291-5.918c6.731-7.624,12.974-15.604,17.814-24.591
	c0.746-1.388,1.456-2.789,2.105-4.213c2.121-4,3.327-8.559,3.327-13.401C1548.337-8.584,1535.518-21.404,1519.702-21.404"/>
<path fill="#FFFFFF" d="M1519.556-11.443c10.525-0.113,19.106,8.357,19.225,18.984c0.116,10.39-8.472,19.152-18.873,19.257
	c-10.518,0.105-19.292-8.451-19.388-18.905C1500.422-2.758,1508.859-11.327,1519.556-11.443"/>
<polygon fill="#39b0d2 " points="1530.041,-5.796 1515.91,-5.796 1511.961,8.549 1515.445,8.549 1511.021,21.879 1525.357,5.883 
	1521.32,5.883 "/>
<path fill="#39b0d2 " d="M17.567,0C8.942,0,1.776,6.225,0.302,14.426c-0.351,1.741-0.387,3.473-0.157,5.196
	c0.222,1.883,0.74,3.674,1.51,5.326c0.063,0.149,0.125,0.299,0.192,0.448c2.674,5.983,6.544,11.167,10.729,16.14
	c1.577,1.874,3.246,3.671,4.872,5.502h0.178c1.082-1.208,2.17-2.411,3.242-3.626c4.125-4.673,7.95-9.563,10.917-15.069
	c0.457-0.85,0.892-1.709,1.29-2.582c1.3-2.451,2.039-5.244,2.039-8.212C35.114,7.856,27.259,0,17.567,0"/>
<path fill="#FFFFFF" d="M17.478,6.104c6.45-0.069,11.707,5.121,11.78,11.633c0.071,6.366-5.191,11.736-11.565,11.8
	c-6.445,0.065-11.822-5.178-11.881-11.584C5.752,11.426,10.923,6.175,17.478,6.104"/>
<polygon fill="#02a393" points="23.902,9.564 15.243,9.564 12.823,18.355 14.958,18.355 12.247,26.524 21.033,16.721 18.558,16.721 
	"/>
</svg>
