<?xml version="1.0" encoding="utf-8"?>
<!-- Generator: Adobe Illustrator 15.0.0, SVG Export Plug-In . SVG Version: 6.00 Build 0)  -->
<!DOCTYPE svg PUBLIC "-//W3C//DTD SVG 1.1//EN" "http://www.w3.org/Graphics/SVG/1.1/DTD/svg11.dtd">
<svg version="1.1" id="Layer_1" xmlns="http://www.w3.org/2000/svg" xmlns:xlink="http://www.w3.org/1999/xlink" x="0px" y="0px"
	 width="22px" height="20px" viewBox="0 0 22 20" enable-background="new 0 0 22 20" xml:space="preserve">
<path fill="#FFC626" d="M10.23,19.922c-0.06-0.013-0.123-0.02-0.181-0.041c-1.631-0.582-3.077-1.451-4.223-2.77
	c-0.64-0.737-1.064-1.585-1.172-2.561c-0.097-0.871,0.028-1.729,0.421-2.513c0.398-0.793,0.852-1.559,1.3-2.327
	C7.292,8.14,8.236,6.585,9.14,5.006c0.523-0.914,0.96-1.873,1.171-2.917c0.147-0.726,0.102-1.432-0.256-2.105
	c0.12,0.157,0.241,0.313,0.358,0.472c0.117,0.159,0.232,0.32,0.346,0.482c0.746,1.07,1.438,2.172,1.901,3.399
	c0.18,0.477,0.311,0.96,0.298,1.477c-0.013,0.533-0.222,1.006-0.437,1.475c-0.426,0.926-1.035,1.737-1.623,2.56
	c-0.706,0.99-1.418,1.976-1.94,3.081c-0.322,0.684-0.618,1.377-0.728,2.136c-0.111,0.767-0.001,1.502,0.275,2.219
	c0.33,0.856,0.87,1.572,1.473,2.248c0.099,0.111,0.19,0.229,0.284,0.344C10.252,19.892,10.241,19.907,10.23,19.922"/>
<path fill="#F36F2D" d="M16.354,9.791c0.182,0.305,0.385,0.638,0.579,0.977c0.378,0.656,0.438,1.372,0.411,2.111
	c-0.031,0.842-0.284,1.605-0.741,2.307c-0.386,0.594-0.862,1.106-1.38,1.583c-0.652,0.604-1.337,1.175-1.895,1.875
	c-0.148,0.188-0.265,0.4-0.394,0.604c-0.056,0.089-0.104,0.182-0.157,0.272l-0.049-0.005c-0.02-0.095-0.05-0.188-0.055-0.284
	c-0.027-0.463,0.039-0.916,0.132-1.369c0.167-0.824,0.601-1.502,1.132-2.131c0.434-0.512,0.873-1.016,1.291-1.539
	c0.571-0.713,0.881-1.55,1.07-2.432c0.07-0.327,0.119-0.665,0.128-0.999C16.435,10.429,16.379,10.095,16.354,9.791"/>
<path fill="#F36F2D" d="M14.145,6.551c0.505,0.884,0.841,1.809,0.796,2.857c-0.034,0.809-0.3,1.529-0.695,2.209
	c-0.622,1.072-1.374,2.054-2.149,3.018c-0.444,0.553-0.777,1.164-0.933,1.863c-0.092,0.416-0.124,0.83,0.096,1.231
	c-0.034-0.03-0.071-0.061-0.102-0.095c-0.627-0.684-0.962-1.479-0.891-2.416c0.028-0.365,0.162-0.7,0.338-1.021
	c0.606-1.108,1.341-2.13,2.082-3.147c0.491-0.675,0.933-1.384,1.224-2.171C14.223,8.038,14.344,7.323,14.145,6.551"/>
</svg>
