<?xml version="1.0" encoding="utf-8"?>
<!-- Generator: Adobe Illustrator 15.0.0, SVG Export Plug-In . SVG Version: 6.00 Build 0)  -->
<!DOCTYPE svg PUBLIC "-//W3C//DTD SVG 1.1//EN" "http://www.w3.org/Graphics/SVG/1.1/DTD/svg11.dtd">
<svg version="1.1" id="Layer_1" xmlns="http://www.w3.org/2000/svg" xmlns:xlink="http://www.w3.org/1999/xlink" x="0px" y="0px"
	 width="13px" height="21px" viewBox="0 0 13 21" enable-background="new 0 0 13 21" xml:space="preserve">
<path fill="#39b0d2 " d="M11.912,0H1.094C0.489,0,0,0.489,0,1.094v18.355c0,0.604,0.489,1.094,1.094,1.094h10.818
	c0.604,0,1.094-0.489,1.094-1.094V1.094C13.006,0.489,12.517,0,11.912,0 M6.503,19.401c-0.428,0-0.774-0.347-0.774-0.774
	c0-0.427,0.346-0.774,0.774-0.774c0.427,0,0.773,0.348,0.773,0.774C7.276,19.055,6.931,19.401,6.503,19.401 M11.407,16.34
	c0,0.187-0.152,0.339-0.341,0.339H1.939c-0.188,0-0.34-0.152-0.34-0.339V2.107c0-0.188,0.152-0.34,0.34-0.34h9.127
	c0.188,0,0.341,0.152,0.341,0.34V16.34z"/>
<polygon fill="#02a393" points="6.502,13.014 2.641,10.274 2.641,15.756 10.364,15.756 10.364,10.274 "/>
<polygon fill="#02a393" points="3.849,10.274 6.503,12.155 9.232,10.274 "/>
</svg>
