<?xml version="1.0" encoding="utf-8"?>
<!-- Generator: Adobe Illustrator 15.0.0, SVG Export Plug-In . SVG Version: 6.00 Build 0)  -->
<!DOCTYPE svg PUBLIC "-//W3C//DTD SVG 1.1//EN" "http://www.w3.org/Graphics/SVG/1.1/DTD/svg11.dtd">
<svg version="1.1" id="Layer_1" xmlns="http://www.w3.org/2000/svg" xmlns:xlink="http://www.w3.org/1999/xlink" x="0px" y="0px"
	 width="20px" height="26px" viewBox="0 0 20 26" enable-background="new 0 0 20 26" xml:space="preserve">
<path fill="#FFFFFF" d="M10.522,24.7H9.48c-1.459,0-2.642-1.184-2.642-2.643v-0.136c0-1.459,1.183-2.643,2.642-2.643h1.042
	c1.459,0,2.642,1.184,2.642,2.643v0.136C13.164,23.517,11.981,24.7,10.522,24.7"/>
<path fill="#FFFFFF" d="M12.5,23.272H7.533c-0.507,0-0.918-0.466-0.918-1.04v0.084c0-0.575,0.412-1.041,0.918-1.041H12.5
	c0.506,0,0.917,0.466,0.917,1.041v-0.084C13.417,22.807,13.006,23.272,12.5,23.272"/>
<path fill="#FFFFFF" d="M12.5,21.275H7.533c-0.507,0-0.918-0.466-0.918-1.04v0.083c0-0.574,0.412-1.04,0.918-1.04H12.5
	c0.506,0,0.917,0.466,0.917,1.04v-0.083C13.417,20.81,13.006,21.275,12.5,21.275"/>
<path fill="#FFFFFF" d="M11.306,24.41c0,0.721-0.584,1.304-1.305,1.304c-0.72,0-1.305-0.583-1.305-1.304
	c0-0.721,0.584-1.305,1.305-1.305C10.721,23.105,11.306,23.689,11.306,24.41"/>
<path fill="#FFFFFF" d="M15.774,15.666l-0.001,0.006C15.755,15.752,15.765,15.706,15.774,15.666 M4.229,15.672l-0.007-0.023
	C4.232,15.689,4.25,15.764,4.229,15.672 M16.673,6.172c0,0-2.975-1.766-6.672-1.766c-3.697,0-6.671,1.765-6.671,1.765
	C2.414,6.74,2.004,7.863,2.24,8.914l1.982,6.735c-0.005-0.025-0.008-0.036,0.007,0.023c0.336,1.347,0.941,2.794,1.912,2.794h7.718
	c0.972,0,1.512-1.059,1.914-2.794c0.017-0.071,0.009-0.041,0.001-0.006l1.987-6.752C17.998,7.863,17.588,6.74,16.673,6.172
	 M7.297,17.479c-0.102,0.029-0.205,0.044-0.306,0.044c-0.469,0-0.901-0.307-1.041-0.778L3.54,8.552
	C3.372,7.978,3.7,7.375,4.274,7.205c0.574-0.168,1.178,0.159,1.347,0.734l2.41,8.193C8.201,16.706,7.873,17.309,7.297,17.479"/>
<path fill="#FFFFFF" d="M9.98,3.11c-0.299,0-0.542-0.244-0.542-0.542V0.542C9.438,0.243,9.682,0,9.98,0
	c0.3,0,0.543,0.243,0.543,0.542v2.025C10.523,2.867,10.28,3.11,9.98,3.11"/>
<path fill="#FFFFFF" d="M13.943,3.721c-0.078,0-0.158-0.018-0.233-0.053c-0.271-0.13-0.385-0.454-0.255-0.724l0.806-1.677
	c0.129-0.27,0.453-0.384,0.724-0.254c0.27,0.129,0.384,0.454,0.254,0.724l-0.806,1.678C14.34,3.607,14.146,3.721,13.943,3.721"/>
<path fill="#FFFFFF" d="M6.019,3.721c-0.203,0-0.396-0.114-0.49-0.308L4.724,1.736c-0.13-0.27-0.016-0.594,0.254-0.724
	c0.269-0.13,0.594-0.016,0.723,0.254l0.805,1.677c0.13,0.271,0.016,0.594-0.254,0.724C6.177,3.704,6.097,3.721,6.019,3.721"/>
<path fill="#FFFFFF" d="M1.956,5.851c-0.125,0-0.25-0.043-0.353-0.13l-1.414-1.21C-0.038,4.316-0.064,3.974,0.13,3.747
	c0.194-0.228,0.537-0.255,0.764-0.06l1.414,1.209C2.537,5.09,2.563,5.434,2.368,5.661C2.261,5.787,2.109,5.851,1.956,5.851"/>
<path fill="#FFFFFF" d="M18.006,5.851c-0.153,0-0.306-0.064-0.413-0.19c-0.194-0.228-0.167-0.571,0.061-0.765l1.413-1.209
	c0.229-0.195,0.57-0.168,0.766,0.06c0.194,0.228,0.169,0.57-0.061,0.764l-1.413,1.21C18.256,5.808,18.13,5.851,18.006,5.851"/>
</svg>
