<?xml version="1.0" encoding="utf-8"?>
<!-- Generator: Adobe Illustrator 15.0.0, SVG Export Plug-In . SVG Version: 6.00 Build 0)  -->
<!DOCTYPE svg PUBLIC "-//W3C//DTD SVG 1.1//EN" "http://www.w3.org/Graphics/SVG/1.1/DTD/svg11.dtd">
<svg version="1.1" id="Layer_1" xmlns="http://www.w3.org/2000/svg" xmlns:xlink="http://www.w3.org/1999/xlink" x="0px" y="0px"
	 width="21px" height="21px" viewBox="0 0 21 21" enable-background="new 0 0 21 21" xml:space="preserve">
<path fill="#FFFFFF" d="M9.965,20.081C4.47,20.081,0,15.609,0,10.115c0-0.41,0.333-0.744,0.744-0.744
	c0.411,0,0.744,0.334,0.744,0.744c0,4.674,3.803,8.478,8.478,8.478s8.478-3.804,8.478-8.478c0-4.675-3.803-8.479-8.478-8.479
	c-2.159,0-4.216,0.813-5.792,2.287c-0.3,0.28-0.771,0.265-1.051-0.034c-0.281-0.3-0.265-0.771,0.034-1.051
	C5.008,1.105,7.427,0.15,9.965,0.15c5.494,0,9.965,4.471,9.965,9.965S15.459,20.081,9.965,20.081"/>
<polygon fill="#FFFFFF" points="1.952,5.204 1.622,0 7.155,5.533 "/>
<path fill="#FFFFFF" d="M9.965,10.709c-0.16,0-0.318-0.063-0.435-0.189c-0.224-0.24-0.21-0.617,0.03-0.841l4.932-4.581
	c0.24-0.224,0.615-0.21,0.841,0.031c0.224,0.241,0.209,0.617-0.03,0.84l-4.934,4.582C10.256,10.657,10.111,10.709,9.965,10.709"/>
<path fill="#FFFFFF" d="M9.965,15.511c-0.328,0-0.595-0.267-0.595-0.595v-4.801c0-0.328,0.267-0.595,0.595-0.595
	c0.328,0,0.595,0.267,0.595,0.595v4.801C10.56,15.244,10.293,15.511,9.965,15.511"/>
</svg>
