<?xml version="1.0" encoding="utf-8"?>
<!-- Generator: Adobe Illustrator 15.0.0, SVG Export Plug-In . SVG Version: 6.00 Build 0)  -->
<!DOCTYPE svg PUBLIC "-//W3C//DTD SVG 1.1//EN" "http://www.w3.org/Graphics/SVG/1.1/DTD/svg11.dtd">
<svg version="1.1" id="Layer_1" xmlns="http://www.w3.org/2000/svg" xmlns:xlink="http://www.w3.org/1999/xlink" x="0px" y="0px"
	 width="20px" height="15px" viewBox="0 0 20 15" enable-background="new 0 0 20 15" xml:space="preserve">
<path fill="#39b0d2 " d="M8.208,14.964c-2.201,0-3.268-1.665-3.62-2.365H1.75c-0.965,0-1.75-0.761-1.75-1.694v-9.21
	C0,0.761,0.785,0,1.75,0h15.896c0.966,0,1.751,0.761,1.751,1.694v9.21c0,0.934-0.785,1.694-1.751,1.694H8.471
	c-0.165,0.467-0.335,1.246,0.047,1.566c0.147,0.127,0.2,0.325,0.131,0.505C8.581,14.848,8.405,14.964,8.208,14.964 M1.75,0.912
	c-0.446,0-0.81,0.352-0.81,0.783v9.21c0,0.431,0.364,0.783,0.81,0.783h3.146c0.199,0,0.375,0.121,0.443,0.301
	c0.027,0.071,0.597,1.522,2.041,1.95c-0.164-0.873,0.274-1.842,0.344-1.985c0.077-0.162,0.243-0.266,0.427-0.266h9.496
	c0.446,0,0.81-0.353,0.81-0.783v-9.21c0-0.431-0.363-0.783-0.81-0.783H1.75z"/>
<rect x="1.959" y="3.74" fill="#39b0d2 " width="11.129" height="1.256"/>
<rect x="1.959" y="7.542" fill="#39b0d2 " width="6.758" height="1.255"/>
<rect x="1.96" y="1.841" fill="#02a393" width="15.479" height="1.255"/>
<rect x="1.96" y="5.642" fill="#02a393" width="15.479" height="1.256"/>
<rect x="1.93" y="9.442" fill="#02a393" width="15.479" height="1.255"/>
</svg>
