<?xml version="1.0" encoding="utf-8"?>
<!-- Generator: Adobe Illustrator 15.0.0, SVG Export Plug-In . SVG Version: 6.00 Build 0)  -->
<!DOCTYPE svg PUBLIC "-//W3C//DTD SVG 1.1//EN" "http://www.w3.org/Graphics/SVG/1.1/DTD/svg11.dtd">
<svg version="1.1" id="Layer_1" xmlns="http://www.w3.org/2000/svg" xmlns:xlink="http://www.w3.org/1999/xlink" x="0px" y="0px"
	 width="20px" height="27px" viewBox="0 0 20 27" enable-background="new 0 0 20 27" xml:space="preserve">
<path fill="#39b0d2 " d="M17.339,0H2.68C1.2,0,0,1.2,0,2.679v3.006h20.017V2.679C20.017,1.2,18.817,0,17.339,0 M6.738,3.815H2.154
	V2.042h4.584V3.815z M14.652,3.815c-0.487,0-0.883-0.398-0.883-0.886c0-0.491,0.396-0.887,0.883-0.887
	c0.492,0,0.889,0.396,0.889,0.887C15.541,3.417,15.145,3.815,14.652,3.815 M17.432,3.815c-0.49,0-0.887-0.398-0.887-0.886
	c0-0.491,0.396-0.887,0.887-0.887c0.487,0,0.884,0.396,0.884,0.887C18.315,3.417,17.919,3.815,17.432,3.815 M0,23.028
	c0,1.377,1.04,2.509,2.375,2.662v0.598h3.963v-0.581h7.331v0.581h3.965v-0.597c1.341-0.146,2.383-1.284,2.383-2.663V7.885H0V23.028z
	 M2.586,9.842h14.845v13.301H2.586V9.842z"/>
<path fill="#02a393" d="M9.644,13.431c0,1.508-0.989,2.73-2.21,2.73c-1.222,0-2.211-1.223-2.211-2.73
	c0-1.509,0.989-2.731,2.211-2.731C8.655,10.699,9.644,11.922,9.644,13.431"/>
<path fill="#02a393" d="M7.593,15.518h-0.32c-0.338,0-0.616,0.266-0.632,0.602l-0.273,5.442c-0.02,0.359,0.27,0.663,0.632,0.663
	h0.868c0.361,0,0.65-0.304,0.631-0.663l-0.274-5.442C8.209,15.783,7.931,15.518,7.593,15.518"/>
<path fill="#02a393" d="M12.717,15.518h-0.32c-0.34,0-0.614,0.266-0.636,0.602l-0.27,5.442c-0.02,0.359,0.269,0.663,0.632,0.663
	h0.867c0.362,0,0.648-0.304,0.631-0.663l-0.271-5.442C13.33,15.783,13.052,15.518,12.717,15.518"/>
<path fill="#02a393" d="M14.281,10.781L13.22,13.13l-0.693-2.436l-0.635,2.436l-1.061-2.349c-0.219,0.328-0.346,0.72-0.346,1.142
	v2.173c0,1.141,0.932,2.073,2.072,2.073c1.138,0,2.069-0.933,2.069-2.073v-2.173C14.626,11.501,14.5,11.109,14.281,10.781"/>
</svg>
