<?xml version="1.0" encoding="utf-8"?>
<!-- Generator: Adobe Illustrator 15.0.0, SVG Export Plug-In . SVG Version: 6.00 Build 0)  -->
<!DOCTYPE svg PUBLIC "-//W3C//DTD SVG 1.1//EN" "http://www.w3.org/Graphics/SVG/1.1/DTD/svg11.dtd">
<svg version="1.1" id="Layer_1" xmlns="http://www.w3.org/2000/svg" xmlns:xlink="http://www.w3.org/1999/xlink" x="0px" y="0px"
	 width="24px" height="23px" viewBox="0 0 24 23" enable-background="new 0 0 24 23" xml:space="preserve">
<path fill="#39b0d2 " d="M0,20.981c0,1.113,0.902,2.017,2.017,2.017h19.938c1.113,0,2.016-0.903,2.016-2.017V7.567H0V20.981z
	 M14.187,20.163H9.783v-4.404h4.403V20.163z M17.168,9.862h4.404v4.403h-4.404V9.862z M17.168,15.759h4.404v4.404h-4.404V15.759z
	 M9.572,9.999h4.825v4.825H9.572V9.999z M2.515,9.862h4.404v4.403H2.515V9.862z M2.515,15.759h4.404v4.404H2.515V15.759z M21.954,0
	h-2.986v3.676h-5.38V0h-3.543v3.676h-5.38V0H2.017C0.902,0,0,0.902,0,2.016v3.755h23.97V2.016C23.97,0.902,23.067,0,21.954,0
	 M9.994,14.402h3.983v-3.983H9.994V14.402z"/>
<rect x="5.556" fill="#02a393" width="3.598" height="2.849"/>
<rect x="14.479" fill="#02a393" width="3.598" height="2.849"/>
</svg>
