<?xml version="1.0" encoding="utf-8"?>
<!-- Generator: Adobe Illustrator 15.0.0, SVG Export Plug-In . SVG Version: 6.00 Build 0)  -->
<!DOCTYPE svg PUBLIC "-//W3C//DTD SVG 1.1//EN" "http://www.w3.org/Graphics/SVG/1.1/DTD/svg11.dtd">
<svg version="1.1" id="Layer_1" xmlns="http://www.w3.org/2000/svg" xmlns:xlink="http://www.w3.org/1999/xlink" x="0px" y="0px"
	 width="22px" height="22px" viewBox="0 0 22 22" enable-background="new 0 0 22 22" xml:space="preserve">
<path fill="#39b0d2 " d="M9.271,8.512c0,0.257,0.093,0.496,0.279,0.717c0.185,0.221,0.466,0.399,0.843,0.535V7.245
	C10.05,7.343,9.778,7.508,9.575,7.741C9.372,7.973,9.271,8.23,9.271,8.512 M13.121,13.534c0-0.325-0.115-0.605-0.344-0.841
	s-0.604-0.416-1.125-0.542v2.839c0.435-0.068,0.788-0.238,1.061-0.506C12.984,14.215,13.121,13.898,13.121,13.534 M11.652,0.253
	v5.405c0.921,0.092,1.653,0.355,2.198,0.79c0.545,0.434,0.893,1.015,1.044,1.743l-2.199,0.241c-0.134-0.573-0.481-0.961-1.043-1.165
	v2.846c1.391,0.316,2.338,0.725,2.842,1.227c0.505,0.502,0.756,1.146,0.756,1.932c0,0.879-0.317,1.619-0.951,2.221
	c-0.635,0.602-1.517,0.971-2.646,1.105v5.148C17.285,21.408,21.75,16.729,21.75,11S17.285,0.591,11.652,0.253 M0.25,11
	c0,5.742,4.488,10.433,10.142,10.75v-5.115c-1.003-0.102-1.816-0.416-2.442-0.939c-0.625-0.523-1.026-1.264-1.2-2.22l2.269-0.204
	c0.092,0.389,0.266,0.723,0.521,1.006c0.255,0.279,0.539,0.484,0.852,0.611v-3.051c-1.136-0.271-1.969-0.682-2.5-1.233
	c-0.529-0.55-0.795-1.219-0.795-2.005c0-0.795,0.3-1.464,0.9-2.005s1.397-0.852,2.395-0.935V0.25C4.738,0.566,0.25,5.258,0.25,11"/>
</svg>
