<?xml version="1.0" encoding="utf-8"?>
<!-- Generator: Adobe Illustrator 15.0.0, SVG Export Plug-In . SVG Version: 6.00 Build 0)  -->
<!DOCTYPE svg PUBLIC "-//W3C//DTD SVG 1.1//EN" "http://www.w3.org/Graphics/SVG/1.1/DTD/svg11.dtd">
<svg version="1.1" id="Layer_1" xmlns="http://www.w3.org/2000/svg" xmlns:xlink="http://www.w3.org/1999/xlink" x="0px" y="0px"
	 width="28px" height="21px" viewBox="0 0 28 21" enable-background="new 0 0 28 21" xml:space="preserve">
<path fill="#39b0d2 " d="M12.014,20.264c-2.931,0-4.352-2.163-4.821-3.07H3.412c-1.286,0-2.332-0.987-2.332-2.199V3.043
	c0-1.212,1.046-2.199,2.332-2.199h21.174c1.285,0,2.331,0.987,2.331,2.199v11.951c0,1.212-1.046,2.199-2.331,2.199H12.363
	c-0.22,0.606-0.446,1.616,0.063,2.033c0.197,0.163,0.267,0.422,0.175,0.653C12.509,20.11,12.276,20.264,12.014,20.264 M3.412,2.027
	c-0.595,0-1.079,0.456-1.079,1.017v11.951c0,0.561,0.484,1.016,1.079,1.016h4.189c0.265,0,0.501,0.157,0.59,0.391
	c0.036,0.093,0.795,1.977,2.718,2.53c-0.219-1.131,0.366-2.389,0.458-2.576c0.103-0.209,0.324-0.345,0.569-0.345h12.649
	c0.594,0,1.078-0.455,1.078-1.016V3.043c0-0.561-0.484-1.017-1.078-1.017H3.412z"/>
<rect x="3.69" y="5.698" fill="#39b0d2 " width="14.824" height="1.629"/>
<rect x="3.69" y="10.632" fill="#39b0d2 " width="9.001" height="1.629"/>
<rect x="3.69" y="3.232" fill="#02a393" width="20.616" height="1.629"/>
<rect x="3.69" y="8.166" fill="#02a393" width="20.616" height="1.629"/>
<rect x="3.65" y="13.098" fill="#02a393" width="20.617" height="1.628"/>
</svg>
