<?xml version="1.0" encoding="utf-8"?>
<!-- Generator: Adobe Illustrator 15.0.0, SVG Export Plug-In . SVG Version: 6.00 Build 0)  -->
<!DOCTYPE svg PUBLIC "-//W3C//DTD SVG 1.1//EN" "http://www.w3.org/Graphics/SVG/1.1/DTD/svg11.dtd">
<svg version="1.1" id="Layer_1" xmlns="http://www.w3.org/2000/svg" xmlns:xlink="http://www.w3.org/1999/xlink" x="0px" y="0px"
	 width="24px" height="21px" viewBox="0 0 24 21" enable-background="new 0 0 24 21" xml:space="preserve">
<path fill="#FFFFFF" d="M20.754,20.935H2.939c-1.194,0-2.152-0.452-2.626-1.238c-0.473-0.788-0.408-1.816,0.183-2.824L9.449,1.588
	C10.041,0.579,10.913,0,11.846,0c0.935,0,1.809,0.579,2.399,1.588l8.953,15.284c0.59,1.008,0.656,2.036,0.182,2.824
	C22.905,20.482,21.948,20.935,20.754,20.935 M11.846,1.598c-0.321,0-0.671,0.285-0.961,0.779L1.931,17.662
	c-0.292,0.498-0.36,0.946-0.191,1.229c0.17,0.283,0.608,0.446,1.199,0.446h17.814c0.592,0,1.028-0.163,1.198-0.446
	c0.173-0.282,0.102-0.73-0.189-1.229L12.809,2.376C12.52,1.882,12.168,1.598,11.846,1.598"/>
<path fill="#FFFFFF" d="M12.778,5.083v3.389l-0.716,5.794H11.54l-0.609-5.944V5.083H12.778z M12.778,17.86h-1.847v-2.557h1.847
	V17.86z"/>
</svg>
