<?xml version="1.0" encoding="utf-8"?>
<!-- Generator: Adobe Illustrator 15.0.0, SVG Export Plug-In . SVG Version: 6.00 Build 0)  -->
<!DOCTYPE svg PUBLIC "-//W3C//DTD SVG 1.1//EN" "http://www.w3.org/Graphics/SVG/1.1/DTD/svg11.dtd">
<svg version="1.1" id="Layer_1" xmlns="http://www.w3.org/2000/svg" xmlns:xlink="http://www.w3.org/1999/xlink" x="0px" y="0px"
	 width="11px" height="18px" viewBox="0 0 11 18" enable-background="new 0 0 11 18" xml:space="preserve">
<path fill="#39b0d2 " d="M5.321,1.565c0.588,0.881,1.135,1.789,1.499,2.8c0.142,0.392,0.244,0.791,0.235,1.216
	C7.045,6.02,6.88,6.41,6.711,6.796c-0.334,0.762-0.815,1.43-1.279,2.108C4.876,9.718,4.314,10.53,3.903,11.44
	c-0.254,0.563-0.488,1.133-0.575,1.758c-0.087,0.632,0,1.238,0.218,1.827c0.259,0.705,0.685,1.295,1.161,1.853
	c0.079,0.091,0.149,0.188,0.223,0.282c-0.008,0.013-0.017,0.025-0.025,0.038"/>
<path fill="#39b0d2 " d="M4.905,17.198c-0.047-0.011-0.097-0.017-0.142-0.034c-1.287-0.479-2.427-1.194-3.331-2.281
	c-0.505-0.606-0.839-1.305-0.924-2.108c-0.076-0.717,0.023-1.422,0.333-2.067c0.314-0.654,0.671-1.285,1.024-1.917
	c0.724-1.294,1.468-2.575,2.18-3.875c0.413-0.753,0.758-1.542,0.924-2.401c0.116-0.598,0.08-1.179-0.202-1.734"/>
<path fill="#39b0d2 " d="M9.731,8.855c0.144,0.251,0.304,0.526,0.456,0.805c0.299,0.54,0.345,1.13,0.324,1.738
	c-0.023,0.693-0.224,1.321-0.584,1.899c-0.304,0.489-0.68,0.911-1.087,1.304c-0.517,0.496-1.055,0.968-1.494,1.544
	c-0.118,0.154-0.21,0.329-0.311,0.497c-0.044,0.073-0.083,0.149-0.123,0.225c-0.013-0.001-0.026-0.003-0.04-0.005
	c-0.014-0.077-0.038-0.155-0.042-0.234c-0.022-0.381,0.032-0.753,0.103-1.127c0.134-0.679,0.475-1.237,0.894-1.754
	c0.341-0.422,0.688-0.837,1.019-1.268c0.449-0.587,0.693-1.275,0.844-2.002C9.743,10.207,9.782,9.93,9.79,9.655
	C9.797,9.381,9.752,9.106,9.731,8.855"/>
<path fill="#39b0d2 " d="M7.99,6.188c0.397,0.728,0.663,1.49,0.627,2.353C8.59,9.206,8.381,9.799,8.069,10.36
	c-0.489,0.883-1.082,1.69-1.692,2.484c-0.352,0.455-0.613,0.958-0.736,1.533c-0.073,0.343-0.098,0.685,0.076,1.016
	c-0.027-0.025-0.056-0.051-0.081-0.078c-0.494-0.564-0.759-1.218-0.702-1.991c0.022-0.299,0.127-0.575,0.266-0.842
	c0.479-0.911,1.057-1.752,1.641-2.59c0.387-0.556,0.735-1.139,0.965-1.788C8.052,7.411,8.147,6.823,7.99,6.188"/>
</svg>
