<?xml version="1.0" encoding="utf-8"?>
<!-- Generator: Adobe Illustrator 15.0.0, SVG Export Plug-In . SVG Version: 6.00 Build 0)  -->
<!DOCTYPE svg PUBLIC "-//W3C//DTD SVG 1.1//EN" "http://www.w3.org/Graphics/SVG/1.1/DTD/svg11.dtd">
<svg version="1.1" id="Layer_1" xmlns="http://www.w3.org/2000/svg" xmlns:xlink="http://www.w3.org/1999/xlink" x="0px" y="0px"
	 width="40px" height="40px" viewBox="0 0 40 40" enable-background="new 0 0 40 40" xml:space="preserve">
<polygon fill="#39b0d2 " points="27.497,13.198 19.787,19.926 20.605,20.746 "/>
<path fill="#39b0d2 " d="M20.439,34.482L20.439,34.482c-8.171,0-14.819-6.445-14.819-14.367c0-7.922,6.648-14.368,14.819-14.368
	c8.172,0,14.821,6.445,14.821,14.368C35.26,28.038,28.611,34.482,20.439,34.482 M20.439,7.437c-7.24,0-13.129,5.688-13.129,12.678
	s5.89,12.678,13.129,12.679c7.241,0,13.129-5.688,13.129-12.679S27.68,7.437,20.439,7.437"/>
<path fill="#39b0d2 " d="M21.646,20.067c0,0.641-0.52,1.16-1.16,1.16c-0.64,0-1.16-0.519-1.16-1.16c0-0.64,0.52-1.16,1.16-1.16
	C21.127,18.907,21.646,19.427,21.646,20.067"/>
<text transform="matrix(1 0 0 1 12.877 28.4795)" fill="#39b0d2 " font-family="'Arial'" font-size="8.0229">H </text>
<text transform="matrix(1 0 0 1 16.96 28.4795)" fill="#39b0d2 " font-family="'Arial'" font-size="8.0229"> CF</text>
<path fill="#39b0d2 " d="M20.893,10.053v4.184c1.33,0.088,2.547,0.591,3.522,1.383l2.961-2.962
	C25.632,11.118,23.372,10.151,20.893,10.053"/>
<path fill="#39b0d2 " d="M13.561,12.666l2.962,2.962c0.977-0.796,2.198-1.302,3.533-1.39v-4.184
	C17.57,10.151,15.306,11.121,13.561,12.666"/>
<path fill="#39b0d2 " d="M25.027,16.19c1.041,1.103,1.688,2.583,1.713,4.212h4.18c-0.023-2.781-1.141-5.304-2.939-7.166L25.027,16.19
	z"/>
<path fill="#39b0d2 " d="M12.958,13.246c-1.793,1.86-2.907,4.379-2.931,7.156h4.18c0.023-1.624,0.667-3.101,1.704-4.202
	L12.958,13.246z"/>
</svg>
