<?xml version="1.0" encoding="utf-8"?>
<!-- Generator: Adobe Illustrator 15.0.0, SVG Export Plug-In . SVG Version: 6.00 Build 0)  -->
<!DOCTYPE svg PUBLIC "-//W3C//DTD SVG 1.1//EN" "http://www.w3.org/Graphics/SVG/1.1/DTD/svg11.dtd">
<svg version="1.1" id="Layer_1" xmlns="http://www.w3.org/2000/svg" xmlns:xlink="http://www.w3.org/1999/xlink" x="0px" y="0px"
	 width="22px" height="21px" viewBox="0 0 22 21" enable-background="new 0 0 22 21" xml:space="preserve">
<path fill="#FFFFFF" d="M18.648,0H2.997C1.344,0,0,1.302,0,2.901v15.145c0,1.6,1.344,2.902,2.997,2.902h5.945v-7.732h-2.72v-3.149
	h2.72V7.744c0-2.696,1.646-4.163,4.051-4.163c1.15,0,2.143,0.086,2.43,0.124v2.817h-1.669c-1.308,0-1.56,0.622-1.56,1.533v2.011
	h3.118l-0.406,3.149h-2.712v7.732h6.454c1.652,0,2.997-1.303,2.997-2.902V2.901C21.646,1.302,20.301,0,18.648,0"/>
</svg>
