<?xml version="1.0" encoding="utf-8"?>
<!-- Generator: Adobe Illustrator 15.0.0, SVG Export Plug-In . SVG Version: 6.00 Build 0)  -->
<!DOCTYPE svg PUBLIC "-//W3C//DTD SVG 1.1//EN" "http://www.w3.org/Graphics/SVG/1.1/DTD/svg11.dtd">
<svg version="1.1" id="Layer_1" xmlns="http://www.w3.org/2000/svg" xmlns:xlink="http://www.w3.org/1999/xlink" x="0px" y="0px"
	 width="22px" height="21px" viewBox="0 0 22 21" enable-background="new 0 0 22 21" xml:space="preserve">
<path fill="#39b0d2 " d="M18.666,0H3C1.346,0,0,1.303,0,2.904v15.16c0,1.602,1.346,2.904,3,2.904h15.666
	c1.655,0,3.001-1.303,3.001-2.904V2.904C21.667,1.303,20.321,0,18.666,0 M16.899,7.372c0.007,0.129,0.01,0.261,0.01,0.391
	c0,4.004-3.148,8.618-8.906,8.618c-1.767,0-3.413-0.501-4.797-1.361c0.246,0.028,0.494,0.043,0.746,0.043
	c1.466,0,2.816-0.483,3.888-1.296c-1.37-0.024-2.526-0.901-2.925-2.104c0.192,0.036,0.387,0.055,0.59,0.055
	c0.285,0,0.561-0.036,0.824-0.105c-1.432-0.279-2.51-1.503-2.51-2.97v-0.04c0.422,0.228,0.905,0.363,1.417,0.38
	C4.397,8.438,3.844,7.512,3.844,6.46c0-0.554,0.155-1.075,0.424-1.522c1.544,1.832,3.85,3.037,6.451,3.164
	c-0.053-0.223-0.082-0.453-0.082-0.69c0-1.674,1.401-3.029,3.131-3.029c0.899,0,1.713,0.369,2.284,0.957
	c0.712-0.136,1.382-0.388,1.986-0.735c-0.232,0.708-0.729,1.301-1.376,1.676c0.634-0.073,1.236-0.236,1.797-0.477
	C18.041,6.412,17.512,6.944,16.899,7.372"/>
</svg>
