<?xml version="1.0" encoding="utf-8"?>
<!-- Generator: Adobe Illustrator 15.0.0, SVG Export Plug-In . SVG Version: 6.00 Build 0)  -->
<!DOCTYPE svg PUBLIC "-//W3C//DTD SVG 1.1//EN" "http://www.w3.org/Graphics/SVG/1.1/DTD/svg11.dtd">
<svg version="1.1" id="Layer_1" xmlns="http://www.w3.org/2000/svg" xmlns:xlink="http://www.w3.org/1999/xlink" x="0px" y="0px"
	 width="20px" height="25px" viewBox="0 0 20 25" enable-background="new 0 0 20 25" xml:space="preserve">
<path fill="#39b0d2 " d="M9.987,5.316c-5.494,0-9.948,0.95-9.948,1.476L0,7.771v14.146c0,1.031,0.836,1.868,1.868,1.868h0.495v0.578
	h3.944v-0.578h7.298v0.578h3.945v-0.578h0.503c1.031,0,1.869-0.837,1.869-1.868V7.771l0.013-0.979
	C19.936,6.266,15.481,5.316,9.987,5.316 M18.183,22.181H1.792V11.53c0,0,2.009,2.331,4.186,0c0,0,1.965,2.331,4.01,0l0.182,0.196
	c1.978,1.999,3.828-0.196,3.828-0.196c1.877,2.011,3.63,0.553,4.076,0.114l0.109-0.114V22.181z M9.987,8.267
	c-4.526,0-8.196-0.351-8.196-0.784s3.669-0.784,8.196-0.784s8.195,0.351,8.195,0.784S14.514,8.267,9.987,8.267"/>
<path fill="#39b0d2 " d="M3.815,4.615c-0.104,0-0.208-0.028-0.3-0.086c-0.088-0.057-0.864-0.587-0.77-1.965
	c0.033-0.481-0.477-0.657-0.482-0.658C1.977,1.81,1.823,1.499,1.919,1.213c0.096-0.287,0.406-0.441,0.692-0.346
	C3.067,1.021,3.91,1.586,3.837,2.639c-0.049,0.72,0.266,0.965,0.279,0.976C4.372,3.776,4.44,4.108,4.279,4.363
	C4.175,4.527,3.997,4.615,3.815,4.615"/>
<path fill="#39b0d2 " d="M9.783,4.104c-0.186,0-0.366-0.095-0.469-0.266c-0.054-0.089-0.508-0.912,0.194-2.1
	c0.245-0.415-0.132-0.801-0.135-0.805C9.159,0.719,9.16,0.372,9.375,0.159c0.214-0.213,0.561-0.212,0.774,0.002
	c0.339,0.34,0.839,1.225,0.302,2.133c-0.362,0.612-0.201,0.977-0.199,0.98c0.155,0.259,0.072,0.595-0.187,0.751
	C9.977,4.078,9.879,4.104,9.783,4.104"/>
<path fill="#39b0d2 " d="M16.123,4.613c-0.183,0-0.359-0.09-0.465-0.255c-0.157-0.25-0.088-0.58,0.156-0.745
	c0.031-0.024,0.324-0.276,0.277-0.974c-0.072-1.052,0.771-1.618,1.226-1.771c0.286-0.096,0.598,0.059,0.693,0.346
	c0.096,0.286-0.059,0.596-0.346,0.692c-0.081,0.029-0.512,0.208-0.481,0.659c0.094,1.377-0.681,1.908-0.769,1.964
	C16.322,4.585,16.223,4.613,16.123,4.613"/>
</svg>
