<?xml version="1.0" encoding="utf-8"?>
<!-- Generator: Adobe Illustrator 15.0.0, SVG Export Plug-In . SVG Version: 6.00 Build 0)  -->
<!DOCTYPE svg PUBLIC "-//W3C//DTD SVG 1.1//EN" "http://www.w3.org/Graphics/SVG/1.1/DTD/svg11.dtd">
<svg version="1.1" id="Layer_1" xmlns="http://www.w3.org/2000/svg" xmlns:xlink="http://www.w3.org/1999/xlink" x="0px" y="0px"
	 width="21px" height="21px" viewBox="0 0 21 21" enable-background="new 0 0 21 21" xml:space="preserve">
<path fill="none" d="M3800,0"/>
<path fill="none" d="M7.31,1.955"/>
<path fill="none" d="M3800,0"/>
<path fill="none" d="M7.31,1.955"/>
<path fill="none" d="M3800,0"/>
<path fill="none" d="M7.31,1.955"/>
<path fill="none" d="M3800,0"/>
<path fill="none" d="M7.31,1.955"/>
<path fill="none" d="M3800,0"/>
<path fill="none" d="M7.31,1.955"/>
<path fill="none" d="M3800,0"/>
<path fill="none" d="M7.31,1.955"/>
<path fill="none" d="M3800,0"/>
<path fill="none" d="M7.31,1.955"/>
<path fill="none" d="M3800,0"/>
<path fill="none" d="M7.31,1.955"/>
<path fill="#39b0d2 " d="M10.254,0c-3.15,0-4.748,1.775-4.748,5.276c0,3.566,2.507,6.229,4.748,6.229
	c2.239,0,4.745-2.663,4.745-6.229C14.999,1.775,13.404,0,10.254,0"/>
<line fill="none" x1="-1258" y1="-7" x2="2542" y2="-7"/>
<line fill="none" x1="-1258" y1="-7" x2="2542" y2="-7"/>
<line fill="none" x1="-1258" y1="-7" x2="2542" y2="-7"/>
<line fill="none" x1="-1258" y1="-7" x2="2542" y2="-7"/>
<line fill="none" x1="-1258" y1="-7" x2="2542" y2="-7"/>
<line fill="none" x1="-1258" y1="-7" x2="2542" y2="-7"/>
<line fill="none" x1="-1258" y1="-7" x2="2542" y2="-7"/>
<path fill="#02a393" d="M20.458,18.275l-0.875-4.539c-0.127-0.443-0.548-0.971-1.076-1.267l-4.005-2.467
	c-1.08,1.517-2.625,2.519-4.249,2.519s-3.167-1.002-4.248-2.519L2,12.47c-0.6,0.37-0.966,0.854-1.094,1.298l-0.858,4.508
	c-0.295,1.067,0.816,2.068,2.299,2.068H18.16C19.644,20.344,20.753,19.343,20.458,18.275"/>
<line fill="none" x1="-1258" y1="-7" x2="2542" y2="-7"/>
</svg>
