<?xml version="1.0" encoding="utf-8"?>
<!-- Generator: Adobe Illustrator 15.0.0, SVG Export Plug-In . SVG Version: 6.00 Build 0)  -->
<!DOCTYPE svg PUBLIC "-//W3C//DTD SVG 1.1//EN" "http://www.w3.org/Graphics/SVG/1.1/DTD/svg11.dtd">
<svg version="1.1" id="Layer_1" xmlns="http://www.w3.org/2000/svg" xmlns:xlink="http://www.w3.org/1999/xlink" x="0px" y="0px"
	 width="22px" height="20px" viewBox="0 0 22 20" enable-background="new 0 0 22 20" xml:space="preserve">
<path fill="#FFFFFF" d="M17.635,18.717H3.413V1.116h14.222V18.717z M17.794,0.03H3.254c-0.512,0-0.928,0.385-0.928,0.858v18.059
	c0,0.473,0.416,0.856,0.928,0.856h14.54c0.512,0,0.928-0.384,0.928-0.856V0.888C18.722,0.415,18.306,0.03,17.794,0.03"/>
<rect x="4.801" y="11.151" fill-rule="evenodd" clip-rule="evenodd" fill="#FFFFFF" width="11.447" height="0.906"/>
<rect x="4.801" y="13.384" fill-rule="evenodd" clip-rule="evenodd" fill="#FFFFFF" width="11.447" height="0.908"/>
<rect x="4.801" y="15.618" fill-rule="evenodd" clip-rule="evenodd" fill="#FFFFFF" width="8.444" height="0.907"/>
<path fill-rule="evenodd" clip-rule="evenodd" fill="#FFFFFF" d="M13.798,5.24c-1.05-0.936-2.101-1.873-3.153-2.809
	c-0.088-0.079-0.148-0.079-0.237,0c-1.053,0.938-2.106,1.876-3.16,2.813C7.199,5.29,7.166,5.336,7.197,5.399
	c0.031,0.063,0.093,0.074,0.164,0.073c0.211-0.001,0.423,0,0.634,0h0.082v3.141h1.77V8.537c0-0.568,0-1.135,0-1.702
	c0-0.113,0.046-0.154,0.172-0.154c0.333-0.001,0.665-0.001,0.998,0c0.14,0,0.185,0.039,0.185,0.162
	c0.001,0.564,0.001,1.127,0.001,1.691v0.081h1.771V5.465h0.08c0.212,0,0.423,0,0.636,0.001c0.068,0,0.13-0.008,0.163-0.072
	C13.883,5.33,13.848,5.283,13.798,5.24"/>
</svg>
