<?xml version="1.0" encoding="utf-8"?>
<!-- Generator: Adobe Illustrator 15.0.0, SVG Export Plug-In . SVG Version: 6.00 Build 0)  -->
<!DOCTYPE svg PUBLIC "-//W3C//DTD SVG 1.1//EN" "http://www.w3.org/Graphics/SVG/1.1/DTD/svg11.dtd">
<svg version="1.1" id="Layer_1" xmlns="http://www.w3.org/2000/svg" xmlns:xlink="http://www.w3.org/1999/xlink" x="0px" y="0px"
	 width="16.75px" height="20px" viewBox="0 0 16.75 20" enable-background="new 0 0 16.75 20" xml:space="preserve">
<path fill="#026699" d="M15.738-0.052H0.899C0.405-0.052,0,0.353,0,0.847V19.1C0,19.596,0.405,20,0.899,20h14.839
	c0.492,0,0.896-0.404,0.896-0.9V0.847C16.637,0.353,16.232-0.052,15.738-0.052 M5.472,17.609c0,0.164-0.135,0.3-0.3,0.3H2.116
	c-0.164,0-0.299-0.136-0.299-0.3v-1.438c0-0.165,0.135-0.299,0.299-0.299h3.057c0.165,0,0.3,0.134,0.3,0.299L5.472,17.609
	L5.472,17.609z M5.472,14.521c0,0.166-0.135,0.302-0.3,0.302H2.116c-0.164,0-0.299-0.136-0.299-0.302v-1.438
	c0-0.165,0.135-0.301,0.299-0.301h3.057c0.165,0,0.3,0.136,0.3,0.301L5.472,14.521L5.472,14.521z M5.472,11.438
	c0,0.164-0.135,0.299-0.3,0.299H2.116c-0.164,0-0.299-0.135-0.299-0.299V9.998c0-0.165,0.135-0.299,0.299-0.299h3.057
	c0.165,0,0.3,0.134,0.3,0.299L5.472,11.438L5.472,11.438z M10.146,17.609c0,0.164-0.135,0.3-0.299,0.3H6.79
	c-0.165,0-0.3-0.136-0.3-0.3v-1.438c0-0.165,0.135-0.299,0.3-0.299h3.057c0.164,0,0.299,0.134,0.299,0.299V17.609z M10.146,14.521
	c0,0.166-0.135,0.302-0.299,0.302H6.79c-0.165,0-0.3-0.136-0.3-0.302v-1.438c0-0.165,0.135-0.301,0.3-0.301h3.057
	c0.164,0,0.299,0.136,0.299,0.301V14.521z M10.146,11.438c0,0.164-0.135,0.299-0.299,0.299H6.79c-0.165,0-0.3-0.135-0.3-0.299V9.998
	c0-0.165,0.135-0.299,0.3-0.299h3.057c0.164,0,0.299,0.134,0.299,0.299V11.438z M14.822,17.609c0,0.164-0.135,0.3-0.301,0.3h-3.056
	c-0.165,0-0.3-0.136-0.3-0.3v-1.438c0-0.165,0.135-0.299,0.3-0.299h3.056c0.166,0,0.301,0.134,0.301,0.299V17.609z M14.822,14.521
	c0,0.166-0.135,0.302-0.301,0.302h-3.056c-0.165,0-0.3-0.136-0.3-0.302v-1.438c0-0.165,0.135-0.301,0.3-0.301h3.056
	c0.166,0,0.301,0.136,0.301,0.301V14.521z M14.822,11.438c0,0.164-0.135,0.299-0.301,0.299h-3.056c-0.165,0-0.3-0.135-0.3-0.299
	V9.998c0-0.165,0.135-0.299,0.3-0.299h3.056c0.166,0,0.301,0.134,0.301,0.299V11.438z M14.822,7.421c0,0.165-0.135,0.3-0.301,0.3
	H2.116c-0.164,0-0.299-0.135-0.299-0.3V2.146c0-0.165,0.135-0.3,0.299-0.3h12.405c0.166,0,0.301,0.135,0.301,0.3V7.421z"/>
<path fill="#39b0d2 " d="M4.771,6.271v0.375c0,0.039-0.03,0.069-0.068,0.069h-0.29c-0.036,0-0.069-0.03-0.069-0.069V6.271
	C3.844,6.2,3.568,5.9,3.558,5.887C3.536,5.861,3.535,5.825,3.554,5.799l0.22-0.289c0.011-0.015,0.03-0.023,0.05-0.025
	C3.843,5.483,3.862,5.49,3.875,5.504c0.004,0.002,0.304,0.29,0.684,0.29c0.21,0,0.437-0.112,0.437-0.354
	c0-0.206-0.253-0.307-0.542-0.422C4.068,4.865,3.588,4.672,3.588,4.133c0-0.394,0.308-0.72,0.756-0.805V2.941
	c0-0.038,0.033-0.068,0.069-0.068h0.29c0.038,0,0.068,0.03,0.068,0.068v0.378c0.435,0.049,0.667,0.285,0.676,0.294
	c0.022,0.023,0.025,0.055,0.01,0.081L5.284,4.007c-0.01,0.02-0.027,0.032-0.049,0.035C5.213,4.046,5.193,4.039,5.177,4.026
	C5.174,4.024,4.915,3.795,4.594,3.795c-0.272,0-0.461,0.135-0.461,0.33c0,0.227,0.262,0.328,0.566,0.446
	C5.094,4.723,5.54,4.897,5.54,5.414C5.539,5.851,5.226,6.196,4.771,6.271"/>
<path fill="#39b0d2 " d="M8.55,6.271v0.375c0,0.039-0.03,0.069-0.068,0.069h-0.29c-0.036,0-0.069-0.03-0.069-0.069V6.271
	C7.622,6.2,7.347,5.9,7.337,5.887C7.315,5.861,7.313,5.825,7.332,5.799L7.553,5.51c0.011-0.015,0.03-0.023,0.05-0.025
	C7.622,5.483,7.641,5.49,7.654,5.504c0.004,0.002,0.304,0.29,0.684,0.29c0.21,0,0.437-0.112,0.437-0.354
	c0-0.206-0.253-0.307-0.542-0.422C7.847,4.865,7.368,4.672,7.368,4.133c0-0.394,0.308-0.72,0.756-0.805V2.941
	c0-0.038,0.033-0.068,0.069-0.068h0.29c0.038,0,0.068,0.03,0.068,0.068v0.378c0.437,0.049,0.667,0.285,0.676,0.294
	c0.021,0.023,0.024,0.055,0.011,0.081L9.063,4.007c-0.01,0.02-0.026,0.032-0.049,0.035C8.994,4.046,8.973,4.039,8.957,4.026
	C8.955,4.024,8.695,3.795,8.373,3.795c-0.271,0-0.46,0.135-0.46,0.33c0,0.227,0.262,0.328,0.566,0.446
	c0.395,0.152,0.84,0.326,0.84,0.843C9.318,5.851,9.005,6.196,8.55,6.271"/>
<path fill="#39b0d2 " d="M12.33,6.271v0.375c0,0.039-0.031,0.069-0.068,0.069h-0.289c-0.037,0-0.07-0.03-0.07-0.069V6.271
	c-0.5-0.071-0.776-0.371-0.786-0.384c-0.021-0.026-0.023-0.062-0.006-0.088l0.223-0.289c0.011-0.015,0.029-0.023,0.05-0.025
	s0.038,0.005,0.051,0.019c0.004,0.002,0.306,0.29,0.685,0.29c0.211,0,0.438-0.112,0.438-0.354c0-0.206-0.254-0.307-0.541-0.422
	c-0.387-0.152-0.868-0.345-0.868-0.884c0-0.394,0.309-0.72,0.756-0.805V2.941c0-0.038,0.033-0.068,0.07-0.068h0.289
	c0.037,0,0.068,0.03,0.068,0.068v0.378c0.436,0.049,0.666,0.285,0.674,0.294c0.023,0.023,0.027,0.055,0.012,0.081l-0.174,0.313
	c-0.01,0.02-0.027,0.032-0.049,0.035c-0.021,0.004-0.041-0.003-0.059-0.016c-0.004-0.002-0.262-0.231-0.582-0.231
	c-0.273,0-0.461,0.135-0.461,0.33c0,0.227,0.262,0.328,0.564,0.446c0.396,0.152,0.84,0.326,0.84,0.843
	C13.098,5.851,12.785,6.196,12.33,6.271"/>
<line fill="#026699" x1="39" y1="13.834" x2="33.084" y2="21.834"/>
<g>
	<line fill="none" stroke="#02a393" stroke-width="0.3" x1="0" y1="-54.052" x2="0" y2="-18.052"/>
	<line fill="none" stroke="#02a393" stroke-width="0.3" x1="-54" y1="-0.052" x2="-18" y2="-0.052"/>
	<line fill="none" stroke="#02a393" stroke-width="0.3" x1="-54" y1="20" x2="-18" y2="20"/>
	<line fill="none" stroke="#02a393" stroke-width="0.3" x1="0" y1="74" x2="0" y2="38"/>
	<line fill="none" stroke="#02a393" stroke-width="0.3" x1="16.636" y1="-54.052" x2="16.636" y2="-18.052"/>
	<line fill="none" stroke="#02a393" stroke-width="0.3" x1="70.636" y1="-0.052" x2="34.636" y2="-0.052"/>
	<line fill="none" stroke="#02a393" stroke-width="0.3" x1="70.636" y1="20" x2="34.636" y2="20"/>
	<line fill="none" stroke="#02a393" stroke-width="0.3" x1="16.636" y1="74" x2="16.636" y2="38"/>
</g>
</svg>
