<?xml version="1.0" encoding="utf-8"?>
<!-- Generator: Adobe Illustrator 15.0.0, SVG Export Plug-In . SVG Version: 6.00 Build 0)  -->
<!DOCTYPE svg PUBLIC "-//W3C//DTD SVG 1.1//EN" "http://www.w3.org/Graphics/SVG/1.1/DTD/svg11.dtd">
<svg version="1.1" id="Layer_1" xmlns="http://www.w3.org/2000/svg" xmlns:xlink="http://www.w3.org/1999/xlink" x="0px" y="0px"
	 width="22px" height="22px" viewBox="0 0 22 22" enable-background="new 0 0 22 22" xml:space="preserve">
<rect x="17.245" y="6.93" fill="#FFFFFF" width="4.755" height="14.195"/>
<rect x="5.653" y="10.569" fill="#FFFFFF" width="4.756" height="10.556"/>
<rect x="11.401" y="13.48" fill="#FFFFFF" width="4.751" height="7.645"/>
<rect x="0.074" y="17.243" fill="#FFFFFF" width="4.756" height="3.882"/>
<path fill="#FFFFFF" d="M2.279,11.661c-0.111,0-0.222-0.037-0.313-0.112c-0.208-0.173-0.235-0.479-0.062-0.684l5.902-6.989
	l5.406,3.164l6.347-6.868c0.183-0.199,0.49-0.211,0.691-0.031c0.201,0.18,0.214,0.489,0.029,0.686l-6.883,7.449L8.024,5.131
	l-5.369,6.357C2.559,11.604,2.42,11.661,2.279,11.661"/>
</svg>
