<?xml version="1.0" encoding="utf-8"?>
<!-- Generator: Adobe Illustrator 15.0.0, SVG Export Plug-In . SVG Version: 6.00 Build 0)  -->
<!DOCTYPE svg PUBLIC "-//W3C//DTD SVG 1.1//EN" "http://www.w3.org/Graphics/SVG/1.1/DTD/svg11.dtd">
<svg version="1.1" id="Layer_1" xmlns="http://www.w3.org/2000/svg" xmlns:xlink="http://www.w3.org/1999/xlink" x="0px" y="0px"
	 width="22px" height="20px" viewBox="0 0 22 20" enable-background="new 0 0 22 20" xml:space="preserve">
<path fill="#FFFFFF" d="M10.015,4.984c2.861-0.008,5.167,2.292,5.172,5.16c0.006,2.863-2.291,5.166-5.161,5.173
	c-2.861,0.006-5.165-2.291-5.172-5.161C4.847,7.296,7.145,4.992,10.015,4.984"/>
<path fill="#FFFFFF" d="M10.113,0c0.38,1.138,0.745,2.235,1.115,3.347H8.813C9.244,2.237,9.67,1.14,10.113,0"/>
<path fill="#FFFFFF" d="M10.113,20.003c-0.442-1.138-0.866-2.229-1.298-3.341h2.411C10.859,17.764,10.493,18.861,10.113,20.003"/>
<path fill="#FFFFFF" d="M13.898,15.563c0.565-0.565,1.123-1.123,1.693-1.69c0.508,1.014,1.021,2.04,1.562,3.12
	C16.029,16.499,14.96,16.029,13.898,15.563"/>
<path fill="#FFFFFF" d="M3.009,2.851c1.08,0.54,2.103,1.051,3.111,1.554c-0.563,0.56-1.123,1.114-1.688,1.676
	C3.977,5.049,3.505,3.979,3.009,2.851"/>
<path fill="#FFFFFF" d="M3.35,8.941v2.418C2.238,10.927,1.142,10.502,0,10.058C1.139,9.678,2.234,9.313,3.35,8.941"/>
<path fill="#FFFFFF" d="M16.652,11.359V8.942c1.109,0.369,2.208,0.735,3.35,1.115C18.865,10.499,17.774,10.924,16.652,11.359"/>
<path fill="#FFFFFF" d="M15.676,6.233c-0.572-0.574-1.123-1.128-1.692-1.698c1.019-0.511,2.044-1.025,3.126-1.567
	C16.617,4.089,16.148,5.157,15.676,6.233"/>
<path fill="#FFFFFF" d="M3.003,17.044c0.51-1.021,1.02-2.042,1.526-3.054c0.564,0.565,1.12,1.125,1.687,1.693
	c-1.051,0.462-2.114,0.93-3.177,1.397C3.027,17.068,3.016,17.056,3.003,17.044"/>
</svg>
