<?xml version="1.0" encoding="utf-8"?>
<!-- Generator: Adobe Illustrator 15.0.0, SVG Export Plug-In . SVG Version: 6.00 Build 0)  -->
<!DOCTYPE svg PUBLIC "-//W3C//DTD SVG 1.1//EN" "http://www.w3.org/Graphics/SVG/1.1/DTD/svg11.dtd">
<svg version="1.1" id="Layer_1" xmlns="http://www.w3.org/2000/svg" xmlns:xlink="http://www.w3.org/1999/xlink" x="0px" y="0px"
	 width="21px" height="21px" viewBox="0 0 21 21" enable-background="new 0 0 21 21" xml:space="preserve">
<path fill="#02a393" d="M10.804,3.07v2.984c0.948,0.063,1.817,0.421,2.511,0.986l2.113-2.112C14.185,3.83,12.573,3.14,10.804,3.07"
	/>
<path fill="#02a393" d="M5.577,4.933l2.112,2.112c0.697-0.568,1.568-0.929,2.519-0.991V3.07C8.436,3.14,6.822,3.832,5.577,4.933"/>
<path fill="#02a393" d="M13.753,7.445c0.743,0.786,1.205,1.841,1.221,3.003h2.98c-0.017-1.982-0.813-3.782-2.096-5.108L13.753,7.445
	z"/>
<path fill="#02a393" d="M5.147,5.346c-1.278,1.326-2.073,3.123-2.089,5.102h2.979C6.054,9.29,6.514,8.237,7.253,7.452L5.147,5.346z"
	/>
<polygon fill="#39b0d2 " points="15.514,5.313 10.016,10.109 10.601,10.693 "/>
<path fill="#39b0d2 " d="M10.482,20.487L10.482,20.487c-5.827,0-10.566-4.595-10.566-10.244C-0.084,4.596,4.655,0,10.482,0
	s10.567,4.595,10.567,10.243C21.049,15.893,16.309,20.487,10.482,20.487 M10.482,1.204c-5.162,0-9.362,4.056-9.362,9.04
	c0,4.985,4.2,9.04,9.362,9.04c5.163,0,9.362-4.055,9.362-9.04C19.844,5.26,15.645,1.204,10.482,1.204"/>
<path fill="#39b0d2 " d="M11.342,10.209c0,0.458-0.37,0.827-0.827,0.827s-0.828-0.37-0.828-0.827c0-0.456,0.371-0.827,0.828-0.827
	S11.342,9.753,11.342,10.209"/>
<path fill="#39b0d2 " d="M17.294,12.779v1.916c0,0.097-0.08,0.175-0.174,0.175h-1.522v-2.266h1.522
	C17.214,12.604,17.294,12.683,17.294,12.779"/>
<rect x="13.248" y="12.604" fill="#39b0d2 " width="1.719" height="2.265"/>
<rect x="10.908" y="12.604" fill="#39b0d2 " width="1.722" height="2.265"/>
<rect x="8.57" y="12.604" fill="#39b0d2 " width="1.722" height="2.265"/>
<rect x="6.234" y="12.604" fill="#39b0d2 " width="1.719" height="2.265"/>
<path fill="#39b0d2 " d="M5.636,12.604v2.266H4.048c-0.097,0-0.174-0.078-0.174-0.175v-1.916c0-0.099,0.077-0.175,0.174-0.175H5.636z
	"/>
</svg>
