<?xml version="1.0" encoding="utf-8"?>
<!-- Generator: Adobe Illustrator 15.0.0, SVG Export Plug-In . SVG Version: 6.00 Build 0)  -->
<!DOCTYPE svg PUBLIC "-//W3C//DTD SVG 1.1//EN" "http://www.w3.org/Graphics/SVG/1.1/DTD/svg11.dtd">
<svg version="1.1" id="Layer_1" xmlns="http://www.w3.org/2000/svg" xmlns:xlink="http://www.w3.org/1999/xlink" x="0px" y="0px"
	 width="20px" height="27px" viewBox="0 0 20 27" enable-background="new 0 0 20 27" xml:space="preserve">
<path fill="#39b0d2 " d="M17.188,0.611H2.814c-1.451,0-2.627,1.176-2.627,2.627v19.953c0,1.352,1.018,2.459,2.329,2.607v0.59h3.886
	v-0.57h7.188v0.57h3.887v-0.588c1.314-0.145,2.336-1.256,2.336-2.609V3.238C19.813,1.787,18.639,0.611,17.188,0.611 M5.925,3.692
	c0.48,0,0.87,0.389,0.87,0.868c0,0.48-0.389,0.869-0.87,0.869c-0.48,0-0.869-0.389-0.869-0.869C5.056,4.081,5.445,3.692,5.925,3.692
	 M2.298,4.561c0-0.479,0.389-0.868,0.87-0.868c0.48,0,0.869,0.389,0.869,0.868c0,0.48-0.389,0.869-0.869,0.869
	C2.688,5.43,2.298,5.041,2.298,4.561 M10,21.738c-3.692,0-6.687-2.994-6.687-6.688c0-3.692,2.994-6.687,6.687-6.687
	c3.693,0,6.686,2.994,6.686,6.687C16.686,18.744,13.693,21.738,10,21.738 M17.277,5.43c-0.479,0-0.867-0.389-0.867-0.869
	c0-0.479,0.389-0.868,0.867-0.868c0.48,0,0.869,0.389,0.869,0.868C18.146,5.041,17.758,5.43,17.277,5.43"/>
<path fill="#02a393" d="M9.813,18.666c-2.33,0-4.225-1.896-4.225-4.224c0-2.332,1.895-4.228,4.225-4.228
	c0.299,0,0.54,0.242,0.54,0.54c0,0.297-0.241,0.539-0.54,0.539c-1.735,0-3.147,1.412-3.147,3.149c0,1.733,1.412,3.146,3.147,3.146
	c1.736,0,3.147-1.413,3.147-3.146c0-0.301,0.242-0.541,0.54-0.541s0.539,0.24,0.539,0.541C14.039,16.771,12.144,18.666,9.813,18.666
	"/>
<polygon fill="#02a393" points="9.291,9.336 10.78,10.825 9.291,12.313 "/>
</svg>
