<?xml version="1.0" encoding="utf-8"?>
<!-- Generator: Adobe Illustrator 15.0.0, SVG Export Plug-In . SVG Version: 6.00 Build 0)  -->
<!DOCTYPE svg PUBLIC "-//W3C//DTD SVG 1.1//EN" "http://www.w3.org/Graphics/SVG/1.1/DTD/svg11.dtd">
<svg version="1.1" id="Layer_1" xmlns="http://www.w3.org/2000/svg" xmlns:xlink="http://www.w3.org/1999/xlink" x="0px" y="0px"
	 width="22px" height="21px" viewBox="0 0 22 21" enable-background="new 0 0 22 21" xml:space="preserve">
<path fill="#FFFFFF" d="M0.049,13.695c0-1.912,1.55-3.461,3.461-3.461c1.911,0,3.461,1.549,3.461,3.461H0.049z"/>
<path fill="#FFFFFF" d="M5.042,16.098c-0.553,0-1.001-0.447-1.001-1v-2.543c0-0.552,0.448-1,1.001-1c0.552,0,1,0.448,1,1v2.543
	C6.042,15.648,5.594,16.098,5.042,16.098"/>
<path fill="#FFFFFF" d="M1.966,16.098c-0.552,0-1.001-0.447-1.001-1v-2.543c0-0.552,0.449-1,1.001-1c0.552,0,1,0.448,1,1v2.543
	C2.966,15.648,2.519,16.098,1.966,16.098"/>
<path fill="#FFFFFF" d="M3.509,12.965c-0.503,0-0.936-0.378-0.993-0.89c-0.019-0.163-0.422-4.034,1.559-6.247
	C4.968,4.832,6.17,4.326,7.647,4.326h1.128c0.553,0,1.001,0.448,1.001,1.001c0,0.552-0.448,1-1.001,1H7.647
	c-0.895,0-1.574,0.272-2.078,0.833c-1.149,1.28-1.158,3.825-1.064,4.697c0.059,0.549-0.337,1.041-0.886,1.103
	C3.583,12.963,3.545,12.965,3.509,12.965"/>
<rect x="8.775" y="19.986" fill="#FFFFFF" width="12.727" height="0.97"/>
<polygon fill="#FFFFFF" points="19.507,20.486 10.772,20.486 9.556,9.809 20.725,9.809 "/>
<path fill="#FFFFFF" d="M21.466,0H8.812C8.497,0,8.238,0.259,8.238,0.575v9.528c0,0.317,0.259,0.574,0.574,0.574h12.654
	c0.313,0,0.575-0.257,0.575-0.574V0.575C22.041,0.259,21.779,0,21.466,0 M20.291,8.75c0,0.317-0.259,0.574-0.574,0.574h-9.155
	c-0.316,0-0.574-0.257-0.574-0.574V1.927c0-0.315,0.258-0.574,0.574-0.574h9.155c0.315,0,0.574,0.259,0.574,0.574V8.75z"/>
<polygon fill="#FFFFFF" points="17.755,1.887 11.134,4.956 14.264,6.221 11.7,8.83 19.507,5.817 16.063,4.316 "/>
</svg>
