<?xml version="1.0" encoding="utf-8"?>
<!-- Generator: Adobe Illustrator 15.0.0, SVG Export Plug-In . SVG Version: 6.00 Build 0)  -->
<!DOCTYPE svg PUBLIC "-//W3C//DTD SVG 1.1//EN" "http://www.w3.org/Graphics/SVG/1.1/DTD/svg11.dtd">
<svg version="1.1" id="Layer_1" xmlns="http://www.w3.org/2000/svg" xmlns:xlink="http://www.w3.org/1999/xlink" x="0px" y="0px"
	 width="23px" height="21px" viewBox="0 0 23 21" enable-background="new 0 0 23 21" xml:space="preserve">
<path fill="#39b0d2 " d="M2960.398,42.26c-0.396-0.33-0.984-0.278-1.317,0.117c-0.474,0.564-1.462,0.985-2.401,1.053
	c0.612-1.103,1.074-2.492,0.846-3.6c-0.174-0.837-0.717-1.42-1.526-1.646c-1.242-0.35-2.347,0.195-2.892,1.416
	c-0.576,1.287-0.466,3.297,0.394,4.476c-0.409,0.166-0.87,0.241-1.335,0.247c-1.58-13.255-15.341-23.617-32.085-23.617
	c-4.388,0-8.57,0.713-12.382,2.002c-1.792-2.703-4.676-5.605-8.791-5.555c0,0,1.947,6.174,0.224,9.837
	c-6.039,4.196-10.144,10.168-11.081,16.921h-4.729l1.869,15.732h6.283c2.149-0.553,4.728-1.023,5.787-3.196
	c0.325-0.661,2.147-0.729,1.713,0.16c-1.193,2.448-3.85,3.295-6.337,3.95c1.64,2.162,3.629,4.127,5.949,5.813v5.787
	c0,3.325,2.252,6.021,5.031,6.021h3.019c2.779,0,5.033-2.696,5.033-6.021v-0.023c2.682,0.586,5.5,0.905,8.411,0.905
	c3.884,0,7.608-0.559,11.058-1.579v0.521c0,3.251,2.228,5.885,4.973,5.885h2.982c2.746,0,4.973-2.634,4.973-5.885v-7.628
	c5.132-4.633,8.256-10.76,8.256-17.48c0-0.229-0.015-0.453-0.021-0.683c1.091-0.033,2.159-0.358,3.006-1.009
	c1.868,0.443,4.157-0.349,5.207-1.603C2960.846,43.18,2960.794,42.592,2960.398,42.26 M2897.185,42.664
	c-1.378,0-2.493-1.115-2.493-2.49c0-1.377,1.115-2.494,2.493-2.494c1.376,0,2.491,1.117,2.491,2.494
	C2899.676,41.549,2898.561,42.664,2897.185,42.664 M2921.013,24.286c-3.095,0-5.605-0.349-5.605-0.778
	c0-0.432,2.511-0.78,5.605-0.78c3.101,0,5.609,0.349,5.609,0.78C2926.622,23.938,2924.113,24.286,2921.013,24.286 M2954.895,42.799
	c-0.303-0.584-0.408-1.705-0.082-2.436c0.146-0.329,0.301-0.418,0.465-0.418c0.07,0,0.144,0.016,0.219,0.037
	c0.117,0.033,0.164,0.061,0.199,0.227C2955.823,40.829,2955.389,41.973,2954.895,42.799"/>
<path fill="#02a393" d="M2919.791,11.484c0,0.246,0.067,0.451,0.204,0.617c0.137,0.164,0.369,0.295,0.695,0.394V10.51
	c-0.277,0.041-0.498,0.154-0.658,0.334S2919.791,11.238,2919.791,11.484"/>
<path fill="#02a393" d="M2920.883,8.273c-2.711,0-4.907,2.197-4.907,4.906c0,2.711,2.196,4.906,4.907,4.906
	c2.71,0,4.906-2.195,4.906-4.906C2925.789,10.47,2923.593,8.273,2920.883,8.273 M2922.341,15.532
	c-0.314,0.332-0.725,0.509-1.228,0.533v0.727h-0.423v-0.718c-0.358-0.045-0.649-0.125-0.873-0.24
	c-0.226-0.117-0.421-0.304-0.584-0.561c-0.163-0.26-0.258-0.573-0.285-0.945l0.722-0.135c0.058,0.385,0.156,0.667,0.297,0.848
	c0.203,0.256,0.442,0.398,0.724,0.428v-2.285c-0.294-0.057-0.596-0.17-0.905-0.342c-0.229-0.127-0.404-0.306-0.527-0.531
	s-0.185-0.481-0.185-0.771c0-0.509,0.179-0.922,0.541-1.239c0.242-0.212,0.603-0.343,1.076-0.39V9.568h0.423v0.343
	c0.419,0.039,0.748,0.161,0.994,0.366c0.313,0.262,0.501,0.62,0.564,1.074l-0.741,0.111c-0.043-0.283-0.13-0.499-0.265-0.648
	c-0.134-0.151-0.318-0.249-0.553-0.298v2.072c0.361,0.088,0.602,0.159,0.719,0.207c0.222,0.1,0.404,0.221,0.545,0.36
	c0.144,0.142,0.25,0.31,0.327,0.503c0.075,0.195,0.113,0.404,0.113,0.631C2922.817,14.785,2922.658,15.2,2922.341,15.532"/>
<path fill="#02a393" d="M2921.114,13.283v2.186c0.276-0.035,0.512-0.156,0.691-0.363c0.181-0.207,0.272-0.463,0.272-0.769
	c0-0.262-0.064-0.472-0.192-0.629C2921.757,13.551,2921.499,13.408,2921.114,13.283"/>
<path fill="#39b0d2 " d="M22.964,10.224c-0.119-0.099-0.294-0.083-0.393,0.035c-0.143,0.17-0.437,0.296-0.717,0.317
	c0.184-0.332,0.321-0.75,0.253-1.083c-0.053-0.251-0.214-0.427-0.455-0.496c-0.37-0.105-0.699,0.059-0.861,0.427
	c-0.172,0.387-0.139,0.991,0.117,1.345c-0.122,0.05-0.259,0.073-0.398,0.074C20.04,6.857,15.94,3.74,10.951,3.74
	c-1.307,0-2.553,0.214-3.688,0.603C6.729,3.529,5.869,2.656,4.644,2.671c0,0,0.58,1.857,0.066,2.959
	C2.911,6.893,1.688,8.689,1.409,10.72H0l0.557,4.733h1.872c0.64-0.167,1.409-0.308,1.724-0.961c0.097-0.199,0.64-0.22,0.51,0.047
	c-0.355,0.737-1.147,0.992-1.888,1.189c0.488,0.649,1.081,1.241,1.772,1.748v1.741c0,1.001,0.67,1.812,1.499,1.812h0.899
	c0.828,0,1.5-0.811,1.5-1.812V19.21c0.799,0.177,1.639,0.272,2.506,0.272c1.157,0,2.268-0.168,3.295-0.475v0.156
	c0,0.978,0.663,1.771,1.48,1.771h0.89c0.818,0,1.481-0.793,1.481-1.771v-2.295c1.528-1.393,2.459-3.236,2.459-5.258
	c0-0.069-0.004-0.136-0.006-0.205c0.325-0.011,0.643-0.108,0.896-0.305c0.557,0.135,1.238-0.104,1.551-0.48
	C23.097,10.501,23.081,10.324,22.964,10.224 M4.13,10.345c-0.411,0-0.743-0.335-0.743-0.749s0.332-0.75,0.743-0.75
	c0.41,0,0.742,0.336,0.742,0.75S4.54,10.345,4.13,10.345 M11.229,4.817c-0.922,0-1.67-0.105-1.67-0.234s0.748-0.234,1.67-0.234
	c0.923,0,1.671,0.105,1.671,0.234S12.152,4.817,11.229,4.817 M21.323,10.386c-0.09-0.176-0.121-0.513-0.024-0.732
	c0.044-0.099,0.09-0.126,0.139-0.126c0.021,0,0.042,0.004,0.064,0.011c0.035,0.01,0.049,0.019,0.06,0.069
	C21.601,9.793,21.471,10.138,21.323,10.386"/>
<path fill="#02a393" d="M10.865,0.915c0,0.07,0.02,0.128,0.061,0.175c0.041,0.047,0.11,0.084,0.207,0.112V0.637
	c-0.083,0.012-0.148,0.044-0.196,0.095C10.889,0.783,10.865,0.844,10.865,0.915"/>
<path fill="#02a393" d="M11.19,0c-0.808,0-1.462,0.661-1.462,1.476s0.655,1.476,1.462,1.476c0.807,0,1.462-0.66,1.462-1.476
	S11.997,0,11.19,0 M11.625,2.184c-0.094,0.1-0.217,0.153-0.367,0.161v0.218h-0.126V2.347c-0.107-0.013-0.193-0.038-0.26-0.072
	c-0.067-0.036-0.125-0.091-0.173-0.168c-0.049-0.078-0.077-0.172-0.085-0.284l0.214-0.041c0.018,0.116,0.046,0.201,0.088,0.255
	c0.061,0.078,0.132,0.12,0.216,0.129V1.478c-0.087-0.018-0.177-0.052-0.27-0.103c-0.068-0.039-0.121-0.092-0.157-0.16
	c-0.037-0.067-0.055-0.145-0.055-0.231c0-0.153,0.054-0.278,0.162-0.373c0.072-0.063,0.179-0.103,0.32-0.117V0.39h0.126v0.103
	c0.125,0.012,0.223,0.048,0.297,0.11c0.092,0.079,0.149,0.186,0.167,0.323l-0.221,0.034c-0.013-0.085-0.039-0.15-0.079-0.195
	c-0.04-0.046-0.094-0.075-0.165-0.09v0.623c0.108,0.026,0.18,0.048,0.214,0.063c0.066,0.029,0.121,0.066,0.162,0.108
	c0.043,0.042,0.075,0.093,0.098,0.151c0.022,0.059,0.033,0.122,0.033,0.19C11.766,1.959,11.719,2.083,11.625,2.184"/>
<path fill="#02a393" d="M11.259,1.426v0.623c0.083-0.01,0.152-0.045,0.206-0.104c0.054-0.059,0.081-0.132,0.081-0.219
	c0-0.075-0.019-0.134-0.058-0.179C11.451,1.502,11.374,1.462,11.259,1.426"/>
</svg>
