<?xml version="1.0" encoding="utf-8"?>
<!-- Generator: Adobe Illustrator 15.0.0, SVG Export Plug-In . SVG Version: 6.00 Build 0)  -->
<!DOCTYPE svg PUBLIC "-//W3C//DTD SVG 1.1//EN" "http://www.w3.org/Graphics/SVG/1.1/DTD/svg11.dtd">
<svg version="1.1" id="Layer_1" xmlns="http://www.w3.org/2000/svg" xmlns:xlink="http://www.w3.org/1999/xlink" x="0px" y="0px"
	 width="19px" height="21px" viewBox="0 0 19 21" enable-background="new 0 0 19 21" xml:space="preserve">
<polygon fill="#39b0d2 " points="7.878,0 6.881,5.675 17.751,10.475 18.748,4.712 "/>
<polygon fill="#39b0d2 " points="5.816,16.531 10.13,18.443 10.747,16.078 6.434,14.135 "/>
<path fill="#39b0d2 " d="M1.444,9.976L0,15.687l11.283,4.987l1.308-5.641L1.444,9.976z M11.19,16.013l-0.723,2.771
	c-0.015,0.058-0.055,0.106-0.11,0.133c-0.028,0.014-0.059,0.021-0.089,0.021c-0.028,0-0.058-0.006-0.083-0.017l-4.696-2.082
	c-0.092-0.041-0.142-0.143-0.116-0.24l0.722-2.803c0.016-0.06,0.056-0.109,0.11-0.136c0.056-0.025,0.119-0.027,0.175-0.002
	l4.696,2.115C11.167,15.814,11.216,15.916,11.19,16.013"/>
<path fill="#39b0d2 " d="M6.536,6.088L1.789,9.494l11.008,4.954l4.644-3.44L6.536,6.088z M13.054,12.866
	c-0.036,0.075-0.11,0.12-0.188,0.12c-0.03,0-0.06-0.007-0.088-0.02L4.402,9.079c-0.103-0.048-0.148-0.17-0.1-0.273
	c0.048-0.104,0.17-0.148,0.274-0.101l8.376,3.887C13.056,12.641,13.101,12.763,13.054,12.866 M14.028,12.036
	c-0.034,0.075-0.109,0.12-0.188,0.12c-0.028,0-0.058-0.007-0.086-0.02L5.378,8.249c-0.103-0.048-0.148-0.17-0.1-0.274
	c0.048-0.104,0.171-0.147,0.274-0.1l8.377,3.887C14.032,11.81,14.077,11.933,14.028,12.036 M14.808,11.359
	c-0.03,0-0.06-0.006-0.088-0.02L6.344,7.453C6.24,7.405,6.195,7.282,6.243,7.179c0.048-0.104,0.171-0.148,0.274-0.1l8.376,3.887
	c0.104,0.048,0.148,0.171,0.102,0.274C14.959,11.315,14.885,11.359,14.808,11.359"/>
</svg>
