<?xml version="1.0" encoding="utf-8"?>
<!-- Generator: Adobe Illustrator 15.0.0, SVG Export Plug-In . SVG Version: 6.00 Build 0)  -->
<!DOCTYPE svg PUBLIC "-//W3C//DTD SVG 1.1//EN" "http://www.w3.org/Graphics/SVG/1.1/DTD/svg11.dtd">
<svg version="1.1" id="Layer_1" xmlns="http://www.w3.org/2000/svg" xmlns:xlink="http://www.w3.org/1999/xlink" x="0px" y="0px"
	 width="33px" height="27px" viewBox="0 0 33 27" enable-background="new 0 0 33 27" xml:space="preserve">
<path fill="#39b0d2 " d="M30.926,17.523c0.255-0.383,0.264-1.02-0.02-1.632c-0.273-0.592-0.744-0.997-1.194-1.091
	c-2.608-4.501-7.929-8.242-14.113-8.272c-4.375-0.024-7.009,0.798-8.602,2.188L4.72,8.881l0.627,2.196l0.007-0.003
	c-0.614,1.542-0.746,3.38-0.775,5.368c-1.559-0.993-2.682-2.569-3.028-4.371C0.87,8.498,2.545,5.516,5.65,4.626
	c0.547,0.906,1.556,1.509,2.698,1.509h0.001c0.125,0,0.251-0.006,0.379-0.021l0.694-0.082L9.357,5.51l1.81-0.213L11,3.955
	L9.188,4.167L8.922,2.048l1.81-0.212l-0.168-1.344L8.754,0.706L8.665,0L7.972,0.082C7.141,0.18,6.397,0.586,5.881,1.224
	c-0.49,0.604-0.709,1.35-0.646,2.108c-3.811,1.093-5.876,4.689-5.057,8.983C0.645,14.765,2.3,16.872,4.568,18l-0.011,1.83
	c0.704-0.854,1.7-1.489,2.876-1.725c0.341-0.067,0.687-0.104,1.032-0.104c2.346,0,4.351,1.546,4.872,3.754
	c0.148,0.624,0.165,1.239,0.074,1.828l9.559,0.05c-0.115-2.104,1.393-4.054,3.573-4.48c0.297-0.057,0.598-0.086,0.897-0.086
	c1.735,0,3.242,0.948,3.982,2.388l0.005-0.745C31.435,19.659,31.259,18.587,30.926,17.523 M12.513,13.29L6.9,12.945
	c0.468-2.758,1.998-4.776,6.841-5.18C12.888,9.759,12.647,11.717,12.513,13.29 M13.778,13.367c0.153-1.622,0.452-3.713,1.375-5.672
	c0.165-0.002,0.32-0.01,0.492-0.01c4.959,0,9.257,2.923,11.443,6.5L13.778,13.367z"/>
<path fill="#02a393" d="M26.71,19.948c-1.931,0.378-3.2,2.188-2.854,4.066c0.265,1.433,1.426,2.564,2.902,2.829
	c0.107,0.021,0.219,0.035,0.329,0.054c0.218,0.002,0.435,0.004,0.652,0.004c0.021-0.005,0.042-0.011,0.063-0.016
	c0.156-0.025,0.318-0.042,0.474-0.077c1.888-0.435,3.152-2.25,2.706-4.186C30.553,20.747,28.655,19.567,26.71,19.948 M27.786,24.814
	c-0.065,0.015-0.131,0.022-0.195,0.031c-0.011,0.003-0.019,0.005-0.027,0.008c-0.09,0-0.18-0.003-0.272-0.003
	c-0.046-0.007-0.091-0.012-0.138-0.021c-0.614-0.109-1.1-0.582-1.209-1.179c-0.145-0.783,0.384-1.54,1.19-1.696
	c0.811-0.159,1.602,0.333,1.781,1.114C29.103,23.875,28.574,24.633,27.786,24.814"/>
<path fill="#02a393" d="M7.604,18.899c-2.207,0.442-3.651,2.523-3.238,4.675c0.311,1.64,1.652,2.932,3.345,3.224
	c0.125,0.021,0.25,0.041,0.375,0.062h0.75c0.024-0.007,0.049-0.014,0.073-0.019c0.18-0.031,0.364-0.05,0.542-0.092
	c2.16-0.509,3.595-2.599,3.07-4.813C12.014,19.791,9.832,18.453,7.604,18.899 M8.874,24.469c-0.074,0.018-0.15,0.024-0.224,0.037
	c-0.011,0.002-0.022,0.005-0.032,0.007H8.306c-0.053-0.007-0.104-0.017-0.157-0.024c-0.707-0.121-1.264-0.66-1.395-1.346
	c-0.171-0.895,0.429-1.764,1.351-1.947c0.927-0.186,1.837,0.371,2.05,1.266C10.374,23.387,9.774,24.256,8.874,24.469"/>
</svg>
