<?xml version="1.0" encoding="utf-8"?>
<!-- Generator: Adobe Illustrator 15.0.0, SVG Export Plug-In . SVG Version: 6.00 Build 0)  -->
<!DOCTYPE svg PUBLIC "-//W3C//DTD SVG 1.1//EN" "http://www.w3.org/Graphics/SVG/1.1/DTD/svg11.dtd">
<svg version="1.1" id="Layer_1" xmlns="http://www.w3.org/2000/svg" xmlns:xlink="http://www.w3.org/1999/xlink" x="0px" y="0px"
	 width="40px" height="40px" viewBox="0 0 40 40" enable-background="new 0 0 40 40" xml:space="preserve">
<polygon fill="#39b0d2 " points="27.069,13.513 19.285,20.304 20.112,21.132 "/>
<path fill="#39b0d2 " d="M19.944,35L19.944,35c-8.25-0.001-14.961-6.507-14.961-14.505S11.694,5.991,19.944,5.991
	c8.249,0,14.961,6.506,14.961,14.504S28.193,35,19.944,35 M19.944,7.696c-7.31,0-13.255,5.742-13.255,12.799
	c0,7.057,5.945,12.798,13.255,12.799c7.31,0,13.255-5.741,13.255-12.799C33.199,13.438,27.254,7.696,19.944,7.696"/>
<path fill="#39b0d2 " d="M21.162,20.446c0,0.646-0.524,1.171-1.171,1.171s-1.171-0.524-1.171-1.171s0.524-1.17,1.171-1.17
	S21.162,19.8,21.162,20.446"/>
<text transform="matrix(1 0 0 1 13.0542 28.9395)"><tspan x="0" y="0" fill="#39b0d2 " font-family="'Arial'" font-size="8.0993">C</tspan><tspan x="4.56" y="0" fill="#39b0d2 " font-family="'Arial'" font-size="8.0993">CF</tspan></text>
<path fill="#39b0d2 " d="M20.4,10.337v4.224c1.343,0.09,2.571,0.597,3.557,1.396l2.99-2.991C25.187,11.412,22.904,10.437,20.4,10.337
	"/>
<path fill="#39b0d2 " d="M13,12.975l2.99,2.991c0.986-0.805,2.22-1.315,3.566-1.404v-4.224C17.048,10.437,14.762,11.416,13,12.975"/>
<path fill="#39b0d2 " d="M24.575,16.533c1.053,1.114,1.706,2.606,1.729,4.251h4.22c-0.024-2.807-1.151-5.354-2.967-7.233
	L24.575,16.533z"/>
<path fill="#39b0d2 " d="M12.391,13.56c-1.81,1.877-2.935,4.421-2.958,7.224h4.219c0.023-1.64,0.674-3.13,1.722-4.242L12.391,13.56z"
	/>
</svg>
