<?xml version="1.0" encoding="utf-8"?>
<!-- Generator: Adobe Illustrator 15.0.0, SVG Export Plug-In . SVG Version: 6.00 Build 0)  -->
<!DOCTYPE svg PUBLIC "-//W3C//DTD SVG 1.1//EN" "http://www.w3.org/Graphics/SVG/1.1/DTD/svg11.dtd">
<svg version="1.1" id="Layer_1" xmlns="http://www.w3.org/2000/svg" xmlns:xlink="http://www.w3.org/1999/xlink" x="0px" y="0px"
	 width="29px" height="25px" viewBox="0 0 29 25" enable-background="new 0 0 29 25" xml:space="preserve">
<path fill="#39b0d2 " d="M24.884,25.103H3.525c-1.432,0-2.581-0.543-3.15-1.485c-0.567-0.946-0.488-2.18,0.219-3.386L11.33,1.905
	C12.039,0.694,13.085,0,14.205,0c1.12,0,2.167,0.694,2.877,1.905l10.734,18.326c0.706,1.206,0.785,2.439,0.217,3.386
	C27.466,24.56,26.317,25.103,24.884,25.103 M14.205,1.916c-0.385,0-0.806,0.341-1.153,0.934L2.317,21.178
	c-0.352,0.598-0.433,1.134-0.23,1.473c0.205,0.34,0.729,0.536,1.438,0.536h21.359c0.71,0,1.235-0.196,1.438-0.536
	c0.206-0.34,0.122-0.875-0.229-1.473L15.358,2.85C15.013,2.256,14.591,1.916,14.205,1.916"/>
<path fill="#02a393" d="M15.322,6.094v4.064l-0.858,6.946h-0.626l-0.73-7.126V6.094H15.322z M15.322,21.414h-2.215v-3.063h2.215
	V21.414z"/>
</svg>
