<?xml version="1.0" encoding="utf-8"?>
<!-- Generator: Adobe Illustrator 15.0.0, SVG Export Plug-In . SVG Version: 6.00 Build 0)  -->
<!DOCTYPE svg PUBLIC "-//W3C//DTD SVG 1.1//EN" "http://www.w3.org/Graphics/SVG/1.1/DTD/svg11.dtd">
<svg version="1.1" id="Layer_1" xmlns="http://www.w3.org/2000/svg" xmlns:xlink="http://www.w3.org/1999/xlink" x="0px" y="0px"
	 width="20px" height="23px" viewBox="0 0 20 23" enable-background="new 0 0 20 23" xml:space="preserve">
<path fill="#ffffff" d="M11.639,10.273c-0.453-0.282-1.167-0.398-2.145-0.351L8.78,7.726c0.415,0.04,0.736,0.266,0.966,0.68
	l1.361-0.647c-0.28-0.531-0.65-0.906-1.111-1.127c-0.461-0.221-1-0.27-1.62-0.148l-0.18-0.556L7.381,6.192l0.181,0.557
	C6.938,7.021,6.5,7.43,6.249,7.973C5.996,8.517,5.97,9.096,6.169,9.71c0.197,0.606,0.537,1.067,1.017,1.381
	c0.48,0.313,1.122,0.456,1.925,0.428l0.765,2.354c-0.234-0.031-0.468-0.13-0.704-0.294c-0.235-0.163-0.431-0.385-0.588-0.665
	l-1.416,0.634C7.52,14.25,7.964,14.736,8.5,15.011c0.536,0.273,1.141,0.345,1.815,0.212l0.332,1.022l0.815-0.265L11.12,14.93
	c0.696-0.341,1.173-0.812,1.434-1.41c0.259-0.598,0.278-1.234,0.059-1.914C12.414,11,12.09,10.555,11.639,10.273 M7.912,9.682
	C7.737,9.551,7.617,9.385,7.553,9.187c-0.07-0.217-0.07-0.437,0.003-0.659C7.628,8.304,7.763,8.12,7.959,7.973l0.632,1.945
	C8.313,9.892,8.087,9.813,7.912,9.682 M11.274,13.075c-0.108,0.265-0.294,0.469-0.558,0.612l-0.712-2.191
	c0.369-0.012,0.657,0.049,0.863,0.183c0.208,0.134,0.353,0.325,0.434,0.577C11.392,12.537,11.384,12.81,11.274,13.075"/>
<path fill="#ffffff" d="M5.354,23.017L0,6.531L5.962,0l8.663,1.78l5.354,16.486L5.354,23.017z M1.445,6.844l4.73,14.563
	l12.193-3.962L13.639,2.883L6.417,1.399L1.445,6.844z"/>
</svg>
