<?xml version="1.0" encoding="utf-8"?>
<!-- Generator: Adobe Illustrator 15.0.0, SVG Export Plug-In . SVG Version: 6.00 Build 0)  -->
<!DOCTYPE svg PUBLIC "-//W3C//DTD SVG 1.1//EN" "http://www.w3.org/Graphics/SVG/1.1/DTD/svg11.dtd">
<svg version="1.1" id="Layer_1" xmlns="http://www.w3.org/2000/svg" xmlns:xlink="http://www.w3.org/1999/xlink" x="0px" y="0px"
	 width="26px" height="26px" viewBox="0 0 26 26" enable-background="new 0 0 26 26" xml:space="preserve">
<path fill="#39b0d2 " d="M13.01,0C9.014,0,6.988,2.252,6.988,6.695c0,4.525,3.18,7.906,6.022,7.906c2.842,0,6.024-3.38,6.024-7.906
	C19.034,2.252,17.007,0,13.01,0"/>
<path fill="#02a393" d="M0.061,23.188c-0.375,1.356,1.035,2.626,2.917,2.626h20.065c1.882,0,3.291-1.27,2.916-2.626"/>
<path fill="#02a393" d="M25.959,23.188l-1.107-5.758c-0.164-0.563-0.698-1.233-1.368-1.607l-5.082-3.131
	c-1.371,1.925-3.33,3.197-5.391,3.197c-2.06,0-4.02-1.271-5.391-3.197l-5.083,3.131c-0.758,0.468-1.224,1.084-1.387,1.646
	l-1.089,5.72"/>
</svg>
