<?xml version="1.0" encoding="utf-8"?>
<!-- Generator: Adobe Illustrator 15.0.0, SVG Export Plug-In . SVG Version: 6.00 Build 0)  -->
<!DOCTYPE svg PUBLIC "-//W3C//DTD SVG 1.1//EN" "http://www.w3.org/Graphics/SVG/1.1/DTD/svg11.dtd">
<svg version="1.1" id="Layer_1" xmlns="http://www.w3.org/2000/svg" xmlns:xlink="http://www.w3.org/1999/xlink" x="0px" y="0px"
	 width="24px" height="18px" viewBox="0 0 24 18" enable-background="new 0 0 24 18" xml:space="preserve">
<path fill="#FFFFFF" d="M21.033,0h-1.302c-0.602,0-1.018,0.501-1.328,1.635c-1.694,1.369-6.238,2.206-7.908,2.42l-4.81,0.528H3.02
	c-0.019,0-0.036,0.004-0.055,0.006C2.949,4.59,2.934,4.59,2.918,4.593c-0.03,0.004-0.061,0.013-0.089,0.021
	C2.818,4.616,2.807,4.62,2.798,4.623C2.768,4.634,2.74,4.646,2.712,4.66C2.703,4.666,2.692,4.67,2.683,4.676
	c-0.024,0.015-0.048,0.03-0.07,0.048C2.601,4.733,2.591,4.741,2.581,4.751C2.562,4.767,2.545,4.784,2.529,4.803
	c-0.014,0.013-0.024,0.026-0.035,0.04C2.481,4.86,2.47,4.878,2.458,4.897C2.449,4.914,2.438,4.93,2.43,4.95
	C2.421,4.968,2.413,4.986,2.407,5.006c-0.008,0.021-0.016,0.039-0.02,0.06C2.382,5.086,2.379,5.108,2.376,5.129
	C2.374,5.143,2.37,5.156,2.369,5.171C2.354,5.381,2.34,5.6,2.329,5.826h-1.65c-0.017,0-0.034,0.003-0.051,0.004
	c-0.025,0.003-0.05,0.003-0.073,0.008C0.537,5.84,0.521,5.848,0.506,5.852C0.479,5.858,0.455,5.865,0.43,5.874
	C0.417,5.879,0.405,5.886,0.394,5.893c-0.026,0.012-0.052,0.024-0.077,0.04C0.31,5.937,0.305,5.941,0.298,5.946
	c-0.16,0.111-0.27,0.287-0.276,0.491C0.007,6.885,0,7.349,0,7.816v0.067c0,0.615,0,1.198,0.025,1.769c0,0.008,0,0.019,0.001,0.028
	c0.001,0.017,0.005,0.034,0.007,0.05c0.003,0.02,0.004,0.042,0.01,0.063c0.005,0.02,0.012,0.04,0.019,0.058
	c0.006,0.02,0.012,0.039,0.02,0.057c0.009,0.02,0.021,0.038,0.031,0.057c0.01,0.016,0.018,0.032,0.03,0.048
	c0.013,0.018,0.029,0.034,0.042,0.049c0.012,0.015,0.024,0.03,0.038,0.042c0.016,0.016,0.034,0.027,0.052,0.041
	c0.014,0.013,0.028,0.024,0.043,0.036c0.02,0.012,0.04,0.021,0.062,0.031c0.017,0.008,0.031,0.016,0.047,0.025
	c0.026,0.008,0.053,0.016,0.08,0.021c0.014,0.004,0.027,0.011,0.042,0.013c0.041,0.01,0.085,0.014,0.128,0.014h1.641
	c0.012,0.287,0.029,0.566,0.052,0.843c0,0.014,0.006,0.025,0.007,0.037c0.003,0.021,0.006,0.041,0.012,0.062
	c0.004,0.02,0.011,0.039,0.019,0.059c0.005,0.018,0.013,0.035,0.021,0.054c0.009,0.021,0.021,0.037,0.032,0.057
	c0.01,0.016,0.019,0.029,0.03,0.047c0.013,0.019,0.029,0.034,0.043,0.05c0.012,0.014,0.022,0.025,0.037,0.039
	c0.016,0.016,0.035,0.027,0.053,0.042c0.014,0.012,0.027,0.021,0.042,0.031c0.02,0.012,0.042,0.023,0.063,0.033
	c0.014,0.008,0.029,0.016,0.045,0.021c0.025,0.012,0.052,0.018,0.078,0.025c0.014,0.002,0.028,0.009,0.042,0.011
	c0.04,0.008,0.083,0.012,0.126,0.012H3.02h2.666l1.056,0.116l2.231,5.754c0.096,0.244,0.34,0.408,0.612,0.408h2.01h0.001
	c0.054,0,0.104-0.009,0.153-0.021c0.014-0.004,0.027-0.008,0.042-0.012c0.041-0.014,0.079-0.029,0.117-0.049
	c0.007-0.004,0.016-0.006,0.023-0.01l1.006-0.587c0.236-0.136,0.357-0.402,0.305-0.662l-0.822-4.074
	c2.108,0.415,4.935,1.162,6.149,2.178c0.291,0.769,0.662,1.117,1.163,1.117h1.302c0.524,0,1.754,0,1.754-7.934
	C22.787,0,21.558,0,21.033,0 M2.287,9.021H1.314c-0.007-0.368-0.01-0.745-0.01-1.137V7.816c0-0.244,0.003-0.487,0.006-0.728h0.98
	C2.286,7.362,2.283,7.644,2.283,7.94C2.283,8.326,2.284,8.682,2.287,9.021 M3.631,10.443C3.592,9.713,3.587,8.918,3.587,7.94
	c0-0.78,0.017-1.47,0.047-2.094h1.881C5.479,6.519,5.462,7.218,5.462,7.932c0,0.87,0.026,1.71,0.078,2.512H3.631z M8.197,11.983
	l1.218,0.132l-1.046,0.313L8.197,11.983z M10.035,16.722l-1.482-3.82l1.785-0.53l0.865,4.351H10.035z M11.701,16.554l-0.847-4.257
	c0.06,0.01,0.123,0.018,0.186,0.029l0.833,4.128L11.701,16.554z M11.748,11.162c-0.02-0.006-0.042-0.008-0.063-0.01
	c-0.423-0.073-0.744-0.12-0.907-0.144c-0.042-0.014-0.086-0.023-0.132-0.027l-4.579-0.503C6.011,9.667,5.984,8.814,5.984,7.932
	c0-0.725,0.018-1.435,0.056-2.117l4.605-0.506c0.003,0,0.003-0.001,0.005-0.001h0.005c0.099-0.013,0.997-0.13,2.205-0.371
	c-0.074,0.939-0.112,1.959-0.112,2.995c0,1.215,0.053,2.39,0.152,3.447C12.471,11.292,12.08,11.22,11.748,11.162 M13.435,11.491
	c-0.108-1.081-0.165-2.298-0.165-3.56c0-1.077,0.043-2.137,0.123-3.105c1.49-0.319,3.303-0.809,4.681-1.5
	C17.89,4.639,17.79,6.244,17.79,7.932c0,1.892,0.126,3.676,0.354,5.063C16.754,12.311,14.935,11.816,13.435,11.491 M19.916,14.601
	c-0.047-0.077-0.099-0.195-0.149-0.349c-0.01-0.041-0.024-0.083-0.043-0.122c-0.294-0.951-0.629-3.041-0.629-6.198
	c0-2.694,0.243-4.61,0.498-5.705c0.037-0.078,0.059-0.162,0.062-0.246c0.09-0.347,0.182-0.587,0.262-0.718h0.315
	c-0.739,1.941-0.75,6.428-0.75,6.669c0,0.242,0.011,4.728,0.75,6.669H19.916z M20.828,14.601H20.78
	c-0.359-0.853-0.776-3.127-0.776-6.669s0.417-5.816,0.773-6.669h0.051c0.275,0.524,0.655,2.632,0.655,6.669
	C21.483,11.97,21.104,14.077,20.828,14.601"/>
</svg>
