<?xml version="1.0" encoding="utf-8"?>
<!-- Generator: Adobe Illustrator 15.0.0, SVG Export Plug-In . SVG Version: 6.00 Build 0)  -->
<!DOCTYPE svg PUBLIC "-//W3C//DTD SVG 1.1//EN" "http://www.w3.org/Graphics/SVG/1.1/DTD/svg11.dtd">
<svg version="1.1" id="Layer_1" xmlns="http://www.w3.org/2000/svg" xmlns:xlink="http://www.w3.org/1999/xlink" x="0px" y="0px"
	 width="20px" height="27px" viewBox="0 0 20 27" enable-background="new 0 0 20 27" xml:space="preserve">
<path fill="#39b0d2 " d="M19.953,7.961V2.67c0-1.475-1.195-2.67-2.671-2.67H2.67C1.195,0,0,1.196,0,2.67v20.285
	c0,1.372,1.035,2.502,2.367,2.652v0.599h3.95v-0.58h7.31v0.58h3.95v-0.598c1.335-0.146,2.376-1.277,2.376-2.653V10.153H0V7.961
	H19.953z M2.552,2.515c0-0.302,0.246-0.547,0.549-0.547s0.548,0.245,0.548,0.547v3.179c0,0.303-0.246,0.548-0.548,0.548
	c-0.303,0-0.549-0.246-0.549-0.548V2.515z M2.552,12.305c0-0.303,0.246-0.548,0.549-0.548c0.303,0,0.548,0.246,0.548,0.548v4.335
	c0,0.302-0.245,0.547-0.548,0.547c-0.303,0-0.549-0.245-0.549-0.547V12.305z"/>
</svg>
