<?xml version="1.0" encoding="utf-8"?>
<!-- Generator: Adobe Illustrator 15.0.0, SVG Export Plug-In . SVG Version: 6.00 Build 0)  -->
<!DOCTYPE svg PUBLIC "-//W3C//DTD SVG 1.1//EN" "http://www.w3.org/Graphics/SVG/1.1/DTD/svg11.dtd">
<svg version="1.1" xmlns="http://www.w3.org/2000/svg" xmlns:xlink="http://www.w3.org/1999/xlink" x="0px" y="0px" width="19px"
	 height="25px" viewBox="0 0 19 25" enable-background="new 0 0 19 25" xml:space="preserve">
<g id="Layer_2">
	<rect x="-3.125" y="-3.875" fill="#FFFFFF" width="23.5" height="32.75"/>
</g>
<g id="Layer_1">
	<path fill="#02a393" d="M9.491,0C7.348,0.009,5.471,1.878,5.447,4.023C5.418,6.311,7.239,8.158,9.514,8.148
		c2.232-0.002,4.046-1.826,4.038-4.056C13.54,1.88,11.665-0.011,9.491,0"/>
	<path fill="#02a393" d="M3.567,21.164v-3.918c0-0.217-0.04-0.449,0.022-0.654c0.043-0.141,0.255-0.355,0.346-0.334
		c0.159,0.037,0.355,0.201,0.414,0.355c0.073,0.197,0.025,0.439,0.025,0.658v4.025c2.936,0.461,6.663,0.721,10.296,0.09
		c0-1.355,0-2.707,0-4.068c0-0.244-0.033-0.508,0.027-0.734c0.038-0.141,0.239-0.318,0.365-0.318
		c0.129-0.006,0.328,0.172,0.37,0.311c0.07,0.193,0.031,0.436,0.031,0.656c0,1.334,0,2.668,0,4.002
		c1.206-0.256,2.395-0.619,3.533-1.107c0-1.561,0.004-3.117,0-4.676c-0.003-1.258-0.341-2.359-0.939-3.257
		c-0.123-0.232-0.275-0.462-0.492-0.678c-2.086-2.052-5.296-2.382-8.075-2.417c-2.073-0.027-4.622,0.193-6.518,1.305
		c-1.8,0.85-2.966,2.625-2.971,4.866c-0.004,1.701,0,3.406,0,5.113C0.844,20.607,2.079,20.902,3.567,21.164"/>
	<path fill="#02a393" d="M10.037,23.373c-4.06,0-7.724-0.691-10.03-1.258v55.951h18.978V22.018
		C16.032,23.02,12.935,23.373,10.037,23.373"/>
</g>
</svg>
