<?xml version="1.0" encoding="utf-8"?>
<!-- Generator: Adobe Illustrator 15.0.0, SVG Export Plug-In . SVG Version: 6.00 Build 0)  -->
<!DOCTYPE svg PUBLIC "-//W3C//DTD SVG 1.1//EN" "http://www.w3.org/Graphics/SVG/1.1/DTD/svg11.dtd">
<svg version="1.1" id="Layer_1" xmlns="http://www.w3.org/2000/svg" xmlns:xlink="http://www.w3.org/1999/xlink" x="0px" y="0px"
	 width="15px" height="21px" viewBox="0 0 15 21" enable-background="new 0 0 15 21" xml:space="preserve">
<path fill="#39b0d2 " d="M13.572,19.112h-13C0.256,19.112,0,18.856,0,18.541s0.256-0.571,0.572-0.571h13
	c0.314,0,0.572,0.256,0.572,0.571S13.887,19.112,13.572,19.112"/>
<path fill="#39b0d2 " d="M0.572,21C0.256,21,0,20.744,0,20.428c0-0.315,0.256-0.572,0.572-0.572h13c0.314,0,0.572,0.257,0.572,0.572
	S13.887,21,13.572,21H0.572z"/>
<path fill="#02a393" d="M7.556,17.217H6.669v-1.818c-1.2-0.135-2.095-0.396-2.687-0.786c-1.041-0.7-1.554-1.896-1.535-3.583h2.467
	c0.085,0.768,0.204,1.283,0.356,1.545c0.237,0.409,0.703,0.674,1.397,0.795V9.467L5.93,9.248C4.766,8.906,3.945,8.432,3.467,7.822
	C2.988,7.213,2.75,6.479,2.75,5.62c0-0.567,0.092-1.082,0.278-1.545C3.214,3.612,3.474,3.214,3.81,2.878
	c0.433-0.432,0.914-0.731,1.444-0.896c0.322-0.104,0.794-0.18,1.416-0.228V0.539h0.887v1.233c0.989,0.08,1.764,0.323,2.329,0.731
	c1.023,0.652,1.557,1.708,1.592,3.17H9.072c-0.047-0.542-0.139-0.938-0.27-1.188c-0.229-0.432-0.645-0.67-1.247-0.712v3.482
	C9,7.756,9.971,8.197,10.467,8.581c0.818,0.64,1.229,1.542,1.229,2.706c0,1.535-0.563,2.649-1.689,3.345
	c-0.689,0.427-1.506,0.676-2.45,0.75V17.217z M6.669,3.792C6.14,3.805,5.747,3.947,5.491,4.217c-0.256,0.271-0.384,0.641-0.384,1.11
	c0,0.512,0.192,0.917,0.576,1.216C5.896,6.708,6.225,6.86,6.669,7V3.792z M7.556,13.341c0.475-0.06,0.821-0.17,1.04-0.328
	c0.379-0.28,0.568-0.765,0.568-1.453c0-0.523-0.178-0.938-0.531-1.242c-0.213-0.177-0.572-0.36-1.077-0.549V13.341z"/>
</svg>
