<?xml version="1.0" encoding="utf-8"?>
<!-- Generator: Adobe Illustrator 15.0.0, SVG Export Plug-In . SVG Version: 6.00 Build 0)  -->
<!DOCTYPE svg PUBLIC "-//W3C//DTD SVG 1.1//EN" "http://www.w3.org/Graphics/SVG/1.1/DTD/svg11.dtd">
<svg version="1.1" id="Layer_1" xmlns="http://www.w3.org/2000/svg" xmlns:xlink="http://www.w3.org/1999/xlink" x="0px" y="0px"
	 width="20px" height="23px" viewBox="0 0 20 23" enable-background="new 0 0 20 23" xml:space="preserve">
<path fill="#ffffff" d="M1438.734,220.993c-1.198-1.146-3.096-1.105-4.242,0.092l-12.029,12.563h8.309l8.055-8.412
	C1439.973,224.038,1439.932,222.139,1438.734,220.993 M1420.631,233.647l-12.029-12.563c-1.146-1.197-3.045-1.238-4.24-0.092
	c-1.197,1.146-1.238,3.045-0.094,4.242l8.056,8.412H1420.631z M1410.121,281.689h22.852v-3.557h-22.852V281.689z"/>
<path fill="#ffffff" d="M1441.541,233.647h-39.988c-4.037,0-7.309,3.271-7.309,7.309v23.297c0,4.037,3.271,7.309,7.309,7.309h39.988
	c4.037,0,7.31-3.271,7.31-7.309v-23.297C1448.851,236.919,1445.578,233.647,1441.541,233.647 M1444.105,262.905
	c0,1.856-1.505,3.362-3.363,3.362h-38.391c-1.857,0-3.363-1.506-3.363-3.362v-20.601c0-1.857,1.506-3.362,3.363-3.362h38.391
	c1.858,0,3.363,1.505,3.363,3.362V262.905z"/>
<polygon fill="#ffffff" points="1425.502,271.563 1417.592,271.563 1416.141,278.515 1426.953,278.515 "/>
<path fill="#ffffff" d="M16.308,0.306c-0.44-0.42-1.135-0.405-1.556,0.034l-4.409,4.604h3.045l2.952-3.083
	C16.762,1.422,16.746,0.726,16.308,0.306 M9.672,4.944L5.263,0.34C4.843-0.1,4.146-0.115,3.708,0.306
	C3.27,0.726,3.255,1.422,3.674,1.861l2.953,3.083H9.672z M5.82,22.553h8.375v-1.304H5.82V22.553z"/>
<path fill="#ffffff" d="M17.337,4.944H2.679C1.199,4.944,0,6.143,0,7.623v8.54c0,1.479,1.199,2.68,2.679,2.68h14.658
	c1.479,0,2.678-1.2,2.678-2.68v-8.54C20.015,6.143,18.816,4.944,17.337,4.944 M18.276,15.668c0,0.681-0.552,1.233-1.233,1.233H2.972
	c-0.68,0-1.233-0.553-1.233-1.233V8.117c0-0.68,0.553-1.232,1.233-1.232h14.071c0.682,0,1.233,0.552,1.233,1.232V15.668z"/>
<polygon fill="#ffffff" points="11.458,18.842 8.558,18.842 8.026,21.39 11.989,21.39 "/>
</svg>
