<?xml version="1.0" encoding="utf-8"?>
<!-- Generator: Adobe Illustrator 15.0.0, SVG Export Plug-In . SVG Version: 6.00 Build 0)  -->
<!DOCTYPE svg PUBLIC "-//W3C//DTD SVG 1.1//EN" "http://www.w3.org/Graphics/SVG/1.1/DTD/svg11.dtd">
<svg version="1.1" id="Layer_1" xmlns="http://www.w3.org/2000/svg" xmlns:xlink="http://www.w3.org/1999/xlink" x="0px" y="0px"
	 width="25px" height="21px" viewBox="0 0 25 21" enable-background="new 0 0 25 21" xml:space="preserve">
<path fill="#39b0d2 " d="M11.01,6.507l0.432-0.432l-0.074-1.693c0.401-0.401,0.428-1.022,0.061-1.391
	c1.251-1.25,3.548-2.219,3.548-2.219c-3.29-0.557-4.653,0.63-4.873,0.852c-0.022,0.021-0.032,0.035-0.032,0.035l0.004,0.005
	C9.705,1.413,9.172,1.472,8.815,1.829L4.849,5.796C4.446,6.198,4.42,6.822,4.788,7.19C3.82,7.42,3.197,7.447,2.796,7.848
	L2.038,8.606c-0.402,0.404-0.43,1.027-0.061,1.396l1.221,1.219c0.368,0.369,0.991,0.342,1.393-0.062l0.759-0.759
	C5.75,10,5.777,9.379,6.01,8.411C6.377,8.779,7,8.75,7.401,8.349l1.692,0.075L9.58,7.937l2.897,3.138
	c0.059-0.062,0.117-0.121,0.175-0.181c0.528-0.536,1.063-1.082,1.603-1.628L11.01,6.507z M15.742,10.531
	c-0.548,0.553-1.096,1.106-1.634,1.651c-0.104,0.104-0.21,0.211-0.315,0.316l6.56,7.103l2.784-2.785L15.742,10.531z"/>
<path fill-rule="evenodd" clip-rule="evenodd" fill="#02a393" d="M22.554,1.335c-1.015,0.78-1.978,1.55-2.979,2.27
	c-0.53,0.382-0.923,0.826-1.134,1.447c-0.287,0.85-0.815,1.529-1.455,2.161c-1.83,1.801-3.618,3.645-5.421,5.474
	c-0.064,0.063-0.127,0.134-0.19,0.204c-0.329-0.32-0.657-0.638-0.983-0.954c-0.056,0.022-0.085,0.024-0.102,0.038
	c-1.592,1.612-3.186,3.219-4.767,4.837c-0.064,0.065-0.08,0.259-0.032,0.342c0.569,0.955,1.314,1.739,2.279,2.31
	c0.235,0.139,0.375,0.128,0.57-0.074c0.978-1.015,1.973-2.01,2.962-3.012c0.59-0.598,1.18-1.193,1.795-1.818
	c-0.344-0.334-0.685-0.661-1.022-0.989c0.099-0.098,0.189-0.185,0.277-0.272c1.796-1.818,3.604-3.626,5.377-5.463
	c0.58-0.6,1.195-1.114,1.985-1.388c0.705-0.244,1.208-0.704,1.63-1.315c0.677-0.98,1.416-1.917,2.145-2.891
	C23.166,1.927,22.863,1.635,22.554,1.335"/>
</svg>
