<?xml version="1.0" encoding="utf-8"?>
<!-- Generator: Adobe Illustrator 15.0.0, SVG Export Plug-In . SVG Version: 6.00 Build 0)  -->
<!DOCTYPE svg PUBLIC "-//W3C//DTD SVG 1.1//EN" "http://www.w3.org/Graphics/SVG/1.1/DTD/svg11.dtd">
<svg version="1.1" id="Layer_1" xmlns="http://www.w3.org/2000/svg" xmlns:xlink="http://www.w3.org/1999/xlink" x="0px" y="0px"
	 width="20px" height="26px" viewBox="0 0 20 26" enable-background="new 0 0 20 26" xml:space="preserve">
<path fill="#39b0d2 " d="M19.637,8.646c-0.352-3.933-3.217-7.287-7.027-8.321c-0.563-0.151-1.143-0.239-1.713-0.356H9.074
	C8.74,0.029,8.402,0.087,8.067,0.149C3.325,1.034-0.16,5.629,0.292,10.432c0.304,3.246,1.874,5.729,4.61,7.482
	c0.182,0.116,0.232,0.236,0.231,0.438c-0.009,1.001-0.005,1.638-0.003,2.64h0.004v0.127h9.706v-0.306
	c0.005-0.881,0.009-1.48-0.005-2.4c-0.005-0.251,0.07-0.389,0.284-0.531C18.418,15.683,19.993,12.613,19.637,8.646 M13.96,16.298
	c-0.254,0.15-0.499,0.309-0.764,0.438c-0.225,0.113-0.308,0.254-0.306,0.516c0.009,0.684,0.01,1.273,0.01,1.87H7.072
	c0-0.322,0-0.655,0-1.034c0-0.387,0.118-0.842-0.048-1.133c-0.166-0.293-0.622-0.413-0.948-0.616
	c-2.603-1.619-3.934-3.959-3.838-7.031C2.34,5.884,4.892,2.876,8.25,2.115c4.154-0.944,8.292,1.627,9.284,5.77
	C18.322,11.178,16.896,14.539,13.96,16.298"/>
<rect x="5.134" y="21.698" fill="#39b0d2 " width="9.708" height="1.388"/>
<polygon fill="#39b0d2 " points="5.134,25.064 7.198,25.064 7.198,25.948 12.899,25.948 12.899,25.064 14.842,25.064 14.842,23.678 
	5.134,23.678 "/>
</svg>
