<?xml version="1.0" encoding="utf-8"?>
<!-- Generator: Adobe Illustrator 15.0.0, SVG Export Plug-In . SVG Version: 6.00 Build 0)  -->
<!DOCTYPE svg PUBLIC "-//W3C//DTD SVG 1.1//EN" "http://www.w3.org/Graphics/SVG/1.1/DTD/svg11.dtd">
<svg version="1.1" id="Layer_1" xmlns="http://www.w3.org/2000/svg" xmlns:xlink="http://www.w3.org/1999/xlink" x="0px" y="0px"
	 width="22px" height="20px" viewBox="0 0 22 20" enable-background="new 0 0 22 20" xml:space="preserve">
<path fill-rule="evenodd" clip-rule="evenodd" fill="#FFFFFF" d="M17.62,0.059h2.441c0.014,0.052,0.031,0.105,0.036,0.157
	c0.065,0.663,0.139,1.324,0.189,1.987c0.058,0.72,0.116,1.438,0.133,2.156c0.019,0.794,0.011,1.59-0.031,2.384
	c-0.046,0.887-0.109,1.776-0.228,2.656c-0.175,1.297-0.471,2.569-0.925,3.799c-0.575,1.557-1.375,2.97-2.55,4.159
	c-0.85,0.86-1.84,1.519-2.956,1.964c-1.062,0.423-2.178,0.658-3.32,0.695c-0.701,0.022-1.408,0.005-2.104-0.071
	c-0.814-0.087-1.621-0.251-2.426-0.395c-0.305-0.055-0.604-0.147-0.935-0.229c0.047-0.584,0.084-1.145,0.139-1.705
	c0.08-0.826,0.284-1.628,0.545-2.413c0.304-0.911,0.706-1.775,1.189-2.605c0.549-0.947,1.179-1.833,1.896-2.655
	c0.43-0.493,0.877-0.969,1.336-1.435c0.476-0.481,0.954-0.959,1.467-1.4c0.665-0.574,1.364-1.11,2.05-1.665
	c0.035-0.028,0.06-0.069,0.123-0.147c-0.094,0.019-0.129,0.021-0.161,0.035c-1.665,0.603-3.255,1.353-4.741,2.327
	c-0.96,0.628-1.861,1.327-2.687,2.118c-0.97,0.93-1.816,1.959-2.529,3.103c-0.747,1.195-1.331,2.457-1.691,3.819
	c-0.007,0.023-0.026,0.041-0.049,0.081c-0.209-0.919-0.309-1.825-0.348-2.736c-0.039-0.844,0.014-1.686,0.147-2.518
	c0.171-1.059,0.457-2.087,0.898-3.071c0.718-1.6,1.731-2.984,3.058-4.125c0.518-0.444,1.066-0.854,1.635-1.235
	c1.435-0.961,3.016-1.614,4.671-2.087c1.805-0.515,3.647-0.795,5.521-0.881C17.485,0.122,17.553,0.083,17.62,0.059"/>
</svg>
