<?xml version="1.0" encoding="utf-8"?>
<!-- Generator: Adobe Illustrator 15.0.0, SVG Export Plug-In . SVG Version: 6.00 Build 0)  -->
<!DOCTYPE svg PUBLIC "-//W3C//DTD SVG 1.1//EN" "http://www.w3.org/Graphics/SVG/1.1/DTD/svg11.dtd">
<svg version="1.1" id="Layer_1" xmlns="http://www.w3.org/2000/svg" xmlns:xlink="http://www.w3.org/1999/xlink" x="0px" y="0px"
	 width="24px" height="21px" viewBox="0 0 24 21" enable-background="new 0 0 24 21" xml:space="preserve">
<rect x="13.871" y="12.211" fill="#39b0d2 " width="9.648" height="0.346"/>
<rect y="20.581" fill="#39b0d2 " width="13.439" height="0.481"/>
<rect x="1.794" y="3.072" transform="matrix(0.9497 -0.3131 0.3131 0.9497 -0.5101 3.8308)" fill="#39b0d2 " width="19.755" height="0.863"/>
<path fill-rule="evenodd" clip-rule="evenodd" fill="#39b0d2 " d="M10.655,15.657c-1.264-1.125-2.526-2.25-3.79-3.375
	c-0.106-0.095-0.178-0.095-0.286,0.001c-1.265,1.126-2.53,2.254-3.795,3.38c-0.06,0.054-0.099,0.11-0.062,0.185
	c0.037,0.075,0.111,0.09,0.195,0.09c0.254-0.002,0.509-0.001,0.763-0.001h0.098v3.774h2.126v-0.092c0-0.683,0-1.364,0-2.046
	c0-0.135,0.056-0.186,0.208-0.186c0.399,0,0.799,0,1.199,0c0.167,0,0.222,0.048,0.222,0.196c0,0.677,0,1.354,0,2.031v0.096h2.127
	v-3.782h0.098c0.254,0,0.509-0.001,0.764,0.001c0.083,0,0.158-0.009,0.195-0.087C10.755,15.766,10.714,15.71,10.655,15.657"/>
<path fill-rule="evenodd" clip-rule="evenodd" fill="#39b0d2 " d="M21.478,8.529c-0.894-0.795-1.786-1.591-2.68-2.387
	c-0.075-0.068-0.126-0.068-0.201,0c-0.896,0.797-1.79,1.594-2.685,2.391c-0.043,0.037-0.07,0.078-0.044,0.131
	c0.026,0.052,0.079,0.063,0.138,0.063c0.18-0.001,0.36-0.001,0.541-0.001h0.068v2.669h1.504V11.33c0-0.482,0-0.965,0-1.448
	c0-0.094,0.039-0.129,0.146-0.129c0.283,0,0.565,0,0.849,0c0.118,0,0.156,0.033,0.156,0.138c0,0.479,0,0.957,0,1.437v0.067h1.505
	V8.721h0.069c0.18,0,0.359-0.001,0.54,0c0.059,0,0.111-0.006,0.138-0.062C21.549,8.606,21.52,8.566,21.478,8.529"/>
<path fill="#02a393" d="M12.167,2.39c0-0.202-0.222-0.363-0.495-0.363c-0.274,0-0.496,0.162-0.496,0.363v0.822l0.991-0.326V2.39z
	 M5.978,5.835L0.459,20.581h0.932l1.738-4.645c-0.07,0-0.141,0-0.211,0c-0.084,0.001-0.159-0.014-0.195-0.088
	c-0.038-0.075,0.001-0.132,0.062-0.186c0.224-0.199,0.448-0.399,0.671-0.599l3.127-8.354l3.224,8.19
	c0.283,0.253,0.566,0.504,0.849,0.757c0.059,0.052,0.1,0.107,0.063,0.185s-0.111,0.087-0.195,0.087c-0.104-0.001-0.208,0-0.313,0
	l1.831,4.651h0.938L7.038,5.485L5.978,5.835z M18.969,1.551l-0.861,0.284l-3.883,10.375h0.621l1.304-3.484c-0.048,0-0.095,0-0.143,0
	c-0.06,0-0.112-0.01-0.138-0.063c-0.027-0.054,0-0.094,0.043-0.131c0.154-0.138,0.311-0.277,0.465-0.415l2.218-5.927l2.286,5.807
	c0.199,0.177,0.398,0.354,0.597,0.531c0.042,0.037,0.07,0.077,0.045,0.13c-0.026,0.055-0.079,0.062-0.138,0.062
	c-0.073,0-0.146,0-0.219,0l1.374,3.49h0.625L18.969,1.551z"/>
</svg>
