<?xml version="1.0" encoding="utf-8"?>
<!-- Generator: Adobe Illustrator 15.0.0, SVG Export Plug-In . SVG Version: 6.00 Build 0)  -->
<!DOCTYPE svg PUBLIC "-//W3C//DTD SVG 1.1//EN" "http://www.w3.org/Graphics/SVG/1.1/DTD/svg11.dtd">
<svg version="1.1" id="Layer_1" xmlns="http://www.w3.org/2000/svg" xmlns:xlink="http://www.w3.org/1999/xlink" x="0px" y="0px"
	 width="21px" height="21px" viewBox="0 0 21 21" enable-background="new 0 0 21 21" xml:space="preserve">
<path fill="#ffffff" d="M10.541,3.646l8.173,5.785v10.618H2.367V9.43L10.541,3.646 M10.541,2.473l-9.13,6.462v11.744
	c0,0.181,0.146,0.327,0.326,0.327h17.608c0.18,0,0.326-0.146,0.326-0.327V8.935L10.541,2.473z"/>
<path fill="#ffffff" d="M10.541,0L0,7.549v3.499l10.352-7.327c0.002,0,0.005-0.001,0.007-0.004c0.011-0.006,0.021-0.012,0.033-0.018
	c0.009-0.003,0.017-0.009,0.025-0.013c0.01-0.003,0.021-0.007,0.031-0.01c0.01-0.003,0.02-0.006,0.03-0.008
	c0.01-0.001,0.021-0.003,0.031-0.003c0.011-0.001,0.021-0.003,0.031-0.003s0.021,0.002,0.031,0.003c0.01,0,0.021,0.002,0.031,0.003
	c0.01,0.002,0.021,0.005,0.03,0.008c0.011,0.003,0.021,0.006,0.031,0.01c0.009,0.004,0.017,0.009,0.026,0.013
	c0.01,0.006,0.021,0.012,0.032,0.018c0.003,0.003,0.005,0.004,0.007,0.004l10.353,7.327V7.549L10.541,0"/>
<path fill="#ffffff" d="M14.584,13.455c0.003,0.073-0.003,0.149-0.013,0.223c-0.007,0.083-0.02,0.167-0.033,0.249
	c-0.013,0.08-0.027,0.16-0.047,0.239c-0.013,0.055-0.028,0.108-0.045,0.162c-0.013,0.046-0.021,0.093-0.035,0.139
	c-0.016,0.054-0.038,0.108-0.057,0.165c-0.017,0.048-0.032,0.097-0.051,0.141c-0.036,0.083-0.074,0.166-0.112,0.248
	c-0.026,0.056-0.055,0.113-0.083,0.167c-0.045,0.079-0.086,0.159-0.137,0.232c-0.061,0.1-0.125,0.191-0.195,0.284
	c-0.073,0.097-0.153,0.191-0.235,0.281c-0.07,0.08-0.145,0.152-0.221,0.223c-0.054,0.051-0.111,0.099-0.17,0.147
	c-0.082,0.067-0.165,0.137-0.251,0.197c-0.096,0.067-0.197,0.124-0.297,0.188c-0.035,0.021-0.073,0.043-0.112,0.067
	c-0.051,0.024-0.099,0.051-0.146,0.072c-0.084,0.038-0.163,0.076-0.243,0.112c-0.051,0.019-0.103,0.034-0.153,0.054
	c-0.054,0.016-0.105,0.039-0.159,0.055c-0.047,0.016-0.097,0.025-0.144,0.038c-0.022,0.007-0.049,0.016-0.07,0.022
	c-0.073,0.017-0.144,0.032-0.217,0.044c-0.108,0.02-0.221,0.035-0.329,0.048c-0.144,0.017-0.284,0.029-0.399,0.039
	c-0.159-0.01-0.286-0.013-0.417-0.025c-0.112-0.014-0.223-0.029-0.335-0.048c-0.064-0.01-0.125-0.029-0.185-0.045
	c-0.026-0.007-0.051-0.01-0.074-0.016c-0.086-0.023-0.172-0.042-0.255-0.07C9.285,17.063,9.208,17.027,9.128,17
	c-0.051-0.023-0.102-0.043-0.153-0.064c-0.077-0.035-0.154-0.073-0.229-0.111c-0.103-0.055-0.202-0.108-0.297-0.17
	c-0.108-0.07-0.211-0.149-0.313-0.229c-0.195-0.146-0.37-0.316-0.533-0.501c-0.108-0.121-0.207-0.256-0.3-0.389
	c-0.061-0.089-0.112-0.18-0.166-0.269c-0.044-0.079-0.086-0.159-0.127-0.241c-0.042-0.09-0.086-0.18-0.125-0.272
	c-0.025-0.063-0.048-0.133-0.07-0.201c-0.02-0.061-0.039-0.117-0.058-0.178c-0.016-0.055-0.025-0.108-0.038-0.162
	c-0.013-0.059-0.029-0.119-0.042-0.18c-0.01-0.035-0.012-0.066-0.019-0.102c-0.006-0.048-0.016-0.096-0.019-0.147
	c-0.006-0.09-0.013-0.179-0.016-0.271c-0.006-0.125-0.009-0.249-0.009-0.371c0-0.08,0.006-0.159,0.013-0.239
	c0.009-0.082,0.02-0.165,0.035-0.248c0.013-0.077,0.029-0.157,0.045-0.236c0.013-0.051,0.029-0.104,0.044-0.159
	c0.006-0.021,0.01-0.045,0.016-0.067c0.025-0.079,0.051-0.159,0.08-0.24c0.039-0.101,0.074-0.203,0.119-0.302
	c0.041-0.093,0.089-0.183,0.14-0.271c0.048-0.086,0.095-0.172,0.146-0.256c0.045-0.066,0.096-0.134,0.144-0.197
	c0.051-0.07,0.104-0.138,0.156-0.208C7.61,10.645,7.671,10.57,7.75,10.52c0.057-0.039,0.121-0.067,0.185-0.09
	c0.092-0.034,0.188-0.034,0.28-0.031c0.042,0.003,0.08,0.009,0.115,0.023c0.048,0.014,0.096,0.035,0.141,0.057
	c0.025,0.013,0.048,0.032,0.07,0.044c0.112,0.073,0.182,0.176,0.236,0.291c0.019,0.044,0.029,0.095,0.038,0.147
	c0.01,0.054,0.013,0.112,0.013,0.166c-0.003,0.061-0.016,0.121-0.042,0.179c-0.019,0.035-0.026,0.076-0.048,0.108
	c-0.044,0.064-0.089,0.127-0.143,0.188c-0.081,0.096-0.154,0.194-0.217,0.3c-0.077,0.122-0.147,0.246-0.195,0.379
	c-0.028,0.081-0.063,0.157-0.089,0.237c-0.017,0.047-0.026,0.095-0.039,0.146c-0.016,0.063-0.029,0.129-0.045,0.192
	c0,0.003-0.002,0.006-0.002,0.009c-0.016,0.191-0.045,0.381-0.029,0.571c0.01,0.096,0.016,0.191,0.031,0.284
	c0.007,0.063,0.03,0.125,0.042,0.185c0.012,0.054,0.023,0.108,0.038,0.159c0.02,0.064,0.045,0.132,0.07,0.192
	c0.039,0.089,0.077,0.175,0.119,0.262c0.028,0.058,0.063,0.111,0.099,0.165c0.051,0.078,0.105,0.15,0.159,0.227
	c0.083,0.116,0.182,0.221,0.288,0.316c0.115,0.099,0.233,0.197,0.363,0.274c0.092,0.054,0.178,0.108,0.271,0.155
	c0.052,0.029,0.106,0.049,0.16,0.067c0.054,0.023,0.105,0.049,0.163,0.064c0.063,0.02,0.13,0.035,0.194,0.051
	c0.032,0.009,0.067,0.02,0.099,0.028c0.003,0.004,0.009,0.004,0.013,0.004c0.111,0.013,0.22,0.025,0.332,0.035
	c0.086,0.006,0.176,0.012,0.262,0.009c0.092-0.003,0.182-0.016,0.272-0.024c0.048-0.007,0.095-0.01,0.143-0.02
	c0.032-0.004,0.064-0.013,0.092-0.023c0.055-0.012,0.108-0.024,0.16-0.04c0.059-0.02,0.115-0.039,0.172-0.061
	c0.081-0.032,0.159-0.064,0.233-0.1c0.07-0.032,0.135-0.07,0.197-0.111c0.105-0.069,0.218-0.137,0.316-0.221
	c0.112-0.089,0.221-0.188,0.31-0.303c0.073-0.092,0.149-0.188,0.217-0.287c0.067-0.104,0.127-0.214,0.186-0.325
	c0.038-0.083,0.067-0.173,0.099-0.258c0.028-0.087,0.058-0.173,0.077-0.259c0.019-0.076,0.024-0.156,0.037-0.235
	c0.022-0.142,0.036-0.281,0.028-0.427c-0.003-0.081-0.009-0.161-0.019-0.24c-0.013-0.097-0.025-0.188-0.047-0.278
	c-0.02-0.086-0.052-0.17-0.077-0.252c-0.038-0.134-0.096-0.262-0.163-0.383c-0.044-0.087-0.096-0.173-0.153-0.252
	c-0.076-0.105-0.165-0.205-0.241-0.307c-0.043-0.061-0.081-0.128-0.105-0.198c-0.035-0.098-0.052-0.194-0.043-0.296
	c0.008-0.054,0.023-0.108,0.043-0.163c0.016-0.047,0.037-0.093,0.063-0.136c0.073-0.126,0.179-0.208,0.311-0.266
	c0.118-0.054,0.245-0.064,0.37-0.048c0.073,0.009,0.143,0.034,0.21,0.07c0.103,0.051,0.185,0.127,0.255,0.216
	c0.055,0.07,0.112,0.138,0.167,0.211c0.073,0.103,0.144,0.204,0.21,0.313c0.058,0.089,0.105,0.181,0.152,0.273
	c0.043,0.076,0.077,0.151,0.112,0.227c0.022,0.049,0.035,0.1,0.055,0.146c0.022,0.064,0.051,0.127,0.073,0.195
	c0.021,0.063,0.035,0.128,0.054,0.191c0.006,0.021,0.013,0.045,0.02,0.067c0.019,0.083,0.038,0.164,0.057,0.251
	c0.008,0.03,0.011,0.062,0.016,0.09c0.008,0.058,0.017,0.115,0.02,0.169c0.011,0.086,0.014,0.173,0.017,0.262
	C14.581,13.206,14.584,13.331,14.584,13.455"/>
<path fill="#ffffff" d="M11.291,8.931v4.303c0,0.1-0.013,0.191-0.044,0.284c-0.042,0.121-0.112,0.218-0.21,0.3
	c-0.063,0.054-0.132,0.09-0.205,0.121c-0.089,0.035-0.185,0.035-0.281,0.032c-0.089,0-0.172-0.029-0.249-0.067
	c-0.125-0.06-0.223-0.149-0.29-0.271c-0.035-0.062-0.057-0.128-0.077-0.198c-0.02-0.079-0.013-0.159-0.013-0.239
	C9.92,12.485,9.92,11.773,9.92,11.062h0.003V8.804c0-0.099,0.032-0.188,0.073-0.278c0.039-0.074,0.086-0.134,0.144-0.191
	c0.067-0.063,0.146-0.111,0.239-0.144c0.076-0.025,0.156-0.044,0.236-0.042c0.103,0.007,0.199,0.026,0.291,0.074
	c0.089,0.044,0.166,0.105,0.229,0.182c0.049,0.06,0.084,0.127,0.112,0.201C11.285,8.714,11.291,8.822,11.291,8.931"/>
</svg>
