<?xml version="1.0" encoding="utf-8"?>
<!-- Generator: Adobe Illustrator 15.0.0, SVG Export Plug-In . SVG Version: 6.00 Build 0)  -->
<!DOCTYPE svg PUBLIC "-//W3C//DTD SVG 1.1//EN" "http://www.w3.org/Graphics/SVG/1.1/DTD/svg11.dtd">
<svg version="1.1" id="Layer_1" xmlns="http://www.w3.org/2000/svg" xmlns:xlink="http://www.w3.org/1999/xlink" x="0px" y="0px"
	 width="19px" height="21px" viewBox="0 0 19 21" enable-background="new 0 0 19 21" xml:space="preserve">
<polygon fill="#FFFFFF" points="7.878,0 6.881,5.675 17.751,10.475 18.748,4.712 "/>
<polygon fill="#FFFFFF" points="5.816,16.531 10.13,18.443 10.747,16.078 6.434,14.135 "/>
<path fill="#FFFFFF" d="M1.444,9.976L0,15.688l11.283,4.986l1.308-5.641L1.444,9.976z M11.189,16.014l-0.723,2.771
	c-0.015,0.058-0.055,0.106-0.109,0.133c-0.028,0.015-0.06,0.021-0.09,0.021c-0.027,0-0.058-0.006-0.082-0.017l-4.696-2.082
	c-0.092-0.041-0.142-0.144-0.116-0.239l0.722-2.804c0.016-0.06,0.056-0.108,0.11-0.136c0.056-0.025,0.119-0.027,0.175-0.002
	l4.696,2.115C11.167,15.814,11.216,15.916,11.189,16.014"/>
<path fill="#FFFFFF" d="M6.536,6.088L1.789,9.494l11.008,4.954l4.645-3.44L6.536,6.088z M13.055,12.866
	c-0.037,0.075-0.111,0.12-0.188,0.12c-0.03,0-0.06-0.008-0.089-0.021L4.402,9.079c-0.103-0.048-0.148-0.17-0.1-0.273
	c0.048-0.104,0.17-0.148,0.274-0.101l8.376,3.887C13.057,12.641,13.102,12.764,13.055,12.866 M14.027,12.036
	c-0.033,0.075-0.108,0.12-0.188,0.12c-0.027,0-0.058-0.008-0.086-0.021L5.378,8.249c-0.103-0.048-0.148-0.17-0.1-0.274
	c0.048-0.104,0.171-0.147,0.274-0.1l8.378,3.887C14.032,11.811,14.077,11.934,14.027,12.036 M14.809,11.359
	c-0.031,0-0.061-0.006-0.088-0.021L6.344,7.453C6.24,7.405,6.195,7.282,6.243,7.179c0.048-0.104,0.171-0.148,0.274-0.1l8.375,3.887
	c0.104,0.048,0.148,0.171,0.103,0.274C14.959,11.314,14.885,11.359,14.809,11.359"/>
</svg>
