<?xml version="1.0" encoding="utf-8"?>
<!-- Generator: Adobe Illustrator 15.0.0, SVG Export Plug-In . SVG Version: 6.00 Build 0)  -->
<!DOCTYPE svg PUBLIC "-//W3C//DTD SVG 1.1//EN" "http://www.w3.org/Graphics/SVG/1.1/DTD/svg11.dtd">
<svg version="1.1" id="Layer_1" xmlns="http://www.w3.org/2000/svg" xmlns:xlink="http://www.w3.org/1999/xlink" x="0px" y="0px"
	 width="30px" height="27px" viewBox="0 0 30 27" enable-background="new 0 0 30 27" xml:space="preserve">
<path fill="none" d="M2761.512-17.073"/>
<polyline fill="#39b0d2 " points="29.96,16.144 17.762,16.144 17.762,15.707 29.96,15.707 "/>
<rect x="0.227" y="26.287" fill="#39b0d2 " width="16.991" height="0.609"/>
<rect x="2.495" y="4.153" transform="matrix(0.9497 -0.3132 0.3132 0.9497 -0.7178 4.9283)" fill="#39b0d2 " width="24.974" height="1.092"/>
<path fill-rule="evenodd" clip-rule="evenodd" fill="#39b0d2 " d="M13.696,20.063c-1.597-1.423-3.194-2.844-4.791-4.267
	c-0.135-0.119-0.225-0.118-0.361,0.001c-1.599,1.426-3.198,2.851-4.798,4.273c-0.076,0.067-0.125,0.14-0.078,0.234
	c0.047,0.094,0.141,0.112,0.247,0.112c0.322-0.003,0.644-0.001,0.965-0.001h0.124v4.772h2.688v-0.116c0-0.862,0-1.725,0-2.589
	c0-0.169,0.071-0.231,0.262-0.231c0.506,0,1.011,0,1.517,0c0.211,0,0.281,0.059,0.281,0.245c0,0.857,0,1.714,0,2.569v0.122h2.689
	v-4.782h0.124c0.321,0,0.644,0,0.965,0.002c0.104,0,0.199-0.013,0.246-0.11C13.822,20.2,13.771,20.13,13.696,20.063"/>
<path fill-rule="evenodd" clip-rule="evenodd" fill="#39b0d2 " d="M27.379,11.051c-1.128-1.005-2.26-2.011-3.388-3.017
	c-0.097-0.085-0.159-0.085-0.256,0c-1.131,1.007-2.261,2.015-3.393,3.021c-0.055,0.047-0.089,0.099-0.056,0.166
	c0.032,0.067,0.1,0.08,0.176,0.08c0.227-0.001,0.453,0,0.681,0h0.088v3.374h1.901v-0.083c0-0.609,0-1.219,0-1.829
	c0-0.12,0.049-0.165,0.185-0.165c0.358,0,0.715,0,1.074,0c0.149,0,0.196,0.043,0.196,0.175c0,0.605,0,1.211,0,1.817v0.085h1.903
	v-3.381h0.088c0.228,0,0.454-0.001,0.683,0c0.074,0,0.14-0.008,0.175-0.077C27.468,11.149,27.432,11.099,27.379,11.051"/>
<path fill="#02a393" d="M15.607,3.291c0-0.254-0.28-0.458-0.625-0.458c-0.347,0-0.627,0.204-0.627,0.458v1.04l1.252-0.413V3.291z
	 M7.783,7.646L0.807,26.287h1.178l2.198-5.87c-0.089,0-0.179-0.001-0.268,0c-0.106,0-0.2-0.018-0.247-0.112
	C3.621,20.21,3.67,20.138,3.746,20.07c0.284-0.253,0.566-0.503,0.849-0.757L8.547,8.754l4.076,10.353
	c0.357,0.318,0.716,0.638,1.073,0.955c0.075,0.067,0.126,0.138,0.08,0.235c-0.047,0.098-0.142,0.11-0.246,0.11
	c-0.132-0.002-0.264,0-0.395,0l2.315,5.879h1.186L9.124,7.205L7.783,7.646z M24.207,2.231L23.118,2.59l-4.91,13.117h0.786
	l1.648-4.405c-0.061,0-0.12,0-0.18,0c-0.076,0-0.144-0.013-0.176-0.08c-0.033-0.066,0.001-0.118,0.055-0.166
	c0.197-0.175,0.394-0.35,0.59-0.524l2.804-7.493l2.89,7.341c0.251,0.223,0.503,0.447,0.754,0.671
	c0.053,0.047,0.089,0.098,0.058,0.167c-0.035,0.069-0.101,0.077-0.175,0.077c-0.093,0-0.184,0-0.275,0l1.735,4.413h0.79
	L24.207,2.231z"/>
</svg>
