<?xml version="1.0" encoding="utf-8"?>
<!-- Generator: Adobe Illustrator 15.0.0, SVG Export Plug-In . SVG Version: 6.00 Build 0)  -->
<!DOCTYPE svg PUBLIC "-//W3C//DTD SVG 1.1//EN" "http://www.w3.org/Graphics/SVG/1.1/DTD/svg11.dtd">
<svg version="1.1" id="Layer_1" xmlns="http://www.w3.org/2000/svg" xmlns:xlink="http://www.w3.org/1999/xlink" x="0px" y="0px"
	 width="18px" height="15px" viewBox="0 0 18 15" enable-background="new 0 0 18 15" xml:space="preserve">
<path fill="#39b0d2 " d="M14.93,15.062H2.115c-0.86,0-1.548-0.325-1.89-0.893c-0.34-0.567-0.293-1.308,0.131-2.029l6.44-10.997
	C7.223,0.417,7.851,0,8.522,0c0.672,0,1.301,0.417,1.726,1.143l6.439,10.997c0.425,0.722,0.473,1.462,0.131,2.029
	C16.479,14.736,15.789,15.062,14.93,15.062 M8.522,1.149c-0.231,0-0.483,0.205-0.693,0.561l-6.44,10.996
	c-0.21,0.357-0.259,0.681-0.137,0.883c0.123,0.204,0.438,0.321,0.863,0.321H14.93c0.426,0,0.741-0.117,0.861-0.321
	c0.124-0.202,0.074-0.525-0.136-0.883L9.215,1.71C9.006,1.353,8.753,1.149,8.522,1.149"/>
<path fill="#02a393" d="M9.25,3.69v2.454l-0.518,4.194H8.354l-0.44-4.303V3.69H9.25z M9.25,12.939H7.914v-1.851H9.25V12.939z"/>
</svg>
