<?xml version="1.0" encoding="utf-8"?>
<!-- Generator: Adobe Illustrator 15.0.0, SVG Export Plug-In . SVG Version: 6.00 Build 0)  -->
<!DOCTYPE svg PUBLIC "-//W3C//DTD SVG 1.1//EN" "http://www.w3.org/Graphics/SVG/1.1/DTD/svg11.dtd">
<svg version="1.1" id="Layer_1" xmlns="http://www.w3.org/2000/svg" xmlns:xlink="http://www.w3.org/1999/xlink" x="0px" y="0px"
	 width="21px" height="29px" viewBox="0 0 21 29" enable-background="new 0 0 21 29" xml:space="preserve">
<path fill-rule="evenodd" clip-rule="evenodd" fill="#39b0d2 " d="M11.861,10.129c0.436,3.708-0.419,6.989-2.18,10.059
	C9.4,19.369,9.139,18.61,8.766,17.873c-0.366-0.716-0.848-1.408-1.309-2.061c-0.728,1.668-1.392,3.214-2.073,4.75
	c-1.406,3.172-0.987,5.433,1.466,7.857c0.083,0.081,0.183,0.142,0.205,0.329c-0.301-0.121-0.607-0.226-0.902-0.361
	c-2.925-1.354-5.004-3.427-5.55-6.731c-0.376-2.272,0.024-4.47,1.018-6.514c0.898-1.848,1.918-3.64,2.952-5.414
	c1.634-2.803,3.093-5.671,3.88-8.839c0.066-0.274,0.138-0.546,0.227-0.893c0.465,0.438,0.891,0.826,1.303,1.222
	c2.919,2.803,5.766,5.67,7.983,9.089c2.125,3.274,3.227,6.833,2.92,10.766c-0.3,3.796-3.158,7.076-6.827,7.861
	c-0.073,0.015-0.147,0.019-0.172,0.023c0.595-0.69,1.288-1.34,1.792-2.112c2.463-3.776,2.404-7.669,0.379-11.6
	C15.052,13.294,13.613,11.677,11.861,10.129"/>
</svg>
