<?xml version="1.0" encoding="utf-8"?>
<!-- Generator: Adobe Illustrator 15.0.0, SVG Export Plug-In . SVG Version: 6.00 Build 0)  -->
<!DOCTYPE svg PUBLIC "-//W3C//DTD SVG 1.1//EN" "http://www.w3.org/Graphics/SVG/1.1/DTD/svg11.dtd">
<svg version="1.1" id="Layer_1" xmlns="http://www.w3.org/2000/svg" xmlns:xlink="http://www.w3.org/1999/xlink" x="0px" y="0px"
	 width="20px" height="18px" viewBox="0 0 20 18" enable-background="new 0 0 20 18" xml:space="preserve">
<path fill-rule="evenodd" clip-rule="evenodd" fill="#39b0d2 " d="M1.385,8.699c0.004-0.014,0.013-0.028,0.013-0.041
	c0.004-0.063,0.006-0.124,0.011-0.186c0.008-0.117,0.016-0.233,0.027-0.351c0.012-0.116,0.024-0.233,0.04-0.349
	c0.019-0.138,0.039-0.275,0.063-0.412c0.049-0.274,0.113-0.544,0.189-0.812C1.856,6.094,2.021,5.652,2.22,5.223
	c0.14-0.301,0.297-0.594,0.471-0.877c0.162-0.265,0.337-0.521,0.525-0.767C3.393,3.346,3.58,3.123,3.779,2.911
	C3.93,2.751,4.088,2.599,4.247,2.447c0.28-0.268,0.584-0.508,0.899-0.732c0.245-0.174,0.498-0.336,0.761-0.481
	C6.059,1.151,6.211,1.07,6.365,0.991C6.461,0.942,6.562,0.9,6.66,0.854C6.674,0.847,6.687,0.841,6.706,0.83
	C6.58,0.552,6.456,0.277,6.331,0c0.042-0.001,3.01,0.93,3.153,0.989c0,0,0.001,0.002,0.002,0.004c0,0,0.001,0.003,0,0.004
	C9.485,1.005,9.483,1.014,9.48,1.021C9.02,2.015,8.559,3.01,8.099,4.003c0,0.003-0.004,0.005-0.011,0.01
	C7.961,3.735,7.836,3.458,7.708,3.177c-1.105,0.5-1.999,1.244-2.677,2.242c-0.68,1-1.05,2.108-1.088,3.316
	c-0.038,1.204,0.226,2.339,0.842,3.39c-0.735,0.425-1.467,0.846-2.203,1.271c-0.014-0.023-0.026-0.042-0.035-0.062
	c-0.074-0.135-0.149-0.269-0.22-0.405c-0.17-0.335-0.318-0.68-0.442-1.035c-0.078-0.219-0.145-0.442-0.203-0.666
	c-0.062-0.245-0.118-0.489-0.156-0.737c-0.032-0.208-0.061-0.418-0.087-0.628C1.428,9.766,1.423,9.667,1.417,9.568
	C1.41,9.454,1.405,9.338,1.398,9.223c0-0.014-0.009-0.028-0.013-0.042V8.699z"/>
<path fill-rule="evenodd" clip-rule="evenodd" fill="#39b0d2 " d="M15.618,9.581c0.313,0.029,0.616,0.059,0.924,0.088
	c0.005-0.026,0.01-0.045,0.011-0.064c0.01-0.139,0.024-0.278,0.028-0.417c0.004-0.158-0.001-0.315-0.004-0.472
	c-0.002-0.083-0.007-0.167-0.015-0.25c-0.015-0.152-0.03-0.303-0.052-0.454c-0.043-0.292-0.11-0.579-0.195-0.861
	c-0.084-0.275-0.186-0.542-0.305-0.803c-0.097-0.211-0.204-0.415-0.323-0.613c-0.171-0.287-0.364-0.558-0.579-0.814
	c-0.146-0.175-0.302-0.342-0.468-0.499c-0.254-0.241-0.524-0.462-0.815-0.659c-0.208-0.141-0.425-0.269-0.647-0.385
	c-0.262-0.136-0.53-0.25-0.806-0.353c-0.274-0.103-0.556-0.183-0.843-0.246C11.32,2.735,11.111,2.701,10.9,2.678
	c-0.197-0.021-0.394-0.033-0.592-0.033c-0.015,0-0.029-0.002-0.047-0.002c-0.002-0.016-0.005-0.028-0.005-0.041
	c0-0.132,0-0.265,0-0.397c0.002-0.211,0.005-0.422,0.006-0.633c0.002-0.212,0.002-0.423,0.004-0.635
	c0.001-0.22,0.004-0.439,0.007-0.659c0.001-0.057,0.004-0.113,0.006-0.174c0.046-0.01,0.091-0.005,0.136-0.005
	c0.049,0.001,0.1,0.003,0.15,0.006c0.158,0.009,0.317,0.016,0.476,0.029c0.151,0.014,0.303,0.03,0.454,0.051
	c0.245,0.033,0.488,0.08,0.731,0.135c0.315,0.072,0.626,0.162,0.93,0.272c0.303,0.11,0.604,0.233,0.896,0.371
	c0.293,0.138,0.578,0.292,0.854,0.459c0.382,0.234,0.745,0.496,1.086,0.786c0.175,0.147,0.342,0.302,0.505,0.462
	c0.203,0.198,0.393,0.407,0.574,0.625c0.191,0.229,0.37,0.468,0.537,0.716c0.217,0.323,0.411,0.659,0.587,1.007
	c0.174,0.348,0.322,0.706,0.45,1.074c0.086,0.25,0.159,0.504,0.224,0.761c0.078,0.323,0.14,0.649,0.183,0.978
	c0.021,0.159,0.033,0.319,0.045,0.48c0.011,0.136,0.016,0.274,0.021,0.411c0.004,0.118,0.008,0.237,0.006,0.356
	c-0.002,0.143-0.009,0.285-0.018,0.427c-0.01,0.144-0.024,0.286-0.037,0.43c-0.001,0.005,0.001,0.009,0.002,0.021
	c0.017,0.003,0.032,0.008,0.05,0.01c0.229,0.022,0.457,0.043,0.686,0.066c0.061,0.005,0.121,0.012,0.195,0.02
	c-0.828,0.752-1.648,1.496-2.467,2.24C17.5,12.267,15.66,9.66,15.618,9.581"/>
<path fill-rule="evenodd" clip-rule="evenodd" fill="#39b0d2 " d="M7.059,13.313c-0.185,0.254-0.367,0.5-0.55,0.751
	c0.015,0.013,0.026,0.022,0.038,0.031c0.173,0.125,0.351,0.241,0.535,0.349c0.324,0.189,0.662,0.347,1.014,0.476
	c0.294,0.105,0.596,0.19,0.903,0.251c0.252,0.051,0.505,0.087,0.761,0.106c0.191,0.014,0.382,0.022,0.572,0.019
	c0.364-0.007,0.725-0.04,1.084-0.109c0.275-0.054,0.549-0.123,0.815-0.211c0.329-0.109,0.646-0.245,0.95-0.406
	c0.266-0.139,0.518-0.298,0.76-0.474c0.199-0.144,0.392-0.298,0.57-0.468c0.115-0.106,0.228-0.214,0.336-0.324
	c0.164-0.17,0.316-0.351,0.459-0.54c0.141-0.19,0.27-0.388,0.387-0.595c0.008-0.012,0.017-0.024,0.027-0.043
	c0.736,0.43,1.469,0.86,2.205,1.292c-0.009,0.016-0.016,0.029-0.022,0.042c-0.126,0.22-0.264,0.434-0.409,0.64
	c-0.146,0.208-0.303,0.409-0.468,0.604c-0.201,0.239-0.415,0.467-0.642,0.68c-0.24,0.229-0.494,0.442-0.759,0.644
	c-0.278,0.21-0.567,0.404-0.867,0.583c-0.404,0.241-0.829,0.445-1.268,0.619c-0.296,0.114-0.599,0.213-0.906,0.298
	c-0.275,0.075-0.555,0.137-0.837,0.184c-0.191,0.033-0.383,0.054-0.572,0.077c-0.152,0.016-0.305,0.027-0.456,0.036
	c-0.251,0.018-0.503,0.018-0.754,0.009c-0.208-0.007-0.417-0.028-0.625-0.045c-0.416-0.039-0.826-0.113-1.231-0.214
	c-0.402-0.099-0.797-0.222-1.18-0.38c-0.186-0.076-0.369-0.159-0.552-0.242c-0.27-0.125-0.529-0.268-0.781-0.424
	c-0.192-0.119-0.377-0.25-0.566-0.376c-0.013-0.009-0.028-0.018-0.045-0.028c-0.183,0.241-0.364,0.48-0.552,0.73
	c-0.232-1.082-0.462-2.154-0.693-3.229c0.015-0.003,0.025-0.007,0.036-0.009c0.25-0.022,0.5-0.047,0.75-0.069
	c0.2-0.019,0.4-0.036,0.6-0.056c0.228-0.021,0.456-0.043,0.685-0.065c0.154-0.014,0.31-0.027,0.464-0.042
	c0.237-0.022,0.473-0.047,0.71-0.069C7.007,13.312,7.028,13.313,7.059,13.313"/>
<path fill-rule="evenodd" clip-rule="evenodd" fill="#02a393" d="M12.502,5.32h0.855c0.005,0.018,0.012,0.036,0.014,0.055
	c0.022,0.232,0.048,0.464,0.065,0.696c0.021,0.251,0.042,0.503,0.047,0.755c0.006,0.278,0.004,0.557-0.011,0.835
	c-0.017,0.311-0.039,0.622-0.08,0.931c-0.061,0.454-0.165,0.9-0.323,1.332c-0.201,0.545-0.482,1.041-0.894,1.457
	c-0.299,0.3-0.645,0.532-1.037,0.688c-0.371,0.147-0.762,0.23-1.163,0.243c-0.245,0.008-0.493,0.001-0.737-0.024
	c-0.285-0.031-0.568-0.089-0.85-0.139c-0.106-0.02-0.211-0.053-0.327-0.08c0.017-0.206,0.029-0.402,0.048-0.599
	c0.028-0.289,0.1-0.57,0.191-0.845c0.106-0.318,0.247-0.622,0.416-0.914c0.193-0.332,0.414-0.642,0.665-0.929
	C9.533,8.61,9.69,8.443,9.852,8.28c0.166-0.169,0.333-0.336,0.513-0.491c0.233-0.201,0.478-0.389,0.718-0.583
	c0.012-0.009,0.021-0.023,0.043-0.051c-0.032,0.007-0.046,0.007-0.057,0.012c-0.583,0.212-1.14,0.474-1.661,0.815
	C9.072,8.202,8.756,8.447,8.467,8.724C8.127,9.05,7.831,9.411,7.581,9.811c-0.261,0.418-0.466,0.861-0.593,1.339
	c-0.002,0.007-0.008,0.014-0.017,0.027c-0.073-0.322-0.108-0.64-0.123-0.959c-0.013-0.295,0.005-0.59,0.052-0.881
	c0.06-0.373,0.16-0.732,0.314-1.077c0.251-0.561,0.606-1.046,1.071-1.446C8.468,6.66,8.661,6.516,8.859,6.383
	c0.503-0.337,1.057-0.565,1.637-0.731c0.632-0.181,1.278-0.279,1.934-0.308C12.455,5.342,12.479,5.329,12.502,5.32"/>
</svg>
