<?xml version="1.0" encoding="utf-8"?>
<!-- Generator: Adobe Illustrator 15.0.0, SVG Export Plug-In . SVG Version: 6.00 Build 0)  -->
<!DOCTYPE svg PUBLIC "-//W3C//DTD SVG 1.1//EN" "http://www.w3.org/Graphics/SVG/1.1/DTD/svg11.dtd">
<svg version="1.1" id="Layer_1" xmlns="http://www.w3.org/2000/svg" xmlns:xlink="http://www.w3.org/1999/xlink" x="0px" y="0px"
	 width="17px" height="23px" viewBox="0 0 17 23" enable-background="new 0 0 17 23" xml:space="preserve">
<rect x="3.631" y="11.268" fill="#02a393" width="9.235" height="1.126"/>
<rect x="3.631" y="14.12" fill="#02a393" width="9.235" height="1.127"/>
<rect x="3.631" y="16.974" fill="#02a393" width="9.235" height="1.125"/>
<path fill="#39b0d2 " d="M10.209,3.855l2.594,0.512c0.016,0.159,0.146,0.285,0.309,0.285h0.353c0.175,0,0.315-0.142,0.315-0.316
	V3.718h2.569c0.111,0,0.202-0.091,0.202-0.204c0-0.111-0.091-0.203-0.202-0.203h-2.569V1.34h2.569c0.111,0,0.202-0.091,0.202-0.203
	s-0.091-0.203-0.202-0.203h-2.569V0.316C13.779,0.142,13.639,0,13.464,0h-0.353c-0.163,0-0.293,0.126-0.309,0.284l-2.594,0.513
	c-0.101,0-0.183,0.09-0.183,0.203v0.679H1.872C0.84,1.679,0,2.519,0,3.551v17.534c0,1.002,0.817,1.819,1.82,1.819h12.856
	c1.003,0,1.82-0.817,1.82-1.819V8.331H3.631v1.295h11.57v11.459c0,0.289-0.235,0.523-0.524,0.523H1.82
	c-0.29,0-0.525-0.234-0.525-0.523V3.551c0-0.318,0.259-0.577,0.577-0.577h8.154v0.679C10.026,3.765,10.108,3.855,10.209,3.855"/>
<rect x="3.631" y="4.377" fill="#02a393" width="3.952" height="2.478"/>
</svg>
