<?xml version="1.0" encoding="utf-8"?>
<!-- Generator: Adobe Illustrator 15.0.0, SVG Export Plug-In . SVG Version: 6.00 Build 0)  -->
<!DOCTYPE svg PUBLIC "-//W3C//DTD SVG 1.1//EN" "http://www.w3.org/Graphics/SVG/1.1/DTD/svg11.dtd">
<svg version="1.1" id="Layer_1" xmlns="http://www.w3.org/2000/svg" xmlns:xlink="http://www.w3.org/1999/xlink" x="0px" y="0px"
	 width="22px" height="20px" viewBox="0 0 22 20" enable-background="new 0 0 22 20" xml:space="preserve">
<path fill="#FFFFFF" d="M4.456,2.772C4.14,3.086,4.139,3.597,4.453,3.911l1.154,1.16c0.342-0.415,0.724-0.797,1.148-1.129
	L5.594,2.775C5.281,2.461,4.771,2.459,4.456,2.772 M16.753,2.79l-1.164,1.164c0.428,0.331,0.814,0.709,1.154,1.124l1.149-1.147
	c0.315-0.315,0.315-0.825,0-1.141C17.577,2.477,17.067,2.477,16.753,2.79 M11.155,0c-0.445,0-0.805,0.36-0.805,0.806l-0.001,1.669
	l0.223-0.031h1.264l0.1,0.021c0.008,0.001,0.016,0.003,0.023,0.005V0.807C11.96,0.361,11.601,0,11.155,0"/>
<path fill="#FFFFFF" d="M17.319,8.988c-0.225-2.514-2.055-4.655-4.49-5.316c-0.359-0.097-0.729-0.153-1.094-0.229h-1.163
	c-0.214,0.039-0.43,0.076-0.644,0.116c-3.03,0.565-5.255,3.5-4.967,6.568c0.194,2.074,1.197,3.66,2.945,4.781
	c0.116,0.073,0.148,0.15,0.147,0.277c-0.005,0.641-0.003,1.048-0.002,1.688h0.003v0.081v2.521h1.319v0.565h3.642v-0.565h1.239
	v-2.521v-0.134V16.76c0.002-0.563,0.006-0.945-0.002-1.533c-0.004-0.16,0.045-0.248,0.181-0.339
	C16.54,13.482,17.546,11.521,17.319,8.988 M13.019,18.139H9.292v-0.813h3.726V18.139z M13.692,13.877
	c-0.161,0.096-0.318,0.196-0.486,0.279c-0.144,0.07-0.197,0.16-0.195,0.328c0.005,0.438,0.006,0.814,0.006,1.194H9.292
	c0-0.205,0-0.418,0-0.661c-0.001-0.244,0.075-0.537-0.031-0.722c-0.106-0.187-0.397-0.265-0.605-0.394
	c-1.664-1.036-2.514-2.529-2.453-4.492c0.067-2.187,1.696-4.108,3.842-4.596c2.654-0.602,5.297,1.04,5.931,3.687
	C16.48,10.604,15.568,12.753,13.692,13.877"/>
</svg>
