<?xml version="1.0" encoding="utf-8"?>
<!-- Generator: Adobe Illustrator 15.0.0, SVG Export Plug-In . SVG Version: 6.00 Build 0)  -->
<!DOCTYPE svg PUBLIC "-//W3C//DTD SVG 1.1//EN" "http://www.w3.org/Graphics/SVG/1.1/DTD/svg11.dtd">
<svg version="1.1" id="Layer_1" xmlns="http://www.w3.org/2000/svg" xmlns:xlink="http://www.w3.org/1999/xlink" x="0px" y="0px"
	 width="29px" height="28px" viewBox="0 0 29 28" enable-background="new 0 0 29 28" xml:space="preserve">
<path fill="#39b0d2 " d="M24.605,4.049c-0.008-0.008-0.012-0.018-0.021-0.027c-0.036-0.038-0.08-0.073-0.122-0.104
	C21.861,1.495,18.332,0,14.448,0c-1.67,0-3.272,0.278-4.765,0.783C9.631,0.795,9.585,0.811,9.539,0.832
	c-1.925,0.675-3.66,1.737-5.107,3.087C4.388,3.949,4.346,3.984,4.31,4.022C4.302,4.031,4.295,4.041,4.288,4.049
	C1.642,6.586,0,10.1,0,13.979c0,3.881,1.648,7.393,4.295,9.927c0.022,0.021,0.045,0.042,0.068,0.063
	c1.462,1.383,3.219,2.476,5.179,3.164c0.043,0.018,0.088,0.032,0.133,0.042c1.496,0.508,3.099,0.788,4.772,0.788
	c3.937,0,7.508-1.537,10.116-4.017c0.009-0.009,0.019-0.016,0.026-0.023c2.656-2.536,4.306-6.056,4.306-9.943
	C28.896,10.1,27.251,6.586,24.605,4.049 M27.435,13.285h-4.813c-0.021-1.817-0.211-3.432-0.467-4.792
	c-0.136-0.736-0.297-1.424-0.466-2.063c1.068-0.365,1.811-0.751,2.268-1.03C25.973,7.492,27.264,10.245,27.435,13.285 M22.881,4.404
	c-0.37,0.203-0.891,0.447-1.588,0.69c-0.297-0.913-0.604-1.68-0.873-2.293C21.303,3.245,22.129,3.785,22.881,4.404 M8.335,2.871
	c-0.261,0.591-0.55,1.322-0.828,2.181C6.863,4.823,6.371,4.59,6.021,4.4C6.729,3.813,7.506,3.3,8.335,2.871 M4.938,5.401
	c0.443,0.27,1.15,0.641,2.168,0.997C6.932,7.045,6.768,7.743,6.629,8.493c-0.253,1.36-0.444,2.975-0.465,4.792H1.459
	C1.629,10.245,2.923,7.492,4.938,5.401 M1.459,14.676h4.722c0.076,2.073,0.393,4.374,1.067,6.836
	c-1.091,0.369-1.848,0.759-2.309,1.042C2.923,20.463,1.629,17.714,1.459,14.676 M6.016,23.549c0.375-0.205,0.912-0.456,1.631-0.702
	c0.244,0.76,0.515,1.53,0.834,2.315C7.594,24.718,6.771,24.172,6.016,23.549 M19.765,22.431c-0.37,1.154-0.816,2.335-1.371,3.545
	c-1.028,0.318-2.108,0.515-3.227,0.574v-2.645c-0.167-0.004-0.76-0.038-1.438-0.236v2.881c-1.167-0.062-2.29-0.274-3.356-0.615
	c-0.544-1.192-0.982-2.354-1.347-3.486c0.895-0.216,1.962-0.399,3.233-0.5c-0.24-0.351-0.381-0.799-0.365-1.365
	c-1.266,0.112-2.346,0.306-3.268,0.53c-0.632-2.317-0.93-4.485-1.006-6.438h5.357c0.099-0.641,0.082-1.089,0.025-1.391h-5.4
	c0.02-1.698,0.195-3.207,0.431-4.481c0.131-0.713,0.284-1.377,0.451-1.997C8.573,6.831,8.669,6.852,8.76,6.874
	C8.576,6.599,8.444,6.318,8.383,6.096c-0.115-0.44-0.046-0.899,0.195-1.29C8.764,4.5,9.041,4.265,9.37,4.121
	c0.408-1.032,0.778-1.746,0.965-2.082c1.076-0.348,2.214-0.567,3.394-0.628v3.178c0.085,0.09,0.158,0.193,0.218,0.305
	c0.289-0.332,0.73-0.535,1.218-0.512h0.003V1.411c1.13,0.06,2.222,0.261,3.261,0.584c0.239,0.433,0.876,1.652,1.476,3.506
	c-0.398,0.098-0.84,0.187-1.312,0.266c0.078,0.138,0.136,0.289,0.164,0.448c0.201-0.063,0.42-0.085,0.645-0.057
	c0.821,0.105,1.401,0.833,1.297,1.627c-0.016,0.107-0.047,0.23-0.092,0.359c0.316,1.499,0.541,3.224,0.571,5.141h-0.495
	c-0.063,0.453-0.147,0.918-0.237,1.391h0.718c-0.075,1.977-0.376,4.131-0.997,6.413c-0.391-0.093-0.804-0.181-1.253-0.258
	c-0.188,0.543-0.443,0.97-0.736,1.299C18.756,22.215,19.286,22.317,19.765,22.431 M20.277,25.229
	c0.334-0.816,0.616-1.615,0.87-2.405c0.764,0.256,1.333,0.519,1.726,0.732C22.082,24.206,21.214,24.773,20.277,25.229
	 M23.953,22.554c-0.475-0.291-1.26-0.697-2.406-1.077c0.669-2.447,0.983-4.737,1.057-6.801h4.831
	C27.264,17.715,25.97,20.463,23.953,22.554"/>
<path fill="#02a393" d="M15.025,7.084c0.454,0.022,0.863-0.775,0.886-1.214c0.022-0.438-0.328-0.811-0.781-0.834
	c-0.454-0.021-0.838,0.317-0.861,0.756C14.247,6.231,14.574,7.063,15.025,7.084 M19.042,8.841c0.45,0.057,0.923-0.705,0.98-1.139
	c0.06-0.437-0.26-0.835-0.709-0.892s-0.861,0.25-0.92,0.687C18.335,7.932,18.592,8.787,19.042,8.841 M17.198,7.72
	c0.453,0.028,0.872-0.764,0.901-1.201c0.027-0.438-0.316-0.815-0.771-0.843c-0.452-0.029-0.842,0.306-0.87,0.744
	S16.745,7.693,17.198,7.72 M12.607,6.803c0.454,0,0.823-0.813,0.823-1.255c0-0.439-0.369-0.797-0.823-0.797
	s-0.821,0.358-0.821,0.797C11.786,5.99,12.153,6.803,12.607,6.803 M15.579,7.52c0,0-6.402-1.84-6.049,2.214
	c0.172,1.97,3.077,2.16,3.077,2.16s2.697,0.195-0.274,6.938c-0.304,0.69-0.425,1.26-0.439,1.752
	c-0.016,0.566,0.125,1.015,0.365,1.365c0.871,1.272,2.961,1.302,2.961,1.302s1.766,0.206,2.956-1.12
	c0.293-0.329,0.547-0.756,0.736-1.299c0.185-0.536,0.309-1.177,0.321-1.972C19.329,13.066,22.697,9.706,15.579,7.52 M10.514,7.277
	c0.58-0.145,0.777-1.3,0.629-1.861c-0.147-0.562-0.739-0.901-1.318-0.756c-0.58,0.141-0.931,0.713-0.783,1.273
	C9.188,6.495,9.934,7.421,10.514,7.277"/>
</svg>
