<?xml version="1.0" encoding="utf-8"?>
<!-- Generator: Adobe Illustrator 15.0.0, SVG Export Plug-In . SVG Version: 6.00 Build 0)  -->
<!DOCTYPE svg PUBLIC "-//W3C//DTD SVG 1.1//EN" "http://www.w3.org/Graphics/SVG/1.1/DTD/svg11.dtd">
<svg version="1.1" id="Layer_1" xmlns="http://www.w3.org/2000/svg" xmlns:xlink="http://www.w3.org/1999/xlink" x="0px" y="0px"
	 width="23px" height="23px" viewBox="0 0 23 23" enable-background="new 0 0 23 23" xml:space="preserve">
<path fill="#FFFFFF" d="M11.437,9.574c0.049,0,0.094,0.011,0.143,0.015l0.927-0.931c-0.333-0.126-0.692-0.199-1.069-0.199
	c-1.666,0-3.021,1.354-3.021,3.02c0,1.666,1.355,3.021,3.021,3.021c1.666,0,3.02-1.354,3.02-3.021c0-0.354-0.063-0.692-0.177-1.009
	l-0.944,0.948c0.001,0.02,0.006,0.041,0.006,0.061c0,1.051-0.854,1.905-1.904,1.905c-1.05,0-1.905-0.854-1.905-1.905
	C9.532,10.429,10.386,9.574,11.437,9.574 M18.827,4.108L18.984,0l-4.559,4.575l0.502,3.448l3.449,0.488l4.558-4.576L18.827,4.108z
	 M15.677,9.068l-0.44,0.441c0.308,0.59,0.483,1.258,0.483,1.969c0,2.362-1.922,4.284-4.283,4.284c-2.362,0-4.284-1.922-4.284-4.284
	s1.922-4.283,4.284-4.283c0.73,0,1.418,0.185,2.021,0.508l0.424-0.425l-0.097-0.654c-0.71-0.345-1.506-0.545-2.348-0.545
	c-2.977,0-5.399,2.422-5.399,5.399c0,2.977,2.422,5.4,5.399,5.4c2.978,0,5.399-2.424,5.399-5.4c0-0.832-0.195-1.618-0.532-2.322
	L15.677,9.068z"/>
<path fill="#FFFFFF" d="M21.933,8.696h-1.777c-0.051-0.162-0.114-0.32-0.176-0.478l-1.271,1.277l-1.084-0.152
	c0.231,0.669,0.364,1.385,0.364,2.133c0,3.613-2.939,6.554-6.552,6.554s-6.552-2.939-6.552-6.554c0-3.612,2.94-6.55,6.552-6.55
	c0.756,0,1.479,0.135,2.155,0.371L13.439,4.25l1.295-1.3c-0.17-0.066-0.34-0.133-0.514-0.188V0.984c0-0.52-0.423-0.941-0.942-0.941
	H9.597c-0.52,0-0.942,0.421-0.942,0.941V2.76C8.168,2.916,7.696,3.112,7.241,3.348L5.982,2.091c-0.368-0.368-0.964-0.368-1.332,0
	L2.049,4.691c-0.368,0.368-0.368,0.964,0,1.333l1.256,1.258C3.071,7.737,2.875,8.209,2.72,8.696H0.942C0.422,8.696,0,9.118,0,9.638
	v3.68c0,0.52,0.422,0.941,0.942,0.941h1.776c0.155,0.488,0.352,0.961,0.586,1.415l-1.256,1.257c-0.368,0.367-0.368,0.964,0,1.332
	l2.601,2.603c0.368,0.368,0.964,0.367,1.332,0L7.24,19.61c0.455,0.235,0.927,0.432,1.415,0.587v1.775
	c0,0.521,0.422,0.942,0.942,0.942h3.681c0.52,0,0.942-0.422,0.942-0.942v-1.776c0.487-0.154,0.959-0.351,1.414-0.586l1.256,1.256
	c0.368,0.367,0.965,0.368,1.333,0l2.603-2.603c0.177-0.176,0.275-0.417,0.275-0.665c0-0.251-0.099-0.489-0.275-0.667l-1.256-1.257
	c0.233-0.455,0.43-0.928,0.585-1.415h1.777c0.521,0,0.941-0.422,0.941-0.941v-3.68C22.874,9.118,22.453,8.696,21.933,8.696
	 M14.181,8.741l-0.06-0.386l-2.507,2.517c-0.229-0.062-0.48-0.004-0.659,0.175c-0.266,0.267-0.266,0.698,0.001,0.963
	c0.267,0.265,0.698,0.264,0.963-0.003c0.179-0.179,0.233-0.43,0.173-0.659l2.491-2.501L14.181,8.741z"/>
</svg>
