<?xml version="1.0" encoding="utf-8"?>
<!-- Generator: Adobe Illustrator 15.0.0, SVG Export Plug-In . SVG Version: 6.00 Build 0)  -->
<!DOCTYPE svg PUBLIC "-//W3C//DTD SVG 1.1//EN" "http://www.w3.org/Graphics/SVG/1.1/DTD/svg11.dtd">
<svg version="1.1" id="Layer_1" xmlns="http://www.w3.org/2000/svg" xmlns:xlink="http://www.w3.org/1999/xlink" x="0px" y="0px"
	 width="16px" height="27px" viewBox="0 0 16 27" enable-background="new 0 0 16 27" xml:space="preserve">
<path fill="#ffffff" d="M1750.328,213.61h-30.011c-3.835,0-6.974,2.955-7.278,6.711h44.567
	C1757.302,216.565,1754.162,213.61,1750.328,213.61 M1713.009,226.321v46.112c0,3.402,2.327,6.252,5.474,7.067v1.829h10.811v-1.587
	h4.728v-6.996h-5.139c-1.171,0-2.12-0.949-2.12-2.12V259.76c0-1.17,0.949-2.119,2.12-2.119h12.62c1.17,0,2.119,0.949,2.119,2.119
	v10.867c0,1.171-0.949,2.12-2.119,2.12h-4.424v6.996h4.336v1.587h10.811v-1.844c3.115-0.837,5.412-3.673,5.412-7.053v-46.112
	H1713.009z"/>
<path fill="#ffffff" d="M1730.251,265.069c0,2.729,2.212,4.94,4.94,4.94s4.94-2.212,4.94-4.94c0-2.729-2.212-4.941-4.94-4.941
	S1730.251,262.34,1730.251,265.069"/>
<rect x="1725.333" y="211.008" fill="#ffffff" width="19.979" height="2.603"/>
<path fill="#ffffff" d="M13.336,1.179H2.715c-1.357,0-2.468,1.045-2.576,2.375H15.91C15.803,2.224,14.691,1.179,13.336,1.179
	 M0.129,5.677v16.317c0,1.204,0.824,2.213,1.938,2.501v0.647h3.825v-0.562h1.673v-2.476H5.746c-0.415,0-0.75-0.336-0.75-0.751
	v-3.846c0-0.414,0.336-0.75,0.75-0.75h4.466c0.414,0,0.75,0.336,0.75,0.75v3.846c0,0.415-0.336,0.751-0.75,0.751H8.646v2.476h1.534
	v0.562h3.826V24.49c1.102-0.296,1.915-1.3,1.915-2.496V5.677H0.129z"/>
<path fill="#ffffff" d="M6.23,19.389c0,0.966,0.783,1.748,1.749,1.748c0.965,0,1.749-0.782,1.749-1.748
	c0-0.967-0.783-1.749-1.749-1.749C7.013,17.64,6.23,18.422,6.23,19.389"/>
<rect x="4.49" y="0.258" fill="#ffffff" width="7.07" height="0.921"/>
</svg>
