<?xml version="1.0" encoding="utf-8"?>
<!-- Generator: Adobe Illustrator 15.0.0, SVG Export Plug-In . SVG Version: 6.00 Build 0)  -->
<!DOCTYPE svg PUBLIC "-//W3C//DTD SVG 1.1//EN" "http://www.w3.org/Graphics/SVG/1.1/DTD/svg11.dtd">
<svg version="1.1" id="Layer_1" xmlns="http://www.w3.org/2000/svg" xmlns:xlink="http://www.w3.org/1999/xlink" x="0px" y="0px"
	 width="20px" height="27px" viewBox="0 0 20 27" enable-background="new 0 0 20 27" xml:space="preserve">
<path fill="#ffffff" d="M17.325,0.47H2.707c-1.477,0-2.673,1.196-2.673,2.672v20.295c0,1.373,1.036,2.503,2.368,2.654v0.598h3.953
	v-0.58h7.313v0.58h3.952v-0.597c1.336-0.146,2.377-1.279,2.377-2.655V3.142C19.997,1.666,18.802,0.47,17.325,0.47 M14.375,3.603
	c0.488,0,0.884,0.396,0.884,0.884c0,0.488-0.396,0.884-0.884,0.884s-0.884-0.396-0.884-0.884
	C13.491,3.999,13.887,3.603,14.375,3.603 M1.943,4.487c0-0.488,0.396-0.884,0.884-0.884c0.488,0,0.884,0.396,0.884,0.884
	c0,0.488-0.396,0.884-0.884,0.884C2.339,5.371,1.943,4.975,1.943,4.487 M10.016,21.959c-3.756,0-6.802-3.045-6.802-6.802
	c0-3.756,3.045-6.801,6.802-6.801c3.757,0,6.802,3.045,6.802,6.801C16.817,18.914,13.772,21.959,10.016,21.959 M17.18,5.371
	c-0.487,0-0.885-0.396-0.885-0.884c0-0.488,0.397-0.884,0.885-0.884c0.488,0,0.884,0.396,0.884,0.884
	C18.063,4.975,17.668,5.371,17.18,5.371"/>
<path fill="#ffffff" d="M15.863,15.176c0,3.229-2.618,5.848-5.848,5.848s-5.847-2.618-5.847-5.848c0,0,1.433,1.662,2.986,0
	c0,0,1.402,1.662,2.861,0l0.13,0.14c1.412,1.426,2.73-0.14,2.73-0.14c1.34,1.434,2.591,0.395,2.908,0.081L15.863,15.176z"/>
</svg>
