<?xml version="1.0" encoding="utf-8"?>
<!-- Generator: Adobe Illustrator 15.0.0, SVG Export Plug-In . SVG Version: 6.00 Build 0)  -->
<!DOCTYPE svg PUBLIC "-//W3C//DTD SVG 1.1//EN" "http://www.w3.org/Graphics/SVG/1.1/DTD/svg11.dtd">
<svg version="1.1" id="Layer_1" xmlns="http://www.w3.org/2000/svg" xmlns:xlink="http://www.w3.org/1999/xlink" x="0px" y="0px"
	 width="23px" height="19px" viewBox="0 0 23 19" enable-background="new 0 0 23 19" xml:space="preserve">
<path fill="#FFFFFF" d="M21.721,12.415c0.172-0.271,0.178-0.717-0.014-1.146c-0.182-0.416-0.497-0.701-0.8-0.767
	c-1.748-3.161-5.312-5.788-9.456-5.809C8.52,4.677,6.755,5.255,5.688,6.231L4.162,6.346l0.421,1.541l0.004-0.001
	c-0.412,1.083-0.5,2.373-0.519,3.771c-1.045-0.698-1.797-1.805-2.028-3.07C1.583,6.077,2.705,3.983,4.785,3.358
	c0.367,0.637,1.043,1.06,1.809,1.06l0,0c0.083,0,0.168-0.005,0.253-0.015l0.466-0.057L7.27,3.979l1.212-0.15L8.37,2.887L7.157,3.035
	L6.978,1.547L8.19,1.399L8.078,0.455l-1.212,0.15l-0.06-0.496L6.341,0.166c-0.557,0.069-1.055,0.355-1.4,0.803
	C4.613,1.394,4.465,1.917,4.507,2.45C1.954,3.217,0.57,5.743,1.119,8.758c0.313,1.721,1.422,3.2,2.942,3.992l-0.007,1.285
	c0.471-0.6,1.139-1.046,1.927-1.212c0.228-0.048,0.46-0.072,0.691-0.072c1.572,0,2.915,1.085,3.265,2.635
	c0.099,0.439,0.11,0.87,0.049,1.284l6.407,0.035c-0.078-1.479,0.933-2.848,2.394-3.146c0.198-0.039,0.399-0.061,0.601-0.061
	c1.164,0,2.174,0.667,2.67,1.677l0.002-0.522C22.061,13.915,21.943,13.162,21.721,12.415 M9.385,9.441L5.624,9.199
	c0.313-1.936,1.338-3.353,4.583-3.637C9.635,6.963,9.474,8.337,9.385,9.441 M10.231,9.496c0.102-1.139,0.303-2.607,0.922-3.982
	c0.11-0.003,0.214-0.008,0.33-0.008c3.324,0,6.203,2.053,7.667,4.564L10.231,9.496z"/>
<path fill="#FFFFFF" d="M18.896,14.117c-1.295,0.266-2.146,1.537-1.914,2.855c0.179,1.006,0.957,1.801,1.945,1.986
	c0.071,0.014,0.146,0.023,0.221,0.038C19.295,18.999,19.439,19,19.587,19c0.015-0.003,0.027-0.009,0.042-0.011
	c0.105-0.019,0.213-0.029,0.318-0.054c1.265-0.307,2.111-1.582,1.813-2.939C21.471,14.68,20.199,13.852,18.896,14.117
	 M19.616,17.534c-0.041,0.011-0.087,0.017-0.132,0.022c-0.006,0.002-0.01,0.004-0.018,0.004c-0.06,0-0.119,0-0.182,0
	c-0.031-0.006-0.063-0.01-0.094-0.017c-0.412-0.076-0.735-0.408-0.812-0.828c-0.098-0.549,0.259-1.081,0.8-1.19
	c0.543-0.11,1.071,0.233,1.192,0.783C20.5,16.875,20.146,17.408,19.616,17.534"/>
<path fill="#FFFFFF" d="M6.095,13.381c-1.479,0.311-2.446,1.771-2.17,3.282c0.208,1.153,1.107,2.06,2.241,2.265
	c0.084,0.016,0.168,0.028,0.252,0.043H6.92c0.016-0.005,0.033-0.009,0.049-0.013c0.12-0.022,0.244-0.034,0.362-0.063
	c1.447-0.358,2.409-1.824,2.057-3.379C9.049,14.008,7.587,13.066,6.095,13.381 M6.945,17.291c-0.05,0.014-0.101,0.02-0.15,0.027
	c-0.007,0-0.014,0.002-0.02,0.004h-0.21c-0.035-0.006-0.071-0.012-0.105-0.018c-0.473-0.086-0.847-0.464-0.935-0.945
	c-0.114-0.627,0.289-1.237,0.905-1.366c0.622-0.132,1.231,0.261,1.374,0.89C7.951,16.531,7.549,17.143,6.945,17.291"/>
</svg>
