<?xml version="1.0" encoding="utf-8"?>
<!-- Generator: Adobe Illustrator 15.0.0, SVG Export Plug-In . SVG Version: 6.00 Build 0)  -->
<!DOCTYPE svg PUBLIC "-//W3C//DTD SVG 1.1//EN" "http://www.w3.org/Graphics/SVG/1.1/DTD/svg11.dtd">
<svg version="1.1" id="Layer_1" xmlns="http://www.w3.org/2000/svg" xmlns:xlink="http://www.w3.org/1999/xlink" x="0px" y="0px"
	 width="40px" height="40px" viewBox="0 0 40 40" enable-background="new 0 0 40 40" xml:space="preserve">
<polygon fill="#39b0d2 " points="26.962,13.131 19.176,19.924 20.004,20.752 "/>
<path fill="#39b0d2 " d="M19.835,34.623L19.835,34.623c-8.251,0-14.963-6.509-14.963-14.508c0-8,6.712-14.507,14.963-14.507
	S34.8,12.116,34.8,20.115C34.8,28.114,28.086,34.623,19.835,34.623 M19.835,7.314c-7.31,0-13.257,5.743-13.257,12.801
	s5.947,12.801,13.257,12.801c7.312,0,13.258-5.742,13.258-12.801S27.146,7.314,19.835,7.314"/>
<path fill="#39b0d2 " d="M21.054,20.067c0,0.646-0.524,1.17-1.171,1.17c-0.647,0-1.172-0.524-1.172-1.17
	c0-0.647,0.524-1.172,1.172-1.172C20.529,18.896,21.054,19.42,21.054,20.067"/>
<text transform="matrix(1 0 0 1 13.1499 28.5605)" fill="#39b0d2 " font-family="'Arial'" font-size="8.1007">$$$</text>
<path fill="#39b0d2 " d="M20.292,9.956v4.225c1.342,0.089,2.571,0.597,3.557,1.396l2.991-2.991
	C25.078,11.031,22.796,10.055,20.292,9.956"/>
<path fill="#39b0d2 " d="M12.89,12.594l2.991,2.991c0.986-0.804,2.22-1.315,3.566-1.404V9.956
	C16.938,10.055,14.652,11.034,12.89,12.594"/>
<path fill="#39b0d2 " d="M24.468,16.152c1.052,1.114,1.706,2.608,1.729,4.253h4.22c-0.023-2.808-1.151-5.356-2.967-7.235
	L24.468,16.152z"/>
<path fill="#39b0d2 " d="M12.281,13.179c-1.811,1.878-2.936,4.422-2.959,7.226h4.22c0.023-1.64,0.674-3.13,1.721-4.244L12.281,13.179
	z"/>
</svg>
