<?xml version="1.0" encoding="utf-8"?>
<!-- Generator: Adobe Illustrator 15.0.0, SVG Export Plug-In . SVG Version: 6.00 Build 0)  -->
<!DOCTYPE svg PUBLIC "-//W3C//DTD SVG 1.1//EN" "http://www.w3.org/Graphics/SVG/1.1/DTD/svg11.dtd">
<svg version="1.1" id="Layer_1" xmlns="http://www.w3.org/2000/svg" xmlns:xlink="http://www.w3.org/1999/xlink" x="0px" y="0px"
	 width="20px" height="18px" viewBox="0 0 20 18" enable-background="new 0 0 20 18" xml:space="preserve">
<path fill="#02a393" d="M5.453,1.049v3.17H6.77l1.119-1.265L5.453,1.049z M10.634,3.469l3.434-2.686H5.792l3.433,2.686
	C9.621,3.778,10.239,3.778,10.634,3.469 M10.954,3.751c-0.286,0.224-0.655,0.336-1.024,0.336S9.193,3.975,8.906,3.751L8.23,3.221
	L7.349,4.219h5.162L11.63,3.221L10.954,3.751z M11.972,2.955l1.118,1.265h1.318v-3.17L11.972,2.955z"/>
<path fill="#02a393" d="M3.703,5.377v5.063c0.415,0,0.837,0,1.254,0L7.09,8.027L3.703,5.377z M10.908,8.744l4.775-3.737H4.176
	l4.775,3.737C9.5,9.174,10.359,9.174,10.908,8.744 M12.769,8.027l2.134,2.414c0.417,0,0.84,0,1.254,0V5.378L12.769,8.027z
	 M11.354,9.136c-0.4,0.313-0.911,0.469-1.424,0.469S8.905,9.449,8.506,9.136L7.565,8.4l-1.804,2.04c0.431,0,0.84-0.001,1.203-0.002
	c0.122,0,0.197,0.032,0.267,0.126c0.292,0.399,0.596,0.791,0.89,1.187c0.059,0.076,0.119,0.111,0.226,0.111
	c1.053-0.004,2.108-0.004,3.161,0c0.112,0,0.178-0.037,0.238-0.12c0.295-0.396,0.598-0.786,0.89-1.185
	c0.065-0.089,0.139-0.119,0.256-0.119c0.362,0.001,0.774,0.002,1.206,0.002L12.294,8.4L11.354,9.136z"/>
<path fill-rule="evenodd" clip-rule="evenodd" fill="#02a393" d="M19.107,11.442c0-0.081-0.016-0.171-0.053-0.245
	c-0.763-1.526-1.571-3.134-2.336-4.658v2.837c0.264,0.514,0.523,1.028,0.788,1.542c0.059,0.114,0.109,0.228,0.175,0.364h-0.239
	c-1.415,0-2.831,0-4.246-0.002c-0.127,0-0.206,0.028-0.279,0.117c-0.325,0.398-0.658,0.791-0.984,1.188
	c-0.066,0.082-0.137,0.121-0.262,0.118c-1.162-0.002-2.324-0.002-3.487,0c-0.118,0-0.185-0.033-0.249-0.111
	c-0.325-0.396-0.661-0.79-0.982-1.185c-0.077-0.097-0.159-0.131-0.294-0.127c-1.415,0.002-2.831,0.002-4.246,0.002H2.185
	c0.021-0.051,0.031-0.079,0.045-0.106c0.293-0.577,0.589-1.156,0.883-1.735V6.603c-0.769,1.533-1.542,3.066-2.309,4.602
	c-0.033,0.064-0.05,0.145-0.05,0.217c-0.003,1.87-0.002,3.738-0.001,5.608c0,0.053,0.022,0.104,0.034,0.158H19.11
	C19.11,15.274,19.11,13.358,19.107,11.442"/>
</svg>
