<?xml version="1.0" encoding="utf-8"?>
<!-- Generator: Adobe Illustrator 15.0.0, SVG Export Plug-In . SVG Version: 6.00 Build 0)  -->
<!DOCTYPE svg PUBLIC "-//W3C//DTD SVG 1.1//EN" "http://www.w3.org/Graphics/SVG/1.1/DTD/svg11.dtd">
<svg version="1.1" id="Layer_1" xmlns="http://www.w3.org/2000/svg" xmlns:xlink="http://www.w3.org/1999/xlink" x="0px" y="0px"
	 width="19px" height="21px" viewBox="0 0 19 21" enable-background="new 0 0 19 21" xml:space="preserve">
<path fill="#FFFFFF" d="M16.561,13.197h-0.969c-0.085-0.266-0.191-0.522-0.318-0.771l0.685-0.685
	c0.097-0.099,0.149-0.229,0.149-0.363c0-0.137-0.053-0.267-0.149-0.362L14.54,9.598c-0.199-0.201-0.524-0.201-0.726,0l-0.685,0.685
	c-0.249-0.129-0.506-0.235-0.771-0.32V8.996c0-0.283-0.229-0.513-0.514-0.513H9.841c-0.283,0-0.513,0.23-0.513,0.513v0.967
	c-0.265,0.084-0.522,0.191-0.771,0.32L7.872,9.599c-0.2-0.201-0.525-0.201-0.726,0l-1.417,1.417c-0.201,0.2-0.201,0.525,0,0.728
	l0.684,0.685c-0.127,0.247-0.235,0.506-0.319,0.771H5.126c-0.283,0-0.513,0.229-0.513,0.513v2.004c0,0.284,0.23,0.513,0.513,0.513
	h0.968C6.178,16.496,6.286,16.753,6.413,17l-0.684,0.686c-0.201,0.2-0.201,0.524,0,0.726l1.417,1.417
	c0.201,0.201,0.525,0.201,0.726,0l0.685-0.684c0.248,0.129,0.505,0.233,0.771,0.318v0.969c0,0.282,0.23,0.512,0.513,0.512h2.007
	c0.282,0,0.512-0.229,0.512-0.512v-0.969c0.267-0.085,0.522-0.191,0.771-0.318l0.684,0.684c0.201,0.201,0.526,0.201,0.728,0
	l1.417-1.417c0.098-0.097,0.15-0.228,0.15-0.362s-0.055-0.268-0.15-0.363l-0.686-0.685c0.129-0.247,0.234-0.506,0.319-0.771h0.97
	c0.283,0,0.513-0.229,0.513-0.514V13.71C17.073,13.427,16.844,13.197,16.561,13.197 M10.843,16.859
	c-1.184,0-2.146-0.963-2.146-2.147s0.963-2.146,2.146-2.146s2.146,0.963,2.146,2.146C12.989,15.896,12.025,16.859,10.843,16.859"/>
<path fill="#FFFFFF" d="M11.119,5.197l-0.574-0.241c0.01-0.149,0.01-0.298,0.001-0.447l0.577-0.237
	c0.262-0.108,0.388-0.408,0.279-0.67l-0.564-1.377C10.785,2.1,10.686,2,10.561,1.947c-0.127-0.053-0.268-0.053-0.395-0.001
	L9.591,2.183C9.492,2.071,9.387,1.964,9.276,1.866l0.24-0.575c0.052-0.125,0.052-0.267,0.001-0.393
	C9.465,0.772,9.366,0.672,9.24,0.62L7.868,0.046C7.604-0.063,7.305,0.061,7.196,0.322l-0.24,0.574
	C6.807,0.887,6.658,0.887,6.508,0.895L6.272,0.318C6.221,0.193,6.121,0.092,5.996,0.04C5.932,0.014,5.864,0,5.797,0
	C5.731,0,5.666,0.013,5.603,0.039L4.226,0.604c-0.263,0.107-0.388,0.408-0.28,0.669L4.183,1.85c-0.112,0.1-0.218,0.205-0.317,0.316
	l-0.575-0.24C3.028,1.817,2.729,1.941,2.619,2.201L2.046,3.574C1.994,3.699,1.993,3.841,2.044,3.967
	c0.052,0.125,0.152,0.226,0.277,0.278l0.574,0.24C2.887,4.633,2.886,4.783,2.894,4.932L2.318,5.169
	c-0.262,0.107-0.387,0.407-0.279,0.67l0.564,1.376C2.655,7.341,2.755,7.441,2.88,7.494c0.125,0.053,0.266,0.052,0.393,0.001
	l0.576-0.237c0.1,0.112,0.205,0.218,0.315,0.318L3.925,8.15C3.815,8.411,3.939,8.712,4.2,8.822l1.372,0.574
	c0.125,0.052,0.267,0.053,0.394,0.002C6.091,9.345,6.191,9.246,6.245,9.12l0.24-0.575c0.149,0.01,0.298,0.01,0.447,0.002
	l0.237,0.575c0.107,0.262,0.408,0.387,0.67,0.28l1.376-0.565c0.124-0.052,0.226-0.15,0.278-0.277
	c0.052-0.125,0.053-0.267,0.001-0.393L9.259,7.592c0.112-0.099,0.217-0.204,0.316-0.315l0.575,0.24
	c0.262,0.109,0.562-0.015,0.67-0.275l0.574-1.373C11.505,5.606,11.381,5.306,11.119,5.197 M8.313,5.386
	c-0.27,0.646-0.895,1.061-1.592,1.061c-0.23,0-0.454-0.046-0.667-0.135c-0.424-0.177-0.755-0.51-0.93-0.936S4.95,4.48,5.128,4.055
	c0.269-0.644,0.894-1.06,1.592-1.06c0.229,0,0.454,0.046,0.666,0.135C8.262,3.496,8.678,4.508,8.313,5.386"/>
</svg>
