<?xml version="1.0" encoding="utf-8"?>
<!-- Generator: Adobe Illustrator 15.0.0, SVG Export Plug-In . SVG Version: 6.00 Build 0)  -->
<!DOCTYPE svg PUBLIC "-//W3C//DTD SVG 1.1//EN" "http://www.w3.org/Graphics/SVG/1.1/DTD/svg11.dtd">
<svg version="1.1" id="Layer_1" xmlns="http://www.w3.org/2000/svg" xmlns:xlink="http://www.w3.org/1999/xlink" x="0px" y="0px"
	 width="23px" height="23px" viewBox="0 0 23 23" enable-background="new 0 0 23 23" xml:space="preserve">
<path fill="#FFFFFF" d="M11.465,22.23L11.465,22.23C5.143,22.23,0,17.244,0,11.115C0,4.986,5.143,0,11.465,0
	c6.321,0,11.467,4.986,11.467,11.115C22.932,17.244,17.786,22.23,11.465,22.23 M11.465,1.307c-5.601,0-10.158,4.4-10.158,9.808
	s4.557,9.41,10.158,9.41c5.602,0,10.158-4.002,10.158-9.41C21.623,5.708,17.066,1.307,11.465,1.307"/>
<path fill="#FFFFFF" d="M11.465,5.341c-1.646,0-2.48,0.928-2.48,2.758c0,1.864,1.31,3.256,2.48,3.256s2.48-1.392,2.48-3.256
	C13.945,6.269,13.111,5.341,11.465,5.341"/>
<path fill="#FFFFFF" d="M16.801,14.895l-0.459-2.373c-0.066-0.231-0.285-0.508-0.563-0.662l-2.094-1.29
	c-0.564,0.792-1.371,1.315-2.222,1.315c-0.848,0-1.656-0.522-2.22-1.315L7.15,11.86c-0.313,0.193-0.504,0.447-0.572,0.678
	L6.13,14.895c-0.155,0.56,0.426,1.082,1.201,1.082h8.267C16.374,15.977,16.955,15.453,16.801,14.895"/>
</svg>
