<?xml version="1.0" encoding="utf-8"?>
<!-- Generator: Adobe Illustrator 15.0.0, SVG Export Plug-In . SVG Version: 6.00 Build 0)  -->
<!DOCTYPE svg PUBLIC "-//W3C//DTD SVG 1.1//EN" "http://www.w3.org/Graphics/SVG/1.1/DTD/svg11.dtd">
<svg version="1.1" id="Capa_1" xmlns="http://www.w3.org/2000/svg" xmlns:xlink="http://www.w3.org/1999/xlink" x="0px" y="0px"
	 width="612px" height="612px" viewBox="0 0 612 612" enable-background="new 0 0 612 612" xml:space="preserve">
<g>
	<g>
		<path fill="#88BE1C" d="M212.406,411.055c8.153,0,14.786-6.633,14.786-14.787v-10.999c27.581-3.434,46.152-20.08,46.152-47.439
			v-0.468c-0.003-27.091-17.78-38.417-49.288-46.634c-26.853-6.879-33.511-10.196-33.511-20.417v-0.442
			c0-7.543,6.878-13.537,19.961-13.537c10.663,0,21.326,3.785,32.666,10.43c2.654,1.574,5.307,2.458,8.661,2.458
			c8.87,0,15.97-6.893,15.97-15.787c0-6.658-3.784-11.326-7.568-13.537c-9.779-6.215-20.859-10.35-33.042-12.328v-11.705
			c0-8.153-6.631-14.786-14.786-14.786c-8.181,0-14.798,6.631-14.798,14.786v11.599c-24.513,4.525-41.041,21.483-41.041,45.515
			v0.442c0,30.858,20.222,39.521,51.495,47.528c25.982,6.658,31.314,11.078,31.314,19.753v0.442c0,9.104-8.453,14.654-22.445,14.654
			c-15.086,0-27.958-5.344-39.741-14.007c-2.224-1.534-5.318-3.066-9.741-3.066c-8.908,0-15.981,6.852-15.981,15.761
			c0,5.317,2.653,10.195,6.424,12.848c12.043,8.632,25.696,14.069,39.715,16.696v12.238
			C197.608,404.42,204.228,411.055,212.406,411.055z"/>
		<path fill="#046799" d="M343.706,287.904c0,17.957,14.552,32.509,32.51,32.509h186.933c17.958,0.002,32.51-14.551,32.51-32.509
			c0-17.958-14.552-32.51-32.51-32.51H376.216C358.256,255.394,343.706,269.947,343.706,287.904z"/>
		<path fill="#046799" d="M299.011,418.23H81.362V193.769h355.816v13.003c0,17.956,14.553,32.509,32.51,32.509
			c17.956,0,32.509-14.55,32.509-32.509v-45.515c0-17.956-14.551-32.509-32.509-32.509H48.851c-17.956,0-32.509,14.55-32.509,32.509
			v289.485c0,17.956,14.553,32.51,32.509,32.51H299.01c17.958,0,32.512-14.556,32.512-32.512
			C331.521,432.782,316.97,418.23,299.011,418.23z"/>
		<path fill="#046799" d="M563.148,418.232H376.216c-17.96,0-32.51,14.552-32.51,32.51c0,17.956,14.552,32.51,32.51,32.51h186.933
			c17.958,0,32.51-14.554,32.51-32.51C595.658,432.782,581.106,418.232,563.148,418.232z"/>
		<path fill="#046799" d="M563.148,336.814H376.216c-17.96,0-32.51,14.552-32.51,32.508c0,17.958,14.552,32.511,32.51,32.511
			h186.933c17.958-0.001,32.51-14.552,32.51-32.511C595.658,351.364,581.106,336.814,563.148,336.814z"/>
	</g>
</g>
</svg>
