<?xml version="1.0" encoding="utf-8"?>
<!-- Generator: Adobe Illustrator 15.0.0, SVG Export Plug-In . SVG Version: 6.00 Build 0)  -->
<!DOCTYPE svg PUBLIC "-//W3C//DTD SVG 1.1//EN" "http://www.w3.org/Graphics/SVG/1.1/DTD/svg11.dtd">
<svg version="1.1" id="Layer_1" xmlns="http://www.w3.org/2000/svg" xmlns:xlink="http://www.w3.org/1999/xlink" x="0px" y="0px"
	 width="176px" height="31px" viewBox="0 0 176 31" enable-background="new 0 0 176 31" xml:space="preserve">
<path fill="#96C93D" d="M34.482,12.03c0.447,0.305,1.069,0.517,1.727,0.517c1.187,0,1.914-0.669,1.914-1.644
	c0-0.881-0.458-1.41-1.608-1.844c-1.269-0.458-2.032-1.116-2.032-2.185c0-1.162,0.951-2.008,2.302-2.008
	c0.741,0,1.304,0.188,1.575,0.364l-0.211,0.482c-0.212-0.152-0.717-0.376-1.398-0.376c-1.28,0-1.715,0.822-1.715,1.444
	c0,0.87,0.505,1.315,1.645,1.762c1.303,0.528,1.996,1.127,1.996,2.302c0,1.151-0.822,2.173-2.513,2.173
	c-0.681,0-1.479-0.224-1.891-0.528L34.482,12.03z"/>
<path fill="#96C93D" d="M46.862,9.152c-0.069-1.187-0.164-2.643-0.164-3.512h-0.024c-0.293,0.858-0.611,1.774-1.069,2.96
	l-1.667,4.299H43.55l-1.563-4.206c-0.446-1.232-0.787-2.184-1.022-3.054h-0.023c-0.024,0.928-0.083,2.303-0.176,3.618l-0.247,3.642
	h-0.552l0.576-7.917h0.646l1.703,4.568c0.375,0.999,0.646,1.797,0.869,2.561h0.035c0.2-0.728,0.482-1.491,0.882-2.561l1.773-4.568
	h0.669l0.529,7.917h-0.552L46.862,9.152z"/>
<path fill="#96C93D" d="M50.105,10.127l-0.975,2.771h-0.576l2.866-7.916h0.541l2.854,7.916h-0.575l-0.999-2.771H50.105z
	 M53.064,9.657l-0.963-2.643c-0.187-0.552-0.293-0.952-0.411-1.398h-0.023c-0.117,0.458-0.247,0.87-0.412,1.375l-0.975,2.666H53.064
	z"/>
<path fill="#96C93D" d="M56.025,5.089c0.493-0.106,1.163-0.165,1.714-0.165c1.034,0,1.691,0.223,2.138,0.657
	c0.34,0.33,0.552,0.857,0.552,1.41c0,1.068-0.635,1.75-1.551,2.067v0.023c0.634,0.199,1.033,0.798,1.221,1.68
	c0.27,1.233,0.423,1.821,0.587,2.137h-0.576c-0.129-0.234-0.293-0.928-0.505-1.926c-0.247-1.139-0.74-1.656-1.786-1.703h-1.233
	v3.629h-0.563V5.089z M56.588,8.812h1.257c1.221,0,2.021-0.681,2.021-1.727c0-1.209-0.893-1.703-2.138-1.703
	c-0.54,0-0.939,0.058-1.14,0.105V8.812z"/>
<polygon fill="#96C93D" points="63.637,5.453 61.052,5.453 61.052,4.983 66.785,4.983 66.785,5.453 64.2,5.453 64.2,12.899 
	63.637,12.899 "/>
<path fill="#78787A" d="M41.594,29.93c-0.6,0.3-1.745,0.599-3.207,0.599c-2.873,0-5.622-1.832-5.622-6.042
	c0-3.524,2.273-6.186,6.026-6.186c1.515,0,2.396,0.334,2.749,0.51l-0.264,0.706c-0.6-0.299-1.462-0.512-2.467-0.512
	c-3.207,0-5.163,2.079-5.163,5.498c0,3.225,1.833,5.304,5.021,5.304c1.004,0,1.991-0.212,2.678-0.547L41.594,29.93z"/>
<path fill="#78787A" d="M49.98,28.291c0,0.74,0.019,1.409,0.07,2.063h-0.792l-0.053-1.516H49.17
	c-0.423,0.792-1.393,1.709-2.89,1.709c-1.074,0-2.89-0.547-2.89-3.736v-4.915h0.846v4.757c0,1.832,0.563,3.154,2.238,3.154
	c1.232,0,2.132-0.863,2.502-1.709c0.088-0.264,0.159-0.599,0.159-0.934v-5.269h0.845V28.291z"/>
<path fill="#78787A" d="M52.463,29.243c0.458,0.281,1.146,0.581,1.904,0.581c1.338,0,1.973-0.722,1.973-1.604
	c0-0.935-0.564-1.429-1.779-1.92c-1.392-0.529-2.15-1.286-2.15-2.31c0-1.233,0.97-2.289,2.608-2.289
	c0.775,0,1.445,0.229,1.868,0.528l-0.318,0.687c-0.299-0.211-0.846-0.511-1.691-0.511c-1.075,0-1.639,0.687-1.639,1.462
	c0,0.882,0.599,1.252,1.745,1.726c1.374,0.548,2.185,1.233,2.185,2.521c0,1.445-1.128,2.414-2.855,2.414
	c-0.811,0-1.586-0.229-2.149-0.58L52.463,29.243z"/>
<path fill="#78787A" d="M60.551,20.026v1.869h2.414v0.687h-2.414v5.497c0,1.077,0.335,1.745,1.233,1.745
	c0.44,0,0.757-0.053,0.969-0.124l0.106,0.635c-0.282,0.106-0.669,0.193-1.18,0.193c-0.617,0-1.128-0.193-1.445-0.58
	c-0.387-0.44-0.529-1.164-0.529-2.027v-5.339h-1.427v-0.687h1.427v-1.552L60.551,20.026z"/>
<path fill="#78787A" d="M67.898,30.547c-2.185,0-3.876-1.709-3.876-4.352c0-2.89,1.903-4.493,4-4.493
	c2.342,0,3.929,1.761,3.929,4.352c0,3.136-2.167,4.493-4.036,4.493H67.898z M67.952,29.843c1.762,0,3.154-1.587,3.154-3.754
	c0-1.551-0.863-3.683-3.101-3.683c-2.167,0-3.136,1.92-3.136,3.735c0,2.114,1.338,3.701,3.065,3.701H67.952z"/>
<path fill="#78787A" d="M74.101,23.921c0-0.774-0.019-1.356-0.07-2.025h0.793l0.052,1.48h0.035c0.547-0.97,1.357-1.674,2.749-1.674
	c1.163,0,2.062,0.773,2.432,1.831h0.035c0.229-0.494,0.546-0.881,0.864-1.146c0.546-0.44,1.11-0.686,2.008-0.686
	c0.829,0,2.768,0.457,2.768,3.664v4.985H84.92v-4.915c0-1.903-0.741-3.03-2.203-3.03c-1.057,0-1.885,0.792-2.22,1.673
	c-0.071,0.247-0.141,0.529-0.141,0.846v5.427H79.51V25.05c0-1.517-0.723-2.644-2.097-2.644c-1.127,0-2.026,0.916-2.343,1.903
	c-0.07,0.247-0.123,0.527-0.123,0.827v5.215h-0.846V23.921z"/>
<path fill="#78787A" d="M88.654,26.035c0,2.697,1.48,3.771,3.225,3.771c1.232,0,1.867-0.247,2.344-0.477l0.21,0.653
	c-0.316,0.175-1.179,0.545-2.66,0.545c-2.431,0-3.946-1.761-3.946-4.246c0-2.819,1.623-4.58,3.805-4.58
	c2.768,0,3.296,2.607,3.296,3.823c0,0.229,0,0.352-0.035,0.51H88.654z M94.048,25.366c0.017-1.182-0.478-2.96-2.521-2.96
	c-1.868,0-2.66,1.656-2.818,2.96H94.048z"/>
<path fill="#78787A" d="M97.059,24.432c0-0.845-0.019-1.709-0.07-2.536h0.775l0.035,1.709h0.052c0.37-1.075,1.252-1.902,2.397-1.902
	c0.123,0,0.245,0.017,0.352,0.035v0.792c-0.123-0.019-0.247-0.019-0.403-0.019c-1.164,0-1.992,1.006-2.221,2.361
	c-0.054,0.248-0.071,0.529-0.071,0.812v4.668h-0.846V24.432z"/>
<path fill="#78787A" d="M116.159,24.731c-0.106-1.779-0.248-3.963-0.248-5.27h-0.035c-0.438,1.287-0.917,2.662-1.604,4.441
	l-2.501,6.448h-0.583l-2.342-6.309c-0.67-1.849-1.182-3.274-1.533-4.581h-0.035c-0.035,1.394-0.122,3.455-0.265,5.428l-0.37,5.462
	h-0.829l0.862-11.874h0.972l2.555,6.854c0.563,1.496,0.969,2.695,1.304,3.842h0.052c0.3-1.094,0.725-2.239,1.323-3.842l2.661-6.854
	h1.002l0.794,11.874h-0.827L116.159,24.731z"/>
<path fill="#78787A" d="M123.153,30.547c-2.186,0-3.878-1.709-3.878-4.352c0-2.89,1.905-4.493,4.001-4.493
	c2.344,0,3.929,1.761,3.929,4.352c0,3.136-2.166,4.493-4.033,4.493H123.153z M123.208,29.843c1.761,0,3.151-1.587,3.151-3.754
	c0-1.551-0.863-3.683-3.1-3.683c-2.17,0-3.138,1.92-3.138,3.735c0,2.114,1.34,3.701,3.067,3.701H123.208z"/>
<path fill="#78787A" d="M129.338,17.824h0.846v5.657h0.035c0.563-1.094,1.604-1.779,3.1-1.779c2.133,0,3.614,1.796,3.614,4.333
	c0,3.015-1.922,4.512-3.771,4.512c-1.374,0-2.362-0.563-3.03-1.709h-0.035l-0.07,1.516h-0.76c0.056-0.601,0.072-1.339,0.072-1.975
	V17.824z M130.184,27.094c0,0.192,0.019,0.405,0.07,0.615c0.368,1.287,1.462,2.134,2.784,2.134c1.938,0,3.048-1.587,3.048-3.789
	c0-1.939-1.059-3.647-2.977-3.647c-1.235,0-2.414,0.846-2.82,2.255c-0.054,0.211-0.105,0.44-0.105,0.74V27.094z"/>
<path fill="#78787A" d="M139.467,20.203c-0.387,0-0.65-0.335-0.65-0.723c0-0.389,0.299-0.739,0.686-0.739
	c0.39,0,0.672,0.334,0.672,0.739c0,0.388-0.266,0.723-0.688,0.723H139.467z M139.08,21.896h0.847v8.458h-0.847V21.896z"/>
<rect x="142.763" y="17.824" fill="#78787A" width="0.846" height="12.529"/>
<path fill="#78787A" d="M146.622,26.035c0,2.697,1.48,3.771,3.225,3.771c1.232,0,1.867-0.247,2.344-0.477l0.21,0.653
	c-0.316,0.175-1.179,0.545-2.66,0.545c-2.433,0-3.947-1.761-3.947-4.246c0-2.819,1.622-4.58,3.807-4.58
	c2.768,0,3.296,2.607,3.296,3.823c0,0.229,0,0.352-0.035,0.51H146.622z M152.014,25.366c0.017-1.182-0.476-2.96-2.52-2.96
	c-1.868,0-2.66,1.656-2.82,2.96H152.014z"/>
<path fill="#96C93D" d="M157.779,28.788c0.274,0.168,0.676,0.311,1.099,0.311c0.629,0,0.995-0.331,0.995-0.812
	c0-0.442-0.255-0.697-0.895-0.942c-0.775-0.275-1.255-0.677-1.255-1.347c0-0.74,0.613-1.291,1.535-1.291
	c0.488,0,0.839,0.113,1.052,0.233l-0.17,0.502c-0.156-0.086-0.473-0.228-0.902-0.228c-0.648,0-0.896,0.389-0.896,0.712
	c0,0.445,0.291,0.663,0.945,0.917c0.803,0.311,1.212,0.698,1.212,1.396c0,0.732-0.542,1.367-1.662,1.367
	c-0.459,0-0.96-0.134-1.213-0.304L157.779,28.788z"/>
<path fill="#96C93D" d="M164.658,29.381c-0.225,0.114-0.677,0.226-1.256,0.226c-1.339,0-2.347-0.847-2.347-2.403
	c0-1.487,1.008-2.496,2.481-2.496c0.593,0,0.967,0.128,1.128,0.213l-0.148,0.5c-0.231-0.111-0.563-0.198-0.957-0.198
	c-1.114,0-1.855,0.711-1.855,1.959c0,1.164,0.67,1.91,1.827,1.91c0.374,0,0.754-0.076,1-0.197L164.658,29.381z"/>
<path fill="#96C93D" d="M169.431,27.449c-0.035-0.663-0.078-1.459-0.071-2.052h-0.021c-0.163,0.558-0.359,1.149-0.6,1.806
	l-0.839,2.305h-0.465l-0.769-2.264c-0.224-0.667-0.416-1.281-0.55-1.847h-0.015c-0.013,0.593-0.049,1.389-0.089,2.102l-0.129,2.036
	H165.3l0.331-4.75h0.781l0.811,2.297c0.197,0.586,0.359,1.107,0.48,1.6h0.021c0.12-0.478,0.29-0.999,0.502-1.6l0.844-2.297h0.783
	l0.296,4.75h-0.6L169.431,27.449z"/>
<path fill="#96C93D" d="M157.171,24.589c-0.516,0.688-0.89,1.606-0.89,2.881c0,1.255,0.389,2.155,0.89,2.86h-0.485
	c-0.444-0.585-0.925-1.486-0.925-2.86c0.008-1.389,0.48-2.29,0.925-2.881H157.171z"/>
<path fill="#96C93D" d="M174.582,30.33c0.5-0.698,0.888-1.615,0.888-2.881c0-1.262-0.38-2.164-0.888-2.86h0.479
	c0.451,0.577,0.922,1.478,0.922,2.865c0,1.382-0.471,2.276-0.922,2.876H174.582z"/>
<path fill="#96C93D" d="M173.702,25.852c0,0.661-0.519,1.181-1.193,1.181c-0.67,0-1.203-0.52-1.203-1.181
	c0-0.648,0.533-1.167,1.203-1.167C173.184,24.685,173.702,25.203,173.702,25.852 M171.604,25.852c0,0.521,0.383,0.931,0.91,0.931
	c0.513,0,0.889-0.41,0.889-0.924c0-0.519-0.376-0.938-0.895-0.938C171.987,24.92,171.604,25.34,171.604,25.852 M172.322,26.463
	h-0.27v-1.166c0.106-0.021,0.255-0.036,0.448-0.036c0.22,0,0.319,0.036,0.406,0.087c0.063,0.048,0.112,0.141,0.112,0.256
	c0,0.127-0.1,0.228-0.242,0.27v0.014c0.113,0.042,0.178,0.128,0.215,0.284c0.035,0.179,0.056,0.249,0.085,0.292h-0.292
	c-0.035-0.043-0.058-0.148-0.093-0.284c-0.022-0.129-0.093-0.185-0.242-0.185h-0.128V26.463z M172.33,25.803h0.128
	c0.149,0,0.27-0.05,0.27-0.172c0-0.107-0.078-0.178-0.249-0.178c-0.071,0-0.121,0.008-0.148,0.015V25.803z"/>
<path fill="#F8CA18" d="M12.415,19.732c0.237-0.791,1.488-2.535,2.383-4.389c0.053-0.122,0.63-1.352,0.714-2.108
	c0.063-0.546,0.041-1.112-0.071-1.648c-0.035-0.119-0.075-0.239-0.119-0.359c-0.114-0.308-0.252-0.642-0.406-0.985
	c-0.219-0.359-0.479-0.665-0.745-0.91C13.73,8.93,13.27,8.681,12.86,8.515c-0.413-0.164-0.779-0.249-1.082-0.292
	c-0.301-0.047-0.542-0.043-0.702-0.044C10.916,8.18,10.83,8.194,10.83,8.194s0.275,0.214,0.67,0.609
	c0.388,0.389,0.918,0.974,1.207,1.674c0.144,0.349,0.225,0.709,0.222,1.074c-0.001,0.368-0.074,0.748-0.21,1.161
	c-0.136,0.413-0.35,0.849-0.596,1.303c-0.131,0.23-0.272,0.452-0.404,0.662l-0.099,0.162l-0.135,0.195l-0.27,0.39l-0.267,0.409
	c-0.098,0.146-0.191,0.298-0.279,0.456c-0.188,0.301-0.338,0.634-0.491,0.963c-0.294,0.67-0.514,1.391-0.595,2.146
	c-0.086,0.753-0.012,1.544,0.235,2.237c0.248,0.695,0.668,1.262,1.105,1.663c0.441,0.403,0.901,0.65,1.31,0.818
	c0.412,0.165,0.777,0.248,1.08,0.293c0.028,0.004,0.053,0.008,0.08,0.01c-0.698-0.798-1.214-2.126-1.248-2.595
	C11.977,20.867,12.401,19.778,12.415,19.732"/>
<path fill="#F8CA18" d="M15.441,11.587c-0.042-0.202-0.095-0.399-0.163-0.589c-0.097-0.273-0.221-0.524-0.361-0.755
	c0.153,0.344,0.292,0.678,0.406,0.985C15.367,11.349,15.406,11.469,15.441,11.587"/>
<path fill-rule="evenodd" clip-rule="evenodd" fill="#39A9DE" d="M16.147,11.188c1.22,3.778-2.106,7.086-2.69,8.654
	c-0.049,0.123-0.373,0.896-0.389,1.408c-0.053,1.719,1.296,3.152,3.013,3.206c1.524,0.047,2.823-1.012,3.134-2.45
	c0.968-3.201-3.276-11.417-3.229-11.278C16.034,10.868,16.056,10.906,16.147,11.188"/>
<path fill="#96C93D" d="M27.819,13.418c-0.03-0.151-0.061-0.3-0.09-0.446c-0.039-0.144-0.085-0.283-0.126-0.421
	c-0.084-0.275-0.167-0.54-0.244-0.795c-0.188-0.498-0.389-0.944-0.557-1.352c-0.211-0.388-0.398-0.735-0.561-1.036
	c-0.16-0.304-0.348-0.53-0.473-0.729c-0.265-0.39-0.407-0.599-0.407-0.599s0.136,0.212,0.39,0.609
	c0.12,0.202,0.301,0.433,0.451,0.739c0.155,0.304,0.333,0.654,0.531,1.046c0.155,0.41,0.344,0.859,0.516,1.357
	c0.07,0.254,0.143,0.519,0.22,0.794c0.036,0.137,0.078,0.276,0.113,0.419c0.025,0.145,0.05,0.293,0.077,0.443
	c0.251,1.192,0.306,2.583,0.14,4.063c-0.17,1.482-0.604,3.063-1.378,4.581c-0.77,1.517-1.889,2.962-3.298,4.144
	c-1.425,1.199-3.125,2.123-4.984,2.644c-1.854,0.525-3.847,0.643-5.77,0.332c-1.92-0.332-3.755-1.085-5.319-2.169
	c-0.193-0.14-0.401-0.257-0.58-0.412l-0.542-0.456c-0.378-0.29-0.673-0.639-0.997-0.96l-0.238-0.241l-0.227-0.281
	c-0.149-0.189-0.299-0.378-0.448-0.565l-0.112-0.14l-0.056-0.07l-0.025-0.034l-0.01-0.015l-0.184-0.288
	C3.509,23.391,3.387,23.2,3.265,23.01c-0.933-1.544-1.5-3.222-1.729-4.848c-0.233-1.627-0.132-3.196,0.172-4.588
	c0.31-1.391,0.786-2.624,1.379-3.614c0.069-0.126,0.138-0.251,0.205-0.373c0.075-0.117,0.156-0.228,0.231-0.34
	c0.151-0.222,0.298-0.436,0.438-0.642c0.307-0.392,0.612-0.735,0.874-1.053C5.122,7.274,5.376,7.026,5.598,6.81
	C5.699,6.7,5.829,6.602,5.943,6.513c0.113-0.09,0.217-0.172,0.309-0.246c0.044-0.034,0.077-0.06,0.116-0.091
	C6.497,6.266,6.678,6.271,6.81,6.168l0.377-0.296C7.342,5.75,7.568,5.769,7.694,5.913C7.801,6.036,7.987,6.07,8.138,5.994
	l2.432-1.22c0.204-0.102,0.259-0.354,0.115-0.52l-0.521-0.597l1.903-1.574L11.691,1.63L9.777,3.213L9.367,2.743L9.323,2.694
	L8.746,2.031l1.907-1.578L10.277,0L8.358,1.588L8.004,1.183c-0.145-0.166-0.416-0.162-0.56,0.01l-1.72,2.037
	C5.618,3.355,5.618,3.535,5.726,3.658c0.125,0.144,0.102,0.359-0.053,0.48L5.296,4.434c-0.139,0.109-0.165,0.291-0.08,0.431
	C5.194,4.884,5.176,4.899,5.151,4.92C5.061,4.996,4.96,5.08,4.85,5.173C4.738,5.267,4.617,5.362,4.485,5.504
	C4.224,5.771,3.924,6.079,3.587,6.423C3.297,6.79,2.964,7.187,2.632,7.639C2.479,7.875,2.32,8.122,2.155,8.376
	C2.075,8.504,1.988,8.632,1.907,8.768c-0.072,0.139-0.145,0.281-0.22,0.425c-0.633,1.133-1.132,2.527-1.433,4.087
	c-0.297,1.559-0.359,3.303-0.053,5.093c0.302,1.789,0.978,3.615,2.042,5.272c0.139,0.202,0.277,0.406,0.417,0.611l0.21,0.31
	l0.013,0.019l0.033,0.041l0.028,0.033l0.058,0.068l0.115,0.138c0.154,0.185,0.309,0.366,0.463,0.553l0.235,0.276l0.275,0.27
	c0.373,0.355,0.727,0.743,1.138,1.042l0.601,0.479c0.199,0.159,0.426,0.284,0.639,0.428c1.721,1.125,3.713,1.876,5.769,2.172
	c2.059,0.273,4.167,0.091,6.106-0.515c1.939-0.6,3.708-1.634,5.132-2.899c1.449-1.281,2.56-2.813,3.311-4.396
	c0.756-1.587,1.154-3.218,1.287-4.732C28.202,16.025,28.106,14.617,27.819,13.418"/>
</svg>
