<?xml version="1.0" encoding="utf-8"?>
<!-- Generator: Adobe Illustrator 15.0.0, SVG Export Plug-In . SVG Version: 6.00 Build 0)  -->
<!DOCTYPE svg PUBLIC "-//W3C//DTD SVG 1.1//EN" "http://www.w3.org/Graphics/SVG/1.1/DTD/svg11.dtd">
<svg version="1.1" id="Layer_1" xmlns="http://www.w3.org/2000/svg" xmlns:xlink="http://www.w3.org/1999/xlink" x="0px" y="0px"
	 width="19px" height="13px" viewBox="0 0 19 13" enable-background="new 0 0 19 13" xml:space="preserve">
<path fill="#39b0d2 " d="M17.043,7.61c-0.047,0.063-0.129,0.104-0.211,0.111c-0.01,0-0.018,0-0.029,0c-0.08,0-0.15-0.019-0.211-0.07
	L9.63,1.846L2.665,7.651c-0.07,0.052-0.152,0.081-0.24,0.07C2.343,7.714,2.262,7.673,2.214,7.61L1.589,6.868
	C1.479,6.735,1.497,6.524,1.63,6.413l7.235-6.027c0.421-0.351,1.104-0.351,1.527,0l2.457,2.055V0.479
	c0-0.181,0.141-0.321,0.32-0.321h1.934c0.182,0,0.322,0.14,0.322,0.321v4.105l2.201,1.829c0.133,0.111,0.152,0.322,0.041,0.455
	L17.043,7.61z M15.426,12.393c0,0.351-0.293,0.643-0.645,0.643h-3.865V9.174H8.341v3.861H4.476c-0.351,0-0.643-0.292-0.643-0.643
	v-4.83c0-0.022,0.011-0.041,0.011-0.063L9.63,2.732L15.414,7.5c0.012,0.021,0.012,0.04,0.012,0.063V12.393z"/>
</svg>
