<?xml version="1.0" encoding="UTF-8"?>
<!-- Generator: Adobe Illustrator 15.0.0, SVG Export Plug-In . SVG Version: 6.00 Build 0)  -->
<!DOCTYPE svg PUBLIC "-//W3C//DTD SVG 1.1//EN" "http://www.w3.org/Graphics/SVG/1.1/DTD/svg11.dtd">
<svg version="1.1" id="Layer_1" xmlns="http://www.w3.org/2000/svg" xmlns:xlink="http://www.w3.org/1999/xlink" x="0px" y="0px" width="42px" height="41px" viewBox="0 0 42 41" enable-background="new 0 0 42 41" xml:space="preserve">
<path fill="#39b0d2 " d="M20.437,36.651c-8.909,0-16.159-7.247-16.159-16.157c0-8.911,7.25-16.159,16.159-16.159  c8.91,0,16.158,7.248,16.158,16.159C36.595,29.404,29.347,36.651,20.437,36.651 M20.437,6.441c-7.75,0-14.053,6.303-14.053,14.053  c0,7.747,6.304,14.052,14.053,14.052s14.054-6.305,14.054-14.052C34.491,12.744,28.187,6.441,20.437,6.441"/>
<path fill="#39b0d2 " d="M20.437,10.99c-0.582,0-1.053-0.47-1.053-1.052V1.052c0-0.58,0.472-1.052,1.053-1.052  c0.581,0,1.051,0.472,1.051,1.052v8.885C21.488,10.52,21.018,10.99,20.437,10.99"/>
<path fill="#39b0d2 " d="M20.437,40.872c-0.582,0-1.053-0.471-1.053-1.052v-8.884c0-0.583,0.472-1.053,1.053-1.053  c0.581,0,1.051,0.47,1.051,1.053v8.884C21.488,40.401,21.018,40.872,20.437,40.872"/>
<path fill="#39b0d2 " d="M9.938,21.487H1.052C0.471,21.487,0,21.018,0,20.436c0-0.58,0.471-1.053,1.052-1.053h8.886  c0.582,0,1.053,0.473,1.053,1.053C10.992,21.018,10.52,21.487,9.938,21.487"/>
<path fill="#39b0d2 " d="M39.821,21.487h-8.885c-0.581,0-1.053-0.47-1.053-1.051c0-0.58,0.472-1.053,1.053-1.053h8.885  c0.581,0,1.053,0.473,1.053,1.053C40.874,21.018,40.402,21.487,39.821,21.487"/>
</svg>