<?xml version="1.0" encoding="utf-8"?>
<!-- Generator: Adobe Illustrator 15.0.0, SVG Export Plug-In . SVG Version: 6.00 Build 0)  -->
<!DOCTYPE svg PUBLIC "-//W3C//DTD SVG 1.1//EN" "http://www.w3.org/Graphics/SVG/1.1/DTD/svg11.dtd">
<svg version="1.1" id="Layer_1" xmlns="http://www.w3.org/2000/svg" xmlns:xlink="http://www.w3.org/1999/xlink" x="0px" y="0px"
	 width="20px" height="27px" viewBox="0 0 20 27" enable-background="new 0 0 20 27" xml:space="preserve">
<path fill="#FFFFFF" d="M10.022,0c-4.921,0-9.009,3.551-9.85,8.229c-0.2,0.993-0.22,1.982-0.089,2.965
	c0.126,1.073,0.422,2.095,0.861,3.039c0.036,0.086,0.071,0.172,0.109,0.257c1.526,3.411,3.734,6.368,6.121,9.206
	c0.899,1.068,1.851,2.095,2.78,3.141h0.102c0.616-0.691,1.236-1.376,1.851-2.07c2.353-2.664,4.534-5.455,6.227-8.596
	c0.261-0.486,0.509-0.977,0.735-1.473c0.742-1.399,1.164-2.993,1.164-4.687C20.032,4.482,15.55,0,10.022,0 M10.093,16.85
	c-3.677,0.037-6.745-2.954-6.778-6.607c-0.034-3.723,2.916-6.72,6.655-6.76c3.68-0.041,6.678,2.922,6.719,6.637
	C16.73,13.751,13.729,16.814,10.093,16.85"/>
<path fill="#FFFFFF" d="M10.58,9.131V6.853c0.377,0.164,0.609,0.474,0.699,0.933l1.477-0.192c-0.104-0.583-0.334-1.049-0.701-1.397
	c-0.365-0.348-0.856-0.558-1.474-0.632V4.987H9.734v0.578C9.066,5.63,8.53,5.88,8.128,6.313C7.726,6.748,7.524,7.282,7.524,7.919
	c0,0.63,0.178,1.165,0.534,1.606c0.355,0.441,0.914,0.77,1.676,0.988v2.443c-0.21-0.102-0.4-0.265-0.572-0.491
	c-0.171-0.225-0.288-0.493-0.35-0.805l-1.521,0.164c0.117,0.766,0.385,1.358,0.805,1.777c0.419,0.42,0.966,0.67,1.638,0.752v1.062
	h0.845v-1.089c0.758-0.109,1.351-0.405,1.774-0.888c0.426-0.481,0.64-1.074,0.64-1.778c0-0.629-0.169-1.145-0.509-1.547
	C12.148,9.712,11.514,9.385,10.58,9.131 M9.734,8.852C9.481,8.744,9.293,8.601,9.168,8.424C9.045,8.248,8.982,8.056,8.982,7.85
	c0-0.226,0.067-0.431,0.204-0.618c0.136-0.186,0.319-0.319,0.548-0.396V8.852z M11.292,12.633c-0.185,0.216-0.421,0.351-0.712,0.405
	v-2.274c0.35,0.101,0.602,0.246,0.754,0.435c0.154,0.189,0.23,0.413,0.23,0.673C11.564,12.164,11.475,12.417,11.292,12.633"/>
</svg>
