<?xml version="1.0" encoding="utf-8"?>
<!-- Generator: Adobe Illustrator 15.0.0, SVG Export Plug-In . SVG Version: 6.00 Build 0)  -->
<!DOCTYPE svg PUBLIC "-//W3C//DTD SVG 1.1//EN" "http://www.w3.org/Graphics/SVG/1.1/DTD/svg11.dtd">
<svg version="1.1" id="Layer_1" xmlns="http://www.w3.org/2000/svg" xmlns:xlink="http://www.w3.org/1999/xlink" x="0px" y="0px"
	 width="13px" height="18px" viewBox="0 0 13 18" enable-background="new 0 0 13 18" xml:space="preserve">
<path fill="#39b0d2 " d="M10.24,5.902v-5.03c0-0.28-0.229-0.507-0.508-0.507H8.494c-0.277,0-0.504,0.227-0.504,0.507v5.03H5.012
	v-5.03c0-0.28-0.229-0.507-0.507-0.507H3.269c-0.28,0-0.506,0.227-0.506,0.507v5.03H0.496v5.728c0,1.855,1.519,3.375,3.375,3.375
	h0.281v2.63H8.84v-2.63h0.293c1.852,0,3.371-1.52,3.371-3.375V5.902H10.24z M5.111,13.358l0.755-2.605h-1.03l3.051-3.342
	l-0.753,2.606h1.03L5.111,13.358z"/>
</svg>
