<?xml version="1.0" encoding="utf-8"?>
<!-- Generator: Adobe Illustrator 15.0.0, SVG Export Plug-In . SVG Version: 6.00 Build 0)  -->
<!DOCTYPE svg PUBLIC "-//W3C//DTD SVG 1.1//EN" "http://www.w3.org/Graphics/SVG/1.1/DTD/svg11.dtd">
<svg version="1.1" id="Layer_1" xmlns="http://www.w3.org/2000/svg" xmlns:xlink="http://www.w3.org/1999/xlink" x="0px" y="0px"
	 width="24px" height="23px" viewBox="0 0 24 23" enable-background="new 0 0 24 23" xml:space="preserve">
<path fill="#39b0d2 " d="M21.023,8.282c-1.502-4.94-6.743-7.736-11.682-6.234C7.059,2.743,5.147,4.262,3.957,6.327
	C3.729,6.719,3.228,6.854,2.834,6.627C2.442,6.401,2.307,5.899,2.533,5.506c1.4-2.428,3.648-4.213,6.33-5.029
	c5.806-1.766,11.966,1.521,13.731,7.327"/>
<polygon fill="#39b0d2 " points="2.021,8.394 0,3 7.625,7.069 "/>
<path fill="#39b0d2 " d="M3.015,13.788c1.502,4.94,6.743,7.736,11.682,6.234c2.282-0.694,4.194-2.213,5.385-4.278
	c0.228-0.393,0.729-0.527,1.122-0.301s0.527,0.729,0.301,1.121c-1.399,2.428-3.647,4.213-6.329,5.029
	C9.37,23.359,3.209,20.072,1.443,14.266"/>
<polygon fill="#39b0d2 " points="22.018,13.678 24.039,19.07 16.414,15.002 "/>
<path fill="#02a393" d="M12.349,16.705h-0.603v-1.236c-0.816-0.092-1.425-0.27-1.827-0.534c-0.708-0.477-1.057-1.289-1.044-2.437
	h1.678c0.058,0.522,0.138,0.872,0.242,1.051c0.162,0.278,0.479,0.458,0.951,0.541v-2.654l-0.503-0.148
	c-0.792-0.232-1.35-0.555-1.675-0.97C9.243,9.903,9.081,9.404,9.081,8.82c0-0.385,0.063-0.735,0.189-1.05
	c0.127-0.315,0.304-0.586,0.532-0.814c0.294-0.294,0.621-0.497,0.982-0.609c0.219-0.071,0.54-0.123,0.963-0.155V5.365h0.603v0.839
	c0.672,0.053,1.2,0.219,1.583,0.497c0.696,0.443,1.058,1.162,1.083,2.156H13.38c-0.032-0.369-0.094-0.638-0.185-0.808
	c-0.154-0.293-0.438-0.456-0.847-0.484v2.367c0.981,0.34,1.642,0.64,1.979,0.901c0.557,0.434,0.835,1.047,0.835,1.839
	c0,1.044-0.383,1.802-1.149,2.274c-0.468,0.29-1.023,0.46-1.665,0.51V16.705z M11.746,7.577c-0.36,0.009-0.627,0.105-0.802,0.289
	c-0.174,0.185-0.261,0.436-0.261,0.755c0,0.348,0.13,0.623,0.391,0.826c0.145,0.112,0.369,0.216,0.671,0.312V7.577z M12.349,14.07
	c0.323-0.041,0.56-0.116,0.707-0.224c0.258-0.19,0.387-0.52,0.387-0.987c0-0.356-0.12-0.639-0.362-0.845
	c-0.144-0.121-0.388-0.245-0.731-0.374V14.07z"/>
</svg>
