<?xml version="1.0" encoding="UTF-8"?>
<!-- Generator: Adobe Illustrator 15.0.0, SVG Export Plug-In . SVG Version: 6.00 Build 0)  -->
<!DOCTYPE svg PUBLIC "-//W3C//DTD SVG 1.1//EN" "http://www.w3.org/Graphics/SVG/1.1/DTD/svg11.dtd">
<svg version="1.1" id="Layer_1" xmlns="http://www.w3.org/2000/svg" xmlns:xlink="http://www.w3.org/1999/xlink" x="0px" y="0px" width="28px" height="30px" viewBox="0 0 28 30" enable-background="new 0 0 28 30" xml:space="preserve">
<path fill="#39b0d2 " d="M13.412,30C6.568,30,1,24.433,1,17.587C1,10.743,6.568,5.174,13.412,5.174c0.503,0,0.912,0.408,0.912,0.912  s-0.409,0.912-0.912,0.912c-5.838,0-10.589,4.751-10.589,10.59c0,5.838,4.751,10.589,10.589,10.589  c5.839,0,10.59-4.751,10.59-10.589c0-0.503,0.408-0.911,0.912-0.911s0.911,0.408,0.911,0.911C25.825,24.433,20.257,30,13.412,30"/>
<path fill="#39b0d2 " d="M24.914,18.498c-0.504,0-0.911-0.407-0.911-0.911c0-2.594-0.947-5.09-2.667-7.025  C21,10.185,21.034,9.608,21.411,9.273c0.376-0.335,0.954-0.301,1.287,0.077c2.017,2.271,3.126,5.196,3.126,8.237  C25.824,18.091,25.417,18.498,24.914,18.498"/>
<path fill="#39b0d2 " d="M13.412,11.7c-0.127,0-0.256-0.026-0.376-0.083c-0.332-0.15-0.542-0.482-0.535-0.846l0.169-9.405  c0.007-0.364,0.229-0.688,0.565-0.827c0.335-0.138,0.722-0.063,0.982,0.191l4.911,4.793c0.181,0.176,0.279,0.417,0.274,0.669  c-0.004,0.251-0.111,0.49-0.298,0.658l-5.081,4.612C13.854,11.619,13.634,11.7,13.412,11.7 M14.456,3.51l-0.094,5.184l2.801-2.542  L14.456,3.51z"/>
</svg>