<?xml version="1.0" encoding="utf-8"?>
<!-- Generator: Adobe Illustrator 15.0.0, SVG Export Plug-In . SVG Version: 6.00 Build 0)  -->
<!DOCTYPE svg PUBLIC "-//W3C//DTD SVG 1.1//EN" "http://www.w3.org/Graphics/SVG/1.1/DTD/svg11.dtd">
<svg version="1.1" id="Layer_1" xmlns="http://www.w3.org/2000/svg" xmlns:xlink="http://www.w3.org/1999/xlink" x="0px" y="0px"
	 width="36px" height="47px" viewBox="0 0 36 47" enable-background="new 0 0 36 47" xml:space="preserve">
<path fill="#39b0d2 " d="M18.063,1C9.686,1,2.725,7.046,1.293,15.012c-0.34,1.692-0.375,3.374-0.152,5.047
	c0.215,1.829,0.719,3.569,1.467,5.173c0.062,0.146,0.12,0.291,0.185,0.437C5.392,31.48,9.15,36.516,13.216,41.345
	c1.531,1.821,3.152,3.566,4.732,5.345h0.173c1.051-1.174,2.107-2.343,3.149-3.521c4.008-4.539,7.724-9.289,10.604-14.638
	c0.444-0.826,0.867-1.66,1.253-2.508c1.264-2.381,1.981-5.095,1.981-7.978C35.108,8.631,27.478,1,18.063,1"/>
<path fill="#FFFFFF" d="M17.976,6.929c6.266-0.068,11.374,4.975,11.444,11.3c0.069,6.184-5.043,11.4-11.234,11.463
	c-6.261,0.063-11.484-5.031-11.541-11.254C6.587,12.099,11.609,6.998,17.976,6.929"/>
<path fill="#02a393" d="M17.889,19.787c0.049,0.152,0.141,0.279,0.275,0.378c0.134,0.102,0.308,0.161,0.521,0.181l-0.483-1.488
	c-0.151,0.112-0.254,0.253-0.31,0.424C17.836,19.453,17.834,19.62,17.889,19.787 M19.766,21.555l0.545,1.677
	c0.202-0.109,0.345-0.266,0.428-0.469s0.09-0.412,0.02-0.628c-0.062-0.191-0.173-0.339-0.331-0.441
	C20.268,21.593,20.048,21.546,19.766,21.555 M18.753,12.787c0.525-1.451,0.936-3.172,0.426-4.166
	c-0.236-0.459-0.649-0.744-1.198-0.823c-0.657-0.094-1.278,0.133-1.795,0.657c-1.026,1.038-1.389,2.924-1.248,3.83
	c0.034,0.214,0.234,0.361,0.449,0.327c0.211-0.034,0.36-0.233,0.327-0.448c-0.117-0.745,0.228-2.346,1.031-3.158
	c0.343-0.35,0.712-0.491,1.126-0.432c0.296,0.043,0.49,0.171,0.609,0.404c0.644,1.256-0.874,4.716-1.514,5.943
	c-0.1,0.193-0.025,0.429,0.167,0.529c0.098,0.051,0.206,0.058,0.302,0.026c0.095-0.031,0.178-0.097,0.227-0.191
	c0.067-0.128,0.266-0.52,0.507-1.058c0.139,0.133,0.248,0.301,0.311,0.496c0.21,0.644-0.143,1.337-0.787,1.546
	c-0.644,0.209-1.336-0.144-1.545-0.788c-0.156-0.481,0.001-0.989,0.36-1.303c0.248-0.508,0.504-1.097,0.733-1.703l-0.836-0.172
	l-4.185,4.583l3.86,11.882l10.263-3.333l-3.859-11.883L18.753,12.787z M21.717,23.104c-0.198,0.457-0.564,0.817-1.098,1.08
	l0.261,0.804l-0.622,0.203l-0.255-0.783c-0.516,0.101-0.979,0.046-1.389-0.163s-0.75-0.582-1.02-1.118l1.083-0.485
	c0.121,0.215,0.271,0.385,0.451,0.51c0.181,0.125,0.36,0.2,0.54,0.225l-0.585-1.803c-0.615,0.021-1.105-0.087-1.475-0.328
	c-0.368-0.24-0.627-0.593-0.778-1.058c-0.152-0.47-0.133-0.913,0.061-1.329c0.193-0.417,0.527-0.729,1.005-0.938l-0.139-0.425
	l0.624-0.202l0.138,0.426c0.474-0.094,0.888-0.056,1.24,0.113s0.636,0.457,0.851,0.862l-1.043,0.497
	c-0.176-0.318-0.422-0.491-0.739-0.521l0.546,1.681c0.749-0.036,1.296,0.053,1.642,0.269c0.346,0.216,0.595,0.556,0.744,1.021
	C21.931,22.158,21.915,22.646,21.717,23.104"/>
</svg>
