<?xml version="1.0" encoding="utf-8"?>
<!-- Generator: Adobe Illustrator 15.0.0, SVG Export Plug-In . SVG Version: 6.00 Build 0)  -->
<!DOCTYPE svg PUBLIC "-//W3C//DTD SVG 1.1//EN" "http://www.w3.org/Graphics/SVG/1.1/DTD/svg11.dtd">
<svg version="1.1" id="Layer_1" xmlns="http://www.w3.org/2000/svg" xmlns:xlink="http://www.w3.org/1999/xlink" x="0px" y="0px"
	 width="22px" height="20px" viewBox="0 0 22 20" enable-background="new 0 0 22 20" xml:space="preserve">
<path fill-rule="evenodd" clip-rule="evenodd" fill="#ffffff" d="M1.1,19.407c-0.013-0.068-0.038-0.137-0.038-0.205
	c-0.002-2.438-0.002-4.878,0.001-7.316c0-0.095,0.018-0.195,0.055-0.282c0.831-2.002,1.667-4.002,2.5-6.003
	c0.671-1.61,1.341-3.221,2.007-4.833c0.052-0.126,0.116-0.175,0.257-0.174c1.017,0.006,2.034,0.007,3.052,0
	C9.11,0.592,9.161,0.649,9.152,0.818c-0.013,0.24-0.012,0.483,0,0.724C9.16,1.708,9.114,1.769,8.935,1.766
	C8.296,1.755,7.657,1.768,7.018,1.757C6.863,1.755,6.792,1.802,6.731,1.945c-0.973,2.31-1.952,4.616-2.93,6.924
	c-0.38,0.899-0.761,1.799-1.14,2.699c-0.015,0.035-0.025,0.071-0.048,0.137h0.245c1.532,0,3.065,0.002,4.597-0.003
	c0.147-0.001,0.236,0.041,0.319,0.166c0.349,0.519,0.712,1.028,1.064,1.545c0.069,0.102,0.142,0.147,0.269,0.146
	c1.259-0.004,2.518-0.005,3.776,0c0.135,0.002,0.211-0.048,0.284-0.155c0.352-0.518,0.715-1.027,1.063-1.546
	c0.08-0.118,0.166-0.156,0.304-0.156c1.533,0.005,3.065,0.003,4.598,0.003h0.257c-0.069-0.176-0.125-0.327-0.188-0.475
	c-1.305-3.081-2.613-6.16-3.913-9.243c-0.075-0.18-0.166-0.236-0.357-0.231c-0.619,0.014-1.239,0-1.858,0.009
	c-0.167,0.003-0.236-0.037-0.227-0.216c0.014-0.26,0.008-0.521,0.002-0.782c-0.003-0.126,0.042-0.172,0.17-0.172
	c1.051,0.003,2.1-0.001,3.149,0.008c0.065,0.001,0.164,0.076,0.19,0.14c0.683,1.626,1.356,3.256,2.035,4.884
	c0.827,1.989,1.658,3.977,2.483,5.967c0.041,0.099,0.059,0.214,0.059,0.321c0.003,2.498,0.003,4.994,0.003,7.492H1.1z"/>
<path fill-rule="evenodd" clip-rule="evenodd" fill="#ffffff" d="M10.188,11.534V5.21H7.897c-0.01-0.019-0.019-0.037-0.028-0.056
	c1.182-1.347,2.364-2.694,3.57-4.069c1.199,1.367,2.382,2.714,3.607,4.109h-2.354v6.34H10.188z"/>
</svg>
