<?xml version="1.0" encoding="utf-8"?>
<!-- Generator: Adobe Illustrator 15.0.0, SVG Export Plug-In . SVG Version: 6.00 Build 0)  -->
<!DOCTYPE svg PUBLIC "-//W3C//DTD SVG 1.1//EN" "http://www.w3.org/Graphics/SVG/1.1/DTD/svg11.dtd">
<svg version="1.1" id="Layer_1" xmlns="http://www.w3.org/2000/svg" xmlns:xlink="http://www.w3.org/1999/xlink" x="0px" y="0px"
	 width="17px" height="20px" viewBox="0 0 17 20" enable-background="new 0 0 17 20" xml:space="preserve">
<line fill="none" x1="1908" y1="42" x2="-1892" y2="42"/>
<line fill="none" x1="1908" y1="42" x2="-1892" y2="42"/>
<line fill="none" x1="1908" y1="42" x2="-1892" y2="42"/>
<line fill="none" x1="1908" y1="42" x2="-1892" y2="42"/>
<line fill="none" x1="1908" y1="42" x2="-1892" y2="42"/>
<line fill="none" x1="1908" y1="42" x2="-1892" y2="42"/>
<line fill="none" x1="1908" y1="42" x2="-1892" y2="42"/>
<line fill="none" x1="1908" y1="42" x2="-1892" y2="42"/>
<path fill-rule="evenodd" clip-rule="evenodd" fill="#02a393" d="M-1457.6,31.638h31.668c0.53-12.382,1.055-24.677,1.586-37.033
	h-34.839C-1458.653,7.057-1458.127,19.32-1457.6,31.638"/>
<path fill-rule="evenodd" clip-rule="evenodd" fill="#39b0d2 " d="M-1419.612-11.98c-0.005-0.267-0.121-0.688-0.275-0.767
	c-1.815-0.916-3.383-2.624-5.519-2.526c-1.724,0.077-3.452,0.016-5.208,0.016c-0.057-0.501-0.098-0.799-0.125-1.098
	c-0.379-4.08-2.671-6.668-6.007-6.701c-3.401-0.035-6.802-0.062-10.202,0.005c-2.511,0.048-4.363,1.543-5.388,4.382
	c-0.363,1.004-0.445,2.161-0.69,3.432c-1.113,0-2.203,0.142-3.261-0.027c-2.58-0.411-4.801,0.701-6.941,2.245
	c-0.283,0.204-0.662,0.588-0.677,0.913c-0.073,1.511-0.033,3.03-0.033,4.538h44.339C-1419.6-9.119-1419.585-10.551-1419.612-11.98
	 M-1449.659-15.366c0.05-2.455,1.064-3.849,2.865-3.879c3.314-0.055,6.628-0.058,9.943-0.013c1.915,0.027,2.96,1.413,2.978,3.892
	H-1449.659z"/>
<line fill="none" x1="1908" y1="42" x2="-1892" y2="42"/>
<line fill="none" x1="1908" y1="42" x2="-1892" y2="42"/>
<line fill="none" x1="1908" y1="42" x2="-1892" y2="42"/>
<line fill="none" x1="1908" y1="42" x2="-1892" y2="42"/>
<line fill="none" x1="1908" y1="42" x2="-1892" y2="42"/>
<line fill="none" x1="1908" y1="42" x2="-1892" y2="42"/>
<line fill="none" x1="1908" y1="42" x2="-1892" y2="42"/>
<line fill="none" x1="1908" y1="42" x2="-1892" y2="42"/>
<line fill="none" x1="1908" y1="42" x2="-1892" y2="42"/>
<path fill-rule="evenodd" clip-rule="evenodd" fill="#02a393" d="M-1457.6,31.638h31.668c0.53-12.382,1.055-24.677,1.586-37.033
	h-34.839C-1458.653,7.057-1458.127,19.32-1457.6,31.638"/>
<path fill-rule="evenodd" clip-rule="evenodd" fill="#39b0d2 " d="M-1419.612-11.98c-0.005-0.267-0.121-0.688-0.275-0.767
	c-1.815-0.916-3.383-2.624-5.519-2.526c-1.724,0.077-3.452,0.016-5.208,0.016c-0.057-0.501-0.098-0.799-0.125-1.098
	c-0.379-4.08-2.671-6.668-6.007-6.701c-3.401-0.035-6.802-0.062-10.202,0.005c-2.511,0.048-4.363,1.543-5.388,4.382
	c-0.363,1.004-0.445,2.161-0.69,3.432c-1.113,0-2.203,0.142-3.261-0.027c-2.58-0.411-4.801,0.701-6.941,2.245
	c-0.283,0.204-0.662,0.588-0.677,0.913c-0.073,1.511-0.033,3.03-0.033,4.538h44.339C-1419.6-9.119-1419.585-10.551-1419.612-11.98
	 M-1449.659-15.366c0.05-2.455,1.064-3.849,2.865-3.879c3.314-0.055,6.628-0.058,9.943-0.013c1.915,0.027,2.96,1.413,2.978,3.892
	H-1449.659z"/>
<line fill="none" x1="1908" y1="42" x2="-1892" y2="42"/>
<path fill-rule="evenodd" clip-rule="evenodd" fill="#02a393" d="M2.811,19.638h10.837c0.182-4.237,0.361-8.445,0.543-12.674H2.269
	C2.45,11.226,2.63,15.422,2.811,19.638"/>
<path fill-rule="evenodd" clip-rule="evenodd" fill="#39b0d2 " d="M15.812,4.71c-0.002-0.091-0.042-0.236-0.094-0.263
	c-0.622-0.313-1.158-0.898-1.89-0.864c-0.59,0.026-1.181,0.005-1.782,0.005c-0.02-0.172-0.033-0.273-0.043-0.376
	c-0.129-1.396-0.914-2.282-2.056-2.293C8.784,0.908,7.62,0.898,6.456,0.921c-0.859,0.016-1.493,0.528-1.844,1.5
	C4.488,2.765,4.46,3.161,4.376,3.595c-0.381,0-0.754,0.048-1.116-0.009c-0.883-0.141-1.643,0.24-2.375,0.769
	c-0.097,0.07-0.227,0.201-0.231,0.313C0.628,5.184,0.642,5.704,0.642,6.22h15.174C15.815,5.689,15.82,5.2,15.812,4.71 M5.528,3.552
	c0.017-0.84,0.364-1.317,0.98-1.328c1.134-0.019,2.269-0.02,3.402-0.004c0.655,0.009,1.014,0.483,1.02,1.332H5.528z"/>
</svg>
