<?xml version="1.0" encoding="utf-8"?>
<!-- Generator: Adobe Illustrator 15.0.0, SVG Export Plug-In . SVG Version: 6.00 Build 0)  -->
<!DOCTYPE svg PUBLIC "-//W3C//DTD SVG 1.1//EN" "http://www.w3.org/Graphics/SVG/1.1/DTD/svg11.dtd">
<svg version="1.1" id="Layer_1" xmlns="http://www.w3.org/2000/svg" xmlns:xlink="http://www.w3.org/1999/xlink" x="0px" y="0px"
	 width="40px" height="40px" viewBox="0 0 40 40" enable-background="new 0 0 40 40" xml:space="preserve">
<path fill="#828282" d="M6.977,26.88l-1.021,5.245H1.63L6.604,9.171h5.346l4.462,22.954h-4.325l-0.988-5.245H6.977z M10.689,23.406
	l-0.749-4.801c-0.239-1.397-0.545-3.679-0.75-5.211H9.088c-0.238,1.532-0.579,3.917-0.816,5.245l-0.853,4.767H10.689z"/>
<path fill="#828282" d="M32.964,24.088c-0.104-2.18-0.272-5.143-0.204-7.595h-0.103c-0.409,2.453-1.021,5.28-1.465,7.05
	l-1.976,8.207H26.05l-1.907-8.071c-0.441-1.838-1.056-4.7-1.396-7.186h-0.102c-0.068,2.486-0.204,5.381-0.341,7.663l-0.374,7.97
	h-3.849L19.75,9.171h4.7l1.839,8.309c0.647,2.895,1.227,5.449,1.635,8.037h0.068c0.341-2.554,0.852-5.142,1.465-8.037l1.805-8.309
	h4.699l1.397,22.954h-3.984L32.964,24.088z"/>
</svg>
