<?xml version="1.0" encoding="utf-8"?>
<!-- Generator: Adobe Illustrator 15.0.0, SVG Export Plug-In . SVG Version: 6.00 Build 0)  -->
<!DOCTYPE svg PUBLIC "-//W3C//DTD SVG 1.1//EN" "http://www.w3.org/Graphics/SVG/1.1/DTD/svg11.dtd">
<svg version="1.1" id="Layer_1" xmlns="http://www.w3.org/2000/svg" xmlns:xlink="http://www.w3.org/1999/xlink" x="0px" y="0px"
	 width="40px" height="40px" viewBox="0 0 40 40" enable-background="new 0 0 40 40" xml:space="preserve">
<path fill="#828282" d="M4.225,10.036c1.206-0.261,2.836-0.423,4.466-0.423c2.542,0,4.531,0.357,5.966,1.695
	c1.304,1.141,1.891,2.966,1.891,4.824c0,2.38-0.717,4.043-1.858,5.28c-1.37,1.436-3.586,2.088-5.347,2.088H8.496v8.183H4.225V10.036
	z M8.496,20.013c0.196,0.065,0.424,0.065,0.685,0.065c2.151,0,3.13-1.532,3.13-3.586c0-1.924-0.783-3.424-2.771-3.424
	c-0.391,0-0.782,0.065-1.043,0.163V20.013z"/>
<path fill="#828282" d="M30.794,23.99c-0.098-2.087-0.261-4.923-0.195-7.271h-0.098c-0.393,2.348-0.979,5.053-1.401,6.749
	l-1.892,7.856h-3.032l-1.825-7.727c-0.423-1.761-1.011-4.499-1.337-6.879h-0.098c-0.064,2.38-0.195,5.151-0.326,7.336l-0.358,7.628
	h-3.684l1.598-21.973h4.499l1.76,7.954c0.62,2.771,1.174,5.216,1.564,7.693h0.065c0.326-2.443,0.814-4.922,1.402-7.693l1.729-7.954
	h4.498L35,31.684h-3.814L30.794,23.99z"/>
</svg>
