<?xml version="1.0" encoding="utf-8"?>
<!-- Generator: Adobe Illustrator 15.0.0, SVG Export Plug-In . SVG Version: 6.00 Build 0)  -->
<!DOCTYPE svg PUBLIC "-//W3C//DTD SVG 1.1//EN" "http://www.w3.org/Graphics/SVG/1.1/DTD/svg11.dtd">
<svg version="1.1" id="Layer_1" xmlns="http://www.w3.org/2000/svg" xmlns:xlink="http://www.w3.org/1999/xlink" x="0px" y="0px"
	 width="15px" height="15px" viewBox="0 0 15 15" enable-background="new 0 0 15 15" xml:space="preserve">
<path fill="#A7A7A7" d="M13.984,13.984c0,0.589-0.486,1.076-1.076,1.076H1.076C0.487,15.061,0,14.573,0,13.984V3.227
	c0-0.588,0.487-1.076,1.076-1.076h1.076V1.345C2.151,0.605,2.756,0,3.496,0h0.538c0.74,0,1.345,0.605,1.345,1.345v0.807h3.227V1.345
	C8.605,0.605,9.211,0,9.951,0h0.537c0.74,0,1.346,0.605,1.346,1.345v0.807h1.074c0.59,0,1.076,0.487,1.076,1.076V13.984z
	 M3.496,7.799v-2.42h-2.42v2.42H3.496z M3.496,11.026V8.338h-2.42v2.688H3.496z M3.496,13.984v-2.42h-2.42v2.42H3.496z M4.303,1.345
	c0-0.143-0.126-0.269-0.269-0.269H3.496c-0.143,0-0.269,0.126-0.269,0.269v2.42c0,0.143,0.126,0.269,0.269,0.269h0.538
	c0.143,0,0.269-0.126,0.269-0.269V1.345z M6.724,7.799v-2.42H4.034v2.42H6.724z M6.724,11.026V8.338H4.034v2.688H6.724z
	 M6.724,13.984v-2.42H4.034v2.42H6.724z M9.951,7.799v-2.42H7.262v2.42H9.951z M9.951,11.026V8.338H7.262v2.688H9.951z
	 M9.951,13.984v-2.42H7.262v2.42H9.951z M10.758,1.345c0-0.143-0.127-0.269-0.27-0.269H9.951c-0.143,0-0.27,0.126-0.27,0.269v2.42
	c0,0.143,0.127,0.269,0.27,0.269h0.537c0.143,0,0.27-0.126,0.27-0.269V1.345z M12.908,7.799v-2.42h-2.42v2.42H12.908z
	 M12.908,11.026V8.338h-2.42v2.688H12.908z M12.908,13.984v-2.42h-2.42v2.42H12.908z"/>
</svg>
