<?xml version="1.0" encoding="utf-8"?>
<!-- Generator: Adobe Illustrator 15.0.0, SVG Export Plug-In . SVG Version: 6.00 Build 0)  -->
<!DOCTYPE svg PUBLIC "-//W3C//DTD SVG 1.1//EN" "http://www.w3.org/Graphics/SVG/1.1/DTD/svg11.dtd">
<svg version="1.1" id="Layer_1" xmlns="http://www.w3.org/2000/svg" xmlns:xlink="http://www.w3.org/1999/xlink" x="0px" y="0px"
	 width="22px" height="20px" viewBox="0 0 22 20" enable-background="new 0 0 22 20" xml:space="preserve">
<path fill="#39b0d2 " d="M10.669,20.109c-5.537,0-10.042-4.504-10.042-10.042c0-5.537,4.505-10.042,10.042-10.042
	c5.536,0,10.042,4.505,10.042,10.042C20.711,15.605,16.205,20.109,10.669,20.109 M10.669,1.36c-4.802,0-8.708,3.906-8.708,8.708
	c0,4.801,3.906,8.708,8.708,8.708c4.802,0,8.708-3.906,8.708-8.708C19.377,5.266,15.471,1.36,10.669,1.36"/>
<path fill="#39b0d2 " d="M5.567,7.873c0-0.375,0.081-0.731,0.245-1.07c0.163-0.338,0.414-0.599,0.75-0.78
	C6.899,5.84,7.296,5.75,7.757,5.75c0.676,0,1.21,0.193,1.6,0.579C9.746,6.714,9.94,7.229,9.94,7.873c0,0.648-0.195,1.164-0.584,1.55
	c-0.39,0.386-0.924,0.579-1.6,0.579c-0.46,0-0.857-0.091-1.194-0.273c-0.336-0.182-0.587-0.442-0.75-0.78
	C5.648,8.609,5.567,8.251,5.567,7.873 M7.117,7.884c0,0.456,0.074,0.787,0.221,0.993c0.096,0.136,0.235,0.204,0.419,0.204
	c0.184,0,0.322-0.068,0.414-0.204c0.147-0.206,0.22-0.537,0.22-0.993c0-0.452-0.073-0.783-0.22-0.992
	C8.079,6.759,7.94,6.692,7.757,6.692c-0.184,0-0.323,0.066-0.419,0.199C7.19,7.098,7.117,7.429,7.117,7.884 M12.432,5.75h1.166
	l-4.671,8.637H7.773L12.432,5.75z M11.396,12.246c0-0.379,0.081-0.735,0.243-1.072c0.162-0.336,0.411-0.597,0.75-0.78
	c0.338-0.184,0.735-0.276,1.19-0.276c0.681,0,1.215,0.194,1.605,0.582c0.391,0.389,0.585,0.904,0.585,1.547
	c0,0.644-0.194,1.159-0.585,1.547c-0.391,0.389-0.925,0.582-1.605,0.582c-0.455,0-0.853-0.092-1.19-0.275
	c-0.339-0.184-0.588-0.444-0.75-0.78C11.478,12.982,11.396,12.625,11.396,12.246 M12.947,12.258c0,0.455,0.072,0.787,0.221,0.992
	c0.091,0.133,0.229,0.198,0.412,0.198c0.185,0,0.324-0.065,0.42-0.198c0.146-0.205,0.221-0.537,0.221-0.992
	c0-0.456-0.074-0.789-0.221-0.998c-0.096-0.133-0.235-0.199-0.42-0.199c-0.184,0-0.321,0.068-0.412,0.204
	C13.02,11.471,12.947,11.802,12.947,12.258"/>
</svg>
