<?xml version="1.0" encoding="utf-8"?>
<!-- Generator: Adobe Illustrator 15.0.0, SVG Export Plug-In . SVG Version: 6.00 Build 0)  -->
<!DOCTYPE svg PUBLIC "-//W3C//DTD SVG 1.1//EN" "http://www.w3.org/Graphics/SVG/1.1/DTD/svg11.dtd">
<svg version="1.1" id="Layer_1" xmlns="http://www.w3.org/2000/svg" xmlns:xlink="http://www.w3.org/1999/xlink" x="0px" y="0px"
	 width="12px" height="18px" viewBox="0 0 12 18" enable-background="new 0 0 12 18" xml:space="preserve">
<path fill-rule="evenodd" clip-rule="evenodd" fill="#FFFFFF" d="M6.053,1c0.951,1.372,1.891,2.681,2.778,4.023
	c0.914,1.385,1.719,2.833,2.229,4.424c0.896,2.802-0.577,6.12-3.231,7.288c-1.789,0.786-3.897,0.343-5.334-1.154
	c-1.386-1.441-1.985-3.185-1.776-5.161C0.84,9.266,1.358,8.22,1.893,7.2c1.112-2.125,2.484-4.08,3.952-5.97
	C5.885,1.177,5.934,1.131,6.053,1 M7.311,16.771c1.997-0.94,3.109-3.238,2.828-4.547C9.45,13.919,8.476,15.404,7.311,16.771"/>
</svg>
