<?xml version="1.0" encoding="utf-8"?>
<!-- Generator: Adobe Illustrator 15.0.0, SVG Export Plug-In . SVG Version: 6.00 Build 0)  -->
<!DOCTYPE svg PUBLIC "-//W3C//DTD SVG 1.1//EN" "http://www.w3.org/Graphics/SVG/1.1/DTD/svg11.dtd">
<svg version="1.1" id="Layer_1" xmlns="http://www.w3.org/2000/svg" xmlns:xlink="http://www.w3.org/1999/xlink" x="0px" y="0px"
	 width="11px" height="14px" viewBox="0 0 11 14" enable-background="new 0 0 11 14" xml:space="preserve">
<path fill="#A7A7A7" d="M10.699,6.319l-3.308,7.035C7.2,13.753,6.783,14,6.347,14c-0.437,0-0.854-0.247-1.037-0.646L1.993,6.319
	c-0.236-0.5-0.3-1.072-0.3-1.626c0-2.573,2.081-4.654,4.654-4.654C8.919,0.039,11,2.12,11,4.692C11,5.247,10.937,5.819,10.699,6.319
	z M6.347,2.365c-1.282,0-2.327,1.045-2.327,2.327s1.045,2.327,2.327,2.327c1.281,0,2.326-1.045,2.326-2.327S7.628,2.365,6.347,2.365
	z"/>
</svg>
