<?xml version="1.0" encoding="utf-8"?>
<!-- Generator: Adobe Illustrator 15.0.0, SVG Export Plug-In . SVG Version: 6.00 Build 0)  -->
<!DOCTYPE svg PUBLIC "-//W3C//DTD SVG 1.1//EN" "http://www.w3.org/Graphics/SVG/1.1/DTD/svg11.dtd">
<svg version="1.1" id="Layer_1" xmlns="http://www.w3.org/2000/svg" xmlns:xlink="http://www.w3.org/1999/xlink" x="0px" y="0px"
	 width="61px" height="61px" viewBox="0 0 61 61" enable-background="new 0 0 61 61" xml:space="preserve">
<circle fill="#FFFFFF" stroke="#39b0d2 " stroke-width="2" stroke-miterlimit="10" cx="30.688" cy="30.688" r="29.063"/>
<path fill="#02a393" d="M39.767,35.171V18.376c0-1.34-1.086-2.426-2.426-2.426h-0.419c-1.34,0-2.426,1.086-2.426,2.426v17.761h2.785
	v10.454c0,0.632,0.513,1.144,1.145,1.144h0.197c0.632,0,1.144-0.512,1.144-1.144V35.171z"/>
<path fill="#02a393" d="M29.59,15.95v9.367h-1.258V15.95h-1.415v9.367h-1.258V15.95h-1.415v9.367h-1.258V15.95h-1.85v10.992
	c0,1.34,1.086,2.426,2.426,2.426h1.482v17.223c0,0.632,0.512,1.144,1.145,1.144h0.197c0.632,0,1.144-0.512,1.144-1.144l0.001-17.223
	h1.482c1.34,0,2.427-1.086,2.427-2.426V15.95H29.59z"/>
</svg>
