<?xml version="1.0" encoding="utf-8"?>
<!-- Generator: Adobe Illustrator 15.0.0, SVG Export Plug-In . SVG Version: 6.00 Build 0)  -->
<!DOCTYPE svg PUBLIC "-//W3C//DTD SVG 1.1//EN" "http://www.w3.org/Graphics/SVG/1.1/DTD/svg11.dtd">
<svg version="1.1" id="Layer_1" xmlns="http://www.w3.org/2000/svg" xmlns:xlink="http://www.w3.org/1999/xlink" x="0px" y="0px"
	 width="36px" height="47px" viewBox="0 0 36 47" enable-background="new 0 0 36 47" xml:space="preserve">
<path fill="#3a4885" d="M18.108,1.047c-8.425,0-15.424,6.08-16.863,14.089c-0.342,1.702-0.377,3.393-0.153,5.075
	c0.216,1.839,0.723,3.588,1.474,5.2c0.062,0.147,0.122,0.294,0.186,0.438c2.613,5.846,6.392,10.907,10.48,15.763
	c1.539,1.831,3.169,3.586,4.758,5.374h0.173c1.057-1.181,2.119-2.356,3.167-3.541c4.028-4.563,7.767-9.341,10.661-14.718
	c0.447-0.831,0.873-1.671,1.26-2.522c1.271-2.393,1.992-5.122,1.992-8.02C35.246,8.72,27.573,1.047,18.108,1.047"/>
<path fill="#FFFFFF" d="M18.02,7.009c6.3-0.069,11.437,5.002,11.507,11.363c0.067,6.217-5.071,11.463-11.296,11.524
	c-6.295,0.063-11.547-5.059-11.604-11.313C6.568,12.208,11.618,7.079,18.02,7.009"/>
<path fill="#efd894" d="M22.972,9.667l-11.793,5.358l0.886,1.95l11.794-5.358L22.972,9.667z M17.366,19.713v3.564l3.11-1.783
	L17.366,19.713z M12.064,26.017h12.953v-9.042H12.064V26.017z M23.461,24.527h-9.838v-6.064h9.838V24.527z"/>
</svg>
