<?xml version="1.0" encoding="utf-8"?>
<!-- Generator: Adobe Illustrator 15.0.0, SVG Export Plug-In . SVG Version: 6.00 Build 0)  -->
<!DOCTYPE svg PUBLIC "-//W3C//DTD SVG 1.1//EN" "http://www.w3.org/Graphics/SVG/1.1/DTD/svg11.dtd">
<svg version="1.1" id="Layer_1" xmlns="http://www.w3.org/2000/svg" xmlns:xlink="http://www.w3.org/1999/xlink" x="0px" y="0px"
	 width="36px" height="47px" viewBox="0 0 36 47" enable-background="new 0 0 36 47" xml:space="preserve">
<path fill="#3a4885" d="M17.902,1.16c-8.283,0-15.164,5.978-16.579,13.853c-0.336,1.672-0.371,3.334-0.15,4.989
	c0.212,1.808,0.71,3.529,1.449,5.115c0.061,0.143,0.12,0.288,0.183,0.43c2.569,5.745,6.284,10.723,10.303,15.497
	c1.514,1.799,3.116,3.523,4.679,5.282h0.17c1.039-1.16,2.083-2.314,3.114-3.481c3.961-4.485,7.634-9.182,10.482-14.47
	c0.439-0.816,0.857-1.641,1.237-2.479c1.249-2.353,1.959-5.037,1.959-7.886C34.751,8.704,27.207,1.16,17.902,1.16"/>
<path fill="#FFFFFF" d="M17.815,7.022c6.195-0.068,11.244,4.918,11.312,11.171c0.069,6.113-4.984,11.27-11.104,11.331
	C11.834,29.585,6.67,24.551,6.613,18.399C6.557,12.132,11.521,7.089,17.815,7.022"/>
<path fill="#efd894" d="M16.663,15.07h3.354c0.339-0.405,0.543-0.952,0.543-1.348c0-0.711-0.466-1.433-1.153-1.433
	c-0.534,0-0.898,0.254-1.035,0.366v-0.314c0.298,0.009,1.316-0.036,1.653-1.065c0,0-2.218-0.62-1.772,0.941v0.402
	c-0.162-0.123-0.507-0.33-0.989-0.33c-0.072,0-0.139,0.01-0.205,0.024c0.001,0.053,0.002,0.106,0.002,0.16
	C17.059,13.45,16.913,14.342,16.663,15.07 M20.817,13.722c0,0.417-0.181,0.927-0.48,1.348h2.195v-2.836l-0.782-0.917v-1.07h0.116
	V9.361h-0.983v0.887h0.132v1.07l-0.893,0.917v0.031C20.563,12.579,20.817,13.165,20.817,13.722 M16.392,15.07
	c0.256-0.716,0.41-1.617,0.41-2.597c0-2.328-0.863-4.215-1.929-4.215c-1.064,0-1.928,1.887-1.928,4.215
	c0,0.981,0.153,1.88,0.41,2.597H16.392z M13.851,10.725h2.102v0.393h-2.102V10.725z M13.851,12.408h2.102V12.8h-2.102V12.408z
	 M13.851,14.087h2.102v0.394h-2.102V14.087z M24.248,14.193l0.381-1.11h-1.583v1.65l0.365,0.339H12.356l0.343-0.373
	c-0.128-0.489-0.215-1.033-0.25-1.616h-1.294l0.375,1.06l-0.856,0.929l1.708,11.834h11.021l1.707-11.834L24.248,14.193z
	 M17.893,21.952c-2.51,0-4.55-2.041-4.55-4.549c0-0.329,0.267-0.597,0.597-0.597c0.33,0,0.597,0.267,0.597,0.597
	c0,1.85,1.505,3.355,3.356,3.355c1.85,0,3.355-1.505,3.355-3.355c0-0.329,0.266-0.597,0.596-0.597c0.329,0,0.596,0.267,0.596,0.597
	C22.44,19.912,20.401,21.952,17.893,21.952"/>
</svg>
