<?xml version="1.0" encoding="utf-8"?>
<!-- Generator: Adobe Illustrator 15.0.0, SVG Export Plug-In . SVG Version: 6.00 Build 0)  -->
<!DOCTYPE svg PUBLIC "-//W3C//DTD SVG 1.1//EN" "http://www.w3.org/Graphics/SVG/1.1/DTD/svg11.dtd">
<svg version="1.1" id="Layer_1" xmlns="http://www.w3.org/2000/svg" xmlns:xlink="http://www.w3.org/1999/xlink" x="0px" y="0px"
	 width="61px" height="61px" viewBox="0 0 61 61" enable-background="new 0 0 61 61" xml:space="preserve">
<circle fill="#FFFFFF" stroke="#3a4885" stroke-width="2" stroke-miterlimit="10" cx="30.688" cy="30.688" r="29.063"/>
<path fill="#efd894" d="M29.541,26.236h5.699c0.575-0.688,0.921-1.617,0.921-2.291c0-1.209-0.79-2.436-1.959-2.436
	c-0.909,0-1.528,0.431-1.76,0.622v-0.534c0.506,0.016,2.237-0.061,2.81-1.811c0,0-3.77-1.054-3.013,1.601v0.683
	c-0.276-0.209-0.86-0.561-1.681-0.561c-0.12,0-0.235,0.016-0.348,0.041c0.002,0.09,0.004,0.181,0.004,0.271
	C30.215,23.481,29.967,24.998,29.541,26.236 M36.6,23.945c0,0.707-0.305,1.575-0.813,2.291h3.729v-4.82l-1.329-1.558v-1.817h0.198
	v-1.508h-1.67v1.508h0.223v1.817l-1.515,1.558v0.052C36.168,22.002,36.6,22.998,36.6,23.945 M29.08,26.236
	c0.437-1.218,0.697-2.748,0.697-4.414c0-3.955-1.467-7.162-3.277-7.162s-3.277,3.207-3.277,7.162c0,1.666,0.261,3.196,0.697,4.414
	H29.08z M24.764,18.85h3.572v0.668h-3.572V18.85z M24.764,21.711h3.572v0.668h-3.572V21.711z M24.764,24.564h3.572v0.668h-3.572
	V24.564z M42.432,24.744l0.646-1.889H40.39v2.805l0.62,0.576H22.223l0.584-0.635c-0.219-0.831-0.365-1.755-0.425-2.746h-2.2
	l0.637,1.803l-1.455,1.578l2.902,20.109h18.729l2.903-20.109L42.432,24.744z M31.631,37.931c-4.264,0-7.731-3.468-7.731-7.731
	c0-0.56,0.454-1.014,1.015-1.014c0.56,0,1.014,0.454,1.014,1.014c0,3.146,2.558,5.703,5.703,5.703c3.145,0,5.703-2.558,5.703-5.703
	c0-0.56,0.453-1.014,1.014-1.014c0.56,0,1.014,0.454,1.014,1.014C39.361,34.463,35.894,37.931,31.631,37.931"/>
</svg>
