<?xml version="1.0" encoding="utf-8"?>
<!-- Generator: Adobe Illustrator 15.0.0, SVG Export Plug-In . SVG Version: 6.00 Build 0)  -->
<!DOCTYPE svg PUBLIC "-//W3C//DTD SVG 1.1//EN" "http://www.w3.org/Graphics/SVG/1.1/DTD/svg11.dtd">
<svg version="1.1" id="Layer_1" xmlns="http://www.w3.org/2000/svg" xmlns:xlink="http://www.w3.org/1999/xlink" x="0px" y="0px"
	 width="61px" height="61px" viewBox="0 0 61 61" enable-background="new 0 0 61 61" xml:space="preserve">
<circle fill="#FFFFFF" stroke="#3a4885" stroke-width="2" stroke-miterlimit="10" cx="30.688" cy="30.688" r="29.063"/>
<path fill="#efd894" d="M40.729,18.293H25.324c-0.386,0-0.698,0.315-0.698,0.699v5.014h-0.72c-1.668,0-3.02,0.565-4.019,1.682
	c-1.31,1.462-1.709,3.572-1.81,5.143c-1.949,0.37-3.425,2.08-3.425,4.139h1.563v1.705c0,0.428,0.346,0.772,0.772,0.772
	s0.771-0.345,0.771-0.772v-1.705h2.2v1.705c0,0.428,0.347,0.772,0.772,0.772s0.771-0.345,0.771-0.772v-1.705h1.579
	c0-2.069-1.491-3.787-3.458-4.145c0.093-1.313,0.419-2.996,1.414-4.107c0.703-0.785,1.641-1.166,2.867-1.166h0.72v5.043
	c0,0.386,0.313,0.699,0.698,0.699h1.025l1.289,11.334h-2.359v1.181h15.494v-1.181h-2.358l1.29-11.334h1.023
	c0.387,0,0.701-0.313,0.701-0.699V18.992C41.43,18.608,41.115,18.293,40.729,18.293 M39.3,28.946c0,0.386-0.315,0.699-0.699,0.699
	H27.453c-0.385,0-0.699-0.313-0.699-0.699V20.64c0-0.384,0.314-0.7,0.699-0.7h11.147c0.384,0,0.699,0.316,0.699,0.7V28.946z"/>
</svg>
