<?xml version="1.0" encoding="utf-8"?>
<!-- Generator: Adobe Illustrator 15.0.0, SVG Export Plug-In . SVG Version: 6.00 Build 0)  -->
<!DOCTYPE svg PUBLIC "-//W3C//DTD SVG 1.1//EN" "http://www.w3.org/Graphics/SVG/1.1/DTD/svg11.dtd">
<svg version="1.1" id="Layer_1" xmlns="http://www.w3.org/2000/svg" xmlns:xlink="http://www.w3.org/1999/xlink" x="0px" y="0px"
	 width="61px" height="61px" viewBox="0 0 61 61" enable-background="new 0 0 61 61" xml:space="preserve">
<circle fill="#FFFFFF" stroke="#3a4885" stroke-width="2" stroke-miterlimit="10" cx="30.688" cy="30.688" r="29.063"/>
<path fill="#efd894" d="M29.289,33.158c0.082,0.255,0.236,0.468,0.462,0.636c0.225,0.17,0.517,0.271,0.874,0.304l-0.813-2.5
	c-0.254,0.189-0.427,0.426-0.52,0.713C29.199,32.596,29.197,32.878,29.289,33.158 M32.441,36.128l0.915,2.817
	c0.34-0.184,0.579-0.446,0.718-0.788c0.141-0.341,0.151-0.691,0.034-1.054c-0.104-0.322-0.29-0.569-0.557-0.742
	C33.285,36.191,32.916,36.113,32.441,36.128 M30.74,21.396c0.881-2.438,1.571-5.328,0.715-6.998
	c-0.396-0.772-1.092-1.25-2.012-1.383c-1.104-0.158-2.147,0.223-3.017,1.104c-1.724,1.744-2.333,4.913-2.097,6.436
	c0.057,0.359,0.394,0.605,0.754,0.549c0.355-0.057,0.605-0.393,0.55-0.752c-0.196-1.252,0.382-3.94,1.731-5.307
	c0.577-0.587,1.196-0.824,1.893-0.725c0.497,0.072,0.822,0.287,1.023,0.68c1.082,2.109-1.469,7.922-2.544,9.984
	c-0.168,0.324-0.043,0.722,0.28,0.89c0.164,0.086,0.346,0.097,0.508,0.043c0.159-0.052,0.299-0.163,0.381-0.321
	c0.112-0.215,0.447-0.873,0.853-1.777c0.233,0.225,0.416,0.506,0.522,0.834c0.353,1.082-0.24,2.246-1.322,2.597
	c-1.082,0.353-2.244-0.241-2.596-1.323c-0.263-0.809,0.002-1.662,0.604-2.189c0.415-0.853,0.847-1.842,1.231-2.861l-1.404-0.289
	l-7.03,7.7l6.483,19.962l17.242-5.6l-6.483-19.963L30.74,21.396z M35.719,38.73c-0.333,0.769-0.948,1.373-1.843,1.813l0.438,1.352
	l-1.048,0.34l-0.427-1.315c-0.866,0.17-1.645,0.079-2.333-0.272c-0.689-0.352-1.261-0.978-1.713-1.879l1.819-0.815
	c0.202,0.36,0.455,0.646,0.758,0.856s0.604,0.336,0.905,0.377l-0.983-3.027c-1.031,0.035-1.856-0.146-2.476-0.551
	c-0.618-0.403-1.054-0.996-1.307-1.776c-0.257-0.79-0.224-1.534,0.101-2.233s0.887-1.225,1.689-1.576l-0.233-0.715l1.048-0.34
	l0.233,0.715c0.795-0.156,1.489-0.094,2.082,0.19c0.593,0.285,1.069,0.769,1.429,1.448l-1.751,0.834
	c-0.295-0.533-0.709-0.824-1.241-0.875l0.918,2.824c1.257-0.062,2.177,0.088,2.758,0.451c0.58,0.362,0.998,0.934,1.251,1.715
	C36.078,37.141,36.053,37.962,35.719,38.73"/>
</svg>
